<?xml version="1.0" encoding="UTF-8"?>
<svg version="1.1" xmlns="http://www.w3.org/2000/svg" width="577" height="433">
<path d="M0 0 C10.89 0 21.78 0 33 0 C34 5 34 5 32.1640625 7.7890625 C30.90722656 9.19285156 30.90722656 9.19285156 29.625 10.625 C26.1494832 14.42600078 26.1494832 14.42600078 24 19 C23.34 19 22.68 19 22 19 C22 19.66 22 20.32 22 21 C28.27 21 34.54 21 41 21 C41.495 23.475 41.495 23.475 42 26 C40.10436102 28.23317724 38.39608553 29.94752755 36.1875 31.8125 C35.34735352 32.56563477 35.34735352 32.56563477 34.49023438 33.33398438 C30.31546556 37 30.31546556 37 28 37 C27.67 37.99 27.34 38.98 27 40 C25.50390625 41.5078125 25.50390625 41.5078125 23.5625 43.125 C20.3962942 45.81233125 17.2705824 48.52984576 14.1875 51.3125 C13.35605469 52.06015625 12.52460938 52.8078125 11.66796875 53.578125 C9.76343389 55.30698534 7.87112628 57.04477473 5.98828125 58.796875 C5.48981689 59.25795654 4.99135254 59.71903809 4.4777832 60.1940918 C3.06520379 61.50212213 1.65748059 62.81539099 0.25 64.12890625 C-2 66 -2 66 -4 66 C-4 66.66 -4 67.32 -4 68 C-5.828125 69.76171875 -5.828125 69.76171875 -8.25 71.6875 C-9.03890625 72.33074219 -9.8278125 72.97398437 -10.640625 73.63671875 C-13 75 -13 75 -15.296875 74.70703125 C-15.85890625 74.47371094 -16.4209375 74.24039063 -17 74 C-16.59027873 68.63160082 -13.52354381 65.12029499 -10.4375 60.9375 C-9.34638869 59.42799876 -8.25655164 57.91757564 -7.16796875 56.40625 C-6.63091309 55.66375 -6.09385742 54.92125 -5.54052734 54.15625 C-2.23089836 49.52381843 0.87000749 44.75518093 4 40 C-2.6 40 -9.2 40 -16 40 C-17.20888052 35.1644779 -16.4233792 33.95872653 -14.39453125 29.51171875 C-14.11405441 28.89029495 -13.83357758 28.26887115 -13.54460144 27.62861633 C-12.94880364 26.31415256 -12.34744809 25.00219576 -11.7409668 23.69262695 C-10.82278035 21.70970156 -9.9206576 19.72012385 -9.02148438 17.72851562 C-6.24825574 11.63542264 -3.33132925 5.82982619 0 0 Z " fill="#DF3F0C" transform="translate(462,179)"/>
<path d="M0 0 C5.94 0 11.88 0 18 0 C18.33 7.26 18.66 14.52 19 22 C20.32 21.01 21.64 20.02 23 19 C27.61975067 18.06765032 31.22893406 18.62147672 35.4375 20.6875 C40.33065425 25.10327335 40.59690252 30.6238365 41.03125 36.921875 C40.97444331 42.51733431 39.5175489 46.95915837 36.1875 51.4375 C32.16748145 54.30894182 28.68810913 55.24203395 23.8125 54.75 C20 54 20 54 17 52 C17 52.66 17 53.32 17 54 C11.39 54 5.78 54 0 54 C0 53.34 0 52.68 0 52 C1.32 52 2.64 52 4 52 C4 35.5 4 19 4 2 C2.68 2 1.36 2 0 2 C0 1.34 0 0.68 0 0 Z M22 22 C19.57977871 24.31499428 18.09212718 25.74274318 17.83886719 29.19897461 C17.79361925 32.11194197 17.7647415 35.0242107 17.75 37.9375 C17.729375 38.95263672 17.70875 39.96777344 17.6875 41.01367188 C17.68234375 41.98755859 17.6771875 42.96144531 17.671875 43.96484375 C17.6625293 44.8580835 17.65318359 45.75132324 17.64355469 46.67163086 C17.82074786 49.06557427 17.82074786 49.06557427 19.38769531 50.83032227 C20.95894042 52.24819623 20.95894042 52.24819623 23.125 51.75 C24.98085115 51.15045529 24.98085115 51.15045529 26 50 C26.08748207 48.07332493 26.10697334 46.14348139 26.09765625 44.21484375 C26.09443359 43.04501953 26.09121094 41.87519531 26.08789062 40.66992188 C26.07951172 39.43822266 26.07113281 38.20652344 26.0625 36.9375 C26.05798828 35.70193359 26.05347656 34.46636719 26.04882812 33.19335938 C26.03699608 30.12885883 26.02051173 27.06445279 26 24 C24.68 23.34 23.36 22.68 22 22 Z " fill="#AA9D3F" transform="translate(72,189)"/>
<path d="M0 0 C5.61 0 11.22 0 17 0 C17 11.22 17 22.44 17 34 C18.65 33.34 20.3 32.68 22 32 C22 31.34 22 30.68 22 30 C23.61457079 28.56418526 25.29219075 27.19855217 27 25.875 C27.928125 25.15054688 28.85625 24.42609375 29.8125 23.6796875 C30.534375 23.12539062 31.25625 22.57109375 32 22 C30.35 21.67 28.7 21.34 27 21 C27 20.67 27 20.34 27 20 C31.95 20 36.9 20 42 20 C42 20.33 42 20.66 42 21 C40.9275 21.2475 39.855 21.495 38.75 21.75 C34.95411278 23.01529574 33.60376183 24.1069313 31 27 C30.34 27 29.68 27 29 27 C29.33322266 27.68626465 29.66644531 28.3725293 30.00976562 29.07958984 C31.51054322 32.17612431 33.00533994 35.27550837 34.5 38.375 C35.02464844 39.45523438 35.54929687 40.53546875 36.08984375 41.6484375 C36.58613281 42.6796875 37.08242188 43.7109375 37.59375 44.7734375 C38.05458984 45.72653809 38.51542969 46.67963867 38.99023438 47.66162109 C40 50 40 50 40 52 C40.99 52 41.98 52 43 52 C43 52.66 43 53.32 43 54 C36.4 54 29.8 54 23 54 C23 53.34 23 52.68 23 52 C23.99 51.505 23.99 51.505 25 51 C24.566875 50.08476562 24.13375 49.16953125 23.6875 48.2265625 C23.130625 47.03804687 22.57375 45.84953125 22 44.625 C21.443125 43.44164062 20.88625 42.25828125 20.3125 41.0390625 C19 38 19 38 19 36 C18.34 36 17.68 36 17 36 C17 41.28 17 46.56 17 52 C18.32 52 19.64 52 21 52 C21 52.66 21 53.32 21 54 C14.07 54 7.14 54 0 54 C0 53.34 0 52.68 0 52 C1.32 52 2.64 52 4 52 C4 35.5 4 19 4 2 C2.68 2 1.36 2 0 2 C0 1.34 0 0.68 0 0 Z " fill="#A89911" transform="translate(319,189)"/>
<path d="M0 0 C3.01335898 1.81678608 4.88709052 3.73797567 6.04296875 7.17578125 C7.22850742 13.9720871 7.52116589 21.15114955 4.4375 27.4375 C1.35331729 31.33808402 -1.38227766 33.24977713 -6.3203125 34.21875 C-13.6721391 34.93600138 -19.59595761 33.82108216 -25.5625 29.4375 C-29.70304742 23.9167701 -30.14606924 18.14304093 -29.5625 11.4375 C-28.84063869 7.66925151 -27.95128109 4.57347697 -24.91015625 2.0859375 C-17.4381849 -2.30562283 -8.10188268 -3.52386719 0 0 Z M-13.5625 0.4375 C-15.50203927 3.70409245 -15.81924372 6.16168538 -15.828125 9.9375 C-15.83070313 10.989375 -15.83328125 12.04125 -15.8359375 13.125 C-15.82820313 14.218125 -15.82046875 15.31125 -15.8125 16.4375 C-15.82023437 17.530625 -15.82796875 18.62375 -15.8359375 19.75 C-15.83335937 20.801875 -15.83078125 21.85375 -15.828125 22.9375 C-15.82586914 23.8965625 -15.82361328 24.855625 -15.82128906 25.84375 C-15.55555621 28.50709508 -14.91851971 30.15367733 -13.5625 32.4375 C-10.27174004 32.05845792 -10.27174004 32.05845792 -7.5625 30.4375 C-7.46253906 28.38867803 -7.43169054 26.33641431 -7.4296875 24.28515625 C-7.42839844 23.03412109 -7.42710937 21.78308594 -7.42578125 20.49414062 C-7.43158203 18.51704102 -7.43158203 18.51704102 -7.4375 16.5 C-7.43363281 15.18580078 -7.42976563 13.87160156 -7.42578125 12.51757812 C-7.42771484 10.6390918 -7.42771484 10.6390918 -7.4296875 8.72265625 C-7.43081543 7.56644775 -7.43194336 6.41023926 -7.43310547 5.21899414 C-7.37227363 2.48031369 -7.37227363 2.48031369 -8.5625 0.4375 C-10.2125 0.4375 -11.8625 0.4375 -13.5625 0.4375 Z " fill="#A99807" transform="translate(276.5625,209.5625)"/>
<path d="M0 0 C5.94 0 11.88 0 18 0 C18 17.16 18 34.32 18 52 C19.32 52 20.64 52 22 52 C22 52.66 22 53.32 22 54 C14.74 54 7.48 54 0 54 C0 53.34 0 52.68 0 52 C1.32 52 2.64 52 4 52 C4 35.5 4 19 4 2 C2.68 2 1.36 2 0 2 C0 1.34 0 0.68 0 0 Z " fill="#AA9804" transform="translate(114,189)"/>
<path d="M0 0 C5.61 0 11.22 0 17 0 C17 17.16 17 34.32 17 52 C18.32 52 19.64 52 21 52 C21 52.66 21 53.32 21 54 C14.07 54 7.14 54 0 54 C0 53.34 0 52.68 0 52 C1.32 52 2.64 52 4 52 C4 35.5 4 19 4 2 C2.68 2 1.36 2 0 2 C0 1.34 0 0.68 0 0 Z " fill="#AA9903" transform="translate(224,189)"/>
<path d="M0 0 C2.88009013 2.14160548 4.06284425 3.48438609 5.4375 6.8125 C5.9325 11.2675 5.9325 11.2675 6.4375 15.8125 C-0.1625 15.8125 -6.7625 15.8125 -13.5625 15.8125 C-13.45598806 23.02184935 -13.45598806 23.02184935 -10.875 29.5 C-7.8540326 31.21460312 -5.99068743 31.24102343 -2.5625 30.8125 C0.88134173 29.82854522 1.38938559 28.89841859 3.1875 25.6875 C3.80625 24.264375 3.80625 24.264375 4.4375 22.8125 C5.0975 22.8125 5.7575 22.8125 6.4375 22.8125 C5.23512352 27.22121378 4.16511531 30.06583609 0.4375 32.8125 C-6.67982645 35.34578568 -12.79981063 35.23238278 -19.875 32.5625 C-24.62881653 29.46699156 -26.61470998 26.45860186 -27.9375 21 C-28.9827216 14.91044806 -27.4928051 10.6034153 -25.5625 4.8125 C-18.26335326 -1.87838451 -9.34616223 -3.11538741 0 0 Z M-12.5625 0.8125 C-13.88479189 3.45708379 -13.65927194 5.49011301 -13.625 8.4375 C-13.61597656 9.44039062 -13.60695313 10.44328125 -13.59765625 11.4765625 C-13.58605469 12.24742187 -13.57445312 13.01828125 -13.5625 13.8125 C-11.2525 13.8125 -8.9425 13.8125 -6.5625 13.8125 C-6.53541433 12.20842672 -6.51606517 10.6042215 -6.5 9 C-6.48839844 8.10667969 -6.47679687 7.21335938 -6.46484375 6.29296875 C-6.45240033 3.67836209 -6.45240033 3.67836209 -7.5625 0.8125 C-9.2125 0.8125 -10.8625 0.8125 -12.5625 0.8125 Z " fill="#A99A0B" transform="translate(389.5625,209.1875)"/>
<path d="M0 0 C0 4.29 0 8.58 0 13 C2.97 13 5.94 13 9 13 C9 13.33 9 13.66 9 14 C6.03 14 3.06 14 0 14 C0 23.9 0 33.8 0 44 C5.89737629 42.68773201 5.89737629 42.68773201 7.875 39.375 C8.24625 38.59125 8.6175 37.8075 9 37 C10 40 10 40 9 42.5 C6.3079971 45.86500363 4.12160714 46.78378806 0 48 C-4.91457653 48.14920915 -9.10365747 47.06984563 -13 44 C-14.09911549 40.70265354 -14.1139456 38.27041255 -14.09765625 34.80078125 C-14.09282227 32.98803711 -14.09282227 32.98803711 -14.08789062 31.13867188 C-14.07951172 29.87603516 -14.07113281 28.61339844 -14.0625 27.3125 C-14.05798828 26.03826172 -14.05347656 24.76402344 -14.04882812 23.45117188 C-14.03702873 20.30073436 -14.02056597 17.15039051 -14 14 C-15.32 13.67 -16.64 13.34 -18 13 C-17.01 12.67 -16.02 12.34 -15 12 C-14.67 9.03 -14.34 6.06 -14 3 C-12.0424015 2.49713066 -10.08389623 1.9977901 -8.125 1.5 C-7.03445312 1.2215625 -5.94390625 0.943125 -4.8203125 0.65625 C-2 0 -2 0 0 0 Z " fill="#A9990D" transform="translate(177,196)"/>
<path d="M0 0 C9.9 0 19.8 0 30 0 C28.94943965 4.20224138 27.26301731 7.73344019 25.3125 11.5625 C24.95671875 12.26761719 24.6009375 12.97273437 24.234375 13.69921875 C21.27567434 19.53178277 18.19263649 25.29195294 15 31 C20.1797573 30.70938023 20.1797573 30.70938023 24.3125 27.8125 C26.044783 24.92536167 27.09686562 22.23623152 28 19 C28.66 19 29.32 19 30 19 C30.09289153 24.29481709 29.76541303 28.64210878 29 34 C19.1 34 9.2 34 -1 34 C-0.09240305 29.46201527 0.94846087 26.87092427 3.125 22.89453125 C4.06085938 21.17266602 4.06085938 21.17266602 5.015625 19.41601562 C5.6769047 18.2147454 6.33836505 17.0135746 7 15.8125 C7.66207147 14.59994396 8.32353611 13.38705636 8.984375 12.17382812 C10.19223077 9.95900995 11.40289054 7.74571712 12.6171875 5.53442383 C13.43499073 4.03555107 14.23640041 2.52719918 15 1 C11.39937249 1.54533776 8.24168859 2.31234228 5 4 C2.71297082 7.12141785 1.29541222 10.36602782 0 14 C-0.33 14 -0.66 14 -1 14 C-0.67 9.38 -0.34 4.76 0 0 Z " fill="#AA9A0A" transform="translate(190,209)"/>
<path d="M0 0 C2.90186138 1.45093069 3.75431539 2.33314177 4.875 5.375 C5.02383297 8.50049241 4.48309867 10.25626746 3 13 C0 15 0 15 -3.0625 14.8125 C-6 14 -6 14 -8 11 C-7.625 8.3125 -7.625 8.3125 -7 6 C-6.01 6 -5.02 6 -4 6 C-4 5.01 -4 4.02 -4 3 C-7.65316671 4.24976756 -8.78065836 4.67098753 -11 8 C-11.83540015 11.29004102 -12.16355914 14.47880963 -12.31640625 17.86328125 C-12.35830078 18.74951172 -12.40019531 19.63574219 -12.44335938 20.54882812 C-12.48267578 21.46083984 -12.52199219 22.37285156 -12.5625 23.3125 C-12.60568359 24.24384766 -12.64886719 25.17519531 -12.69335938 26.13476562 C-12.79897225 28.42304454 -12.90107752 30.71142372 -13 33 C-11.02 33 -9.04 33 -7 33 C-7 33.66 -7 34.32 -7 35 C-14.59 35 -22.18 35 -30 35 C-30 34.34 -30 33.68 -30 33 C-28.68 33 -27.36 33 -26 33 C-26 22.77 -26 12.54 -26 2 C-27.32 1.67 -28.64 1.34 -30 1 C-24.39 1 -18.78 1 -13 1 C-12.67 1.99 -12.34 2.98 -12 4 C-11.54625 3.525625 -11.0925 3.05125 -10.625 2.5625 C-7.33604626 -0.59995552 -4.43226355 -0.30567335 0 0 Z " fill="#A99A12" transform="translate(428,208)"/>
<path d="M0 0 C0 17.16 0 34.32 0 52 C-3.96 52 -7.92 52 -12 52 C-12 35.17 -12 18.34 -12 1 C-9 0 -9 0 0 0 Z " fill="#A99804" transform="translate(89,190)"/>
<path d="M0 0 C2.375 1.6875 2.375 1.6875 4.375 4.6875 C4.83455739 8.28736622 4.78741898 10.04412639 2.8125 13.125 C0.375 14.6875 0.375 14.6875 -3.25 14.6875 C-6.625 13.6875 -6.625 13.6875 -8.125 11.875 C-8.68591226 9.42100886 -8.46427091 8.03745854 -7.625 5.6875 C-6.965 5.6875 -6.305 5.6875 -5.625 5.6875 C-5.625 4.0375 -5.625 2.3875 -5.625 0.6875 C-7.605 0.6875 -9.585 0.6875 -11.625 0.6875 C-13.79184392 10.86392772 -14.60362675 19.6346347 -11.625 29.6875 C-6.99867504 30.62448466 -6.99867504 30.62448466 -2.375 30.125 C0.12753963 28.06934244 1.10009999 25.61977003 2.375 22.6875 C3.035 22.6875 3.695 22.6875 4.375 22.6875 C3.35698471 27.06496576 1.92783522 29.95286321 -1.7265625 32.70703125 C-6.15797313 34.99568159 -11.03394104 35.2012056 -15.87109375 34.2421875 C-20.49600954 32.72094866 -23.44704992 30.44325919 -26.625 26.6875 C-28.11868864 23.70012272 -27.80937999 20.64789093 -27.8125 17.375 C-27.82667969 16.05886719 -27.84085937 14.74273437 -27.85546875 13.38671875 C-27.5545481 8.55668724 -26.83972675 5.83656584 -23.3125 2.5 C-16.23575798 -2.27268648 -8.00807447 -2.89947524 0 0 Z " fill="#AA990B" transform="translate(313.625,209.3125)"/>
<path d="M0 0 C2.64 0 5.28 0 8 0 C8 16.5 8 33 8 50 C5.03 50 2.06 50 -1 50 C-2.58358604 48.41641396 -2.13513663 46.8000964 -2.14526367 44.60375977 C-2.15164352 43.66931534 -2.15802338 42.73487091 -2.16459656 41.77210999 C-2.16570938 40.75547775 -2.1668222 39.73884552 -2.16796875 38.69140625 C-2.17296135 37.13582253 -2.17296135 37.13582253 -2.17805481 35.54881287 C-2.1831286 33.35049891 -2.185463 31.15217723 -2.18530273 28.95385742 C-2.18748838 25.58043799 -2.20563714 22.20734583 -2.22460938 18.83398438 C-2.2275433 16.70312612 -2.2295281 14.57226631 -2.23046875 12.44140625 C-2.23765427 11.42679825 -2.24483978 10.41219025 -2.25224304 9.36683655 C-2.24916641 8.42923996 -2.24608978 7.49164337 -2.24291992 6.52563477 C-2.24434494 5.69814224 -2.24576996 4.87064972 -2.24723816 4.01808167 C-2 2 -2 2 0 0 Z " fill="#AA9902" transform="translate(327,191)"/>
<path d="M0 0 C5.94 0 11.88 0 18 0 C18 10.56 18 21.12 18 32 C19.32 32 20.64 32 22 32 C22 32.66 22 33.32 22 34 C15.07 34 8.14 34 1 34 C1 33.34 1 32.68 1 32 C2.32 32 3.64 32 5 32 C5 21.77 5 11.54 5 1 C3.35 1 1.7 1 0 1 C0 0.67 0 0.34 0 0 Z " fill="#A89914" transform="translate(136,209)"/>
<path d="M0 0 C1.08174162 3.36541838 0.92538169 4.29847322 0 8 C6.93 8 13.86 8 21 8 C21 9.65 21 11.3 21 13 C21.99 13 22.98 13 24 13 C24.33 13.99 24.66 14.98 25 16 C26.98 16.33 28.96 16.66 31 17 C27.24013317 21.69983353 23.16096698 25.85808059 18.75 29.9375 C18.21858398 30.43419189 17.68716797 30.93088379 17.13964844 31.44262695 C13.24350756 35 13.24350756 35 11 35 C11 35.66 11 36.32 11 37 C9.171875 38.76171875 9.171875 38.76171875 6.75 40.6875 C5.96109375 41.33074219 5.1721875 41.97398437 4.359375 42.63671875 C2 44 2 44 -0.296875 43.70703125 C-0.85890625 43.47371094 -1.4209375 43.24039063 -2 43 C-1.59027873 37.63160082 1.47645619 34.12029499 4.5625 29.9375 C5.65361131 28.42799876 6.74344836 26.91757564 7.83203125 25.40625 C8.36908691 24.66375 8.90614258 23.92125 9.45947266 23.15625 C12.76910164 18.52381843 15.87000749 13.75518093 19 9 C12.4 9 5.8 9 -1 9 C-2.07349791 4.70600835 -1.79682816 3.80504787 0 0 Z " fill="#D6491A" transform="translate(447,210)"/>
<path d="M0 0 C1.9375 0.8125 1.9375 0.8125 3.9375 2.8125 C3.9375 4.1325 3.9375 5.4525 3.9375 6.8125 C4.5975 6.8125 5.2575 6.8125 5.9375 6.8125 C5.99151695 9.72941525 6.03118066 12.64532724 6.0625 15.5625 C6.08763672 16.8 6.08763672 16.8 6.11328125 18.0625 C6.11972656 18.86171875 6.12617187 19.6609375 6.1328125 20.484375 C6.14328613 21.2175293 6.15375977 21.95068359 6.16455078 22.70605469 C5.89774185 25.18135304 5.2681993 26.71279251 3.9375 28.8125 C0.2933226 31.2419516 -1.77491272 30.97429575 -6.0625 30.8125 C-5.99360195 26.87922048 -5.90562821 22.94687486 -5.80004883 19.0144043 C-5.75048681 17.0195937 -5.71598867 15.02442743 -5.68164062 13.02929688 C-5.64619141 11.77568359 -5.61074219 10.52207031 -5.57421875 9.23046875 C-5.54803467 8.07313232 -5.52185059 6.9157959 -5.49487305 5.72338867 C-5.0625 2.8125 -5.0625 2.8125 -3.65942383 0.8996582 C-2.0625 -0.1875 -2.0625 -0.1875 0 0 Z " fill="#AA9804" transform="translate(105.0625,211.1875)"/>
<path d="M0 0 C2.97 0 5.94 0 9 0 C12.83870204 6.87767449 13.13659633 14.72171554 11.484375 22.39453125 C11.24460937 23.18923828 11.24460937 23.18923828 11 24 C9.35 24.33 7.7 24.66 6 25 C6 25.66 6 26.32 6 27 C3 28 3 28 0 28 C0 18.76 0 9.52 0 0 Z " fill="#AA990B" transform="translate(271,212)"/>
<path d="M0 0 C5.94 0 11.88 0 18 0 C18 17.16 18 34.32 18 52 C19.32 52 20.64 52 22 52 C22 52.66 22 53.32 22 54 C14.74 54 7.48 54 0 54 C0 53.34 0 52.68 0 52 C1.32 52 2.64 52 4 52 C4 35.5 4 19 4 2 C2.68 2 1.36 2 0 2 C0 1.34 0 0.68 0 0 Z M6 2 C5.97528404 8.47786175 5.95713238 14.95569606 5.94506836 21.43359375 C5.94003912 23.63737466 5.93321495 25.84115222 5.92456055 28.04492188 C5.9124334 31.21224796 5.90675759 34.37952994 5.90234375 37.546875 C5.89718246 38.53242371 5.89202118 39.51797241 5.88670349 40.53338623 C5.88662796 41.4540387 5.88655243 42.37469116 5.88647461 43.32324219 C5.884254 44.1315448 5.88203339 44.93984741 5.87974548 45.77264404 C5.94688034 48.3255183 5.94688034 48.3255183 7 52 C10.3 52 13.6 52 17 52 C17 35.5 17 19 17 2 C13.37 2 9.74 2 6 2 Z " fill="#ADA138" transform="translate(114,189)"/>
<path d="M0 0 C13.36633663 -0.44554455 13.36633663 -0.44554455 18 3 C21.8818334 7.55111502 21.26870232 10.41832091 22 17 C15.4 17 8.8 17 2 17 C2 16.34 2 15.68 2 15 C4.31 15 6.62 15 9 15 C8.67 10.71 8.34 6.42 8 2 C6.35 2 4.7 2 3 2 C2.67 5.96 2.34 9.92 2 14 C1.67 14 1.34 14 1 14 C0.67 9.38 0.34 4.76 0 0 Z " fill="#B8AD52" transform="translate(374,208)"/>
<path d="M0 0 C5.61 0 11.22 0 17 0 C17 17.16 17 34.32 17 52 C18.32 52 19.64 52 21 52 C21 52.66 21 53.32 21 54 C14.07 54 7.14 54 0 54 C0 53.34 0 52.68 0 52 C1.32 52 2.64 52 4 52 C4 35.5 4 19 4 2 C2.68 2 1.36 2 0 2 C0 1.34 0 0.68 0 0 Z M7 2 C4.80984639 3.77651455 4.80984639 3.77651455 4.75949097 6.06277466 C4.76393219 6.91104828 4.76837341 7.7593219 4.77294922 8.63330078 C4.77310028 9.59414581 4.77325134 10.55499084 4.77340698 11.54495239 C4.78372955 12.58457123 4.79405212 13.62419006 4.8046875 14.6953125 C4.8075174 15.75789276 4.81034729 16.82047302 4.81326294 17.91525269 C4.82448361 21.31861499 4.84959163 24.72171686 4.875 28.125 C4.88502736 30.42838162 4.89415363 32.73176736 4.90234375 35.03515625 C4.92442912 40.69020495 4.95897185 46.34505828 5 52 C8.3 52 11.6 52 15 52 C15 35.5 15 19 15 2 C12.36 2 9.72 2 7 2 Z " fill="#A4961A" transform="translate(224,189)"/>
<path d="M0 0 C5.67276511 -0.29341888 8.99067246 -0.00559652 14 3 C14 3.33 14 3.66 14 4 C11.69 4 9.38 4 7 4 C7.33 12.91 7.66 21.82 8 31 C8.99 31 9.98 31 11 31 C11.66 31 12.32 31 13 31 C13 30.34 13 29.68 13 29 C14.32 28.67 15.64 28.34 17 28 C13.9209699 32.42610577 11.82179718 34.75979634 6.26953125 35.83203125 C2.12828489 36.13852625 -1.9074778 35.62058738 -6 35 C-4.515 34.505 -4.515 34.505 -3 34 C-3.33 33.34 -3.66 32.68 -4 32 C-4.15441209 29.89625004 -4.24992639 27.78804881 -4.31640625 25.6796875 C-4.35830078 24.42285156 -4.40019531 23.16601562 -4.44335938 21.87109375 C-4.48267578 20.55238281 -4.52199219 19.23367187 -4.5625 17.875 C-4.60569512 16.53514249 -4.64930973 15.19529844 -4.69335938 13.85546875 C-4.79970981 10.57042185 -4.90173808 7.28529719 -5 4 C-4.01 3.67 -3.02 3.34 -2 3 C-2.00523682 3.79696289 -2.01047363 4.59392578 -2.01586914 5.41503906 C-2.036659 9.02668469 -2.04966661 12.63831771 -2.0625 16.25 C-2.07087891 17.50425781 -2.07925781 18.75851563 -2.08789062 20.05078125 C-2.09272461 21.85869141 -2.09272461 21.85869141 -2.09765625 23.703125 C-2.10551147 25.36843262 -2.10551147 25.36843262 -2.11352539 27.06738281 C-2.01658493 29.57157379 -1.73230276 31.6181156 -1 34 C0.65 33.34 2.3 32.68 4 32 C4 22.1 4 12.2 4 2 C2.68 2 1.36 2 0 2 C0 1.34 0 0.68 0 0 Z " fill="#A79B21" transform="translate(264,208)"/>
<path d="M0 0 C2.90186138 1.45093069 3.75431539 2.33314177 4.875 5.375 C5.02383297 8.50049241 4.48309867 10.25626746 3 13 C0 15 0 15 -3.0625 14.8125 C-6 14 -6 14 -8 11 C-7.625 8.3125 -7.625 8.3125 -7 6 C-6.01 6 -5.02 6 -4 6 C-4 5.01 -4 4.02 -4 3 C-6.91517292 4.07401108 -8.77810176 4.77810176 -11 7 C-11.99 7 -12.98 7 -14 7 C-14 5.35 -14 3.7 -14 2 C-15.22976563 2.14308594 -15.22976563 2.14308594 -16.484375 2.2890625 C-18.10085938 2.45535156 -18.10085938 2.45535156 -19.75 2.625 C-20.81734375 2.74101562 -21.8846875 2.85703125 -22.984375 2.9765625 C-26 3 -26 3 -30 1 C-24.39 1 -18.78 1 -13 1 C-12.67 1.99 -12.34 2.98 -12 4 C-11.54625 3.525625 -11.0925 3.05125 -10.625 2.5625 C-7.33604626 -0.59995552 -4.43226355 -0.30567335 0 0 Z " fill="#A6991C" transform="translate(428,208)"/>
<path d="M0 0 C12.9796748 -0.56707317 12.9796748 -0.56707317 18 3 C20.32749345 6.49124017 20.50299316 7.89222251 20 12 C18.4375 14.4375 18.4375 14.4375 16 16 C12.375 16 12.375 16 9 15 C7.5 13.1875 7.5 13.1875 7 11 C7.375 8.75 7.375 8.75 8 7 C8.66 7 9.32 7 10 7 C10 5.35 10 3.7 10 2 C8.02 2 6.04 2 4 2 C3.67 2.66 3.34 3.32 3 4 C2.67 3.34 2.34 2.68 2 2 C1.34 2 0.68 2 0 2 C0 1.34 0 0.68 0 0 Z " fill="#B4A93F" transform="translate(298,208)"/>
<path d="M0 0 C0.78246094 -0.02578125 1.56492188 -0.0515625 2.37109375 -0.078125 C5.09336455 0.32948774 5.93500975 1.06465931 7.5625 3.25 C8.09770313 6.84350675 8.01064771 8.56881548 6 11.625 C2.68280578 13.83646281 0.47304241 13.67660463 -3.4375 13.25 C-6.4375 11.25 -6.4375 11.25 -7.1875 7.8125 C-7.4375 4.25 -7.4375 4.25 -6.4375 1.25 C-4.11063547 0.08656773 -2.59028587 0.05104012 0 0 Z " fill="#AA9A0E" transform="translate(147.4375,190.75)"/>
<path d="M0 0 C1.58246707 -0.08153933 3.16616273 -0.13943557 4.75 -0.1875 C6.07257813 -0.23970703 6.07257813 -0.23970703 7.421875 -0.29296875 C10.56354768 0.06403951 11.77547839 0.77064247 14 3 C15.88408106 6.60963102 16.37373433 9.96733958 16.6875 14 C16.77386719 15.010625 16.86023438 16.02125 16.94921875 17.0625 C16.99805917 19.88773035 16.66887484 22.26415103 16 25 C15.67 25 15.34 25 15 25 C15 19.72 15 14.44 15 9 C14.34 9 13.68 9 13 9 C12.7525 8.195625 12.505 7.39125 12.25 6.5625 C11.26886242 3.87081527 11.26886242 3.87081527 9 3.0625 C8.34 3.041875 7.68 3.02125 7 3 C4.26924576 5.73075424 4.60821174 7.49835667 4.3671875 11.3203125 C4.28339844 12.57714844 4.19960937 13.83398438 4.11328125 15.12890625 C4.033655 16.46092561 3.95423052 17.79295704 3.875 19.125 C3.78860712 20.46489861 3.70137778 21.80474357 3.61328125 23.14453125 C3.40060154 26.42925119 3.19654902 29.71428176 3 33 C4.65 33 6.3 33 8 33 C4.58044297 35.42218623 1.84494445 34.99895628 -2.09765625 34.484375 C-4 34 -4 34 -7 32 C-6.505 30.515 -6.505 30.515 -6 29 C-5.67 29.66 -5.34 30.32 -5 31 C-3.33388095 31.042721 -1.66617115 31.04063832 0 31 C1.76060684 29.23939316 1.13027032 26.74130713 1.1328125 24.35546875 C1.13410156 23.20369141 1.13539062 22.05191406 1.13671875 20.86523438 C1.13285156 19.65158203 1.12898438 18.43792969 1.125 17.1875 C1.12886719 15.98544922 1.13273437 14.78339844 1.13671875 13.54492188 C1.13542969 12.38927734 1.13414063 11.23363281 1.1328125 10.04296875 C1.13168457 8.98102295 1.13055664 7.91907715 1.12939453 6.82495117 C1.01714418 4.37429301 0.70820432 2.33665229 0 0 Z " fill="#ADA22F" transform="translate(96,209)"/>
<path d="M0 0 C9.9 0 19.8 0 30 0 C29.67 0.99 29.34 1.98 29 3 C29 2.34 29 1.68 29 1 C25.04 1 21.08 1 17 1 C17 3.31 17 5.62 17 8 C16.40703125 8.21398437 15.8140625 8.42796875 15.203125 8.6484375 C12.22961292 10.47261335 11.32763193 12.54144669 9.75 15.625 C8.96882812 17.12933594 8.96882812 17.12933594 8.171875 18.6640625 C7.78515625 19.43492187 7.3984375 20.20578125 7 21 C6.34 20.67 5.68 20.34 5 20 C8.3 13.73 11.6 7.46 15 1 C5.59920932 2.81885188 5.59920932 2.81885188 2.9296875 6.48046875 C2.58164063 7.37378906 2.23359375 8.26710937 1.875 9.1875 C1.50117188 10.08855469 1.12734375 10.98960937 0.7421875 11.91796875 C0.37480469 12.94857422 0.37480469 12.94857422 0 14 C-0.33 14 -0.66 14 -1 14 C-0.67 9.38 -0.34 4.76 0 0 Z " fill="#A49A48" transform="translate(190,209)"/>
<path d="M0 0 C0.66 0 1.32 0 2 0 C2 4.29 2 8.58 2 13 C4.97 13 7.94 13 11 13 C11 13.33 11 13.66 11 14 C8.03 14 5.06 14 2 14 C2 23.9 2 33.8 2 44 C7.89737629 42.68773201 7.89737629 42.68773201 9.875 39.375 C10.24625 38.59125 10.6175 37.8075 11 37 C12 40 12 40 11 42.5 C8.3079971 45.86500363 6.12160714 46.78378806 2 48 C-2.26076215 48.05472539 -5.39805398 47.40129735 -9 45 C-5.7 45 -2.4 45 1 45 C0.9278125 44.09765625 0.855625 43.1953125 0.78125 42.265625 C-0.23857786 28.18618333 -0.097322 14.10869514 0 0 Z " fill="#B9B160" transform="translate(175,196)"/>
<path d="M0 0 C5.61 0 11.22 0 17 0 C17 17.16 17 34.32 17 52 C18.32 52 19.64 52 21 52 C21 52.66 21 53.32 21 54 C14.07 54 7.14 54 0 54 C0 53.34 0 52.68 0 52 C5.28 52.33 10.56 52.66 16 53 C16 35.84 16 18.68 16 1 C7.12731854 1.28800934 7.12731854 1.28800934 4 3 C1.875 2.5625 1.875 2.5625 0 2 C0 1.34 0 0.68 0 0 Z " fill="#A39A44" transform="translate(224,189)"/>
<path d="M0 0 C5.61 0 11.22 0 17 0 C16.67 0.66 16.34 1.32 16 2 C12.37 1.67 8.74 1.34 5 1 C5.33 17.83 5.66 34.66 6 52 C10.95 52 15.9 52 21 52 C21 52.66 21 53.32 21 54 C14.07 54 7.14 54 0 54 C0 53.34 0 52.68 0 52 C1.32 52 2.64 52 4 52 C4 35.5 4 19 4 2 C2.68 2 1.36 2 0 2 C0 1.34 0 0.68 0 0 Z " fill="#A59A46" transform="translate(319,189)"/>
<path d="M0 0 C1.98 0.495 1.98 0.495 4 1 C4 1.99 4 2.98 4 4 C5.175625 4.0928125 5.175625 4.0928125 6.375 4.1875 C9 5 9 5 10.3125 7.375 C11 10 11 10 11 13 C7.04 13 3.08 13 -1 13 C-0.67 8.71 -0.34 4.42 0 0 Z " fill="#A99707" transform="translate(384,210)"/>
<path d="M0 0 C0.66 0 1.32 0 2 0 C2.09289153 5.29481709 1.76541303 9.64210878 1 15 C-8.9 15 -18.8 15 -29 15 C-28.67 14.01 -28.34 13.02 -28 12 C-28 12.66 -28 13.32 -28 14 C-24.93553699 13.74437747 -21.87439017 13.47113242 -18.8125 13.1875 C-17.94818359 13.11724609 -17.08386719 13.04699219 -16.19335938 12.97460938 C-11.44192813 12.51949144 -7.86298818 12.05410416 -4 9 C-1.91618114 6.09753802 -0.65066851 3.51360995 0 0 Z " fill="#A3981A" transform="translate(218,228)"/>
<path d="M0 0 C-0.9977758 2.99332739 -1.7522025 3.94766315 -4 6 C-3.01 6.66 -2.02 7.32 -1 8 C-1.61875 8.28875 -2.2375 8.5775 -2.875 8.875 C-5.13325765 9.93720042 -5.13325765 9.93720042 -7 12 C-7.66 12 -8.32 12 -9 12 C-10.35066528 13.1345098 -10.35066528 13.1345098 -10.25 16.125 C-10.03494511 19.45835076 -9.77311293 20.88361608 -8.4375 23.75 C-7 27 -7 27 -8 30 C-11.57976038 25.70034291 -12.55345388 21.5156715 -13 16 C-12.39836108 11.16249791 -11.29455868 6.15828934 -7.625 2.875 C-5.02132072 1.01522909 -3.23150169 0 0 0 Z " fill="#A99C1A" transform="translate(374,209)"/>
<path d="M0 0 C0 0.99 0 1.98 0 3 C-3.33333333 6 -3.33333333 6 -6 6 C-6.33 6.66 -6.66 7.32 -7 8 C-7.50144531 8.56203125 -8.00289062 9.1240625 -8.51953125 9.703125 C-10.48687348 12.75536044 -10.50732576 15.14651526 -10.6875 18.75 C-10.75324219 19.92046875 -10.81898438 21.0909375 -10.88671875 22.296875 C-10.92410156 23.18890625 -10.96148437 24.0809375 -11 25 C-10.34 25 -9.68 25 -9 25 C-9 26.32 -9 27.64 -9 29 C-8.34 29.33 -7.68 29.66 -7 30 C-7.99 30 -8.98 30 -10 30 C-13.19250238 22.68384872 -14.25924091 16.46028479 -11.9375 8.6875 C-10.07417808 4.21196123 -7.33432653 2.9349672 -3 1 C-2.01 0.67 -1.02 0.34 0 0 Z " fill="#ABA334" transform="translate(260,208)"/>
<path d="M0 0 C3.63 0 7.26 0 11 0 C11 0.33 11 0.66 11 1 C8.94921875 1.22786458 6.8984375 1.45572917 4.84765625 1.68359375 C2.98859771 1.81886614 2.98859771 1.81886614 2 3 C1.90695982 4.47354348 1.88253735 5.95150591 1.88647461 7.42797852 C1.88655014 8.36887833 1.88662567 9.30977814 1.88670349 10.27919006 C1.89186478 11.30209641 1.89702606 12.32500275 1.90234375 13.37890625 C1.9037587 14.42070541 1.90517365 15.46250458 1.90663147 16.53587341 C1.9122492 19.87811094 1.9248047 23.22028257 1.9375 26.5625 C1.94251272 28.82226466 1.94707602 31.08203037 1.95117188 33.34179688 C1.96222439 38.89455682 1.9795009 44.44726722 2 50 C4.97 50.33 7.94 50.66 11 51 C11 51.33 11 51.66 11 52 C9.35425434 52.02688151 7.70838587 52.04634123 6.0625 52.0625 C5.14597656 52.07410156 4.22945313 52.08570313 3.28515625 52.09765625 C1 52 1 52 0 51 C-0.09333705 49.40389018 -0.11745372 47.80366572 -0.11352539 46.20483398 C-0.11344986 45.18385117 -0.11337433 44.16286835 -0.11329651 43.11094666 C-0.10813522 42.0005452 -0.10297394 40.89014374 -0.09765625 39.74609375 C-0.0962413 38.61551041 -0.09482635 37.48492706 -0.09336853 36.32008362 C-0.08775019 32.69252935 -0.07519458 29.06503576 -0.0625 25.4375 C-0.05748736 22.98502693 -0.05292405 20.5325529 -0.04882812 18.08007812 C-0.0377748 12.05336187 -0.02049788 6.02669124 0 0 Z " fill="#A69615" transform="translate(324,190)"/>
<path d="M0 0 C0.66 0 1.32 0 2 0 C0.98198471 4.37746576 -0.44716478 7.26536321 -4.1015625 10.01953125 C-8.53361277 12.30851195 -13.46009373 12.5740884 -18.28125 11.484375 C-21.8955043 10.21668879 -25.20620364 8.67738818 -28 6 C-28 5.34 -28 4.68 -28 4 C-27.1028125 4.4640625 -27.1028125 4.4640625 -26.1875 4.9375 C-23.91043228 6.10209704 -23.91043228 6.10209704 -21 7 C-21 7.66 -21 8.32 -21 9 C-19.576875 8.9690625 -19.576875 8.9690625 -18.125 8.9375 C-15 9 -15 9 -13 10 C-13 9.34 -13 8.68 -13 8 C-12.39671875 8.00902344 -11.7934375 8.01804688 -11.171875 8.02734375 C-8.61470177 7.93248087 -6.45386542 7.74333961 -4 7 C-1.96119166 4.77389955 -1.1862622 2.83671396 0 0 Z " fill="#ADA75A" transform="translate(316,232)"/>
<path d="M0 0 C0.33 0 0.66 0 1 0 C1.33 6.6 1.66 13.2 2 20 C3.32 19.01 4.64 18.02 6 17 C8.359375 16.70703125 8.359375 16.70703125 10.75 16.8125 C11.94882813 16.85310547 11.94882813 16.85310547 13.171875 16.89453125 C13.77515625 16.92933594 14.3784375 16.96414062 15 17 C15 17.33 15 17.66 15 18 C12.36 18 9.72 18 7 18 C7 18.66 7 19.32 7 20 C5.68 20.33 4.36 20.66 3 21 C2.08341617 24.17053195 1.81167961 27.12823862 1.68359375 30.421875 C1.64169922 31.44667969 1.59980469 32.47148437 1.55664062 33.52734375 C1.51732422 34.59082031 1.47800781 35.65429688 1.4375 36.75 C1.39431641 37.82894531 1.35113281 38.90789062 1.30664062 40.01953125 C1.20071011 42.67956428 1.09863579 45.33968812 1 48 C0.67 48 0.34 48 0 48 C0 32.16 0 16.32 0 0 Z " fill="#A29624" transform="translate(89,191)"/>
<path d="M0 0 C0.99 0.33 1.98 0.66 3 1 C3 1.66 3 2.32 3 3 C3.99 3 4.98 3 6 3 C5.6875 5.375 5.6875 5.375 5 8 C1.5647952 10.29013653 0.014669 10.17842973 -4 10 C-4.41176754 6.39703406 -4.1535853 5.21597933 -2 2.1875 C-1.34 1.465625 -0.68 0.74375 0 0 Z " fill="#AA9806" transform="translate(311,212)"/>
<path d="M0 0 C0.66 0.33 1.32 0.66 2 1 C-0.11953017 3.00609052 -2.24513441 5.00493603 -4.375 7 C-5.27992188 7.85851562 -5.27992188 7.85851562 -6.203125 8.734375 C-7.07324219 9.54648438 -7.07324219 9.54648438 -7.9609375 10.375 C-8.49509277 10.87773437 -9.02924805 11.38046875 -9.57958984 11.8984375 C-11 13 -11 13 -13 13 C-13 13.66 -13 14.32 -13 15 C-13.66 15 -14.32 15 -15 15 C-15 14.34 -15 13.68 -15 13 C-15.66 12.67 -16.32 12.34 -17 12 C-16.34 11.67 -15.68 11.34 -15 11 C-14.34 11.33 -13.68 11.66 -13 12 C-13.061875 11.05125 -13.12375 10.1025 -13.1875 9.125 C-13.125625 8.09375 -13.06375 7.0625 -13 6 C-9.5647952 3.70986347 -8.014669 3.82157027 -4 4 C-4 3.34 -4 2.68 -4 2 C-2.125 0.9375 -2.125 0.9375 0 0 Z " fill="#D75027" transform="translate(471,232)"/>
<path d="M0 0 C0.66 0.33 1.32 0.66 2 1 C1.835 1.94875 1.67 2.8975 1.5 3.875 C0.27314871 12.8598815 1.24187368 20.36443782 4 29 C1.36 28.67 -1.28 28.34 -4 28 C-4 26.35 -4 24.7 -4 23 C-3.01 22.67 -2.02 22.34 -1 22 C-1.01160156 20.83082031 -1.02320313 19.66164062 -1.03515625 18.45703125 C-1.04453913 16.90885577 -1.0536388 15.36067855 -1.0625 13.8125 C-1.07506836 12.65911133 -1.07506836 12.65911133 -1.08789062 11.48242188 C-1.10491934 7.51473211 -0.98604115 3.87428766 0 0 Z " fill="#AD9F2A" transform="translate(299,213)"/>
<path d="M0 0 C1.03111349 3.09334047 1.10144761 5.16509433 1.0625 8.40234375 C1.05476563 9.45744141 1.04703125 10.51253906 1.0390625 11.59960938 C1.01306654 13.82096408 0.98702504 16.04231825 0.9609375 18.26367188 C0.95320313 19.32005859 0.94546875 20.37644531 0.9375 21.46484375 C0.92589844 22.430271 0.91429687 23.39569824 0.90234375 24.39038086 C0.99112827 26.76292513 1.32062467 28.73485835 2 31 C3.98 30.34 5.96 29.68 8 29 C8 29.66 8 30.32 8 31 C9.32 31.33 10.64 31.66 12 32 C1.44191344 33.33257403 1.44191344 33.33257403 -3 32 C-2.01 31.67 -1.02 31.34 0 31 C-0.33 30.34 -0.66 29.68 -1 29 C-1.15441209 26.89625004 -1.24992639 24.78804881 -1.31640625 22.6796875 C-1.35830078 21.42285156 -1.40019531 20.16601562 -1.44335938 18.87109375 C-1.48267578 17.55238281 -1.52199219 16.23367187 -1.5625 14.875 C-1.60569512 13.53514249 -1.64930973 12.19529844 -1.69335938 10.85546875 C-1.79970981 7.57042185 -1.90173808 4.28529719 -2 1 C-1.34 0.67 -0.68 0.34 0 0 Z " fill="#A39A32" transform="translate(261,211)"/>
<path d="M0 0 C0.33 0 0.66 0 1 0 C1 7.92 1 15.84 1 24 C2.65 24 4.3 24 6 24 C2.58044297 26.42218623 -0.15505555 25.99895628 -4.09765625 25.484375 C-6 25 -6 25 -9 23 C-8.505 21.515 -8.505 21.515 -8 20 C-7.67 20.66 -7.34 21.32 -7 22 C-5.33388095 22.042721 -3.66617115 22.04063832 -2 22 C-0.38219843 20.38219843 -0.77727853 18.54364482 -0.68359375 16.30859375 C-0.64169922 15.36435547 -0.59980469 14.42011719 -0.55664062 13.44726562 C-0.49766602 11.95743164 -0.49766602 11.95743164 -0.4375 10.4375 C-0.39431641 9.44041016 -0.35113281 8.44332031 -0.30664062 7.41601562 C-0.20019702 4.9441585 -0.09818072 2.4721969 0 0 Z " fill="#BCB35F" transform="translate(98,218)"/>
<path d="M0 0 C4.95 0 9.9 0 15 0 C15 0.33 15 0.66 15 1 C13.9275 1.2475 12.855 1.495 11.75 1.75 C7.95411278 3.01529574 6.60376183 4.1069313 4 7 C3.34 7 2.68 7 2 7 C2.66 8.98 3.32 10.96 4 13 C3.01 13 2.02 13 1 13 C1 12.01 1 11.02 1 10 C-0.98 10.33 -2.96 10.66 -5 11 C-1.83047153 7.73991357 1.39937989 4.77762123 5 2 C3.35 1.67 1.7 1.34 0 1 C0 0.67 0 0.34 0 0 Z " fill="#A19A5C" transform="translate(346,209)"/>
<path d="M0 0 C0.33 0 0.66 0 1 0 C1 1.98 1 3.96 1 6 C0.34 6 -0.32 6 -1 6 C-1 7.32 -1 8.64 -1 10 C-1.66 10 -2.32 10 -3 10 C-2.773125 10.7425 -2.54625 11.485 -2.3125 12.25 C-2 15 -2 15 -3.25 17.3125 C-5 19 -5 19 -8 19 C-6.60121198 14.53202662 -4.86369228 10.36177921 -2.875 6.125 C-2.33617187 4.97257813 -1.79734375 3.82015625 -1.2421875 2.6328125 C-0.62730469 1.32957031 -0.62730469 1.32957031 0 0 Z " fill="#D15229" transform="translate(456,191)"/>
<path d="M0 0 C0.99 0.33 1.98 0.66 3 1 C3.33 2.65 3.66 4.3 4 6 C7.3 6 10.6 6 14 6 C14 4.35 14 2.7 14 1 C14.66 2.32 15.32 3.64 16 5 C16.99 5 17.98 5 19 5 C19 5.66 19 6.32 19 7 C12.4 7 5.8 7 -1 7 C-1 6.34 -1 5.68 -1 5 C-0.34 4.67 0.32 4.34 1 4 C0.67 2.68 0.34 1.36 0 0 Z " fill="#AEA64F" transform="translate(343,236)"/>
<path d="M0 0 C10.89 0 21.78 0 33 0 C32.67 1.65 32.34 3.3 32 5 C31.01 5.495 31.01 5.495 30 6 C29.67 4.68 29.34 3.36 29 2 C19.43 1.67 9.86 1.34 0 1 C0 0.67 0 0.34 0 0 Z " fill="#D14921" transform="translate(463,180)"/>
<path d="M0 0 C0.33 0.66 0.66 1.32 1 2 C7.93 1.34 14.86 0.68 22 0 C22 0.66 22 1.32 22 2 C24.64 2 27.28 2 30 2 C30 2.33 30 2.66 30 3 C20.1 3 10.2 3 0 3 C0 2.01 0 1.02 0 0 Z " fill="#AEA253" transform="translate(189,240)"/>
<path d="M0 0 C0.66 0 1.32 0 2 0 C0.79762352 4.40871378 -0.27238469 7.25333609 -4 10 C-8.26095928 11.6219701 -11.58039264 12.3712621 -16 11 C-15.34 10.67 -14.68 10.34 -14 10 C-13.67 9.34 -13.34 8.68 -13 8 C-12.0925 8.04125 -11.185 8.0825 -10.25 8.125 C-7.00022042 8.00000848 -5.55811672 7.94064027 -3 6 C-1.23272142 2.9665533 -1.23272142 2.9665533 0 0 Z " fill="#AFAC63" transform="translate(394,232)"/>
<path d="M0 0 C0 1.98 0 3.96 0 6 C-2.64 6.33 -5.28 6.66 -8 7 C-7.6875 4.625 -7.6875 4.625 -7 2 C-4 0 -4 0 0 0 Z " fill="#AA9803" transform="translate(431,214)"/>
<path d="M0 0 C0.66 0 1.32 0 2 0 C2 1.98 2 3.96 2 6 C1.40703125 6.21398437 0.8140625 6.42796875 0.203125 6.6484375 C-2.77038708 8.47261335 -3.67236807 10.54144669 -5.25 13.625 C-6.03117188 15.12933594 -6.03117188 15.12933594 -6.828125 16.6640625 C-7.21484375 17.43492187 -7.6015625 18.20578125 -8 19 C-8.66 18.67 -9.32 18.34 -10 18 C-6.7 12.06 -3.4 6.12 0 0 Z " fill="#ADA236" transform="translate(205,211)"/>
<path d="M0 0 C0.33 0.66 0.66 1.32 1 2 C0.34 2 -0.32 2 -1 2 C-1.2475 2.639375 -1.495 3.27875 -1.75 3.9375 C-3 6 -3 6 -5.125 6.75 C-6.053125 6.87375 -6.053125 6.87375 -7 7 C-7 5.35 -7 3.7 -7 2 C-8.22976563 2.14308594 -8.22976563 2.14308594 -9.484375 2.2890625 C-11.10085938 2.45535156 -11.10085938 2.45535156 -12.75 2.625 C-13.81734375 2.74101562 -14.8846875 2.85703125 -15.984375 2.9765625 C-19 3 -19 3 -23 1 C-17.39 1 -11.78 1 -6 1 C-5.67 1.99 -5.34 2.98 -5 4 C-4.54625 3.525625 -4.0925 3.05125 -3.625 2.5625 C-2 1 -2 1 0 0 Z " fill="#9F943E" transform="translate(421,208)"/>
<path d="M0 0 C1.43655854 -0.08131463 2.8744483 -0.13933559 4.3125 -0.1875 C5.51326172 -0.23970703 5.51326172 -0.23970703 6.73828125 -0.29296875 C9 0 9 0 10.7734375 1.32421875 C12.64824591 3.88566081 12.32099971 5.91840278 12 9 C11.01 10.485 11.01 10.485 10 12 C9.34 12 8.68 12 8 12 C8.33 8.7 8.66 5.4 9 2 C6.03 1.67 3.06 1.34 0 1 C0 0.67 0 0.34 0 0 Z " fill="#A7A035" transform="translate(143,191)"/>
<path d="M0 0 C0.66 0 1.32 0 2 0 C1.67 0.66 1.34 1.32 1 2 C0.67 1.34 0.34 0.68 0 0 Z M-1 1 C0.0625 2.875 0.0625 2.875 1 5 C0.67 5.66 0.34 6.32 0 7 C-3.3 6.67 -6.6 6.34 -10 6 C-6.86507773 2.86507773 -6.10100035 2.64752637 -2 2 C-1.67 1.67 -1.34 1.34 -1 1 Z " fill="#A79803" transform="translate(201,235)"/>
<path d="M0 0 C2.64 0 5.28 0 8 0 C7.01 0.495 7.01 0.495 6 1 C6 8.92 6 16.84 6 25 C5.67 25 5.34 25 5 25 C4.67 17.41 4.34 9.82 4 2 C2.68 2 1.36 2 0 2 C0 1.34 0 0.68 0 0 Z " fill="#B8AC55" transform="translate(264,208)"/>
<path d="M0 0 C0.33 0.66 0.66 1.32 1 2 C-0.21258505 5.23356015 -1.01284458 6.00856305 -4 8 C-6.6875 8.125 -6.6875 8.125 -9 8 C-7.50164772 3.33845958 -4.11536409 2.13389249 0 0 Z " fill="#A79B19" transform="translate(110,234)"/>
<path d="M0 0 C0.66 0 1.32 0 2 0 C2.66 1.32 3.32 2.64 4 4 C1.525 5.485 1.525 5.485 -1 7 C-0.01 7.66 0.98 8.32 2 9 C0.35 9 -1.3 9 -3 9 C-2.5020163 5.26512223 -2.12508244 3.18762365 0 0 Z " fill="#AB9D23" transform="translate(193,233)"/>
<path d="M0 0 C2.125 0.9375 2.125 0.9375 4 2 C2.71064081 3.14842923 1.41843421 4.29366227 0.125 5.4375 C-0.59429687 6.07558594 -1.31359375 6.71367187 -2.0546875 7.37109375 C-4 9 -4 9 -6 10 C-6 8.68 -6 7.36 -6 6 C-5.34 6 -4.68 6 -4 6 C-3.71125 5.195625 -3.4225 4.39125 -3.125 3.5625 C-2 1 -2 1 0 0 Z " fill="#D4562F" transform="translate(485,217)"/>
<path d="M0 0 C3.18068156 0.94560803 4.72068737 1.63090831 6.75 4.3125 C7.96086954 6.9158695 8.59536231 9.16753615 9 12 C8.34 11.67 7.68 11.34 7 11 C6.375 8.4375 6.375 8.4375 6 6 C4.35 5.67 2.7 5.34 1 5 C0.67 3.35 0.34 1.7 0 0 Z " fill="#B2A93F" transform="translate(387,209)"/>
<path d="M0 0 C-0.33 0.66 -0.66 1.32 -1 2 C-2.11375 2.226875 -3.2275 2.45375 -4.375 2.6875 C-7.95981104 3.58133648 -7.95981104 3.58133648 -9.12890625 5.68359375 C-10.05898255 7.83505099 -10.05898255 7.83505099 -11 11 C-11.33 11 -11.66 11 -12 11 C-12.36521739 4.54782609 -12.36521739 4.54782609 -10.75 2.125 C-7.27834948 -0.10677533 -4.05190232 -0.11255284 0 0 Z " fill="#A59A20" transform="translate(176,197)"/>
<path d="M0 0 C0.66 1.32 1.32 2.64 2 4 C3.98 3.34 5.96 2.68 8 2 C8 2.66 8 3.32 8 4 C9.32 4.33 10.64 4.66 12 5 C1.44191344 6.33257403 1.44191344 6.33257403 -3 5 C-2.01 4.67 -1.02 4.34 0 4 C0 2.68 0 1.36 0 0 Z " fill="#B5B061" transform="translate(261,238)"/>
<path d="M0 0 C0.33 0 0.66 0 1 0 C1.47970123 1.74985354 1.95873924 3.49988891 2.4375 5.25 C2.83775391 6.71179688 2.83775391 6.71179688 3.24609375 8.203125 C3.85544584 10.46372653 4.44238255 12.72622009 5 15 C0.62770606 11.79365111 0.12430804 8.1992191 -0.80078125 3.14453125 C-0.86652344 2.43683594 -0.93226563 1.72914063 -1 1 C-0.67 0.67 -0.34 0.34 0 0 Z " fill="#AFA339" transform="translate(362,224)"/>
<path d="M0 0 C0.598125 0.309375 1.19625 0.61875 1.8125 0.9375 C4.08956772 2.10209704 4.08956772 2.10209704 7 3 C7 3.66 7 4.32 7 5 C8.98 5 10.96 5 13 5 C12.01 5.66 11.02 6.32 10 7 C6.06406814 6.07882446 2.98289255 4.75343928 0 2 C0 1.34 0 0.68 0 0 Z " fill="#AFA639" transform="translate(288,236)"/>
<path d="M0 0 C0.99 0 1.98 0 3 0 C1.84826645 2.46800047 0.95216435 4.04783565 -1 6 C-3.625 6.125 -3.625 6.125 -6 6 C-5.67 4.68 -5.34 3.36 -5 2 C-4.67 2.99 -4.34 3.98 -4 5 C-3.34 4.01 -2.68 3.02 -2 2 C-1.34 2.33 -0.68 2.66 0 3 C0 2.01 0 1.02 0 0 Z " fill="#D34417" transform="translate(453,246)"/>
<path d="M0 0 C0.66 0 1.32 0 2 0 C2.33 1.32 2.66 2.64 3 4 C5.64 4 8.28 4 11 4 C9.875 5.5625 9.875 5.5625 8 7 C4.9375 6.875 4.9375 6.875 2 6 C0 3 0 3 0 0 Z " fill="#B3AB48" transform="translate(420,216)"/>
<path d="M0 0 C0 1.32 0 2.64 0 4 C-3.3 4 -6.6 4 -10 4 C-7.16124653 -0.25813021 -4.8137938 -0.13010254 0 0 Z " fill="#A69A21" transform="translate(301,209)"/>
<path d="M0 0 C3.96 0 7.92 0 12 0 C11.67 1.98 11.34 3.96 11 6 C10.01 6 9.02 6 8 6 C8 5.34 8 4.68 8 4 C8.66 4 9.32 4 10 4 C10 3.01 10 2.02 10 1 C6.7 1 3.4 1 0 1 C0 0.67 0 0.34 0 0 Z " fill="#A69D24" transform="translate(207,210)"/>
<path d="M0 0 C1.32 0 2.64 0 4 0 C4 0.99 4 1.98 4 3 C3.34 3 2.68 3 2 3 C1.67 4.65 1.34 6.3 1 8 C0.34 7.67 -0.32 7.34 -1 7 C-0.67 4.69 -0.34 2.38 0 0 Z " fill="#E34C21" transform="translate(498,202)"/>
<path d="M0 0 C0.66 0 1.32 0 2 0 C2.1953125 6.0546875 2.1953125 6.0546875 2 8 C1.34 8.66 0.68 9.32 0 10 C0 9.01 0 8.02 0 7 C-0.66 6.67 -1.32 6.34 -2 6 C-1.34 4.02 -0.68 2.04 0 0 Z " fill="#B2A34A" transform="translate(218,228)"/>
<path d="M0 0 C1.65 0 3.3 0 5 0 C4.1875 2.4375 4.1875 2.4375 3 5 C2.01 5.33 1.02 5.66 0 6 C0 4.02 0 2.04 0 0 Z " fill="#A69C1C" transform="translate(191,210)"/>
<path d="M0 0 C0 0.33 0 0.66 0 1 C-2.64 1 -5.28 1 -8 1 C-8 1.66 -8 2.32 -8 3 C-8.639375 3.12375 -9.27875 3.2475 -9.9375 3.375 C-10.618125 3.58125 -11.29875 3.7875 -12 4 C-12.33 4.66 -12.66 5.32 -13 6 C-13 3 -13 3 -11.5625 1.3125 C-7.77217682 -0.62888504 -4.17972943 -0.24113824 0 0 Z " fill="#B0AA4C" transform="translate(104,208)"/>
<path d="M0 0 C1.175625 0.5259375 1.175625 0.5259375 2.375 1.0625 C3.674375 1.5265625 3.674375 1.5265625 5 2 C5.66 1.67 6.32 1.34 7 1 C7.99 2.32 8.98 3.64 10 5 C3.375 5.25 3.375 5.25 0 3 C0 2.01 0 1.02 0 0 Z " fill="#A99D30" transform="translate(141,199)"/>
<path d="M0 0 C0.33 0 0.66 0 1 0 C1.24954005 1.43410368 1.47392642 2.87260072 1.6875 4.3125 C1.87892578 5.51326172 1.87892578 5.51326172 2.07421875 6.73828125 C2 9 2 9 -1 12 C-0.67 8.04 -0.34 4.08 0 0 Z " fill="#B3AD5F" transform="translate(190,211)"/>
<path d="M0 0 C0.99 0.33 1.98 0.66 3 1 C1.71034824 2.37562854 0.37310707 3.70766393 -1 5 C-1.66 5 -2.32 5 -3 5 C-3.33 5.66 -3.66 6.32 -4 7 C-4 5.02 -4 3.04 -4 1 C-2.68 1.33 -1.36 1.66 0 2 C0 1.34 0 0.68 0 0 Z " fill="#D3572B" transform="translate(493,211)"/>
<path d="M0 0 C2.47598865 1.19805902 2.96367818 2.42179364 3.9375 4.9375 C2.9475 4.9375 1.9575 4.9375 0.9375 4.9375 C0.9375 3.9475 0.9375 2.9575 0.9375 1.9375 C-1.0425 2.2675 -3.0225 2.5975 -5.0625 2.9375 C-2.64829882 -0.08025148 -2.64829882 -0.08025148 0 0 Z " fill="#B1A43A" transform="translate(346.0625,217.0625)"/>
<path d="M0 0 C1.65 0.33 3.3 0.66 5 1 C4.01 1.495 4.01 1.495 3 2 C2.67 2.99 2.34 3.98 2 5 C0.68 5 -0.64 5 -2 5 C-2 4.34 -2 3.68 -2 3 C-1.34 3 -0.68 3 0 3 C0 2.01 0 1.02 0 0 Z " fill="#D94110" transform="translate(459,187)"/>
<path d="M0 0 C0.33 0.99 0.66 1.98 1 3 C-2.375 3.625 -2.375 3.625 -6 4 C-6.66 3.34 -7.32 2.68 -8 2 C-5.36 1.34 -2.72 0.68 0 0 Z " fill="#AB9D31" transform="translate(315,220)"/>
<path d="M0 0 C2.32472205 2.85306797 3.7508258 5.54074837 5 9 C4.01 9.495 4.01 9.495 3 10 C0 3.375 0 3.375 0 0 Z " fill="#B3A543" transform="translate(352,227)"/>
<path d="M0 0 C0.99 0 1.98 0 3 0 C1.90931332 3.77545388 1.0916909 6.47043472 -2 9 C-1.855625 8.443125 -1.71125 7.88625 -1.5625 7.3125 C-0.97230872 4.88615805 -0.476571 2.45093655 0 0 Z " fill="#BBB157" transform="translate(211,221)"/>
<path d="M0 0 C0.33 0.99 0.66 1.98 1 3 C0.0409375 3.433125 0.0409375 3.433125 -0.9375 3.875 C-3.15206079 4.82823451 -3.15206079 4.82823451 -4 7 C-4.66 6.34 -5.32 5.68 -6 5 C-4.02 3.35 -2.04 1.7 0 0 Z " fill="#BDB469" transform="translate(351,211)"/>
<path d="M0 0 C0.33 0.66 0.66 1.32 1 2 C0.34 2 -0.32 2 -1 2 C-1.66 3.32 -2.32 4.64 -3 6 C-3.99 6 -4.98 6 -6 6 C-4.95125002 3.37812506 -4.35068687 2.20628639 -1.875 0.75 C-1.25625 0.5025 -0.6375 0.255 0 0 Z " fill="#BAB565" transform="translate(421,208)"/>
</svg>
