<svg width="1370" height="1662" viewBox="0 0 1370 1662" fill="none" xmlns="http://www.w3.org/2000/svg">
<path d="M317.518 482.772L464.002 500.069L612.184 517.52L872.102 548.099L1005.61 437.908C1005.61 437.908 988.007 403.082 940.904 365.786C907.16 339.068 858.28 311.115 789.864 293.818C659.211 260.845 432.883 232.892 315.047 111.968C285.086 81.2349 262.152 44.4788 249.566 0.078125C249.566 0.078125 238.215 12.8964 224.47 35.8303C209.258 61.0808 191.034 98.7635 181.691 144.863C163.621 234.668 179.451 356.596 317.518 482.772Z" fill="url(#paint0_linear_281_32134)"/>
<path d="M317.517 482.769L464.001 500.066L612.183 517.517C685.927 481.302 849.785 400.145 849.785 400.145C521.374 442.692 274.352 237.214 181.767 144.938C163.621 234.666 179.45 356.594 317.517 482.769Z" fill="url(#paint1_linear_281_32134)"/>
<path d="M317.517 482.772L464.001 500.069L482.07 489.567C243.542 351.114 294.197 165.172 315.046 111.968C285.086 81.2349 262.152 44.4788 249.565 0.078125C249.565 0.078125 44.3952 233.278 317.517 482.772Z" fill="url(#paint2_linear_281_32134)"/>
<path d="M345.857 1402.37C376.899 1456.57 441.067 1445.53 441.067 1445.53C441.067 1445.53 408.945 1530.01 496.433 1551.94C583.922 1573.95 621.527 1518.27 621.527 1518.27L584.154 1393.72L538.286 1240.83C538.286 1240.83 468.557 1235.96 419.678 1151.18C413.887 1141.21 408.404 1130.09 403.385 1117.74C398.906 1106.77 384.93 1103.38 375.74 1110.87C339.602 1140.13 274.198 1214.11 355.818 1321.75C355.895 1321.67 319.294 1355.88 345.857 1402.37Z" fill="url(#paint3_linear_281_32134)"/>
<path d="M1.15627 508.021C3.7817 545.163 11.8124 592.961 33.2792 637.748C51.8117 676.512 80.3825 713.113 124.165 738.75C195.129 780.371 264.781 789.637 334.046 776.433C408.793 762.224 483.078 721.762 558.134 667.323C580.991 650.721 602.458 633.192 622.303 615.355C728.17 520.53 789.867 418.37 789.867 418.37C789.867 418.37 747.243 387.56 662.611 383.235C608.172 380.456 536.359 388.641 447.403 423.003C315.59 473.89 202.234 495.28 121.231 490.724C62.5451 487.481 20.847 470.57 1.61956 441.381C1.61956 441.381 -1.6236 468.871 1.15627 508.021Z" fill="url(#paint4_linear_281_32134)"/>
<path d="M33.277 637.747C51.8095 676.511 80.3803 713.113 124.163 738.749C195.127 780.37 264.778 789.636 334.044 776.432C408.791 762.224 483.075 721.761 558.132 667.322C580.989 650.72 602.455 633.191 622.301 615.354L638.594 510.723C638.594 510.645 347.402 748.556 33.277 637.747Z" fill="url(#paint5_linear_281_32134)"/>
<path d="M392.419 1291.64C416.357 1353.95 469.098 1358.04 469.098 1358.04C469.098 1358.04 452.187 1380.75 469.098 1424.99C486.008 1469.24 566.779 1464.91 566.779 1464.91L584.23 1393.64L538.363 1240.75C538.363 1240.75 468.634 1235.88 419.755 1151.1C404.002 1175.19 370.798 1235.57 392.419 1291.64Z" fill="url(#paint6_linear_281_32134)"/>
<path d="M473.194 899.754C469.487 983.459 607.168 1009.33 607.168 1009.33C448.87 1249.32 538.366 1473.57 538.366 1473.57L588.327 1493.1L1038.36 1314.65L1164.92 1032.57C1164.92 1032.57 1212.95 985.544 1220.9 917.977C1224.3 889.484 1220.52 857.283 1202.91 823.384C1198.59 814.968 1193.33 806.396 1187.16 797.825C1139.9 731.958 1139.36 663.465 1140.83 644.469C1141.13 640.608 1141.29 636.824 1141.06 632.886C1139.05 600.763 1128.39 569.258 1111.02 540.224C1080.13 488.333 1028.09 444.164 966.852 418.218C961.215 415.747 955.424 413.508 949.555 411.423C884.383 388.103 810.485 385.323 740.988 414.898C740.293 415.207 739.598 415.439 738.903 415.747C733.652 417.987 728.556 420.381 723.614 422.774C689.406 439.299 661.453 458.758 638.596 479.916C596.666 518.68 571.956 563.081 557.671 605.551C542.073 651.882 538.984 695.974 539.525 727.711C540.142 757.594 544.08 776.59 544.08 776.59C544.08 776.59 469.873 706.862 456.592 776.59C446.631 829.099 507.865 877.746 535.509 896.665C513.425 883.692 474.815 862.766 473.194 899.754Z" fill="url(#paint7_linear_281_32134)"/>
<path d="M690.177 1028.86C690.177 1028.86 777.048 1084.92 869.016 1065.77L794.191 1178.66C794.268 1178.66 699.057 1076.89 690.177 1028.86Z" fill="url(#paint8_linear_281_32134)"/>
<path d="M820.827 1286.08C820.827 1286.08 692.026 1235.19 602.298 1377.97L750.558 1413.64L851.328 1306L820.827 1286.08Z" fill="url(#paint9_linear_281_32134)"/>
<path d="M664.385 1223.76C664.385 1223.76 733.264 1294.8 810.019 1284.99L819.98 1242.68L687.164 1216.19L664.385 1223.76Z" fill="url(#paint10_linear_281_32134)"/>
<path d="M797.434 1209.71C797.434 1361.52 920.52 1484.61 1072.33 1484.61C1224.14 1484.61 1347.23 1361.52 1347.23 1209.71C1347.23 1064.61 1234.8 945.775 1092.33 935.583C1088.32 935.274 1084.22 935.042 1080.13 934.965C1076.12 937.899 1071.41 940.293 1066.08 941.22C1058.9 942.455 1051.48 940.834 1043.84 936.278C1035.65 937.127 1027.62 938.285 1019.67 939.907C1013.49 946.47 1003.53 953.883 989.94 953.883H989.554C984.535 953.883 980.21 953.111 976.504 952.03C972.72 953.42 968.936 954.887 965.153 956.509C866.545 998.207 797.434 1095.89 797.434 1209.71Z" fill="url(#paint11_linear_281_32134)"/>
<path d="M1296.81 1249.32C1296.81 1249.32 1300.13 1243.45 1300.13 1237.2C1300.13 1230.95 1300.28 1228.55 1300.13 1223.76C1299.97 1218.98 1301.98 1214.5 1300.2 1207.7C1298.43 1200.91 1298.5 1204 1298.89 1197.2C1299.2 1190.41 1297.35 1183.15 1295.34 1179.67C1293.33 1176.2 1290.94 1174.88 1287.93 1175.43C1284.91 1175.97 1282.91 1181.91 1279.28 1184.61C1275.57 1187.39 1273.56 1191.8 1269.86 1191.1C1266.15 1190.33 1260.98 1192.18 1261.21 1189.25C1261.36 1186.31 1267.46 1171.72 1268.93 1164.92C1270.4 1158.13 1268 1157.74 1269.86 1149.94C1271.71 1142.22 1275.73 1137.05 1276.11 1132.26C1276.5 1127.47 1279.82 1118.21 1276.5 1112.72C1273.18 1107.24 1260.82 1091.87 1259.12 1085.85C1257.42 1079.83 1255.42 1082.84 1250.24 1073.73C1245.07 1064.62 1248.54 1064.85 1245.07 1057.9C1241.59 1050.87 1247.69 1051.41 1233.8 1045.16C1219.9 1038.9 1212.71 1037.59 1210.4 1032.03C1208.08 1026.47 1205.15 1021.53 1199.97 1019.83C1194.8 1018.13 1174.88 1009.33 1171.94 1006.7C1169.01 1004.15 1162.37 997.822 1155.34 997.513C1148.31 997.127 1132.1 994.039 1127.31 991.027C1122.52 988.093 1119.9 987.321 1113.49 985.699C1107 984 1094.96 981.606 1087.85 979.213C1080.67 976.819 1077.43 975.892 1072.18 976.664C1067 977.437 1057.04 985.545 1048.7 984.772C1040.36 984 1037.66 979.753 1032.87 982.533C1028.08 985.313 1022.37 988.247 1013.49 988.247C1004.61 988.247 988.935 993.267 985.229 997.668C981.522 1002.07 972.488 1012.65 958.511 1016.12C944.457 1019.6 944.921 1026.7 942.063 1030.33C935.423 1038.83 929.322 1038.67 921.755 1042.3C914.187 1045.93 904.381 1062.38 904.381 1062.38C904.381 1062.38 901.215 1067.55 895.346 1069.17C889.478 1070.87 889.478 1084.46 884.844 1087.09C880.211 1089.64 866.003 1105.93 866.235 1110.72C866.466 1115.5 863.455 1121.6 860.675 1124.77C857.895 1127.94 860.135 1153.96 857.2 1165C854.266 1176.04 857.586 1176.04 857.2 1184.54C856.814 1193.03 856.582 1202.84 855.965 1208.09C855.347 1213.34 858.05 1222.68 858.05 1226.54C858.05 1230.4 857.586 1241.22 855.887 1245.08C854.189 1248.94 858.05 1255.35 857.2 1259.75C856.351 1264.15 854.961 1283.53 861.37 1289.63C867.702 1295.73 877.663 1304.84 881.833 1309.25C886.003 1313.65 883.223 1319.21 886.852 1324.46C890.481 1329.71 891.871 1328.32 896.273 1338.28C900.674 1348.24 902.064 1357.12 908.705 1360.13C915.346 1363.14 919.207 1363.14 920.597 1365.38C921.987 1367.62 923.068 1372.87 929.708 1377.82C936.349 1382.76 952.411 1393.57 959.901 1397.74C967.391 1401.91 968.472 1402.99 978.202 1406.85C987.854 1410.71 1000.9 1413.8 1004.46 1414.88C1008.09 1415.96 1013.88 1416.27 1020.21 1414.88C1026.54 1413.49 1025.46 1412.41 1029.86 1407.7C1034.26 1402.99 1033.72 1398.28 1038.43 1397.2C1043.14 1396.12 1042.06 1401.37 1046.46 1394.42C1050.86 1387.47 1048.39 1384.84 1054.18 1386.31C1059.98 1387.78 1066.93 1387.47 1068.01 1391.1C1069.09 1394.73 1068.01 1401.06 1065.77 1405.23C1063.53 1409.4 1062.99 1412.64 1064.92 1415.88C1066.85 1419.13 1074.18 1422.14 1077.97 1422.37C1081.75 1422.68 1095.03 1427.93 1105.3 1424.84C1115.57 1421.83 1113.87 1419.82 1126.92 1416.81C1139.97 1413.8 1141.36 1416.27 1148.24 1412.64C1155.11 1409.09 1222.68 1371.33 1227.08 1368.39C1231.48 1365.46 1242.29 1363.38 1244.76 1356.5C1247.23 1349.63 1248.93 1343.53 1250.86 1339.05C1252.79 1334.65 1252.25 1335.73 1259.2 1329.63C1266.15 1323.53 1266.15 1322.14 1268.31 1317.2C1270.47 1312.26 1274.88 1310.25 1279.89 1300.29C1284.91 1290.33 1284.91 1285.31 1285.76 1277.89C1286.61 1270.48 1290.47 1267.62 1292.71 1261.29C1295.18 1255.11 1289.93 1259.05 1296.81 1249.32Z" fill="url(#paint12_linear_281_32134)"/>
<path d="M1298.66 1243.53L1260.82 1245.92C1255.73 1246.23 1251.33 1249.71 1249.94 1254.65L1249.16 1257.2C1247.62 1262.22 1249.55 1267.7 1253.87 1270.71L1276.34 1286.23C1278.82 1287.93 1281.83 1288.7 1284.84 1288.32L1289.93 1287.7C1293.8 1287.23 1297.19 1284.92 1299.05 1281.52L1310.09 1261.68C1311.71 1258.66 1312.1 1255.19 1311.02 1251.95C1309.32 1246.62 1304.22 1243.14 1298.66 1243.53Z" fill="url(#paint13_linear_281_32134)"/>
<path d="M1290.24 1249.4L1274.18 1250.4C1272.02 1250.56 1270.17 1252.02 1269.55 1254.11L1269.24 1255.19C1268.62 1257.35 1269.39 1259.67 1271.25 1260.9L1280.74 1267.47C1281.83 1268.16 1283.06 1268.47 1284.37 1268.32L1286.54 1268.01C1288.16 1267.78 1289.62 1266.85 1290.4 1265.38L1295.11 1256.97C1295.8 1255.73 1295.96 1254.19 1295.49 1252.87C1294.72 1250.71 1292.56 1249.24 1290.24 1249.4Z" fill="url(#paint14_linear_281_32134)"/>
<path d="M1252.33 1262.06L1274.8 1277.58C1277.27 1279.28 1280.28 1280.05 1283.29 1279.67L1288.39 1279.05C1292.25 1278.59 1295.65 1276.27 1297.5 1272.87L1308.54 1253.03C1309.16 1251.87 1309.55 1250.63 1309.78 1249.32C1310.24 1250.09 1310.71 1250.94 1311.02 1251.87C1312.1 1255.11 1311.71 1258.66 1310.09 1261.6L1299.05 1281.44C1297.19 1284.84 1293.8 1287.16 1289.93 1287.62L1284.84 1288.24C1281.83 1288.62 1278.82 1287.85 1276.34 1286.15L1253.87 1270.63C1249.86 1267.85 1248.01 1262.99 1248.85 1258.35C1249.78 1259.74 1250.94 1261.06 1252.33 1262.06Z" fill="url(#paint15_linear_281_32134)"/>
<path d="M1070.48 1172.87L1032.64 1175.27C1027.54 1175.58 1023.14 1179.05 1021.75 1183.99L1020.98 1186.54C1019.44 1191.56 1021.37 1197.04 1025.69 1200.06L1048.16 1215.58C1050.63 1217.28 1053.64 1218.05 1056.65 1217.66L1061.75 1217.04C1065.61 1216.58 1069.01 1214.26 1070.86 1210.87L1081.91 1191.02C1083.53 1188.01 1083.91 1184.53 1082.83 1181.29C1081.06 1175.96 1075.96 1172.57 1070.48 1172.87Z" fill="url(#paint16_linear_281_32134)"/>
<path d="M1062.45 1179.44L1044.61 1180.6C1042.22 1180.75 1040.13 1182.37 1039.44 1184.69L1039.05 1185.93C1038.36 1188.32 1039.21 1190.87 1041.29 1192.34L1051.87 1199.67C1053.03 1200.44 1054.49 1200.83 1055.88 1200.67L1058.28 1200.37C1060.13 1200.13 1061.68 1199.05 1062.6 1197.43L1067.78 1188.09C1068.55 1186.7 1068.7 1185 1068.24 1183.53C1067.47 1180.91 1065.07 1179.29 1062.45 1179.44Z" fill="url(#paint17_linear_281_32134)"/>
<path d="M1024.15 1191.41L1046.62 1206.93C1049.09 1208.62 1052.1 1209.4 1055.11 1209.01L1060.21 1208.39C1064.07 1207.93 1067.47 1205.61 1069.32 1202.22L1080.36 1182.37C1080.98 1181.21 1081.36 1179.98 1081.6 1178.66C1082.06 1179.44 1082.52 1180.29 1082.83 1181.21C1083.91 1184.46 1083.53 1188.01 1081.91 1190.94L1070.86 1210.79C1069.01 1214.18 1065.61 1216.5 1061.75 1216.96L1056.65 1217.58C1053.64 1217.97 1050.63 1217.2 1048.16 1215.5L1025.69 1199.98C1021.67 1197.2 1019.82 1192.33 1020.67 1187.7C1021.52 1189.17 1022.68 1190.4 1024.15 1191.41Z" fill="url(#paint18_linear_281_32134)"/>
<path d="M943.457 1014.42L905.62 1016.82C900.524 1017.12 896.122 1020.6 894.732 1025.54L893.96 1028.09C892.416 1033.11 894.346 1038.59 898.671 1041.6L921.141 1057.12C923.612 1058.82 926.624 1059.59 929.635 1059.21L934.732 1058.59C938.593 1058.13 941.99 1055.81 943.843 1052.41L954.886 1032.57C956.507 1029.56 956.893 1026.08 955.812 1022.84C954.114 1017.51 949.017 1014.11 943.457 1014.42Z" fill="url(#paint19_linear_281_32134)"/>
<path d="M934.889 1020.29L914.581 1021.61C911.878 1021.76 909.484 1023.61 908.712 1026.24L908.326 1027.63C907.554 1030.33 908.558 1033.27 910.874 1034.89L922.92 1043.23C924.233 1044.15 925.855 1044.54 927.476 1044.31L930.256 1043.92C932.341 1043.69 934.117 1042.45 935.121 1040.6L941.067 1029.95C941.916 1028.32 942.148 1026.47 941.53 1024.69C940.603 1021.91 937.901 1020.06 934.889 1020.29Z" fill="url(#paint20_linear_281_32134)"/>
<path d="M897.126 1032.95L919.597 1048.47C922.068 1050.17 925.079 1050.94 928.091 1050.56L933.187 1049.94C937.048 1049.48 940.446 1047.16 942.299 1043.76L953.341 1023.92C953.959 1022.76 954.345 1021.52 954.577 1020.21C955.04 1020.98 955.503 1021.83 955.812 1022.76C956.893 1026 956.507 1029.55 954.886 1032.49L943.843 1052.33C941.99 1055.73 938.593 1058.05 934.732 1058.51L929.635 1059.13C926.624 1059.52 923.612 1058.74 921.141 1057.04L898.671 1041.52C894.655 1038.74 892.802 1033.88 893.651 1029.25C894.578 1030.71 895.736 1031.95 897.126 1032.95Z" fill="url(#paint21_linear_281_32134)"/>
<path d="M1187.23 1099.36L1189.7 1138.75C1190.01 1144.07 1193.64 1148.63 1198.74 1150.1L1201.44 1150.87C1206.69 1152.41 1212.4 1150.41 1215.49 1145.93L1231.71 1122.53C1233.49 1119.98 1234.26 1116.81 1233.87 1113.65L1233.18 1108.32C1232.64 1104.31 1230.24 1100.75 1226.77 1098.82L1206.07 1087.32C1202.98 1085.62 1199.28 1085.23 1195.96 1086.39C1190.4 1088.24 1186.85 1093.57 1187.23 1099.36Z" fill="url(#paint22_linear_281_32134)"/>
<path d="M1191.25 1107.09L1192.56 1128.48C1192.71 1131.33 1194.72 1133.81 1197.5 1134.65L1198.97 1135.12C1201.83 1135.97 1204.92 1134.89 1206.61 1132.42L1215.42 1119.75C1216.42 1118.36 1216.81 1116.66 1216.58 1114.96L1216.19 1112.11C1215.88 1109.94 1214.65 1108.01 1212.71 1106.93L1201.52 1100.68C1199.82 1099.75 1197.81 1099.52 1196.04 1100.14C1193.02 1101.06 1191.02 1103.92 1191.25 1107.09Z" fill="url(#paint23_linear_281_32134)"/>
<path d="M1206.46 1147.62L1222.67 1124.23C1224.45 1121.68 1225.22 1118.51 1224.84 1115.35L1224.14 1110.02C1223.6 1106 1221.21 1102.45 1217.73 1100.52L1197.04 1089.01C1195.8 1088.32 1194.57 1087.93 1193.18 1087.7C1194.03 1087.16 1194.88 1086.7 1195.88 1086.39C1199.28 1085.31 1202.91 1085.62 1205.99 1087.32L1226.69 1098.82C1230.24 1100.75 1232.64 1104.3 1233.1 1108.32L1233.79 1113.65C1234.18 1116.74 1233.41 1119.9 1231.63 1122.53L1215.42 1145.92C1212.56 1150.09 1207.46 1152.1 1202.6 1151.17C1204.14 1150.25 1205.45 1149.09 1206.46 1147.62Z" fill="url(#paint24_linear_281_32134)"/>
<path d="M832.181 1214.73L834.652 1254.11C834.961 1259.44 838.59 1264 843.686 1265.46L846.389 1266.24C851.64 1267.78 857.354 1265.77 860.443 1261.29L876.659 1237.9C878.435 1235.35 879.207 1232.18 878.821 1229.02L878.126 1223.69C877.585 1219.67 875.191 1216.12 871.717 1214.19L851.022 1202.68C847.933 1200.99 844.227 1200.6 840.906 1201.76C835.424 1203.61 831.872 1208.94 832.181 1214.73Z" fill="url(#paint25_linear_281_32134)"/>
<path d="M838.281 1219.98L839.362 1237.12C839.516 1239.44 841.061 1241.45 843.3 1242.06L844.458 1242.37C846.775 1243.07 849.246 1242.22 850.559 1240.21L857.586 1230.02C858.358 1228.86 858.667 1227.55 858.512 1226.16L858.203 1223.84C857.972 1222.06 856.968 1220.6 855.423 1219.67L846.466 1214.65C845.153 1213.88 843.532 1213.72 842.065 1214.27C839.671 1215.19 838.126 1217.51 838.281 1219.98Z" fill="url(#paint26_linear_281_32134)"/>
<path d="M851.485 1262.99L867.701 1239.59C869.477 1237.04 870.249 1233.88 869.863 1230.71L869.168 1225.38C868.628 1221.37 866.234 1217.82 862.759 1215.89L842.065 1204.38C840.829 1203.69 839.594 1203.3 838.204 1203.07C839.053 1202.53 839.903 1202.06 840.906 1201.76C844.304 1200.67 847.933 1200.98 851.022 1202.68L871.717 1214.19C875.269 1216.12 877.662 1219.67 878.126 1223.69L878.821 1229.01C879.207 1232.1 878.435 1235.27 876.659 1237.89L860.443 1261.29C857.586 1265.46 852.489 1267.47 847.624 1266.54C849.169 1265.69 850.481 1264.46 851.485 1262.99Z" fill="url(#paint27_linear_281_32134)"/>
<path d="M1078.82 1128.4C1061.42 1128.4 1047.31 1116.88 1047.31 1102.68C1047.31 1088.48 1061.42 1076.97 1078.82 1076.97C1096.21 1076.97 1110.32 1088.48 1110.32 1102.68C1110.32 1116.88 1096.21 1128.4 1078.82 1128.4Z" fill="url(#paint28_linear_281_32134)"/>
<path d="M1078.82 1076.97C1079.59 1076.97 1080.36 1077.05 1081.21 1077.05C1067.54 1078.05 1056.81 1087.39 1056.81 1098.82C1056.81 1110.87 1068.78 1120.67 1083.6 1120.67C1097.58 1120.67 1109.01 1111.95 1110.24 1100.75C1110.32 1101.37 1110.4 1102.06 1110.4 1102.68C1110.4 1116.89 1096.27 1128.4 1078.89 1128.4C1061.52 1128.4 1047.39 1116.89 1047.39 1102.68C1047.39 1088.47 1061.44 1076.97 1078.82 1076.97Z" fill="url(#paint29_linear_281_32134)"/>
<path d="M1072.64 1317.81C1084.3 1325.92 1101.75 1320.98 1111.72 1306.77C1121.68 1292.49 1120.36 1274.34 1108.7 1266.23C1097.04 1258.12 1079.59 1263.07 1069.63 1277.27C1059.67 1291.48 1060.98 1309.63 1072.64 1317.81Z" fill="url(#paint30_linear_281_32134)"/>
<path d="M1069.63 1277.28C1070.09 1276.66 1070.56 1276.04 1071.1 1275.42C1064.07 1287.16 1065.62 1301.37 1074.96 1307.85C1084.84 1314.8 1099.75 1310.56 1108.16 1298.43C1116.19 1287.01 1115.58 1272.57 1107.08 1265.15C1107.62 1265.46 1108.16 1265.77 1108.7 1266.16C1120.36 1274.26 1121.68 1292.41 1111.72 1306.7C1101.75 1320.98 1084.23 1325.92 1072.64 1317.74C1060.98 1309.63 1059.67 1291.48 1069.63 1277.28Z" fill="url(#paint31_linear_281_32134)"/>
<path d="M933.804 1197.28C926.546 1209.48 932.723 1226.54 947.626 1235.5C962.53 1244.46 980.522 1241.83 987.857 1229.63C995.116 1217.43 988.938 1200.36 974.035 1191.41C959.132 1182.53 941.14 1185.15 933.804 1197.28Z" fill="url(#paint32_linear_281_32134)"/>
<path d="M974.035 1191.41C974.73 1191.79 975.348 1192.26 976.043 1192.72C963.843 1186.54 949.789 1189.09 943.92 1198.82C937.743 1209.17 942.994 1223.68 955.657 1231.33C967.626 1238.51 981.989 1236.89 988.707 1227.93C988.398 1228.47 988.167 1229.09 987.858 1229.63C980.599 1241.83 962.53 1244.46 947.627 1235.5C932.724 1226.54 926.546 1209.48 933.805 1197.28C941.14 1185.15 959.132 1182.53 974.035 1191.41Z" fill="url(#paint33_linear_281_32134)"/>
<path d="M1220.29 1200.75L1228.24 1234.57C1229.78 1241.29 1227.78 1248.24 1222.91 1253.11C1218.51 1257.51 1212.25 1259.51 1206.15 1258.67L1140.6 1249.17C1134.19 1248.24 1128.63 1244.23 1125.77 1238.51L1123.76 1234.57C1121.06 1229.17 1120.91 1222.76 1123.53 1217.28L1142.76 1176.35C1147.55 1166.23 1159.67 1162.06 1169.63 1167.16L1210.02 1187.7C1215.19 1190.33 1218.97 1195.11 1220.29 1200.75Z" fill="url(#paint34_linear_281_32134)"/>
<path d="M1123.45 1217.28L1142.68 1176.35C1145.15 1171.18 1149.55 1167.55 1154.65 1165.93C1153.64 1167.16 1152.72 1168.55 1151.94 1170.1L1132.72 1211.02C1130.09 1216.5 1130.25 1222.91 1132.95 1228.32L1134.96 1232.26C1137.89 1238.05 1143.37 1241.99 1149.78 1242.91L1215.34 1252.41C1218.35 1252.87 1221.29 1252.57 1224.07 1251.72C1223.68 1252.18 1223.29 1252.64 1222.83 1253.11C1218.43 1257.51 1212.17 1259.51 1206.07 1258.67L1140.52 1249.17C1134.11 1248.24 1128.55 1244.23 1125.69 1238.51L1123.68 1234.57C1120.98 1229.17 1120.9 1222.76 1123.45 1217.28Z" fill="url(#paint35_linear_281_32134)"/>
<path d="M1130.71 1380.82C1130.71 1380.82 1130.71 1380.9 1130.71 1380.82C1131.56 1385.07 1133.72 1389.01 1137.04 1392.17L1155.35 1409.32C1159.28 1413.02 1164.53 1415.11 1169.94 1415.11H1180.75C1186.16 1415.11 1191.33 1413.02 1195.34 1409.32L1225 1381.67C1226.93 1379.9 1228.47 1377.73 1229.55 1375.5C1231.1 1372.41 1231.87 1369.01 1231.79 1365.61C1231.79 1365.23 1231.79 1364.92 1231.79 1364.53C1231.64 1363.06 1231.41 1361.6 1231.02 1360.13C1230.86 1359.51 1230.63 1358.97 1230.4 1358.35C1228.78 1354.11 1225.77 1350.4 1221.83 1347.93C1207.39 1338.82 1174.26 1319.82 1160.44 1328.16C1149.32 1334.88 1138.74 1353.95 1132.41 1367.46C1132.1 1368.08 1131.87 1368.7 1131.64 1369.32C1131.33 1370.09 1131.1 1370.86 1130.94 1371.63C1130.87 1371.94 1130.79 1372.33 1130.71 1372.72C1130.71 1372.87 1130.64 1373.02 1130.64 1373.18C1130.17 1375.73 1130.25 1378.28 1130.71 1380.82Z" fill="url(#paint36_linear_281_32134)"/>
<path d="M1175.19 1354.57C1166.58 1354.57 1159.59 1351.15 1159.59 1346.93C1159.59 1342.7 1166.58 1339.28 1175.19 1339.28C1183.81 1339.28 1190.79 1342.7 1190.79 1346.93C1190.79 1351.15 1183.81 1354.57 1175.19 1354.57Z" fill="url(#paint37_linear_281_32134)"/>
<path d="M1130.71 1380.82C1130.71 1380.82 1130.71 1380.9 1130.71 1380.82C1131.56 1385.07 1133.72 1389.01 1137.04 1392.18L1155.34 1409.32C1159.28 1413.02 1164.53 1415.11 1169.94 1415.11H1180.75C1186.15 1415.11 1191.33 1413.02 1195.34 1409.32L1224.99 1381.67C1226.92 1379.9 1228.47 1377.74 1229.55 1375.5C1231.02 1372.41 1231.79 1369.01 1231.79 1365.61C1231.79 1365.23 1231.79 1364.92 1231.79 1364.53C1231.79 1362.68 1231.48 1360.82 1231.02 1359.05C1230.86 1358.66 1230.71 1358.28 1230.55 1357.89C1230.48 1358.05 1230.48 1358.2 1230.4 1358.35C1229.24 1361.6 1227.46 1364.61 1224.99 1367L1195.34 1396.5C1191.4 1400.44 1186.15 1402.68 1180.75 1402.68H1169.94C1164.53 1402.68 1159.28 1400.44 1155.34 1396.5L1137.04 1378.2C1134.49 1375.65 1132.64 1372.56 1131.56 1369.24V1369.16C1131.25 1369.94 1131.1 1370.79 1130.94 1371.56C1130.86 1371.87 1130.79 1372.25 1130.71 1372.64C1130.71 1372.79 1130.63 1372.95 1130.63 1373.1C1130.25 1375.73 1130.25 1378.28 1130.71 1380.82Z" fill="url(#paint38_linear_281_32134)"/>
<path d="M1158.28 1180.99C1156.81 1184.92 1162.06 1190.64 1170.17 1193.65C1178.28 1196.66 1186 1195.97 1187.47 1192.03C1188.93 1188.09 1183.68 1182.38 1175.57 1179.36C1167.47 1176.35 1159.82 1177.05 1158.28 1180.99Z" fill="url(#paint39_linear_281_32134)"/>
<path d="M1077.74 1086.7C1076.65 1089.48 1080.44 1093.49 1086.07 1095.58C1091.71 1097.66 1097.19 1097.2 1098.2 1094.42C1099.28 1091.64 1095.5 1087.62 1089.86 1085.54C1084.22 1083.45 1078.74 1083.92 1077.74 1086.7Z" fill="url(#paint40_linear_281_32134)"/>
<path d="M962.299 1199.52C960.6 1201.99 963.225 1206.7 968.167 1210.17C973.109 1213.65 978.515 1214.5 980.214 1212.03C981.912 1209.55 979.287 1204.84 974.345 1201.37C969.403 1197.89 963.998 1197.12 962.299 1199.52Z" fill="url(#paint41_linear_281_32134)"/>
<path d="M1080.13 1288.01C1082.6 1289.71 1087.31 1287.08 1090.79 1282.14C1094.26 1277.2 1095.11 1271.79 1092.64 1270.1C1090.17 1268.4 1085.46 1271.02 1081.99 1275.96C1078.59 1280.91 1077.74 1286.31 1080.13 1288.01Z" fill="url(#paint42_linear_281_32134)"/>
<path d="M999.127 1021.83C1010.79 1029.94 1028.24 1025 1038.2 1010.79C1048.16 996.506 1046.85 978.36 1035.19 970.252C1023.53 962.144 1006.08 967.086 996.116 981.294C986.154 995.502 987.467 1013.73 999.127 1021.83Z" fill="url(#paint43_linear_281_32134)"/>
<path d="M996.116 981.295C996.579 980.677 997.042 980.06 997.583 979.442C990.556 991.179 992.1 1005.39 1001.44 1011.87C1011.33 1018.82 1026.23 1014.58 1034.65 1002.45C1042.68 991.025 1042.06 976.585 1033.57 969.172C1034.11 969.481 1034.65 969.79 1035.19 970.176C1046.85 978.284 1048.16 996.43 1038.2 1010.72C1028.24 1025 1010.71 1029.94 999.127 1021.76C987.467 1013.73 986.154 995.581 996.116 981.295Z" fill="url(#paint44_linear_281_32134)"/>
<path d="M1006.69 992.029C1009.17 993.728 1013.88 991.103 1017.35 986.161C1020.83 981.219 1021.67 975.813 1019.2 974.115C1016.73 972.416 1012.02 975.041 1008.55 979.983C1005.07 984.925 1004.22 990.33 1006.69 992.029Z" fill="url(#paint45_linear_281_32134)"/>
<path d="M1165.3 984.152L1187 1009.87C1194.34 1018.51 1193.72 1031.33 1185.69 1039.29L1165.15 1059.52C1161.05 1063.53 1155.65 1065.77 1149.94 1065.77H1138.97C1134.57 1065.77 1130.32 1064.46 1126.69 1061.99L1099.82 1043.53C1093.64 1039.29 1090.09 1032.1 1090.4 1024.54L1091.79 997.047C1092.41 985.541 1101.91 976.43 1113.49 976.43H1148.78C1155.11 976.43 1161.21 979.21 1165.3 984.152Z" fill="url(#paint46_linear_281_32134)"/>
<path d="M1158.43 992.88L1170.17 1006.7C1174.11 1011.34 1173.8 1018.28 1169.47 1022.53L1158.43 1033.42C1156.27 1035.58 1153.33 1036.82 1150.24 1036.82H1144.38C1141.98 1036.82 1139.74 1036.12 1137.74 1034.73L1123.22 1024.77C1119.9 1022.45 1117.97 1018.59 1118.2 1014.58L1118.97 999.752C1119.28 993.498 1124.45 988.633 1130.63 988.633H1149.63C1152.95 988.71 1156.19 990.254 1158.43 992.88Z" fill="url(#paint47_linear_281_32134)"/>
<path d="M1091.87 997.049C1092.33 987.551 1098.9 979.752 1107.62 977.281C1103.76 980.988 1101.21 986.084 1100.9 991.876L1099.51 1019.37C1099.13 1026.86 1102.68 1034.11 1108.94 1038.36L1135.81 1056.82C1139.44 1059.29 1143.68 1060.6 1148.09 1060.6H1159.05C1161.06 1060.6 1163.07 1060.29 1165 1059.75C1160.98 1063.61 1155.58 1065.77 1150.02 1065.77H1139.05C1134.65 1065.77 1130.4 1064.46 1126.77 1061.99L1099.9 1043.53C1093.72 1039.29 1090.17 1032.11 1090.48 1024.54L1091.87 997.049Z" fill="url(#paint48_linear_281_32134)"/>
<path d="M986.622 1067.47C999.826 1068.94 1010.87 1078.2 1014.5 1091.02C1016.2 1096.81 1017.35 1103.07 1017.12 1108.63C1016.35 1124.46 1009.71 1135.58 1003.07 1139.28C996.428 1142.99 962.838 1152.95 955.116 1159.21C947.394 1165.46 946.622 1170.25 938.514 1170.25C930.406 1170.25 924.847 1169.17 922.298 1163.61C919.75 1158.05 905.696 1101.22 932.26 1079.13C947.703 1066.24 970.406 1065.7 986.622 1067.47Z" fill="url(#paint49_linear_281_32134)"/>
<path d="M979.439 1076.74C985.694 1078.21 990.482 1083.38 991.563 1089.79C992.026 1092.64 992.258 1095.81 991.794 1098.44C990.482 1106.08 986.621 1111.02 983.146 1112.41C979.748 1113.8 962.837 1116.58 958.745 1119.21C954.652 1121.76 953.957 1124.07 950.019 1123.61C946.081 1123.15 943.455 1122.3 942.529 1119.44C941.602 1116.58 938.205 1088.24 952.413 1079.13C960.675 1073.8 971.64 1074.88 979.439 1076.74Z" fill="url(#paint50_linear_281_32134)"/>
<path d="M933.569 1158.13C941.909 1158.13 942.681 1153.34 950.635 1147.09C958.588 1140.83 993.028 1130.87 999.823 1127.16C1006.62 1123.46 1013.41 1112.41 1014.19 1096.51C1014.34 1094.04 1014.11 1091.41 1013.72 1088.79C1014.03 1089.56 1014.34 1090.25 1014.57 1091.02C1016.27 1096.82 1017.43 1103.07 1017.2 1108.63C1016.42 1124.46 1009.78 1135.58 1003.14 1139.29C996.502 1142.99 962.912 1152.95 955.191 1159.21C947.469 1165.46 946.697 1170.25 938.589 1170.25C930.481 1170.25 924.921 1169.17 922.373 1163.61C921.832 1162.53 920.905 1159.52 919.979 1155.19C922.99 1157.51 927.546 1158.13 933.569 1158.13Z" fill="url(#paint51_linear_281_32134)"/>
<path d="M1011.64 1314.03L1011.26 1317.89C1010.48 1325.15 1007.01 1331.79 1001.53 1336.58C993.495 1343.53 981.063 1353.64 968.63 1360.59C956.97 1367.08 942.453 1364.69 933.496 1354.8C922.84 1343.07 909.713 1326.23 910.021 1314.34C910.562 1294.42 918.052 1290.56 919.133 1285.31C920.214 1280.06 920.214 1265.62 928.013 1265.23C935.735 1264.84 970.329 1265.69 983.07 1269.55C991.41 1272.1 1001.45 1286.31 1007.47 1295.88C1010.79 1301.21 1012.34 1307.62 1011.64 1314.03Z" fill="url(#paint52_linear_281_32134)"/>
<path d="M996.428 1302.06L996.274 1303.45C996.042 1306.08 994.729 1308.47 992.799 1310.17C989.942 1312.72 985.386 1316.35 980.907 1318.82C976.737 1321.14 971.486 1320.29 968.243 1316.73C964.382 1312.49 959.672 1306.46 959.749 1302.14C959.981 1294.96 962.606 1293.57 963.07 1291.64C963.456 1289.71 963.456 1284.53 966.236 1284.38C969.015 1284.23 981.525 1284.53 986.081 1285.92C989.092 1286.85 992.722 1291.95 994.884 1295.42C996.119 1297.51 996.66 1299.82 996.428 1302.06Z" fill="url(#paint53_linear_281_32134)"/>
<path d="M919.053 1285.23C920.134 1279.98 920.134 1265.54 927.934 1265.15C929.246 1265.07 931.331 1265.07 933.879 1265.07C931.177 1269.78 930.868 1277.97 930.096 1281.68C929.015 1286.93 921.524 1290.79 920.984 1310.71C920.675 1322.6 933.802 1339.51 944.458 1351.17C950.79 1358.12 959.902 1361.37 968.859 1360.36C968.782 1360.44 968.705 1360.44 968.551 1360.52C956.891 1367 942.373 1364.61 933.416 1354.73C922.76 1342.99 909.633 1326.15 909.942 1314.26C910.482 1294.42 917.972 1290.56 919.053 1285.23Z" fill="url(#paint54_linear_281_32134)"/>
<path d="M949.089 940.68C949.397 941.22 953.644 950.178 964.996 956.355C964.996 956.355 965.073 956.355 965.15 956.432C971.096 959.676 979.049 962.224 989.397 962.301H989.86C1012.49 962.301 1026.31 946.317 1031.79 938.286C1043.68 947.784 1055.73 951.568 1067.46 949.56C1077.97 947.707 1086.31 941.606 1092.25 935.583C1092.25 935.583 1092.33 935.506 1092.41 935.429C1098.89 928.788 1102.52 922.225 1102.75 921.761C1103.91 919.676 1103.06 917.128 1101.05 916.047C1098.97 914.889 1096.42 915.661 1095.26 917.746C1095.19 917.9 1089.7 927.862 1080.21 934.888C1080.13 934.888 1080.13 934.966 1080.05 935.043C1076.04 937.977 1071.33 940.371 1066 941.298C1058.82 942.533 1051.4 940.911 1043.76 936.356C1043.68 936.356 1043.6 936.278 1043.53 936.278C1040.28 934.348 1036.96 931.877 1033.64 928.865C1032.64 928.016 1031.33 927.63 1030.01 927.862C1028.7 928.093 1027.62 928.943 1027 930.101C1026.92 930.178 1024.45 934.734 1019.74 939.908C1019.67 939.985 1019.67 939.985 1019.59 940.062C1013.41 946.626 1003.45 954.039 989.86 954.039H989.474C984.455 954.039 980.13 953.266 976.424 952.185C976.347 952.185 976.347 952.108 976.27 952.108C962.061 947.861 956.965 937.745 956.733 937.205C955.729 935.12 953.181 934.193 951.096 935.197C949.011 936.047 948.085 938.518 949.089 940.68Z" fill="url(#paint55_linear_281_32134)"/>
<path d="M939.437 1610.47H1103.14C1103.14 1610.47 1119.51 1643.13 1181.05 1633.17C1236.73 1624.14 1390.16 1528.46 1367.69 1437.5C1367.15 1435.18 1366.46 1432.87 1365.61 1430.55C1363.06 1423.29 1359.35 1416.11 1354.41 1409.01C1353.1 1407.15 1351.78 1405.46 1350.32 1403.83C1348.77 1402.06 1347.15 1400.36 1345.38 1398.81C1336.96 1391.17 1326.92 1386.61 1315.88 1384.68C1312.25 1383.99 1308.54 1383.6 1304.84 1383.53C1260.05 1382.06 1204.14 1416.88 1177.27 1463.21L1177.43 1463.6C1164.68 1468.85 1151.4 1473.25 1137.81 1476.57C1116.81 1481.67 1094.96 1484.45 1072.33 1484.45C1050.25 1484.45 1028.7 1481.75 1008.16 1476.81L939.437 1610.47Z" fill="url(#paint56_linear_281_32134)"/>
<path d="M1144.61 1534.1C1152.33 1501.98 1177.43 1463.68 1177.43 1463.68C1164.68 1468.93 1151.4 1473.33 1137.81 1476.65C1146.23 1493.72 1144.61 1534.1 1144.61 1534.1Z" fill="url(#paint57_linear_281_32134)"/>
<path d="M1103.14 1610.47C1103.14 1610.47 1089.01 1590.24 1092.95 1566.22C1092.95 1566.22 1067.77 1598.58 998.278 1610.47H1103.14Z" fill="url(#paint58_linear_281_32134)"/>
<path d="M1211.56 1490.47C1182.14 1518.19 1172.33 1555.57 1189.7 1574.1C1207.08 1592.55 1244.99 1585.06 1274.49 1557.34C1303.91 1529.62 1313.72 1492.25 1296.34 1473.72C1278.97 1455.18 1240.98 1462.83 1211.56 1490.47Z" fill="url(#paint59_linear_281_32134)"/>
<path d="M1273.33 1429.17C1273.72 1429.32 1274.1 1429.4 1274.49 1429.4C1275.88 1429.4 1277.19 1428.55 1277.66 1427.16C1285.53 1405.08 1304.53 1391.33 1315.88 1384.69C1312.25 1383.99 1308.54 1383.61 1304.84 1383.53C1292.94 1391.72 1278.27 1405.15 1271.25 1424.84C1270.63 1426.62 1271.56 1428.55 1273.33 1429.17Z" fill="#F87C38"/>
<path d="M1308.85 1444.07C1309.39 1444.37 1309.86 1444.45 1310.4 1444.45C1311.63 1444.45 1312.79 1443.83 1313.41 1442.6C1324.22 1421.59 1340.05 1409.7 1350.32 1403.76C1348.78 1401.98 1347.15 1400.28 1345.38 1398.74C1334.34 1405.3 1318.51 1417.81 1307.39 1439.43C1306.54 1441.21 1307.16 1443.22 1308.85 1444.07Z" fill="#F87C38"/>
<path d="M1333.33 1473.18C1333.87 1473.49 1334.34 1473.57 1334.88 1473.57C1336.11 1473.57 1337.27 1472.87 1337.89 1471.71C1346.46 1455.11 1358.12 1444.22 1367.62 1437.5C1367.08 1435.19 1366.38 1432.87 1365.53 1430.55C1354.95 1437.74 1341.59 1449.7 1331.79 1468.62C1331.02 1470.25 1331.71 1472.33 1333.33 1473.18Z" fill="#F87C38"/>
<path d="M538.366 1473.56C603.616 1616.96 724.541 1626.38 777.899 1622.9C794.346 1621.82 804.307 1619.51 804.307 1619.51C810.485 1673.64 872.028 1670.62 910.483 1635.1C947.085 1601.13 988.551 1571.17 988.551 1571.17C1040.29 1539.43 1067.55 1491.79 1052.26 1458.5C1050.17 1453.87 1047.24 1449.47 1043.38 1445.53C1039.52 1441.44 1034.65 1437.73 1028.94 1434.49C1027.93 1433.95 1026.93 1433.33 1025.92 1432.87C1022.22 1430.94 1018.43 1429.32 1014.65 1428C1007.47 1425.45 1000.29 1423.91 993.261 1423.14C989.864 1422.83 986.466 1422.6 983.146 1422.6C948.706 1422.44 921.216 1439.28 921.216 1439.28C921.216 1439.28 928.089 1392.02 881.217 1346.07C865.465 1330.63 845.002 1311.71 813.419 1302.06C641.453 1249.32 538.366 1473.56 538.366 1473.56Z" fill="url(#paint60_linear_281_32134)"/>
<path d="M889.942 1521.98C863.533 1546.84 854.73 1580.35 870.328 1596.96C885.927 1613.48 919.98 1606.76 946.389 1581.98C972.798 1557.19 981.601 1523.6 966.002 1507C950.404 1490.39 916.351 1497.11 889.942 1521.98Z" fill="url(#paint61_linear_281_32134)"/>
<path d="M804.381 1619.51C804.381 1619.51 798.744 1587.69 828.164 1552.95C826.774 1553.72 786.08 1577.96 777.895 1622.91C794.342 1621.75 804.381 1619.51 804.381 1619.51Z" fill="url(#paint62_linear_281_32134)"/>
<path d="M869.012 1481.36C883.452 1458.74 921.135 1439.2 921.135 1439.2C921.135 1439.2 928.007 1391.95 881.136 1346C908.162 1403.68 870.788 1477.97 869.012 1481.36Z" fill="url(#paint63_linear_281_32134)"/>
<path d="M994.032 1461.75C993.646 1463.6 994.881 1465.38 996.735 1465.68C996.966 1465.76 997.198 1465.76 997.352 1465.76C998.974 1465.76 1000.36 1464.68 1000.67 1463.06C1002.68 1452.87 1002.68 1435.18 993.26 1423.06C989.862 1422.75 986.465 1422.52 983.144 1422.52C999.283 1434.41 994.341 1460.51 994.032 1461.75ZM1014.73 1427.92C1018.51 1429.24 1022.22 1430.86 1026 1432.79C1031.1 1443.99 1030.79 1457.27 1029.17 1465.61C1028.86 1467.23 1027.47 1468.39 1025.85 1468.39C1025.61 1468.39 1025.38 1468.39 1025.15 1468.31C1023.3 1467.92 1022.14 1466.15 1022.53 1464.29C1022.68 1463.14 1026.93 1440.67 1014.73 1427.92ZM1038.82 1481.44C1039.36 1480.43 1050.17 1461.21 1043.45 1445.45C1047.31 1449.39 1050.25 1453.79 1052.33 1458.43C1052.02 1468.7 1048.32 1478.58 1044.69 1484.84C1044.07 1485.92 1042.91 1486.53 1041.75 1486.53C1041.21 1486.53 1040.59 1486.38 1040.05 1486.07C1038.43 1485.14 1037.89 1483.14 1038.82 1481.44Z" fill="#F87C38"/>
<path d="M539.52 727.941C591.951 799.832 676.274 796.975 689.479 773.5C695.502 762.767 694.266 751.956 691.023 743.23C687.085 732.651 679.209 723.926 669.556 718.212C599.828 676.822 568.477 626.862 557.666 605.781C542.068 652.19 538.902 696.204 539.52 727.941Z" fill="url(#paint64_linear_281_32134)"/>
<path d="M844.303 828.865C821.402 828.865 802.837 808.26 802.837 782.843C802.837 757.425 821.402 736.82 844.303 736.82C867.204 736.82 885.77 757.425 885.77 782.843C885.77 808.26 867.204 828.865 844.303 828.865Z" fill="url(#paint65_linear_281_32134)"/>
<path d="M860.904 802.456C854.763 802.456 849.784 796.925 849.784 790.101C849.784 783.278 854.763 777.746 860.904 777.746C867.045 777.746 872.023 783.278 872.023 790.101C872.023 796.925 867.045 802.456 860.904 802.456Z" fill="white"/>
<path d="M1094.65 823.302C1071.75 823.302 1053.18 802.698 1053.18 777.28C1053.18 751.863 1071.75 731.258 1094.65 731.258C1117.55 731.258 1136.11 751.863 1136.11 777.28C1136.11 802.698 1117.55 823.302 1094.65 823.302Z" fill="url(#paint66_linear_281_32134)"/>
<path d="M1111.33 796.972C1105.18 796.972 1100.21 791.44 1100.21 784.617C1100.21 777.793 1105.18 772.262 1111.33 772.262C1117.47 772.262 1122.45 777.793 1122.45 784.617C1122.45 791.44 1117.47 796.972 1111.33 796.972Z" fill="white"/>
<path d="M1179.51 738.672C1183.68 738.672 1187.85 737.437 1191.48 734.811C1200.59 728.248 1202.68 715.429 1196.04 706.24C1194.18 703.692 1149.4 643.23 1045.92 658.133C1034.8 659.755 1027 670.102 1028.63 681.222C1030.25 692.341 1040.59 700.063 1051.71 698.519C1129.63 687.322 1161.67 728.479 1162.99 730.255C1167.08 735.815 1173.26 738.672 1179.51 738.672Z" fill="#F87C38"/>
<path d="M745.848 738.595C752.103 738.595 758.28 735.738 762.296 730.255C763.917 728.17 796.04 687.399 873.568 698.519C884.687 700.14 895.034 692.418 896.656 681.222C898.278 670.102 890.556 659.755 879.359 658.133C775.886 643.23 731.099 703.692 729.246 706.24C722.682 715.352 724.767 728.093 733.879 734.734C737.586 737.359 741.755 738.595 745.848 738.595Z" fill="#F87C38"/>
<path d="M998.048 834.426H1018.51H1038.97C1050.48 834.426 1059.75 843.229 1059.75 854.117V856.587C1059.75 864.155 1055.11 871.105 1047.85 874.348L1027.24 883.614C1021.68 886.085 1015.19 886.085 1009.63 883.614L989.014 874.348C981.755 871.105 977.122 864.155 977.122 856.587V854.117C977.277 843.229 986.62 834.426 998.048 834.426Z" fill="#F87C38"/>
<path opacity="0.6" d="M807.006 941.449C759.285 941.449 720.599 919.842 720.599 893.187C720.599 866.533 759.285 844.926 807.006 844.926C854.728 844.926 893.414 866.533 893.414 893.187C893.414 919.842 854.728 941.449 807.006 941.449Z" fill="#FFCA83"/>
<path opacity="0.6" d="M1111.33 871.567C1111.33 898.208 1150.01 919.829 1197.73 919.829C1205.76 919.829 1213.56 919.211 1220.98 918.053C1224.37 889.559 1220.59 857.359 1202.98 823.46C1201.29 823.383 1199.51 823.383 1197.73 823.383C1149.93 823.383 1111.33 844.927 1111.33 871.567Z" fill="#FFCA83"/>
<path d="M638.592 480.146C661.835 488.099 698.437 510.184 733.648 571.186C745.154 591.109 768.628 600.761 790.636 594.275L791.871 593.889C821.832 585.086 836.117 551.187 821.832 523.465C803.608 488.254 772.644 445.088 723.533 423.004C689.402 439.529 661.449 458.988 638.592 480.146ZM1111.02 540.299C1102.44 552.499 1088.24 560.607 1071.87 560.685H1070.63C1048.24 560.762 1028.93 545.395 1023.6 523.62C1009.24 464.934 985.613 434.201 966.848 418.371C1028.08 444.239 1080.13 488.408 1111.02 540.299ZM949.551 411.576C980.979 451.498 1000.21 497.443 1009.94 535.666C1020.52 577.209 999.666 619.68 957.351 626.707L955.575 627.015C924.378 632.189 894.031 615.124 881.676 586.012C839.515 486.478 776.891 436.826 740.984 415.05C810.481 385.476 884.379 388.256 949.551 411.576Z" fill="url(#paint67_linear_281_32134)"/>
<path d="M664.384 1223.76C721.372 1264.3 790.869 1261.68 841.292 1251.25C857.431 1247.93 871.33 1239.75 881.755 1228.55C883.84 1226.31 885.77 1223.99 887.546 1221.52C892.952 1214.11 896.967 1205.77 899.438 1196.81C900.056 1194.5 900.596 1192.18 900.982 1189.78C901.755 1185.54 902.141 1181.29 902.141 1176.97C902.141 1173.57 901.909 1170.17 901.446 1166.7C901.446 1166.39 901.368 1166.08 901.291 1165.77C900.982 1163.45 900.519 1161.21 899.979 1158.97C893.029 1130.09 869.786 1107.55 840.134 1102.22C746.159 1085.31 690.176 1029.02 690.176 1029.02L664.384 1223.76Z" fill="url(#paint68_linear_281_32134)"/>
<path d="M124.163 738.674C195.127 780.295 264.778 789.562 334.043 776.357C154.278 720.914 125.089 561.767 121.228 490.726C62.5423 487.482 20.8442 470.571 1.6168 441.383C1.6168 441.383 -23.4793 652.19 124.163 738.674Z" fill="url(#paint69_linear_281_32134)"/>
<path opacity="0.3" d="M1.15565 508.021C83.3935 563.155 219.221 568.328 379.527 479.836C487.942 419.991 593.808 394.278 662.688 383.235C608.248 380.456 536.435 388.641 447.479 423.003C315.667 473.89 202.31 495.28 121.308 490.724C62.6217 487.481 20.9236 470.57 1.69615 441.381C1.61893 441.381 -1.62422 468.871 1.15565 508.021Z" fill="#FFCA83"/>
<path d="M825.387 1152.41C843.688 1163.45 867.703 1166.16 886.544 1166.16C891.95 1166.16 896.969 1165.92 901.293 1165.61C900.984 1163.3 900.521 1161.06 899.98 1158.82C881.448 1159.98 850.406 1159.59 828.939 1146.54C827.318 1145.54 825.233 1146.08 824.229 1147.7C823.302 1149.32 823.843 1151.41 825.387 1152.41ZM821.603 1178.9C822.607 1177.27 824.692 1176.81 826.314 1177.74C849.248 1191.64 883.147 1191.25 901.061 1189.71C900.675 1192.1 900.135 1194.42 899.517 1196.73C895.038 1197.04 889.787 1197.27 883.996 1197.27C865.155 1197.27 841.14 1194.57 822.839 1183.53C821.14 1182.6 820.6 1180.44 821.603 1178.9ZM818.901 1210.02C819.827 1208.39 821.989 1207.93 823.534 1208.86C842.452 1220.36 868.861 1222.06 887.548 1221.44C885.772 1223.91 883.842 1226.23 881.757 1228.47H881.216C862.375 1228.47 838.36 1225.77 820.059 1214.65C818.437 1213.72 817.897 1211.64 818.901 1210.02Z" fill="#F87C38"/>
<path d="M1066.23 587.555L1065.84 596.28C1065.84 596.28 1066.15 593.192 1066.23 587.555Z" fill="url(#paint70_linear_281_32134)"/>
<path opacity="0.3" d="M224.548 35.8294C246.169 94.5928 338.368 267.64 680.601 290.883C800.908 299.068 883.764 328.334 940.828 365.707C907.084 338.99 858.204 311.037 789.789 293.74C659.135 260.767 432.807 232.814 314.971 111.89C285.01 81.1568 262.076 44.4007 249.49 0C249.567 0.0772186 238.293 12.8955 224.548 35.8294Z" fill="#FFCA83"/>
<defs>
<linearGradient id="paint0_linear_281_32134" x1="646.406" y1="723.951" x2="493.634" y2="-348.773" gradientUnits="userSpaceOnUse">
<stop stop-color="#FF2A64"/>
<stop offset="0.0754063" stop-color="#FF465E"/>
<stop offset="0.1805" stop-color="#FF6657"/>
<stop offset="0.2947" stop-color="#FF8152"/>
<stop offset="0.4191" stop-color="#FF954D"/>
<stop offset="0.5591" stop-color="#FFA44A"/>
<stop offset="0.7273" stop-color="#FFAC49"/>
<stop offset="1" stop-color="#FFAF48"/>
</linearGradient>
<linearGradient id="paint1_linear_281_32134" x1="510.388" y1="595.238" x2="517.031" y2="-245.008" gradientUnits="userSpaceOnUse">
<stop stop-color="#FF2A64"/>
<stop offset="0.0754063" stop-color="#FF465E"/>
<stop offset="0.1805" stop-color="#FF6657"/>
<stop offset="0.2947" stop-color="#FF8152"/>
<stop offset="0.4191" stop-color="#FF954D"/>
<stop offset="0.5591" stop-color="#FFA44A"/>
<stop offset="0.7273" stop-color="#FFAC49"/>
<stop offset="1" stop-color="#FFAF48"/>
</linearGradient>
<linearGradient id="paint2_linear_281_32134" x1="360.268" y1="618.327" x2="204.175" y2="-683.556" gradientUnits="userSpaceOnUse">
<stop stop-color="#FF2A64"/>
<stop offset="0.0754063" stop-color="#FF465E"/>
<stop offset="0.1805" stop-color="#FF6657"/>
<stop offset="0.2947" stop-color="#FF8152"/>
<stop offset="0.4191" stop-color="#FF954D"/>
<stop offset="0.5591" stop-color="#FFA44A"/>
<stop offset="0.7273" stop-color="#FFAC49"/>
<stop offset="1" stop-color="#FFAF48"/>
</linearGradient>
<linearGradient id="paint3_linear_281_32134" x1="587.466" y1="1920.14" x2="301.849" y2="674.717" gradientUnits="userSpaceOnUse">
<stop stop-color="#FF2A64"/>
<stop offset="0.0754063" stop-color="#FF465E"/>
<stop offset="0.1805" stop-color="#FF6657"/>
<stop offset="0.2947" stop-color="#FF8152"/>
<stop offset="0.4191" stop-color="#FF954D"/>
<stop offset="0.5591" stop-color="#FFA44A"/>
<stop offset="0.7273" stop-color="#FFAC49"/>
<stop offset="1" stop-color="#FFAF48"/>
</linearGradient>
<linearGradient id="paint4_linear_281_32134" x1="1244.01" y1="1112.04" x2="-589.253" y2="-130.061" gradientUnits="userSpaceOnUse">
<stop stop-color="#FF2A64"/>
<stop offset="0.0754063" stop-color="#FF465E"/>
<stop offset="0.1805" stop-color="#FF6657"/>
<stop offset="0.2947" stop-color="#FF8152"/>
<stop offset="0.4191" stop-color="#FF954D"/>
<stop offset="0.5591" stop-color="#FFA44A"/>
<stop offset="0.7273" stop-color="#FFAC49"/>
<stop offset="1" stop-color="#FFAF48"/>
</linearGradient>
<linearGradient id="paint5_linear_281_32134" x1="804.168" y1="907.053" x2="-340.515" y2="143.193" gradientUnits="userSpaceOnUse">
<stop stop-color="#FF2A64"/>
<stop offset="0.0754063" stop-color="#FF465E"/>
<stop offset="0.1805" stop-color="#FF6657"/>
<stop offset="0.2947" stop-color="#FF8152"/>
<stop offset="0.4191" stop-color="#FF954D"/>
<stop offset="0.5591" stop-color="#FFA44A"/>
<stop offset="0.7273" stop-color="#FFAC49"/>
<stop offset="1" stop-color="#FFAF48"/>
</linearGradient>
<linearGradient id="paint6_linear_281_32134" x1="572.674" y1="1712.81" x2="287.057" y2="467.392" gradientUnits="userSpaceOnUse">
<stop stop-color="#FF2A64"/>
<stop offset="0.0754063" stop-color="#FF465E"/>
<stop offset="0.1805" stop-color="#FF6657"/>
<stop offset="0.2947" stop-color="#FF8152"/>
<stop offset="0.4191" stop-color="#FF954D"/>
<stop offset="0.5591" stop-color="#FFA44A"/>
<stop offset="0.7273" stop-color="#FFAC49"/>
<stop offset="1" stop-color="#FFAF48"/>
</linearGradient>
<linearGradient id="paint7_linear_281_32134" x1="838.755" y1="2334.67" x2="838.755" y2="352.655" gradientUnits="userSpaceOnUse">
<stop stop-color="#FF2A64"/>
<stop offset="0.0754063" stop-color="#FF465E"/>
<stop offset="0.1805" stop-color="#FF6657"/>
<stop offset="0.2947" stop-color="#FF8152"/>
<stop offset="0.4191" stop-color="#FF954D"/>
<stop offset="0.5591" stop-color="#FFA44A"/>
<stop offset="0.7273" stop-color="#FFAC49"/>
<stop offset="1" stop-color="#FFAF48"/>
</linearGradient>
<linearGradient id="paint8_linear_281_32134" x1="794.592" y1="1228.35" x2="759.167" y2="799.929" gradientUnits="userSpaceOnUse">
<stop stop-color="#FF2A64"/>
<stop offset="0.0754063" stop-color="#FF465E"/>
<stop offset="0.1805" stop-color="#FF6657"/>
<stop offset="0.2947" stop-color="#FF8152"/>
<stop offset="0.4191" stop-color="#FF954D"/>
<stop offset="0.5591" stop-color="#FFA44A"/>
<stop offset="0.7273" stop-color="#FFAC49"/>
<stop offset="1" stop-color="#FFAF48"/>
</linearGradient>
<linearGradient id="paint9_linear_281_32134" x1="800.897" y1="1653.74" x2="541.849" y2="564.408" gradientUnits="userSpaceOnUse">
<stop stop-color="#FF2A64"/>
<stop offset="0.0754063" stop-color="#FF465E"/>
<stop offset="0.1805" stop-color="#FF6657"/>
<stop offset="0.2947" stop-color="#FF8152"/>
<stop offset="0.4191" stop-color="#FF954D"/>
<stop offset="0.5591" stop-color="#FFA44A"/>
<stop offset="0.7273" stop-color="#FFAC49"/>
<stop offset="1" stop-color="#FFAF48"/>
</linearGradient>
<linearGradient id="paint10_linear_281_32134" x1="839.964" y1="1644.45" x2="580.916" y2="555.118" gradientUnits="userSpaceOnUse">
<stop stop-color="#FF2A64"/>
<stop offset="0.0754063" stop-color="#FF465E"/>
<stop offset="0.1805" stop-color="#FF6657"/>
<stop offset="0.2947" stop-color="#FF8152"/>
<stop offset="0.4191" stop-color="#FF954D"/>
<stop offset="0.5591" stop-color="#FFA44A"/>
<stop offset="0.7273" stop-color="#FFAC49"/>
<stop offset="1" stop-color="#FFAF48"/>
</linearGradient>
<linearGradient id="paint11_linear_281_32134" x1="1015.19" y1="1935.55" x2="1105.97" y2="782.011" gradientUnits="userSpaceOnUse">
<stop stop-color="#44262A"/>
<stop offset="0.1067" stop-color="#4A282B"/>
<stop offset="0.2486" stop-color="#5B302C"/>
<stop offset="0.4095" stop-color="#763B2E"/>
<stop offset="0.5" stop-color="#894330"/>
<stop offset="1" stop-color="#EE7D61"/>
</linearGradient>
<linearGradient id="paint12_linear_281_32134" x1="1078.27" y1="2063.76" x2="1078.27" y2="914.907" gradientUnits="userSpaceOnUse">
<stop stop-color="#44262A"/>
<stop offset="0.1067" stop-color="#4A282B"/>
<stop offset="0.2486" stop-color="#5B302C"/>
<stop offset="0.4095" stop-color="#763B2E"/>
<stop offset="0.5" stop-color="#894330"/>
<stop offset="1" stop-color="#EE7D61"/>
</linearGradient>
<linearGradient id="paint13_linear_281_32134" x1="1279.58" y1="1302.2" x2="1281.06" y2="1190.76" gradientUnits="userSpaceOnUse">
<stop stop-color="#44262A"/>
<stop offset="0.1067" stop-color="#4A282B"/>
<stop offset="0.2486" stop-color="#5B302C"/>
<stop offset="0.4095" stop-color="#763B2E"/>
<stop offset="0.5" stop-color="#894330"/>
<stop offset="1" stop-color="#EE7D61"/>
</linearGradient>
<linearGradient id="paint14_linear_281_32134" x1="1283.03" y1="1299.34" x2="1281.74" y2="1212.43" gradientUnits="userSpaceOnUse">
<stop stop-color="#44262A"/>
<stop offset="0.1067" stop-color="#4A282B"/>
<stop offset="0.2486" stop-color="#5B302C"/>
<stop offset="0.4095" stop-color="#763B2E"/>
<stop offset="0.5" stop-color="#894330"/>
<stop offset="1" stop-color="#EE7D61"/>
</linearGradient>
<linearGradient id="paint15_linear_281_32134" x1="1280.3" y1="1292.03" x2="1279.93" y2="1185.38" gradientUnits="userSpaceOnUse">
<stop stop-color="#44262A"/>
<stop offset="0.1067" stop-color="#4A282B"/>
<stop offset="0.2486" stop-color="#5B302C"/>
<stop offset="0.4095" stop-color="#763B2E"/>
<stop offset="0.5" stop-color="#894330"/>
<stop offset="1" stop-color="#EE7D61"/>
</linearGradient>
<linearGradient id="paint16_linear_281_32134" x1="1051.91" y1="1232.84" x2="1051.91" y2="1118.14" gradientUnits="userSpaceOnUse">
<stop stop-color="#44262A"/>
<stop offset="0.1067" stop-color="#4A282B"/>
<stop offset="0.2486" stop-color="#5B302C"/>
<stop offset="0.4095" stop-color="#763B2E"/>
<stop offset="0.5" stop-color="#894330"/>
<stop offset="1" stop-color="#EE7D61"/>
</linearGradient>
<linearGradient id="paint17_linear_281_32134" x1="1053.71" y1="1213.95" x2="1053.71" y2="1159.84" gradientUnits="userSpaceOnUse">
<stop stop-color="#44262A"/>
<stop offset="0.1067" stop-color="#4A282B"/>
<stop offset="0.2486" stop-color="#5B302C"/>
<stop offset="0.4095" stop-color="#763B2E"/>
<stop offset="0.5" stop-color="#894330"/>
<stop offset="1" stop-color="#EE7D61"/>
</linearGradient>
<linearGradient id="paint18_linear_281_32134" x1="1051.93" y1="1221.48" x2="1051.93" y2="1108.01" gradientUnits="userSpaceOnUse">
<stop stop-color="#44262A"/>
<stop offset="0.1067" stop-color="#4A282B"/>
<stop offset="0.2486" stop-color="#5B302C"/>
<stop offset="0.4095" stop-color="#763B2E"/>
<stop offset="0.5" stop-color="#894330"/>
<stop offset="1" stop-color="#EE7D61"/>
</linearGradient>
<linearGradient id="paint19_linear_281_32134" x1="924.961" y1="1061.49" x2="924.961" y2="946.793" gradientUnits="userSpaceOnUse">
<stop stop-color="#44262A"/>
<stop offset="0.1067" stop-color="#4A282B"/>
<stop offset="0.2486" stop-color="#5B302C"/>
<stop offset="0.4095" stop-color="#763B2E"/>
<stop offset="0.5" stop-color="#894330"/>
<stop offset="1" stop-color="#EE7D61"/>
</linearGradient>
<linearGradient id="paint20_linear_281_32134" x1="926.994" y1="1052.97" x2="921.182" y2="981.845" gradientUnits="userSpaceOnUse">
<stop stop-color="#44262A"/>
<stop offset="0.1067" stop-color="#4A282B"/>
<stop offset="0.2486" stop-color="#5B302C"/>
<stop offset="0.4095" stop-color="#763B2E"/>
<stop offset="0.5" stop-color="#894330"/>
<stop offset="1" stop-color="#EE7D61"/>
</linearGradient>
<linearGradient id="paint21_linear_281_32134" x1="929.43" y1="1053.86" x2="908.396" y2="936.885" gradientUnits="userSpaceOnUse">
<stop stop-color="#44262A"/>
<stop offset="0.1067" stop-color="#4A282B"/>
<stop offset="0.2486" stop-color="#5B302C"/>
<stop offset="0.4095" stop-color="#763B2E"/>
<stop offset="0.5" stop-color="#894330"/>
<stop offset="1" stop-color="#EE7D61"/>
</linearGradient>
<linearGradient id="paint22_linear_281_32134" x1="1199.53" y1="1202.1" x2="1225.36" y2="979.218" gradientUnits="userSpaceOnUse">
<stop stop-color="#44262A"/>
<stop offset="0.1067" stop-color="#4A282B"/>
<stop offset="0.2486" stop-color="#5B302C"/>
<stop offset="0.4095" stop-color="#763B2E"/>
<stop offset="0.5" stop-color="#894330"/>
<stop offset="1" stop-color="#EE7D61"/>
</linearGradient>
<linearGradient id="paint23_linear_281_32134" x1="1197.53" y1="1166.16" x2="1211.53" y2="1045.4" gradientUnits="userSpaceOnUse">
<stop stop-color="#44262A"/>
<stop offset="0.1067" stop-color="#4A282B"/>
<stop offset="0.2486" stop-color="#5B302C"/>
<stop offset="0.4095" stop-color="#763B2E"/>
<stop offset="0.5" stop-color="#894330"/>
<stop offset="1" stop-color="#EE7D61"/>
</linearGradient>
<linearGradient id="paint24_linear_281_32134" x1="1223.94" y1="1148.49" x2="1173.39" y2="989.079" gradientUnits="userSpaceOnUse">
<stop stop-color="#44262A"/>
<stop offset="0.1067" stop-color="#4A282B"/>
<stop offset="0.2486" stop-color="#5B302C"/>
<stop offset="0.4095" stop-color="#763B2E"/>
<stop offset="0.5" stop-color="#894330"/>
<stop offset="1" stop-color="#EE7D61"/>
</linearGradient>
<linearGradient id="paint25_linear_281_32134" x1="860.425" y1="1315.99" x2="851.846" y2="1150.21" gradientUnits="userSpaceOnUse">
<stop stop-color="#44262A"/>
<stop offset="0.1067" stop-color="#4A282B"/>
<stop offset="0.2486" stop-color="#5B302C"/>
<stop offset="0.4095" stop-color="#763B2E"/>
<stop offset="0.5" stop-color="#894330"/>
<stop offset="1" stop-color="#EE7D61"/>
</linearGradient>
<linearGradient id="paint26_linear_281_32134" x1="851.092" y1="1274.6" x2="847.359" y2="1202.47" gradientUnits="userSpaceOnUse">
<stop stop-color="#44262A"/>
<stop offset="0.1067" stop-color="#4A282B"/>
<stop offset="0.2486" stop-color="#5B302C"/>
<stop offset="0.4095" stop-color="#763B2E"/>
<stop offset="0.5" stop-color="#894330"/>
<stop offset="1" stop-color="#EE7D61"/>
</linearGradient>
<linearGradient id="paint27_linear_281_32134" x1="871.673" y1="1299.92" x2="846.211" y2="1140.51" gradientUnits="userSpaceOnUse">
<stop stop-color="#44262A"/>
<stop offset="0.1067" stop-color="#4A282B"/>
<stop offset="0.2486" stop-color="#5B302C"/>
<stop offset="0.4095" stop-color="#763B2E"/>
<stop offset="0.5" stop-color="#894330"/>
<stop offset="1" stop-color="#EE7D61"/>
</linearGradient>
<linearGradient id="paint28_linear_281_32134" x1="1070.55" y1="1156.44" x2="1089.74" y2="1032.08" gradientUnits="userSpaceOnUse">
<stop stop-color="#44262A"/>
<stop offset="0.1067" stop-color="#4A282B"/>
<stop offset="0.2486" stop-color="#5B302C"/>
<stop offset="0.4095" stop-color="#763B2E"/>
<stop offset="0.5" stop-color="#894330"/>
<stop offset="1" stop-color="#EE7D61"/>
</linearGradient>
<linearGradient id="paint29_linear_281_32134" x1="1071.4" y1="1140.02" x2="1093.54" y2="1028.95" gradientUnits="userSpaceOnUse">
<stop stop-color="#44262A"/>
<stop offset="0.1067" stop-color="#4A282B"/>
<stop offset="0.2486" stop-color="#5B302C"/>
<stop offset="0.4095" stop-color="#763B2E"/>
<stop offset="0.5" stop-color="#894330"/>
<stop offset="1" stop-color="#EE7D61"/>
</linearGradient>
<linearGradient id="paint30_linear_281_32134" x1="1089.35" y1="1335.48" x2="1093.78" y2="1188.8" gradientUnits="userSpaceOnUse">
<stop stop-color="#44262A"/>
<stop offset="0.1067" stop-color="#4A282B"/>
<stop offset="0.2486" stop-color="#5B302C"/>
<stop offset="0.4095" stop-color="#763B2E"/>
<stop offset="0.5" stop-color="#894330"/>
<stop offset="1" stop-color="#EE7D61"/>
</linearGradient>
<linearGradient id="paint31_linear_281_32134" x1="1089.11" y1="1322.35" x2="1097.41" y2="1160.17" gradientUnits="userSpaceOnUse">
<stop stop-color="#44262A"/>
<stop offset="0.1067" stop-color="#4A282B"/>
<stop offset="0.2486" stop-color="#5B302C"/>
<stop offset="0.4095" stop-color="#763B2E"/>
<stop offset="0.5" stop-color="#894330"/>
<stop offset="1" stop-color="#EE7D61"/>
</linearGradient>
<linearGradient id="paint32_linear_281_32134" x1="928.982" y1="1273.39" x2="993.191" y2="1152.72" gradientUnits="userSpaceOnUse">
<stop stop-color="#44262A"/>
<stop offset="0.1067" stop-color="#4A282B"/>
<stop offset="0.2486" stop-color="#5B302C"/>
<stop offset="0.4095" stop-color="#763B2E"/>
<stop offset="0.5" stop-color="#894330"/>
<stop offset="1" stop-color="#EE7D61"/>
</linearGradient>
<linearGradient id="paint33_linear_281_32134" x1="951.259" y1="1253.26" x2="982.231" y2="1122.21" gradientUnits="userSpaceOnUse">
<stop stop-color="#44262A"/>
<stop offset="0.1067" stop-color="#4A282B"/>
<stop offset="0.2486" stop-color="#5B302C"/>
<stop offset="0.4095" stop-color="#763B2E"/>
<stop offset="0.5" stop-color="#894330"/>
<stop offset="1" stop-color="#EE7D61"/>
</linearGradient>
<linearGradient id="paint34_linear_281_32134" x1="1173.91" y1="1250.98" x2="1182.77" y2="1119.61" gradientUnits="userSpaceOnUse">
<stop stop-color="#44262A"/>
<stop offset="0.1067" stop-color="#4A282B"/>
<stop offset="0.2486" stop-color="#5B302C"/>
<stop offset="0.4095" stop-color="#763B2E"/>
<stop offset="0.5" stop-color="#894330"/>
<stop offset="1" stop-color="#EE7D61"/>
</linearGradient>
<linearGradient id="paint35_linear_281_32134" x1="1168.26" y1="1266.16" x2="1200.92" y2="1065.79" gradientUnits="userSpaceOnUse">
<stop stop-color="#44262A"/>
<stop offset="0.1067" stop-color="#4A282B"/>
<stop offset="0.2486" stop-color="#5B302C"/>
<stop offset="0.4095" stop-color="#763B2E"/>
<stop offset="0.5" stop-color="#894330"/>
<stop offset="1" stop-color="#EE7D61"/>
</linearGradient>
<linearGradient id="paint36_linear_281_32134" x1="1180.56" y1="1436.4" x2="1182.04" y2="1235.66" gradientUnits="userSpaceOnUse">
<stop stop-color="#44262A"/>
<stop offset="0.1067" stop-color="#4A282B"/>
<stop offset="0.2486" stop-color="#5B302C"/>
<stop offset="0.4095" stop-color="#763B2E"/>
<stop offset="0.5" stop-color="#894330"/>
<stop offset="1" stop-color="#EE7D61"/>
</linearGradient>
<linearGradient id="paint37_linear_281_32134" x1="1175.17" y1="1404.23" x2="1175.17" y2="1313.41" gradientUnits="userSpaceOnUse">
<stop stop-color="#44262A"/>
<stop offset="0.1067" stop-color="#4A282B"/>
<stop offset="0.2486" stop-color="#5B302C"/>
<stop offset="0.4095" stop-color="#763B2E"/>
<stop offset="0.5" stop-color="#894330"/>
<stop offset="1" stop-color="#EE7D61"/>
</linearGradient>
<linearGradient id="paint38_linear_281_32134" x1="1181.06" y1="1417.48" x2="1181.06" y2="1173.34" gradientUnits="userSpaceOnUse">
<stop stop-color="#44262A"/>
<stop offset="0.1067" stop-color="#4A282B"/>
<stop offset="0.2486" stop-color="#5B302C"/>
<stop offset="0.4095" stop-color="#763B2E"/>
<stop offset="0.5" stop-color="#894330"/>
<stop offset="1" stop-color="#EE7D61"/>
</linearGradient>
<linearGradient id="paint39_linear_281_32134" x1="1169" y1="1238.41" x2="1174.81" y2="1160.36" gradientUnits="userSpaceOnUse">
<stop stop-color="#44262A"/>
<stop offset="0.1067" stop-color="#4A282B"/>
<stop offset="0.2486" stop-color="#5B302C"/>
<stop offset="0.4095" stop-color="#763B2E"/>
<stop offset="0.5" stop-color="#894330"/>
<stop offset="1" stop-color="#EE7D61"/>
</linearGradient>
<linearGradient id="paint40_linear_281_32134" x1="1071" y1="1153.66" x2="1097.2" y2="1056.24" gradientUnits="userSpaceOnUse">
<stop stop-color="#44262A"/>
<stop offset="0.1067" stop-color="#4A282B"/>
<stop offset="0.2486" stop-color="#5B302C"/>
<stop offset="0.4095" stop-color="#763B2E"/>
<stop offset="0.5" stop-color="#894330"/>
<stop offset="1" stop-color="#EE7D61"/>
</linearGradient>
<linearGradient id="paint41_linear_281_32134" x1="927.696" y1="1271.18" x2="986.369" y2="1183.17" gradientUnits="userSpaceOnUse">
<stop stop-color="#44262A"/>
<stop offset="0.1067" stop-color="#4A282B"/>
<stop offset="0.2486" stop-color="#5B302C"/>
<stop offset="0.4095" stop-color="#763B2E"/>
<stop offset="0.5" stop-color="#894330"/>
<stop offset="1" stop-color="#EE7D61"/>
</linearGradient>
<linearGradient id="paint42_linear_281_32134" x1="1082.92" y1="1372.38" x2="1088.46" y2="1225.14" gradientUnits="userSpaceOnUse">
<stop stop-color="#44262A"/>
<stop offset="0.1067" stop-color="#4A282B"/>
<stop offset="0.2486" stop-color="#5B302C"/>
<stop offset="0.4095" stop-color="#763B2E"/>
<stop offset="0.5" stop-color="#894330"/>
<stop offset="1" stop-color="#EE7D61"/>
</linearGradient>
<linearGradient id="paint43_linear_281_32134" x1="1018.85" y1="1040.7" x2="1012.48" y2="871.873" gradientUnits="userSpaceOnUse">
<stop stop-color="#44262A"/>
<stop offset="0.1067" stop-color="#4A282B"/>
<stop offset="0.2486" stop-color="#5B302C"/>
<stop offset="0.4095" stop-color="#763B2E"/>
<stop offset="0.5" stop-color="#894330"/>
<stop offset="1" stop-color="#EE7D61"/>
</linearGradient>
<linearGradient id="paint44_linear_281_32134" x1="1018.65" y1="1019.6" x2="1011.45" y2="905.302" gradientUnits="userSpaceOnUse">
<stop stop-color="#44262A"/>
<stop offset="0.1067" stop-color="#4A282B"/>
<stop offset="0.2486" stop-color="#5B302C"/>
<stop offset="0.4095" stop-color="#763B2E"/>
<stop offset="0.5" stop-color="#894330"/>
<stop offset="1" stop-color="#EE7D61"/>
</linearGradient>
<linearGradient id="paint45_linear_281_32134" x1="1022.27" y1="1019.7" x2="999.3" y2="929.474" gradientUnits="userSpaceOnUse">
<stop stop-color="#44262A"/>
<stop offset="0.1067" stop-color="#4A282B"/>
<stop offset="0.2486" stop-color="#5B302C"/>
<stop offset="0.4095" stop-color="#763B2E"/>
<stop offset="0.5" stop-color="#894330"/>
<stop offset="1" stop-color="#EE7D61"/>
</linearGradient>
<linearGradient id="paint46_linear_281_32134" x1="1141.29" y1="1086.22" x2="1141.29" y2="815.991" gradientUnits="userSpaceOnUse">
<stop stop-color="#44262A"/>
<stop offset="0.1067" stop-color="#4A282B"/>
<stop offset="0.2486" stop-color="#5B302C"/>
<stop offset="0.4095" stop-color="#763B2E"/>
<stop offset="0.5" stop-color="#894330"/>
<stop offset="1" stop-color="#EE7D61"/>
</linearGradient>
<linearGradient id="paint47_linear_281_32134" x1="1145.46" y1="1063.42" x2="1145.46" y2="917.84" gradientUnits="userSpaceOnUse">
<stop stop-color="#44262A"/>
<stop offset="0.1067" stop-color="#4A282B"/>
<stop offset="0.2486" stop-color="#5B302C"/>
<stop offset="0.4095" stop-color="#763B2E"/>
<stop offset="0.5" stop-color="#894330"/>
<stop offset="1" stop-color="#EE7D61"/>
</linearGradient>
<linearGradient id="paint48_linear_281_32134" x1="1127.66" y1="1035.24" x2="1127.66" y2="808.999" gradientUnits="userSpaceOnUse">
<stop stop-color="#44262A"/>
<stop offset="0.1067" stop-color="#4A282B"/>
<stop offset="0.2486" stop-color="#5B302C"/>
<stop offset="0.4095" stop-color="#763B2E"/>
<stop offset="0.5" stop-color="#894330"/>
<stop offset="1" stop-color="#EE7D61"/>
</linearGradient>
<linearGradient id="paint49_linear_281_32134" x1="980.69" y1="1180.67" x2="934.748" y2="983.62" gradientUnits="userSpaceOnUse">
<stop stop-color="#44262A"/>
<stop offset="0.1067" stop-color="#4A282B"/>
<stop offset="0.2486" stop-color="#5B302C"/>
<stop offset="0.4095" stop-color="#763B2E"/>
<stop offset="0.5" stop-color="#894330"/>
<stop offset="1" stop-color="#EE7D61"/>
</linearGradient>
<linearGradient id="paint50_linear_281_32134" x1="973.427" y1="1162.82" x2="957.375" y2="1018.63" gradientUnits="userSpaceOnUse">
<stop stop-color="#44262A"/>
<stop offset="0.1067" stop-color="#4A282B"/>
<stop offset="0.2486" stop-color="#5B302C"/>
<stop offset="0.4095" stop-color="#763B2E"/>
<stop offset="0.5" stop-color="#894330"/>
<stop offset="1" stop-color="#EE7D61"/>
</linearGradient>
<linearGradient id="paint51_linear_281_32134" x1="968.519" y1="1166.86" x2="968.519" y2="958.686" gradientUnits="userSpaceOnUse">
<stop stop-color="#44262A"/>
<stop offset="0.1067" stop-color="#4A282B"/>
<stop offset="0.2486" stop-color="#5B302C"/>
<stop offset="0.4095" stop-color="#763B2E"/>
<stop offset="0.5" stop-color="#894330"/>
<stop offset="1" stop-color="#EE7D61"/>
</linearGradient>
<linearGradient id="paint52_linear_281_32134" x1="936.503" y1="1405.64" x2="999.604" y2="1164.31" gradientUnits="userSpaceOnUse">
<stop stop-color="#44262A"/>
<stop offset="0.1067" stop-color="#4A282B"/>
<stop offset="0.2486" stop-color="#5B302C"/>
<stop offset="0.4095" stop-color="#763B2E"/>
<stop offset="0.5" stop-color="#894330"/>
<stop offset="1" stop-color="#EE7D61"/>
</linearGradient>
<linearGradient id="paint53_linear_281_32134" x1="955.519" y1="1413.47" x2="997.586" y2="1205.34" gradientUnits="userSpaceOnUse">
<stop stop-color="#44262A"/>
<stop offset="0.1067" stop-color="#4A282B"/>
<stop offset="0.2486" stop-color="#5B302C"/>
<stop offset="0.4095" stop-color="#763B2E"/>
<stop offset="0.5" stop-color="#894330"/>
<stop offset="1" stop-color="#EE7D61"/>
</linearGradient>
<linearGradient id="paint54_linear_281_32134" x1="939.403" y1="1353.66" x2="939.403" y2="1100.31" gradientUnits="userSpaceOnUse">
<stop stop-color="#44262A"/>
<stop offset="0.1067" stop-color="#4A282B"/>
<stop offset="0.2486" stop-color="#5B302C"/>
<stop offset="0.4095" stop-color="#763B2E"/>
<stop offset="0.5" stop-color="#894330"/>
<stop offset="1" stop-color="#EE7D61"/>
</linearGradient>
<linearGradient id="paint55_linear_281_32134" x1="1025.99" y1="1040.34" x2="1025.99" y2="871.953" gradientUnits="userSpaceOnUse">
<stop stop-color="#03192E"/>
<stop offset="0.5" stop-color="#223C6A"/>
<stop offset="1" stop-color="#4A74A2"/>
</linearGradient>
<linearGradient id="paint56_linear_281_32134" x1="1075.77" y1="1774.42" x2="1308.99" y2="1082.15" gradientUnits="userSpaceOnUse">
<stop stop-color="#FF2A64"/>
<stop offset="0.0754063" stop-color="#FF465E"/>
<stop offset="0.1805" stop-color="#FF6657"/>
<stop offset="0.2947" stop-color="#FF8152"/>
<stop offset="0.4191" stop-color="#FF954D"/>
<stop offset="0.5591" stop-color="#FFA44A"/>
<stop offset="0.7273" stop-color="#FFAC49"/>
<stop offset="1" stop-color="#FFAF48"/>
</linearGradient>
<linearGradient id="paint57_linear_281_32134" x1="1081.31" y1="1714.57" x2="1313.05" y2="972.114" gradientUnits="userSpaceOnUse">
<stop stop-color="#FF2A64"/>
<stop offset="0.0754063" stop-color="#FF465E"/>
<stop offset="0.1805" stop-color="#FF6657"/>
<stop offset="0.2947" stop-color="#FF8152"/>
<stop offset="0.4191" stop-color="#FF954D"/>
<stop offset="0.5591" stop-color="#FFA44A"/>
<stop offset="0.7273" stop-color="#FFAC49"/>
<stop offset="1" stop-color="#FFAF48"/>
</linearGradient>
<linearGradient id="paint58_linear_281_32134" x1="1023.78" y1="1696.61" x2="1255.53" y2="954.154" gradientUnits="userSpaceOnUse">
<stop stop-color="#FF2A64"/>
<stop offset="0.0754063" stop-color="#FF465E"/>
<stop offset="0.1805" stop-color="#FF6657"/>
<stop offset="0.2947" stop-color="#FF8152"/>
<stop offset="0.4191" stop-color="#FF954D"/>
<stop offset="0.5591" stop-color="#FFA44A"/>
<stop offset="0.7273" stop-color="#FFAC49"/>
<stop offset="1" stop-color="#FFAF48"/>
</linearGradient>
<linearGradient id="paint59_linear_281_32134" x1="1174.41" y1="1743.63" x2="1406.15" y2="1001.17" gradientUnits="userSpaceOnUse">
<stop stop-color="#FF2A64"/>
<stop offset="0.0754063" stop-color="#FF465E"/>
<stop offset="0.1805" stop-color="#FF6657"/>
<stop offset="0.2947" stop-color="#FF8152"/>
<stop offset="0.4191" stop-color="#FF954D"/>
<stop offset="0.5591" stop-color="#FFA44A"/>
<stop offset="0.7273" stop-color="#FFAC49"/>
<stop offset="1" stop-color="#FFAF48"/>
</linearGradient>
<linearGradient id="paint60_linear_281_32134" x1="797.449" y1="2334.66" x2="797.449" y2="352.652" gradientUnits="userSpaceOnUse">
<stop stop-color="#FF2A64"/>
<stop offset="0.0754063" stop-color="#FF465E"/>
<stop offset="0.1805" stop-color="#FF6657"/>
<stop offset="0.2947" stop-color="#FF8152"/>
<stop offset="0.4191" stop-color="#FF954D"/>
<stop offset="0.5591" stop-color="#FFA44A"/>
<stop offset="0.7273" stop-color="#FFAC49"/>
<stop offset="1" stop-color="#FFAF48"/>
</linearGradient>
<linearGradient id="paint61_linear_281_32134" x1="796.71" y1="1706.45" x2="1267.57" y2="1107.17" gradientUnits="userSpaceOnUse">
<stop stop-color="#FF2A64"/>
<stop offset="0.0754063" stop-color="#FF465E"/>
<stop offset="0.1805" stop-color="#FF6657"/>
<stop offset="0.2947" stop-color="#FF8152"/>
<stop offset="0.4191" stop-color="#FF954D"/>
<stop offset="0.5591" stop-color="#FFA44A"/>
<stop offset="0.7273" stop-color="#FFAC49"/>
<stop offset="1" stop-color="#FFAF48"/>
</linearGradient>
<linearGradient id="paint62_linear_281_32134" x1="775.728" y1="1703.02" x2="887.908" y2="1229.2" gradientUnits="userSpaceOnUse">
<stop stop-color="#FF2A64"/>
<stop offset="0.0754063" stop-color="#FF465E"/>
<stop offset="0.1805" stop-color="#FF6657"/>
<stop offset="0.2947" stop-color="#FF8152"/>
<stop offset="0.4191" stop-color="#FF954D"/>
<stop offset="0.5591" stop-color="#FFA44A"/>
<stop offset="0.7273" stop-color="#FFAC49"/>
<stop offset="1" stop-color="#FFAF48"/>
</linearGradient>
<linearGradient id="paint63_linear_281_32134" x1="887.712" y1="1655.07" x2="911.328" y2="1039.56" gradientUnits="userSpaceOnUse">
<stop stop-color="#FF2A64"/>
<stop offset="0.0754063" stop-color="#FF465E"/>
<stop offset="0.1805" stop-color="#FF6657"/>
<stop offset="0.2947" stop-color="#FF8152"/>
<stop offset="0.4191" stop-color="#FF954D"/>
<stop offset="0.5591" stop-color="#FFA44A"/>
<stop offset="0.7273" stop-color="#FFAC49"/>
<stop offset="1" stop-color="#FFAF48"/>
</linearGradient>
<linearGradient id="paint64_linear_281_32134" x1="680.914" y1="1085.24" x2="543.64" y2="350.16" gradientUnits="userSpaceOnUse">
<stop stop-color="#FF2A64"/>
<stop offset="0.0754063" stop-color="#FF465E"/>
<stop offset="0.1805" stop-color="#FF6657"/>
<stop offset="0.2947" stop-color="#FF8152"/>
<stop offset="0.4191" stop-color="#FF954D"/>
<stop offset="0.5591" stop-color="#FFA44A"/>
<stop offset="0.7273" stop-color="#FFAC49"/>
<stop offset="1" stop-color="#FFAF48"/>
</linearGradient>
<linearGradient id="paint65_linear_281_32134" x1="844.306" y1="823.55" x2="844.306" y2="658.597" gradientUnits="userSpaceOnUse">
<stop stop-color="#03192E"/>
<stop offset="0.5" stop-color="#223C6A"/>
<stop offset="1" stop-color="#4A74A2"/>
</linearGradient>
<linearGradient id="paint66_linear_281_32134" x1="1094.68" y1="823.548" x2="1094.68" y2="658.594" gradientUnits="userSpaceOnUse">
<stop stop-color="#03192E"/>
<stop offset="0.5" stop-color="#223C6A"/>
<stop offset="1" stop-color="#4A74A2"/>
</linearGradient>
<linearGradient id="paint67_linear_281_32134" x1="913.824" y1="980.583" x2="834.117" y2="19.6696" gradientUnits="userSpaceOnUse">
<stop stop-color="#FF2A64"/>
<stop offset="0.0754063" stop-color="#FF465E"/>
<stop offset="0.1805" stop-color="#FF6657"/>
<stop offset="0.2947" stop-color="#FF8152"/>
<stop offset="0.4191" stop-color="#FF954D"/>
<stop offset="0.5591" stop-color="#FFA44A"/>
<stop offset="0.7273" stop-color="#FFAC49"/>
<stop offset="1" stop-color="#FFAF48"/>
</linearGradient>
<linearGradient id="paint68_linear_281_32134" x1="783.234" y1="2334.66" x2="783.234" y2="352.653" gradientUnits="userSpaceOnUse">
<stop stop-color="#FF2A64"/>
<stop offset="0.0754063" stop-color="#FF465E"/>
<stop offset="0.1805" stop-color="#FF6657"/>
<stop offset="0.2947" stop-color="#FF8152"/>
<stop offset="0.4191" stop-color="#FF954D"/>
<stop offset="0.5591" stop-color="#FFA44A"/>
<stop offset="0.7273" stop-color="#FFAC49"/>
<stop offset="1" stop-color="#FFAF48"/>
</linearGradient>
<linearGradient id="paint69_linear_281_32134" x1="290.402" y1="963.437" x2="-139.13" y2="-66.1132" gradientUnits="userSpaceOnUse">
<stop stop-color="#FF2A64"/>
<stop offset="0.0754063" stop-color="#FF465E"/>
<stop offset="0.1805" stop-color="#FF6657"/>
<stop offset="0.2947" stop-color="#FF8152"/>
<stop offset="0.4191" stop-color="#FF954D"/>
<stop offset="0.5591" stop-color="#FFA44A"/>
<stop offset="0.7273" stop-color="#FFAC49"/>
<stop offset="1" stop-color="#FFAF48"/>
</linearGradient>
<linearGradient id="paint70_linear_281_32134" x1="1065.65" y1="602.563" x2="1066.48" y2="582.167" gradientUnits="userSpaceOnUse">
<stop/>
<stop offset="1" stop-color="white"/>
</linearGradient>
</defs>
</svg>
