<svg width="1409" height="493" viewBox="0 0 1409 493" fill="none" xmlns="http://www.w3.org/2000/svg">
<path d="M1195.01 484.759C1172.8 458.712 1141.29 411.381 1128.77 342.271C1128.77 342.271 1192.87 386.164 1235.67 484.759H1195.01Z" fill="#498DBC"/>
<path d="M1281.53 283.752C1281.53 283.752 1282.89 247.624 1314.8 214.263C1314.8 214.263 1315.85 251.513 1287.21 293.366L1281.53 283.752Z" fill="#FD8D32"/>
<path d="M1232.9 320.07C1232.9 320.07 1223.36 81.303 1316.74 0C1316.74 0 1310.33 6.48267 1313.73 22.0265C1317.12 37.5704 1289.67 46.1363 1298.25 69.3283C1306.84 92.5202 1305.1 110.235 1286.31 131.3C1267.52 152.365 1310.04 176.256 1290.84 212.399C1271.64 248.542 1323.43 316.85 1232.9 320.07Z" fill="#498DBC"/>
<path d="M1252.99 177.931C1252.99 177.931 1277.6 80.5596 1292.11 48.8018C1292.11 48.8018 1249.86 200.671 1244.65 240.004C1239.43 279.338 1234.97 213.316 1234.97 213.316L1252.99 177.931Z" fill="#DFDACB"/>
<path d="M1171.87 388.727L1116 245.686C1116 245.686 1156.44 301.466 1167.34 346.539C1178.23 391.612 1171.87 388.727 1171.87 388.727Z" fill="#FD8D32"/>
<path d="M1261.82 397.891L1362.24 317.229C1362.24 317.229 1322.73 325.081 1288.54 361.136C1254.35 397.191 1261.82 397.891 1261.82 397.891Z" fill="#FD8D32"/>
<path d="M1214.61 315.626L1171.06 194.393C1171.06 194.393 1200.67 221.722 1211.01 270.32C1221.35 318.918 1214.61 315.626 1214.61 315.626Z" fill="#FD8D32"/>
<path d="M1245.33 392.486C1245.33 392.486 1264.61 335.439 1331.41 297.271C1331.41 297.271 1315.39 357.276 1249.83 410.55L1245.33 392.486Z" fill="#498DBC"/>
<path d="M1290.97 341.076L1323.21 308.488L1293.07 342.111L1290.97 341.076Z" fill="#3671A5"/>
<path d="M1246.28 355.047C1246.28 355.047 1260.74 288.705 1331.18 237.893C1331.18 237.893 1322.19 309.202 1255.09 376.811L1246.28 355.047Z" fill="#3671A5"/>
<path d="M1269.59 331.943L1319.07 253.815L1273.08 333.589L1269.59 331.943Z" fill="#498DBC"/>
<path d="M1293.43 334.171C1291.44 333.623 1289.36 333.509 1287.32 333.836C1283.4 334.448 1274.99 334.521 1270.72 325.474C1265.03 313.427 1280.02 305.079 1285.76 290.657C1289.76 280.46 1282.84 274.909 1278.21 272.447C1275.49 270.973 1273.32 268.664 1272.02 265.863C1269.55 260.9 1268.13 255.478 1267.85 249.94C1267.85 239.655 1254.6 237.033 1250.24 229.662C1245.88 222.29 1254.61 213.287 1261.47 200.104C1268.33 186.92 1263.69 167.224 1242.04 164.077C1229.64 162.285 1224.86 167.734 1223.1 172.731C1221.97 176.056 1222.08 179.677 1223.41 182.928C1225.56 188.449 1228.1 200.308 1214.2 206.878C1195.65 215.618 1207.31 234.236 1207.31 234.236C1207.31 234.236 1218.4 252.198 1206.62 258.113C1198.12 262.381 1194.72 272.593 1193.62 277.051C1193.31 278.167 1193.24 279.332 1193.4 280.477C1193.57 281.621 1193.96 282.721 1194.56 283.708C1194.9 284.226 1195.29 284.713 1195.71 285.165C1200.08 290.176 1198.86 299.529 1187.85 299.849C1186.58 299.039 1185.11 298.585 1183.61 298.535C1182.11 298.485 1180.61 298.841 1179.3 299.565C1177.98 300.289 1176.87 301.354 1176.11 302.65C1175.34 303.946 1174.94 305.424 1174.94 306.929V376.301L1229.15 412.24C1229.15 412.24 1284.84 401.635 1301.99 368.682C1314.85 343.597 1300.85 336.254 1293.43 334.171Z" fill="#002649"/>
<g opacity="0.6">
<path opacity="0.6" d="M1225.63 293.935C1222.72 287.933 1227.89 279.367 1233.43 270.16C1234.71 268.048 1236.04 265.79 1237.29 263.677C1241.66 256.029 1238.95 249.678 1235.51 241.636C1233.79 237.856 1232.33 233.962 1231.14 229.982C1228.23 219.406 1234.48 212.224 1239.02 206.979C1240.59 205.339 1241.95 203.515 1243.07 201.546C1245.69 195.893 1239.61 181.996 1239.56 181.908L1242.48 186.031C1242.71 186.439 1247.52 195.82 1244.53 202.245C1243.35 204.365 1241.91 206.323 1240.23 208.072C1235.7 213.316 1230.03 219.843 1232.7 229.56C1233.84 233.485 1235.26 237.325 1236.94 241.054C1240.41 249.168 1243.39 256.19 1238.63 264.551C1237.38 266.751 1236.04 268.922 1234.74 271.078C1229.44 279.819 1224.44 288.064 1227.02 293.265L1225.63 293.935Z" fill="#498DBC"/>
</g>
<path d="M1186.84 399.027C1186.84 399.027 1136.45 368.697 1114 296.965C1114 296.965 1167.9 324.789 1205.01 398.488L1186.84 399.027Z" fill="#002649"/>
<path d="M1176.37 377.38L1128.92 318.569L1179.05 375.151L1176.37 377.38Z" fill="#183D6D"/>
<path d="M1191.95 394.802C1191.95 394.802 1147.51 329.903 1160.09 230.186C1160.09 230.186 1210.19 293.979 1214.36 404.257L1191.95 394.802Z" fill="#498DBC"/>
<path opacity="0.5" d="M1182.88 340.901L1163.72 255.213L1186.1 335.423L1182.88 340.901Z" fill="#183D6D"/>
<path opacity="0.5" d="M1193.93 453.802L1144.27 367.998L1195.55 446.81L1193.93 453.802Z" fill="#183D6D"/>
<path d="M1291.09 421.855C1291.09 421.855 1336.25 406.558 1347.39 392.049C1347.39 392.049 1351.2 418.533 1327.44 430.435C1303.68 442.337 1264.55 444.027 1264.55 444.027L1291.09 421.855Z" fill="#498DBC"/>
<path opacity="0.3" d="M1306.08 428.236C1306.08 428.236 1336.98 412.211 1341.04 403.47C1335.42 414.219 1326.11 422.579 1314.82 427.012C1296.07 433.975 1306.08 428.236 1306.08 428.236Z" fill="#DFDACB"/>
<path d="M1236.46 415.285C1236.46 415.285 1242.9 381.109 1273.62 379.2C1304.34 377.292 1311.86 369.105 1313.99 366.716C1316.11 364.326 1327.48 352.381 1330.73 370.328C1333.97 388.276 1318.77 450.247 1246.74 435.068L1236.46 415.285Z" fill="#3671A5"/>
<path d="M1287.15 407.025C1287.15 407.025 1314.96 392.457 1321.13 379.113C1321.13 379.113 1316.76 398.488 1292.25 408.248C1267.75 418.009 1287.15 407.025 1287.15 407.025Z" fill="#002649"/>
<path d="M1189.24 378.341C1189.24 378.341 1168.47 348.448 1189.58 324.09C1210.69 299.733 1210.12 288.137 1209.97 284.757C1209.83 281.377 1209.17 264.158 1224.95 274.909C1240.73 285.66 1275.94 342.519 1211.65 385.159L1189.24 378.341Z" fill="#183D6D"/>
<path d="M1217.99 410.099C1217.99 410.099 1243.29 412.706 1251.04 391.569C1258.79 370.431 1266.09 366.803 1268.22 365.885C1270.34 364.968 1281.08 359.417 1269.18 353.401C1257.28 347.384 1210.66 345.097 1206.26 398.75L1217.99 410.099Z" fill="#498DBC"/>
<path opacity="0.5" d="M1216.59 394.788C1216.59 394.788 1232.82 368.566 1245.33 366.891C1245.33 366.891 1221.86 388.742 1218.57 396.157L1216.59 394.788Z" fill="#183D6D"/>
<path d="M1218.89 453.234C1218.89 453.234 1168.33 407.899 1158.9 321.585C1158.9 321.585 1216.47 364.575 1242.16 456.308L1218.89 453.234Z" fill="#3671A5"/>
<path d="M1213.44 429.736L1169.91 348.156L1216.59 427.522L1213.44 429.736Z" fill="#498DBC"/>
<path d="M1152.24 485.759H1408.36C1408.36 485.759 1392.77 484.375 1385.52 458.735C1378.26 433.096 1364.58 424.618 1345.53 430.663C1326.48 436.709 1338.87 393.195 1295.4 393.195C1253.96 393.195 1262.9 447.606 1244.02 431.887C1225.14 416.168 1199.55 437.233 1196.92 458.75C1194.3 480.267 1152.24 485.759 1152.24 485.759Z" fill="#002649"/>
<path d="M1204.41 486.108H1387.97C1387.97 486.108 1376.79 485.136 1371.59 467.001C1366.39 448.867 1356.59 442.839 1342.93 447.112C1329.26 451.385 1338.17 420.553 1307.02 420.553C1277.31 420.553 1283.71 459.115 1270.13 447.981C1256.55 436.847 1238.26 451.768 1236.38 467.088C1234.5 482.409 1204.41 486.108 1204.41 486.108Z" fill="#E1F2FF"/>
<path d="M1200.54 367.269C1200.54 367.269 1224.31 313.631 1222.9 297.344C1222.9 297.344 1226.31 317.739 1214.01 344.616C1201.72 371.494 1202.88 369.862 1202.88 369.862L1200.54 367.269Z" fill="#002649"/>
<path d="M53.9128 418.701C53.9128 418.701 39.7436 381.487 49.9401 377.792C49.9401 377.792 56.5613 374.756 57.091 394.287C57.091 394.287 56.4289 375.812 61.8582 376.604C67.2876 377.264 65.1688 390.064 63.3148 395.475C63.3148 395.475 68.4794 377.66 72.3197 379.111C76.1599 380.563 74.5709 389.8 68.0822 397.586C68.0822 397.586 78.0139 382.014 80.9272 383.862C83.8405 385.709 83.9729 395.079 64.3743 420.68L53.9128 418.701Z" fill="url(#paint0_linear_3971_46917)"/>
<path d="M73.6442 434.273C73.5118 435.46 73.3793 436.648 73.2469 437.968C72.5848 443.378 70.9957 449.449 68.4797 456.311C68.0824 457.366 67.6851 458.554 67.1554 459.742C63.9773 467.396 59.6074 476.105 53.516 485.739H26.8988C25.707 449.185 32.4607 428.994 40.406 417.777C42.6572 414.61 44.9084 412.235 47.292 410.255C56.2968 402.865 67.95 406.164 71.7903 417.117C73.2469 421.472 74.1739 427.147 73.6442 434.273Z" fill="url(#paint1_linear_3971_46917)"/>
<path opacity="0.5" d="M39.2145 444.038L49.8083 446.545L35.7715 448.393L39.2145 444.038Z" fill="#F15A24"/>
<path opacity="0.5" d="M73.6436 434.272C73.5111 435.46 73.3786 436.648 73.2462 437.967L60.0039 437.176L73.6436 434.272Z" fill="#F15A24"/>
<path opacity="0.5" d="M68.4806 456.311C68.0833 457.366 67.686 458.554 67.1563 459.742L56.5625 457.894L68.4806 456.311Z" fill="#F15A24"/>
<path d="M22.1316 411.311C22.1316 411.311 7.96231 374.097 18.1589 370.402C18.1589 370.402 24.7801 367.367 25.3098 386.897C25.3098 386.897 24.6476 368.422 30.077 369.214C35.5063 369.874 33.3875 382.675 31.5336 388.085C31.5336 388.085 36.6981 370.27 40.5384 371.722C44.3787 373.173 42.7897 382.411 36.3009 390.197C36.3009 390.197 46.2326 374.625 49.1459 376.472C52.0592 378.32 52.1917 387.689 32.593 413.29L22.1316 411.311Z" fill="url(#paint2_linear_3971_46917)"/>
<path d="M42.1273 435.724C41.73 442.586 40.4059 450.636 37.6251 460.005C37.2278 461.457 36.698 462.908 36.1683 464.492C34.0495 470.958 31.2687 477.952 27.8257 485.606H3.85718C3.32748 482.703 2.79766 480.064 2.40039 477.293C-0.910186 456.31 -0.512787 440.738 1.87083 429.521C4.12202 418.832 7.96223 411.838 12.0673 407.219C19.7479 398.51 31.9308 399.961 37.3601 410.123C38.5519 412.234 39.479 414.741 40.2735 417.645C41.2005 420.944 41.8625 424.903 42.1273 429.521C42.2597 431.633 42.2597 433.612 42.1273 435.724Z" fill="url(#paint3_linear_3971_46917)"/>
<path opacity="0.5" d="M1.3418 438.628L18.6892 445.49H1.47419L1.3418 438.628Z" fill="#F15A24"/>
<path opacity="0.5" d="M42.1263 435.724L23.3223 432.161L42.2588 429.653C42.2588 431.633 42.2587 433.612 42.1263 435.724Z" fill="#F15A24"/>
<path opacity="0.5" d="M37.6251 460.138C37.2279 461.589 36.698 463.041 36.1683 464.624L24.3828 461.589L37.6251 460.138Z" fill="#F15A24"/>
<path d="M142.94 488.611L162.687 488.245C162.687 488.245 158.554 482.204 154.145 481.93C149.737 481.747 147.9 479.55 146.063 479.459C144.226 479.367 136.879 477.811 134.766 481.289C132.654 484.767 142.94 488.611 142.94 488.611Z" fill="#498DBC"/>
<path d="M103.17 490.808C103.17 490.808 121.539 491.265 125.121 490.442C128.702 489.618 134.856 487.97 142.938 488.703C142.938 488.703 140.55 484.859 139.54 482.936C138.53 481.014 137.887 474.974 131.641 474.242C125.396 473.509 103.813 481.198 103.813 481.198L103.17 490.808Z" fill="#002649"/>
<path d="M35.7584 464.265C33.3704 467.286 32.0846 471.038 32.1765 474.882C32.1765 476.621 32.3602 478.543 32.7275 480.099C33.8297 484.859 39.2484 491.174 47.0551 491.357C54.8618 491.448 65.8831 492.364 65.8831 492.364C65.8831 492.364 71.21 489.984 73.5061 490.35C75.8022 490.716 94.4464 492.821 97.3854 492.821C100.324 492.73 103.172 490.899 103.172 490.899C103.172 490.899 122.367 484.401 123.928 482.845C125.581 481.381 130.633 473.235 130.633 473.235C130.633 473.235 132.562 465.547 126.041 458.225C126.041 458.225 126.316 448.34 118.693 443.031C111.07 437.723 102.529 430.95 102.529 430.95C102.529 430.95 92.6096 421.797 82.8742 418.411C78.9249 417.038 74.6082 417.953 71.5774 420.699C68.5466 423.445 64.9647 427.838 63.2196 434.245C63.2196 434.245 59.1785 440.103 56.0558 441.018C52.9331 441.933 43.3814 450.994 40.6261 456.76C39.2484 459.506 37.4116 462.16 35.7584 464.265Z" fill="url(#paint4_linear_3971_46917)"/>
<path opacity="0.5" d="M55.1376 454.472C57.9847 454.198 64.1383 452.916 66.5262 446.693C67.1691 445.045 67.3528 443.215 66.8017 441.476C66.5262 440.56 66.067 439.737 65.3322 439.371C64.2301 438.73 64.5975 437.265 65.1485 436.167C65.6078 435.16 65.3322 433.971 64.5056 433.238C64.2301 433.055 63.9546 432.781 63.6791 432.598C63.4954 433.147 63.3117 433.696 63.2199 434.245C63.2199 434.245 59.1787 440.103 56.056 441.018L51.9231 448.706C51.1883 450.171 51.1883 451.91 52.1986 453.191C52.2904 453.282 52.2904 453.374 52.3823 453.374C53.117 454.106 54.1273 454.564 55.1376 454.472Z" fill="#498DBC"/>
<path opacity="0.5" d="M127.051 473.326C126.592 471.404 125.398 468.109 125.674 464.906C125.857 461.702 120.622 458.682 119.336 457.675C118.051 456.76 116.122 446.601 112.448 443.58C108.774 440.652 103.172 435.068 102.529 430.767C102.529 430.767 92.6099 421.614 82.8745 418.228C79.2926 416.946 75.3433 417.679 72.3124 419.967C72.3124 419.967 69.3735 434.885 72.9554 450.262C72.6798 446.601 73.0472 443.672 74.7004 443.214C79.7518 441.658 77.4557 454.197 81.405 461.519C83.8848 466.096 86.7319 471.13 89.7627 474.882C89.7627 474.882 81.956 457.492 84.895 451.452C84.895 451.452 92.1507 456.577 96.7429 457.401C101.335 458.316 112.632 463.441 115.02 467.926C117.408 472.411 122.643 478.269 120.163 484.492C122.184 483.669 123.653 483.028 124.02 482.662C124.388 482.387 124.847 481.838 125.306 481.106C125.306 481.197 127.511 475.248 127.051 473.326Z" fill="#498DBC"/>
<path opacity="0.5" d="M103.174 490.808C103.174 490.808 104.919 490.167 107.398 489.343C105.378 483.852 99.7754 483.028 94.9995 480.099C90.2237 477.17 85.2641 468.842 81.3148 461.52C77.3655 454.289 79.6616 441.75 74.6102 443.214C70.2017 444.587 75.0694 463.625 76.4471 468.567C76.6308 469.299 76.9063 469.94 77.1818 470.672C78.4676 473.692 82.3251 483.303 79.3861 484.126C75.9879 485.133 70.2017 480.008 67.7219 480.099C65.9769 480.099 63.3135 483.028 61.844 484.859C61.0174 485.865 59.9152 486.689 58.6294 487.147C57.1599 487.696 54.9557 488.337 52.0167 488.794C46.1387 489.709 34.5664 484.035 34.5664 484.035C36.9543 487.696 41.3628 491.082 47.0571 491.174C54.8638 491.265 65.8851 492.181 65.8851 492.181C65.8851 492.181 71.212 489.801 73.5081 490.167C75.8042 490.533 94.4484 492.638 97.3874 492.638C100.326 492.73 103.174 490.808 103.174 490.808Z" fill="#002649"/>
<defs>
<linearGradient id="paint0_linear_3971_46917" x1="59.868" y1="420.054" x2="65.3935" y2="376.991" gradientUnits="userSpaceOnUse">
<stop stop-color="#183D6D"/>
<stop offset="0.1944" stop-color="#1C4373"/>
<stop offset="0.4529" stop-color="#265483"/>
<stop offset="0.746" stop-color="#376F9F"/>
<stop offset="1" stop-color="#498DBC"/>
</linearGradient>
<linearGradient id="paint1_linear_3971_46917" x1="77.3571" y1="494.758" x2="22.09" y2="407.872" gradientUnits="userSpaceOnUse">
<stop stop-color="#FF2A64"/>
<stop offset="0.0308184" stop-color="#FF3462"/>
<stop offset="0.1688" stop-color="#FF595A"/>
<stop offset="0.3129" stop-color="#FF7854"/>
<stop offset="0.4626" stop-color="#FF904E"/>
<stop offset="0.6203" stop-color="#FFA24B"/>
<stop offset="0.7913" stop-color="#FFAC49"/>
<stop offset="1" stop-color="#FFAF48"/>
</linearGradient>
<linearGradient id="paint2_linear_3971_46917" x1="28.0876" y1="412.674" x2="33.6131" y2="369.611" gradientUnits="userSpaceOnUse">
<stop stop-color="#183D6D"/>
<stop offset="0.1944" stop-color="#1C4373"/>
<stop offset="0.4529" stop-color="#265483"/>
<stop offset="0.746" stop-color="#376F9F"/>
<stop offset="1" stop-color="#498DBC"/>
</linearGradient>
<linearGradient id="paint3_linear_3971_46917" x1="-8.25032" y1="445.103" x2="35.4875" y2="443.246" gradientUnits="userSpaceOnUse">
<stop stop-color="#FF2A64"/>
<stop offset="0.0308184" stop-color="#FF3462"/>
<stop offset="0.1688" stop-color="#FF595A"/>
<stop offset="0.3129" stop-color="#FF7854"/>
<stop offset="0.4626" stop-color="#FF904E"/>
<stop offset="0.6203" stop-color="#FFA24B"/>
<stop offset="0.7913" stop-color="#FFAC49"/>
<stop offset="1" stop-color="#FFAF48"/>
</linearGradient>
<linearGradient id="paint4_linear_3971_46917" x1="32.1443" y1="455.238" x2="130.893" y2="455.238" gradientUnits="userSpaceOnUse">
<stop stop-color="#183D6D"/>
<stop offset="0.1944" stop-color="#1C4373"/>
<stop offset="0.4529" stop-color="#265483"/>
<stop offset="0.746" stop-color="#376F9F"/>
<stop offset="1" stop-color="#498DBC"/>
</linearGradient>
</defs>
</svg>
