<svg width="60" height="60" viewBox="0 0 60 60" fill="none" xmlns="http://www.w3.org/2000/svg">
<path d="M7.80004 35.1L12.3 39.3L0 51.5999L8.39995 60L20.7 47.9999L24.9 52.1999L27 33L7.80004 35.1Z" fill="url(#paint0_linear_634_205)"/>
<path d="M60 8.39995L51.5999 0L39.3 11.9999L35.1 7.80004L33 27L52.1999 24.9L47.6999 20.7L60 8.39995Z" fill="url(#paint1_linear_634_205)"/>
<path d="M0 0V27H6.00004V6.00004H27V0H0Z" fill="url(#paint2_linear_634_205)"/>
<path d="M53.9999 33V53.9999H33V60H60V33H53.9999Z" fill="url(#paint3_linear_634_205)"/>
<defs>
<linearGradient id="paint0_linear_634_205" x1="13.5" y1="33" x2="13.5" y2="70.2966" gradientUnits="userSpaceOnUse">
<stop stop-color="#FFAA49"/>
<stop offset="1" stop-color="#FF7754"/>
</linearGradient>
<linearGradient id="paint1_linear_634_205" x1="46.5" y1="0" x2="46.5" y2="37.2966" gradientUnits="userSpaceOnUse">
<stop stop-color="#FFAA49"/>
<stop offset="1" stop-color="#FF7754"/>
</linearGradient>
<linearGradient id="paint2_linear_634_205" x1="13.5" y1="0" x2="13.5" y2="37.2966" gradientUnits="userSpaceOnUse">
<stop stop-color="#FFAA49"/>
<stop offset="1" stop-color="#FF7754"/>
</linearGradient>
<linearGradient id="paint3_linear_634_205" x1="46.5" y1="33" x2="46.5" y2="70.2966" gradientUnits="userSpaceOnUse">
<stop stop-color="#FFAA49"/>
<stop offset="1" stop-color="#FF7754"/>
</linearGradient>
</defs>
</svg>
