<svg width="364" height="624" viewBox="0 0 364 624" fill="none" xmlns="http://www.w3.org/2000/svg">
<g clip-path="url(#clip0_1327_71)">
<path d="M2.62347 286.779C2.24949 289.384 3.5878 291.916 5.86502 293.094C13.5005 296.956 31.4356 306.124 41.2998 316.687C41.2998 316.687 41.4041 316.702 41.3891 316.806C41.4784 316.926 41.5826 316.941 41.6718 317.06C43.978 319.518 45.7331 322.11 46.863 324.612C47.413 325.967 47.8587 327.308 48.0961 328.618C57.3568 395.252 35.8015 433.532 40.0582 457.968C44.3 482.508 53.516 504.997 78.043 497.881C79.5917 497.466 81.1704 496.841 82.764 496.113C108.038 484.531 149.476 437.406 149.476 437.406L149.869 385.026L118.051 385.883L93.6279 415.243C93.6279 415.243 94.1951 346.828 81.0011 306.113C78.0442 297.073 70.1724 290.413 60.6891 289.051L9.52049 281.706C6.20064 281.124 3.10216 283.444 2.62347 286.779Z" fill="url(#paint0_linear_1327_71)"/>
<path d="M113.632 381.101L125.91 366.697L141.109 348.989C148.813 339.033 160.252 332.698 172.655 331.501L210.297 327.863L230.41 330.75L289.722 339.158L303.166 341.088C307.647 341.731 311.934 342.985 315.953 344.625C331.895 351.381 343.856 365.861 346.851 383.521L353.822 423.875L357.085 442.637C357.085 442.637 325.434 460.111 293.425 457.111L295.793 478.404L307.16 579.27C307.16 579.27 311.088 583.024 316.518 588.909C322.975 595.792 331.56 605.64 338.878 616.156C347.699 628.803 352.125 643.903 351.847 659.179L159.47 631.565C165.881 618.02 171.088 603.239 172.557 588.559C173.066 583.527 173.159 578.435 172.701 573.477C171.445 559.257 168.373 544.351 164.571 530.085C164.586 529.981 164.482 529.966 164.482 529.966C154.19 491.262 138.385 457.617 138.385 457.617C138.385 457.617 121.745 426.83 131.823 408.494C132.717 406.708 134.014 405.086 135.399 403.583L118.08 385.675L113.632 381.101Z" fill="url(#paint1_linear_1327_71)"/>
<path opacity="0.3" d="M323.72 596.538C328.749 602.259 334.164 608.992 339.013 615.963C347.834 628.61 352.26 643.711 351.982 658.987L224.217 640.647C276.526 634.86 308.404 611.357 323.72 596.538Z" fill="url(#paint2_linear_1327_71)"/>
<path d="M131.822 408.495C155.365 403.791 161.869 429.613 185.447 437.997C200.928 443.516 208.889 428.067 228.764 431.132C248.535 434.183 242.021 444.735 263.445 447.385C284.868 450.034 289.264 423.118 289.264 423.118L303.666 548.032C267.381 548.886 208.718 550.037 169.381 550.666C160.226 504.042 138.415 457.41 138.415 457.41C138.415 457.41 121.745 426.832 131.822 408.495Z" fill="url(#paint3_linear_1327_71)"/>
<path d="M182.656 604.154L288.003 593.43C292.217 592.972 295.197 589.251 294.843 585.052L281.175 451.31C280.717 447.096 276.996 444.116 272.797 444.471L167.451 455.194C163.237 455.653 160.256 459.373 160.611 463.572L174.278 597.314C174.633 601.513 178.457 604.508 182.656 604.154Z" fill="url(#paint4_linear_1327_71)"/>
<path d="M187.947 596.192L281.099 586.696C284.881 586.282 287.593 582.948 287.164 579.27L274.828 458.483C274.414 454.7 271.08 451.988 267.402 452.418L174.25 461.914C170.468 462.328 167.756 465.661 168.186 469.339L180.522 590.127C180.832 593.894 184.269 596.621 187.947 596.192Z" fill="url(#paint5_linear_1327_71)"/>
<path d="M195.3 465.681L247.549 460.312C250.572 460.001 252.658 457.322 252.451 454.315L251.638 446.646L188.593 453.125L189.407 460.794C189.613 463.801 192.277 465.992 195.3 465.681Z" fill="url(#paint6_linear_1327_71)"/>
<path d="M200.285 470.224L243.675 465.816C245.834 465.594 247.503 463.6 247.281 461.441L247.222 460.369L195.941 465.665L195.999 466.737C196.117 468.881 198.022 470.431 200.285 470.224Z" fill="url(#paint7_linear_1327_71)"/>
<path d="M233.489 488.605L264.356 485.484C265.324 485.41 265.979 484.547 265.906 483.579C265.832 482.611 264.969 481.956 264.001 482.03L233.134 485.15C232.166 485.224 231.51 486.087 231.584 487.055C231.658 488.023 232.521 488.679 233.489 488.605Z" fill="url(#paint8_linear_1327_71)"/>
<path d="M234.346 496.704L265.213 493.584C266.181 493.51 266.837 492.647 266.763 491.679C266.689 490.711 265.826 490.055 264.858 490.129L233.991 493.25C233.023 493.324 232.368 494.187 232.441 495.155C232.515 496.123 233.363 496.882 234.346 496.704Z" fill="url(#paint9_linear_1327_71)"/>
<path d="M247.607 503.607L266.07 501.684C267.038 501.61 267.694 500.747 267.62 499.779C267.546 498.811 266.683 498.155 265.715 498.229L247.252 500.152C246.284 500.226 245.628 501.089 245.702 502.057C245.776 503.025 246.639 503.681 247.607 503.607Z" fill="url(#paint10_linear_1327_71)"/>
<path opacity="0.3" d="M218.275 575.34L255.739 571.464C258.985 571.079 261.413 568.237 261.044 564.887L257.168 527.423C256.783 524.177 253.941 521.748 250.59 522.118L213.127 525.994C209.881 526.379 207.452 529.221 207.822 532.571L211.698 570.035C212.083 573.281 215.029 575.725 218.275 575.34Z" fill="url(#paint11_linear_1327_71)"/>
<path d="M192.778 538.813L223.973 535.633C226.668 535.381 228.725 532.911 228.369 530.201L225.189 499.007C224.938 496.311 222.467 494.255 219.757 494.611L188.563 497.791C185.868 498.042 183.811 500.512 184.167 503.222L187.347 534.417C187.702 537.127 190.068 539.168 192.778 538.813Z" fill="url(#paint12_linear_1327_71)"/>
<path d="M227.323 361.897C227.323 361.897 235.479 388.807 233.898 413.893C233.733 416.529 231.543 418.448 228.908 418.282L219.617 417.8C216.982 417.634 214.959 415.429 215.124 412.794L217.429 372.282L227.323 361.897Z" fill="url(#paint13_linear_1327_71)"/>
<path d="M237.242 358.748C237.36 359.403 243.481 379.745 246.467 390.065C247.403 393.178 245.45 396.408 242.263 397.12L231.631 399.316C228.563 399.94 225.557 397.913 225.038 394.86L219.505 364.498L237.242 358.748Z" fill="url(#paint14_linear_1327_71)"/>
<path d="M214.505 360.058C214.505 360.058 195.092 378.969 184.699 400.983C183.626 403.275 184.621 405.971 186.914 407.044L195.07 410.98C197.362 412.054 200.043 411.162 201.221 408.885L218.099 373.55L214.505 360.058Z" fill="url(#paint15_linear_1327_71)"/>
<path d="M207.673 352.803C207.286 353.279 192.67 367.667 185.236 375.002C183.001 377.234 183.118 380.867 185.483 382.908L193.43 389.792C195.706 391.714 199.146 391.464 201.083 389.083L219.918 366.047L207.673 352.803Z" fill="url(#paint16_linear_1327_71)"/>
<path d="M234.661 364.121C234.333 364.18 216.789 371.553 216.789 371.553L210.309 354.456L227.764 346.964L234.661 364.121Z" fill="url(#paint17_linear_1327_71)"/>
<path d="M113.632 381.1L135.385 403.687L148.6 391.65L125.911 366.696L113.632 381.1Z" fill="url(#paint18_linear_1327_71)"/>
<path opacity="0.2" d="M113.632 381.102L118.081 385.676C119.124 384.336 148.972 347.566 159.726 341.558C170.718 335.371 215.966 334.315 215.966 334.315C215.966 334.315 228.606 335.916 230.81 335.382C231.48 335.159 231.213 333.313 230.441 330.543L210.328 327.656L172.686 331.293C160.178 332.476 148.739 338.811 141.139 348.781L125.941 366.489L113.632 381.102Z" fill="white"/>
<path d="M295.912 478.317L293.544 457.024C325.538 460.128 357.204 442.55 357.204 442.55L353.941 423.788C321.785 439.593 291.115 438.381 291.115 438.381L295.912 478.317Z" fill="url(#paint19_linear_1327_71)"/>
<path d="M258.118 374.825C293.259 370.084 310.721 351.425 315.967 344.52C311.963 342.775 307.661 341.626 303.18 340.983L289.736 339.053L258.118 374.825Z" fill="url(#paint20_linear_1327_71)"/>
<path d="M281.087 315.583C281.087 315.583 304.202 327.197 295.748 345.341C285.444 367.474 251.341 378.32 239.323 382.019C236.881 382.732 234.306 381.405 233.489 378.948L224.753 350.891L202.695 361.552C200.178 362.786 197.172 361.503 196.28 358.823C194.066 352.017 191.9 340.432 196.312 333.407C202.945 322.766 218.377 312.324 218.377 312.324L281.087 315.583Z" fill="url(#paint21_linear_1327_71)"/>
<path d="M93.537 415.123L93.0786 454.624L113.966 390.615L93.537 415.123Z" fill="#F87C38"/>
<path d="M176.885 616.195C203.098 625.488 223.777 584.423 223.777 584.423C223.777 584.423 224.76 584.245 226.636 583.77C227.395 583.666 228.274 583.473 229.272 583.191C245.429 579.554 293.632 568.286 314.067 557.818C338.865 545.104 347.204 544.812 354.288 527.322C357.599 519.076 357.384 506.495 355.829 493.615C353.34 474.645 347.755 455.017 345.571 448.003C334.625 452.388 317.365 457.781 299.439 457.441C297.533 457.38 295.523 457.305 293.632 457.14L298.812 503.299C298.812 503.299 227.213 544.181 222.655 547.781C218.097 551.381 180.321 555.211 172.242 567.772C170.32 570.794 168.084 574.514 166.22 578.607C159.853 591.84 156.849 609.064 176.885 616.195Z" fill="url(#paint22_linear_1327_71)"/>
<path d="M226.832 581.673L226.518 583.861C227.278 583.757 228.156 583.565 229.154 583.282C245.311 579.645 293.514 568.377 313.949 557.909C338.748 545.196 347.086 544.903 354.17 527.414C357.481 519.167 357.266 506.586 355.711 493.706C355.726 493.602 357.533 552.891 226.832 581.673Z" fill="#F87C38"/>
<path d="M176.886 616.198C203.099 625.491 223.778 584.427 223.778 584.427C223.778 584.427 225.759 583.966 229.154 583.284C226.536 579.292 224.097 575.538 224.097 575.538C224.097 575.538 210.065 607.346 183.164 601.358C167.384 597.923 165.233 586.978 166.132 578.492C159.855 591.843 156.85 609.067 176.886 616.198Z" fill="url(#paint23_linear_1327_71)"/>
<path d="M293.544 457.023L298.724 503.182C298.724 503.182 307.454 496.458 324.248 497.274C324.248 497.274 298.361 490.154 299.351 457.325C297.445 457.264 295.435 457.188 293.544 457.023Z" fill="#F87C38"/>
<path d="M135.294 404.316C135.502 404.346 135.725 404.271 135.845 404.182L168.963 374.263C169.216 373.98 169.276 373.563 168.994 373.31C168.711 373.056 168.294 372.997 168.041 373.279L134.922 403.199C134.669 403.482 134.609 403.898 134.892 404.152C134.981 404.271 135.085 404.286 135.294 404.316Z" fill="black"/>
<path d="M293.454 457.647C293.558 457.662 293.558 457.662 293.663 457.677C294.094 457.632 294.363 457.245 294.303 456.918L288.424 410.445C288.379 410.013 287.993 409.745 287.665 409.804C287.233 409.849 286.965 410.236 287.024 410.563L292.904 457.036C292.844 457.453 293.142 457.602 293.454 457.647Z" fill="black"/>
<path d="M203.389 547.89L205.891 546.76C209.183 545.318 212.89 545.425 216.06 547.05C230.944 554.505 233.913 567.907 234.801 576.543C235.348 581.62 231.563 586.502 226.545 587.377L221.527 588.252C226.11 569.658 212.897 557.977 204.815 552.775L201.063 553.725C200.111 551.461 201.14 548.737 203.389 547.89Z" fill="url(#paint24_linear_1327_71)"/>
<path d="M218.8 569.46C226.339 570.542 233.155 566.52 234.022 560.477C234.89 554.434 229.481 548.657 221.941 547.575C214.401 546.493 207.586 550.514 206.718 556.558C205.851 562.601 211.26 568.377 218.8 569.46Z" fill="url(#paint25_linear_1327_71)"/>
<path d="M219.517 564.455C223.949 565.091 227.957 562.714 228.469 559.146C228.981 555.577 225.804 552.169 221.372 551.533C216.94 550.897 212.932 553.274 212.42 556.842C211.908 560.41 215.085 563.819 219.517 564.455Z" fill="url(#paint26_linear_1327_71)"/>
<path d="M215.384 381.349C219.183 381.894 222.892 377.95 223.668 372.54C224.445 367.13 221.995 362.302 218.196 361.757C214.398 361.212 210.689 365.155 209.912 370.566C209.136 375.976 211.585 380.804 215.384 381.349Z" fill="#FFCA83"/>
<path d="M46.8789 324.508C47.4289 325.863 47.8747 327.203 48.112 328.514C57.3727 395.148 35.8174 433.428 40.0741 457.864C44.3159 482.404 53.5319 504.893 78.0589 497.777C79.6076 497.361 81.1863 496.737 82.7799 496.009C68.3117 490.103 48.6699 472.818 57.1607 422.559C66.2349 368.235 54.5677 337.63 46.8789 324.508Z" fill="url(#paint27_linear_1327_71)"/>
<path d="M216.783 152.233C216.783 152.233 146.34 90.2171 129.462 15.1503C129.462 15.1503 76.5315 81.5792 132.321 147.128C188.111 212.678 225.629 215.83 225.629 215.83L264.478 188.222L216.783 152.233Z" fill="url(#paint28_linear_1327_71)"/>
<path d="M289.616 287.983C289.616 287.983 280.906 309.387 283.246 327.911C283.587 330.725 282.334 333.523 279.966 335.204C271.832 340.737 251.933 351.92 224.612 351.083C224.612 351.083 207.57 342.362 205.916 322.767L207.672 301.64C207.672 301.64 195.76 303.121 182.242 301.712C167.458 300.229 155.182 289.426 151.395 275.055L150.37 271.079C148.647 264.557 150.498 257.59 155.221 252.843C163.043 245.032 174.904 231.312 181.884 214.552C193.038 187.968 230.071 182.648 237.171 185.794C237.171 185.794 178.652 127.404 210.985 47.383C229.299 2.04341 259.878 7.60271 259.878 7.60271C259.878 7.60271 247.131 186.798 321.524 219.813C321.524 219.813 321.444 250.007 298.359 260.414C298.359 260.414 311.255 258.011 317.259 251.747C317.363 251.762 314.158 280.019 289.616 287.983Z" fill="url(#paint29_linear_1327_71)"/>
<path d="M204.8 125.309C199.529 103.493 199.086 76.9454 210.987 47.3839C229.301 2.04431 259.88 7.60361 259.88 7.60361C259.88 7.60361 259.158 17.817 259.088 33.8673C247.039 39.2639 205.573 62.1352 204.8 125.309Z" fill="#F87C38"/>
<path d="M129.447 15.2566C132.49 28.8821 137.305 42.0174 143.178 54.4537C133.984 65.1527 115.219 93.6227 126.831 140.174C80.2862 76.9086 129.447 15.2566 129.447 15.2566Z" fill="#F87C38"/>
<path opacity="0.2" d="M129.448 15.2583C146.326 90.3252 216.769 152.341 216.769 152.341L221.471 155.887L220.83 157.391C220.83 157.391 146.069 118.793 115.808 39.146C122.191 24.3209 129.448 15.2583 129.448 15.2583Z" fill="white"/>
<path d="M207.673 301.639C207.673 301.639 237.438 298.041 253.097 283.059C253.097 283.059 247.462 315.647 206.142 318.969L207.673 301.639Z" fill="#F87C38"/>
<path d="M222.685 257.843C228.498 258.678 233.887 254.642 234.722 248.829C235.556 243.015 231.52 237.627 225.707 236.792C219.894 235.958 214.505 239.994 213.671 245.807C212.836 251.62 216.872 257.009 222.685 257.843Z" fill="url(#paint30_linear_1327_71)"/>
<path d="M226.891 248.556C228.387 248.771 229.774 247.732 229.989 246.235C230.204 244.739 229.165 243.352 227.668 243.137C226.172 242.922 224.785 243.961 224.57 245.458C224.355 246.954 225.394 248.341 226.891 248.556Z" fill="white"/>
<path d="M240.068 221.944C229.261 218.691 217.795 220.768 209.304 226.569C207.77 227.625 207.367 229.694 208.438 231.124C209.315 232.42 211.057 232.883 212.517 232.348C220.231 228.988 229.105 229.411 235.817 233.034C238.779 234.629 242.353 233.44 243.934 230.582C245.529 227.621 244.34 224.046 241.482 222.466C241.081 222.302 240.783 222.153 240.381 221.989L240.068 221.944Z" fill="#F87C38"/>
<path d="M170.553 260.893L158.417 263.193C156.347 263.534 154.991 265.573 155.332 267.643L155.747 269.936C156.059 271.469 157.175 272.587 158.604 273.005L165.184 274.587C166.628 274.901 168.162 274.589 169.16 273.563L173.927 269.993C175.029 268.981 175.566 267.463 175.24 266.033L174.899 263.963C174.662 261.908 172.623 260.552 170.553 260.893Z" fill="#F87C38"/>
<path d="M199.359 289.918C209.677 291.399 216.274 288.41 219.984 285.539C224.05 282.4 225.616 278.903 225.75 278.709C226.063 278.01 225.766 277.116 224.962 276.788C224.263 276.475 223.369 276.772 223.041 277.576C222.862 278.082 217.599 289.558 199.778 287C199.674 286.985 199.57 286.97 199.466 286.955C198.736 286.85 197.917 287.371 197.797 288.204C197.678 289.038 198.213 289.753 199.047 289.873C199.151 289.888 199.255 289.903 199.359 289.918Z" fill="#F87C38"/>
<path d="M218.151 322.718C218.568 322.778 219 322.733 219.447 322.585L259.374 308.214C267.848 304.75 273.704 297.295 275.199 288.363L279.774 260.196C279.984 258.737 279.017 257.322 277.558 257.112C276.099 256.903 274.684 257.87 274.474 259.329L269.899 287.495C268.778 294.567 264.114 300.385 257.442 303.15L217.634 317.432C216.278 317.982 215.533 319.47 215.964 320.915C216.35 321.927 217.109 322.568 218.151 322.718Z" fill="url(#paint31_linear_1327_71)"/>
<path d="M214.734 314.675L238.726 306.1C240.066 305.654 241.629 305.879 242.775 306.788C245.334 308.963 245.63 312.09 245.405 314.398C245.285 315.976 244.242 317.315 242.663 317.939L218.656 326.618C217.644 327.005 216.676 327.079 215.634 326.929C213.133 326.57 210.945 324.767 210.381 322.027C209.773 318.855 211.815 315.745 214.734 314.675Z" fill="url(#paint32_linear_1327_71)"/>
<path d="M263.515 268.284L284.879 271.351C287.693 271.755 290.21 269.776 290.599 267.067L296.658 224.86C297.062 222.047 295.083 219.529 292.374 219.14L271.01 216.074C268.196 215.67 265.679 217.648 265.29 220.358L259.231 262.564C258.842 265.273 260.702 267.88 263.515 268.284Z" fill="url(#paint33_linear_1327_71)"/>
<path d="M269.767 269.181L284.878 271.35C287.692 271.754 290.209 269.776 290.598 267.066L296.657 224.86C297.06 222.046 295.082 219.529 292.372 219.14L277.261 216.97C274.448 216.567 271.93 218.545 271.541 221.255L265.483 263.461C264.99 266.155 266.953 268.777 269.767 269.181Z" fill="url(#paint34_linear_1327_71)"/>
<path d="M275.962 240.078L287.113 241.679C288.26 241.843 289.228 241.025 289.377 239.983C289.542 238.837 288.724 237.868 287.682 237.719L276.531 236.118C275.384 235.954 274.416 236.772 274.267 237.814C274.117 238.856 274.816 239.914 275.962 240.078Z" fill="url(#paint35_linear_1327_71)"/>
<path d="M274.931 247.268L286.082 248.868C287.228 249.033 288.197 248.215 288.346 247.173C288.511 246.026 287.692 245.058 286.65 244.908L275.5 243.308C274.353 243.143 273.385 243.961 273.235 245.003C273.071 246.15 273.785 247.103 274.931 247.268Z" fill="url(#paint36_linear_1327_71)"/>
<path d="M273.884 254.565L285.035 256.165C286.181 256.33 287.15 255.512 287.299 254.469C287.464 253.323 286.646 252.355 285.603 252.205L274.453 250.605C273.306 250.44 272.338 251.258 272.188 252.3C272.024 253.447 272.738 254.4 273.884 254.565Z" fill="url(#paint37_linear_1327_71)"/>
<path opacity="0.2" d="M259.983 7.6169C259.983 7.6169 250.678 138.381 294.368 197.088C294.368 197.088 232.742 153.675 242.784 10.3598C252.524 6.2272 259.983 7.6169 259.983 7.6169Z" fill="white"/>
<path d="M216.758 345.064C255.9 346.535 276.629 319.197 284.605 305.133C283.185 312.055 282.227 320.214 283.249 327.912C283.59 330.726 282.337 333.524 279.969 335.205C271.836 340.739 251.936 351.922 224.616 351.084C224.631 350.98 220.865 349.057 216.758 345.064Z" fill="url(#paint38_linear_1327_71)"/>
</g>
<defs>
<linearGradient id="paint0_linear_1327_71" x1="200.58" y1="804.995" x2="59.1046" y2="292.714" gradientUnits="userSpaceOnUse">
<stop stop-color="#FF2A64"/>
<stop offset="1" stop-color="#FFAF48"/>
</linearGradient>
<linearGradient id="paint1_linear_1327_71" x1="258.754" y1="1159.84" x2="233.036" y2="336.195" gradientUnits="userSpaceOnUse">
<stop stop-color="#03192E"/>
<stop offset="0.1695" stop-color="#0C233F"/>
<stop offset="0.5" stop-color="#223C6A"/>
<stop offset="1" stop-color="#4A74A2"/>
</linearGradient>
<linearGradient id="paint2_linear_1327_71" x1="300.8" y1="561.335" x2="280.699" y2="701.368" gradientUnits="userSpaceOnUse">
<stop stop-color="#03192E"/>
<stop offset="0.1695" stop-color="#0C233F"/>
<stop offset="0.5" stop-color="#223C6A"/>
<stop offset="1" stop-color="#4A74A2"/>
</linearGradient>
<linearGradient id="paint3_linear_1327_71" x1="168.724" y1="128.737" x2="236.492" y2="627.704" gradientUnits="userSpaceOnUse">
<stop stop-color="#03192E"/>
<stop offset="0.1695" stop-color="#0C233F"/>
<stop offset="0.5" stop-color="#223C6A"/>
<stop offset="1" stop-color="#4A74A2"/>
</linearGradient>
<linearGradient id="paint4_linear_1327_71" x1="243.575" y1="678.267" x2="216.332" y2="414.249" gradientUnits="userSpaceOnUse">
<stop stop-color="#386E9F"/>
<stop offset="1" stop-color="white"/>
</linearGradient>
<linearGradient id="paint5_linear_1327_71" x1="228.236" y1="529.389" x2="209.098" y2="351.719" gradientUnits="userSpaceOnUse">
<stop stop-color="#386E9F"/>
<stop offset="1" stop-color="white"/>
</linearGradient>
<linearGradient id="paint6_linear_1327_71" x1="234.519" y1="581.831" x2="216.963" y2="421.697" gradientUnits="userSpaceOnUse">
<stop stop-color="#FF2A64"/>
<stop offset="1" stop-color="#FFAF48"/>
</linearGradient>
<linearGradient id="paint7_linear_1327_71" x1="214.282" y1="417.384" x2="222.029" y2="467.086" gradientUnits="userSpaceOnUse">
<stop stop-color="#FF2A64"/>
<stop offset="1" stop-color="#FFAF48"/>
</linearGradient>
<linearGradient id="paint8_linear_1327_71" x1="255.796" y1="560.554" x2="246.932" y2="465.746" gradientUnits="userSpaceOnUse">
<stop stop-color="#386E9F"/>
<stop offset="1" stop-color="white"/>
</linearGradient>
<linearGradient id="paint9_linear_1327_71" x1="255.865" y1="560.547" x2="247.001" y2="465.739" gradientUnits="userSpaceOnUse">
<stop stop-color="#386E9F"/>
<stop offset="1" stop-color="white"/>
</linearGradient>
<linearGradient id="paint10_linear_1327_71" x1="262.189" y1="559.956" x2="253.325" y2="465.147" gradientUnits="userSpaceOnUse">
<stop stop-color="#386E9F"/>
<stop offset="1" stop-color="white"/>
</linearGradient>
<linearGradient id="paint11_linear_1327_71" x1="241.14" y1="603.658" x2="227.697" y2="492.097" gradientUnits="userSpaceOnUse">
<stop stop-color="#03192E"/>
<stop offset="0.1695" stop-color="#0C233F"/>
<stop offset="0.5" stop-color="#223C6A"/>
<stop offset="1" stop-color="#4A74A2"/>
</linearGradient>
<linearGradient id="paint12_linear_1327_71" x1="211.014" y1="576.401" x2="202.626" y2="469.817" gradientUnits="userSpaceOnUse">
<stop stop-color="#386E9F"/>
<stop offset="1" stop-color="white"/>
</linearGradient>
<linearGradient id="paint13_linear_1327_71" x1="213.447" y1="432.618" x2="256.073" y2="295.928" gradientUnits="userSpaceOnUse">
<stop stop-color="#03192E"/>
<stop offset="0.1695" stop-color="#0C233F"/>
<stop offset="0.5" stop-color="#223C6A"/>
<stop offset="1" stop-color="#4A74A2"/>
</linearGradient>
<linearGradient id="paint14_linear_1327_71" x1="266.866" y1="261.496" x2="225.873" y2="403.203" gradientUnits="userSpaceOnUse">
<stop stop-color="#FF2A64"/>
<stop offset="1" stop-color="#FFAF48"/>
</linearGradient>
<linearGradient id="paint15_linear_1327_71" x1="189.562" y1="425.171" x2="232.187" y2="288.481" gradientUnits="userSpaceOnUse">
<stop stop-color="#03192E"/>
<stop offset="0.1695" stop-color="#0C233F"/>
<stop offset="0.5" stop-color="#223C6A"/>
<stop offset="1" stop-color="#4A74A2"/>
</linearGradient>
<linearGradient id="paint16_linear_1327_71" x1="236.393" y1="252.682" x2="195.401" y2="394.39" gradientUnits="userSpaceOnUse">
<stop stop-color="#FF2A64"/>
<stop offset="1" stop-color="#FFAF48"/>
</linearGradient>
<linearGradient id="paint17_linear_1327_71" x1="200.849" y1="428.69" x2="243.475" y2="292" gradientUnits="userSpaceOnUse">
<stop stop-color="#03192E"/>
<stop offset="0.1695" stop-color="#0C233F"/>
<stop offset="0.5" stop-color="#223C6A"/>
<stop offset="1" stop-color="#4A74A2"/>
</linearGradient>
<linearGradient id="paint18_linear_1327_71" x1="117.029" y1="426.45" x2="167.29" y2="283.643" gradientUnits="userSpaceOnUse">
<stop stop-color="#03192E"/>
<stop offset="0.1695" stop-color="#0C233F"/>
<stop offset="0.5" stop-color="#223C6A"/>
<stop offset="1" stop-color="#4A74A2"/>
</linearGradient>
<linearGradient id="paint19_linear_1327_71" x1="305.697" y1="492.854" x2="355.957" y2="350.047" gradientUnits="userSpaceOnUse">
<stop stop-color="#03192E"/>
<stop offset="0.1695" stop-color="#0C233F"/>
<stop offset="0.5" stop-color="#223C6A"/>
<stop offset="1" stop-color="#4A74A2"/>
</linearGradient>
<linearGradient id="paint20_linear_1327_71" x1="409.11" y1="260.761" x2="249.224" y2="384.491" gradientUnits="userSpaceOnUse">
<stop stop-color="#03192E"/>
<stop offset="0.1695" stop-color="#0C233F"/>
<stop offset="0.5" stop-color="#223C6A"/>
<stop offset="1" stop-color="#4A74A2"/>
</linearGradient>
<linearGradient id="paint21_linear_1327_71" x1="208.666" y1="523.406" x2="267.273" y2="233.599" gradientUnits="userSpaceOnUse">
<stop stop-color="#386E9F"/>
<stop offset="1" stop-color="white"/>
</linearGradient>
<linearGradient id="paint22_linear_1327_71" x1="709.504" y1="77.9238" x2="181.128" y2="636.176" gradientUnits="userSpaceOnUse">
<stop stop-color="#FF2A64"/>
<stop offset="1" stop-color="#FFAF48"/>
</linearGradient>
<linearGradient id="paint23_linear_1327_71" x1="326.987" y1="460.031" x2="150.62" y2="626.644" gradientUnits="userSpaceOnUse">
<stop stop-color="#FF2A64"/>
<stop offset="1" stop-color="#FFAF48"/>
</linearGradient>
<linearGradient id="paint24_linear_1327_71" x1="229.734" y1="623.541" x2="206.918" y2="509.572" gradientUnits="userSpaceOnUse">
<stop stop-color="#03192E"/>
<stop offset="0.1695" stop-color="#0C233F"/>
<stop offset="0.5" stop-color="#223C6A"/>
<stop offset="1" stop-color="#4A74A2"/>
</linearGradient>
<linearGradient id="paint25_linear_1327_71" x1="208.849" y1="623.176" x2="225.108" y2="532.126" gradientUnits="userSpaceOnUse">
<stop stop-color="#386E9F"/>
<stop offset="1" stop-color="white"/>
</linearGradient>
<linearGradient id="paint26_linear_1327_71" x1="220.754" y1="574.709" x2="220.079" y2="536.044" gradientUnits="userSpaceOnUse">
<stop stop-color="#386E9F"/>
<stop offset="1" stop-color="white"/>
</linearGradient>
<linearGradient id="paint27_linear_1327_71" x1="55.4549" y1="813.998" x2="63.0292" y2="361.378" gradientUnits="userSpaceOnUse">
<stop stop-color="#FF2A64"/>
<stop offset="1" stop-color="#FFAF48"/>
</linearGradient>
<linearGradient id="paint28_linear_1327_71" x1="383.251" y1="446.695" x2="136.506" y2="75.3987" gradientUnits="userSpaceOnUse">
<stop stop-color="#FF2A64"/>
<stop offset="1" stop-color="#FFAF48"/>
</linearGradient>
<linearGradient id="paint29_linear_1327_71" x1="280.263" y1="695" x2="231.24" y2="198.724" gradientUnits="userSpaceOnUse">
<stop stop-color="#FF2A64"/>
<stop offset="1" stop-color="#FFAF48"/>
</linearGradient>
<linearGradient id="paint30_linear_1327_71" x1="219.587" y1="279.378" x2="226.709" y2="229.765" gradientUnits="userSpaceOnUse">
<stop stop-color="#03192E"/>
<stop offset="0.1695" stop-color="#0C233F"/>
<stop offset="0.5" stop-color="#223C6A"/>
<stop offset="1" stop-color="#4A74A2"/>
</linearGradient>
<linearGradient id="paint31_linear_1327_71" x1="274.88" y1="293.842" x2="220.641" y2="286.057" gradientUnits="userSpaceOnUse">
<stop stop-color="#03192E"/>
<stop offset="0.1695" stop-color="#0C233F"/>
<stop offset="0.5" stop-color="#223C6A"/>
<stop offset="1" stop-color="#4A74A2"/>
</linearGradient>
<linearGradient id="paint32_linear_1327_71" x1="383.749" y1="218.29" x2="220.433" y2="321.485" gradientUnits="userSpaceOnUse">
<stop stop-color="#03192E"/>
<stop offset="0.1695" stop-color="#0C233F"/>
<stop offset="0.5" stop-color="#223C6A"/>
<stop offset="1" stop-color="#4A74A2"/>
</linearGradient>
<linearGradient id="paint33_linear_1327_71" x1="262.787" y1="349.36" x2="280.599" y2="225.272" gradientUnits="userSpaceOnUse">
<stop stop-color="#03192E"/>
<stop offset="0.1695" stop-color="#0C233F"/>
<stop offset="0.5" stop-color="#223C6A"/>
<stop offset="1" stop-color="#4A74A2"/>
</linearGradient>
<linearGradient id="paint34_linear_1327_71" x1="267.89" y1="335.97" x2="287.689" y2="198.042" gradientUnits="userSpaceOnUse">
<stop stop-color="#386E9F"/>
<stop offset="1" stop-color="white"/>
</linearGradient>
<linearGradient id="paint35_linear_1327_71" x1="278.437" y1="262.475" x2="287.25" y2="201.075" gradientUnits="userSpaceOnUse">
<stop stop-color="#386E9F"/>
<stop offset="1" stop-color="white"/>
</linearGradient>
<linearGradient id="paint36_linear_1327_71" x1="278.438" y1="262.474" x2="287.251" y2="201.074" gradientUnits="userSpaceOnUse">
<stop stop-color="#386E9F"/>
<stop offset="1" stop-color="white"/>
</linearGradient>
<linearGradient id="paint37_linear_1327_71" x1="278.438" y1="262.476" x2="287.252" y2="201.076" gradientUnits="userSpaceOnUse">
<stop stop-color="#386E9F"/>
<stop offset="1" stop-color="white"/>
</linearGradient>
<linearGradient id="paint38_linear_1327_71" x1="231.5" y1="466.038" x2="255.474" y2="299.024" gradientUnits="userSpaceOnUse">
<stop stop-color="#FF2A64"/>
<stop offset="1" stop-color="#FFAF48"/>
</linearGradient>
<clipPath id="clip0_1327_71">
<rect width="364" height="624" fill="white"/>
</clipPath>
</defs>
</svg>
