<svg width="1658" height="564" viewBox="0 0 1658 564" fill="none" xmlns="http://www.w3.org/2000/svg">
<path d="M1345.97 224.94C1354.24 224.94 1360.94 218.238 1360.94 209.97C1360.94 201.702 1354.24 195 1345.97 195C1337.7 195 1331 201.702 1331 209.97C1331 218.238 1337.7 224.94 1345.97 224.94Z" fill="url(#paint0_linear_3502_46217)"/>
<path d="M1345.97 217.34C1350.04 217.34 1353.34 214.04 1353.34 209.97C1353.34 205.899 1350.04 202.6 1345.97 202.6C1341.9 202.6 1338.6 205.899 1338.6 209.97C1338.6 214.04 1341.9 217.34 1345.97 217.34Z" fill="#FD8D32"/>
<path d="M373.97 318.94C382.238 318.94 388.94 312.238 388.94 303.97C388.94 295.702 382.238 289 373.97 289C365.702 289 359 295.702 359 303.97C359 312.238 365.702 318.94 373.97 318.94Z" fill="url(#paint1_linear_3502_46217)"/>
<path d="M373.97 311.34C378.04 311.34 381.34 308.04 381.34 303.97C381.34 299.899 378.04 296.6 373.97 296.6C369.9 296.6 366.6 299.899 366.6 303.97C366.6 308.04 369.9 311.34 373.97 311.34Z" fill="#FD8D32"/>
<path d="M141.97 148.94C150.238 148.94 156.94 142.238 156.94 133.97C156.94 125.702 150.238 119 141.97 119C133.702 119 127 125.702 127 133.97C127 142.238 133.702 148.94 141.97 148.94Z" fill="url(#paint2_linear_3502_46217)"/>
<path d="M141.97 141.34C146.04 141.34 149.34 138.04 149.34 133.97C149.34 129.899 146.04 126.6 141.97 126.6C137.9 126.6 134.6 129.899 134.6 133.97C134.6 138.04 137.9 141.34 141.97 141.34Z" fill="#FD8D32"/>
<path d="M1325.73 265.481H1219C1219 265.481 1239.3 264.181 1241.38 255.331C1243.46 246.481 1247.1 242.331 1252.31 244.401C1252.31 244.401 1256.4 228.281 1272.37 231.401C1286.03 234.071 1287.18 248.401 1287.18 248.401C1287.18 248.401 1297.91 242.001 1301.68 253.311C1301.67 253.251 1324.22 248.571 1325.73 265.481Z" fill="#5BA8D3"/>
<path d="M220 160H287C287 160 274.257 159.171 272.951 153.524C271.645 147.877 269.36 145.229 266.09 146.55C266.09 146.55 263.522 136.265 253.497 138.256C244.922 139.959 244.2 149.102 244.2 149.102C244.2 149.102 237.464 145.019 235.097 152.235C235.104 152.197 220.948 149.211 220 160Z" fill="#5BA8D3"/>
<path d="M335.128 414.316L370.169 380.996C370.169 380.996 355.633 385.171 343.972 399.725C332.311 414.279 335.128 414.316 335.128 414.316Z" fill="#FD8D32"/>
<path d="M294.28 387.545L288.915 318.683C288.915 318.683 283.465 349.209 287.87 369.605C292.274 390.001 294.28 387.545 294.28 387.545Z" fill="#FD8D32"/>
<path d="M291.733 386.151C291.733 386.151 291.58 344.874 268.534 346.676C245.487 348.478 275.835 404.523 275.835 404.523C275.835 404.523 286.729 421.596 286.537 422.742C286.345 423.888 294.65 422.965 294.65 422.965L302.441 403.678L291.733 386.151Z" fill="#002649"/>
<path d="M282.214 409.946C282.214 409.946 279.172 377.013 270.798 360.707C270.798 360.707 279.377 374.536 286.27 413.959L284.552 414.96L282.214 409.946Z" fill="#498DBC"/>
<path d="M323.272 377.853C323.272 377.853 346.57 345.949 327.406 330.969C308.243 315.989 291.276 351.552 288.51 373.852C285.744 396.153 290.132 412.923 290.132 412.923L304.542 430.687C304.542 430.687 313.584 424.346 314.312 423.226C315.04 422.106 325.578 396.581 325.578 396.581L323.272 377.853Z" fill="#498DBC"/>
<path d="M336.712 411.058C336.712 411.058 356.549 387.898 346.799 373.947C337.048 359.996 308.162 381.637 305.884 421.812L308.385 443.991C308.385 443.991 321.144 440.994 321.419 440.31C321.693 439.627 331.963 428.896 331.963 428.896L336.712 411.058Z" fill="#183D6D"/>
<path d="M335.541 429.428C335.541 429.428 342.713 413.112 359.27 403.742C359.27 403.742 364.173 400.729 362.785 398.567C361.487 396.523 340.027 395.89 323.1 432.768L325.968 437.644L332.696 436.347L335.882 432.674L335.541 429.428Z" fill="#002649"/>
<path d="M313.577 436.995C313.577 436.995 322.151 408.664 333.434 393.215C324.785 405.067 317.396 417.788 311.385 431.172L308.777 440.827L313.646 442.076L313.577 436.995Z" fill="#498DBC"/>
<path d="M312.954 353.959C312.954 353.959 299.049 378.237 300.06 412.829L297.225 411.927L296.943 408.767C296.943 408.767 297.161 370.843 312.954 353.959Z" fill="#183D6D"/>
<path d="M347.047 436.865L365.145 424.045C365.145 424.045 357.483 421.01 353.218 423.609C348.953 426.209 345.922 425.315 344.149 426.375C342.376 427.435 334.632 430.639 334.849 435.239C335.065 439.839 347.047 436.865 347.047 436.865Z" fill="#498DBC"/>
<path d="M311.521 463.982C311.521 463.982 328.852 452.753 331.65 449.736C334.447 446.72 339.156 441.28 347.032 436.843C347.032 436.843 342.374 434.816 340.232 433.675C338.09 432.533 333.632 427.356 327.404 430.628C321.175 433.9 306.057 454.691 306.057 454.691L311.521 463.982Z" fill="#002649"/>
<path d="M161.44 460.554C182.57 435.764 212.56 390.714 224.44 324.954C224.44 324.954 163.44 366.714 122.71 460.554H161.44Z" fill="#498DBC"/>
<path d="M79.1 269.253C79.1 269.253 77.82 234.883 47.43 203.133C47.43 203.133 46.43 238.583 73.69 278.403L79.1 269.253Z" fill="#FD8D32"/>
<path d="M183.47 369.133L236.64 233.033C236.64 233.033 198.15 286.133 187.75 329.013C177.35 371.893 183.47 369.133 183.47 369.133Z" fill="#FD8D32"/>
<path d="M97.86 377.883L2.30005 301.133C2.30005 301.133 39.8901 308.613 72.4301 342.923C104.97 377.233 97.86 377.883 97.86 377.883Z" fill="#FD8D32"/>
<path d="M142.82 299.593L184.25 184.213C184.25 184.213 156.09 210.213 146.25 256.473C136.41 302.733 142.82 299.593 142.82 299.593Z" fill="#FD8D32"/>
<path d="M113.55 372.743C113.55 372.743 95.2101 318.453 31.6301 282.133C31.6301 282.133 46.8501 339.233 109.24 389.923L113.55 372.743Z" fill="#498DBC"/>
<path d="M70.1199 323.813L39.4399 292.803L68.1299 324.803L70.1199 323.813Z" fill="#3671A5"/>
<path d="M112.65 337.133C112.65 337.133 98.8801 273.993 31.8601 225.643C31.8601 225.643 40.4101 293.493 104.27 357.843L112.65 337.133Z" fill="#3671A5"/>
<path d="M90.4701 315.113L43.3801 240.773L87.1501 316.683L90.4701 315.113Z" fill="#498DBC"/>
<path d="M67.75 317.243C69.6449 316.721 71.6303 316.616 73.57 316.933C77.31 317.503 85.31 317.573 89.37 308.933C94.8 297.463 80.52 289.583 75.06 275.793C71.25 266.143 77.9 260.793 82.24 258.463C84.823 257.057 86.8872 254.859 88.13 252.193C89.95 248.313 92.07 242.613 92.13 237.043C92.13 227.253 104.75 224.763 108.9 217.753C113.05 210.743 104.7 202.163 98.22 189.613C91.74 177.063 96.1 158.323 116.71 155.333C128.5 153.623 133.05 158.813 134.78 163.573C135.86 166.728 135.757 170.169 134.49 173.253C132.49 178.513 130.02 189.803 143.26 196.053C160.91 204.393 149.81 222.053 149.81 222.053C149.81 222.053 139.27 239.153 150.47 244.773C158.56 248.843 161.79 258.563 162.84 262.773C163.128 263.836 163.196 264.946 163.041 266.036C162.887 267.126 162.512 268.173 161.94 269.113C161.611 269.619 161.247 270.1 160.85 270.553C156.68 275.323 157.85 284.233 168.34 284.553C169.549 283.788 170.94 283.361 172.37 283.316C173.8 283.271 175.215 283.611 176.469 284.299C177.723 284.987 178.77 285.999 179.5 287.229C180.23 288.46 180.617 289.863 180.62 291.293V357.293L129.04 391.483C129.04 391.483 76.02 381.473 59.75 350.133C47.39 326.213 60.75 319.213 67.75 317.243Z" fill="#002649"/>
<path d="M132.3 278.953C135.13 273.233 130.15 265.023 124.88 256.333C123.66 254.333 122.39 252.233 121.21 250.153C117.06 242.873 119.63 236.833 122.89 229.153C124.523 225.542 125.897 221.819 127 218.013C129.73 207.953 123.82 201.123 119.5 196.123C118.008 194.569 116.715 192.836 115.65 190.963C113.15 185.583 118.94 172.353 118.99 172.263L116.18 176.203C115.97 176.583 111.39 185.513 114.18 191.623C115.303 193.633 116.678 195.491 118.27 197.153C122.58 202.153 127.95 208.353 125.44 217.603C124.365 221.339 123.028 224.995 121.44 228.543C118.15 236.263 115.31 242.943 119.84 250.903C121.03 252.993 122.3 255.093 123.53 257.113C128.58 265.423 133.34 273.283 130.89 278.223L132.3 278.953Z" fill="#498DBC"/>
<path d="M169.21 378.964C169.21 378.964 217.21 350.103 238.51 281.833C238.51 281.833 187.22 308.313 151.92 378.453L169.21 378.964Z" fill="#002649"/>
<path d="M179.18 358.363L224.34 302.393L176.64 356.243L179.18 358.363Z" fill="#183D6D"/>
<path d="M164.35 374.943C164.35 374.943 206.64 313.183 194.67 218.293C194.67 218.293 147 279.003 143.03 383.933L164.35 374.943Z" fill="#498DBC"/>
<path d="M172.99 323.643L191.22 242.103L169.92 318.433L172.99 323.643Z" fill="#183D6D"/>
<path d="M162.47 431.083L209.72 349.433L160.93 424.433L162.47 431.083Z" fill="#183D6D"/>
<path d="M70.0101 400.683C70.0101 400.683 27.1001 386.133 16.4301 372.313C16.4301 372.313 12.8101 397.523 35.4301 408.853C58.0501 420.183 95.2901 421.783 95.2901 421.783L70.0101 400.683Z" fill="#498DBC"/>
<path d="M55.75 406.753C55.75 406.753 26.34 391.493 22.54 383.133C27.904 393.369 36.7808 401.326 47.54 405.543C65.26 412.223 55.75 406.753 55.75 406.753Z" fill="#DFDACB"/>
<path d="M122.07 394.433C122.07 394.433 115.93 361.913 86.6901 360.083C57.4501 358.253 50.3101 350.493 48.2801 348.223C46.2501 345.953 35.4401 334.573 32.3501 351.643C29.2601 368.713 43.7501 427.713 112.28 413.263L122.07 394.433Z" fill="#3671A5"/>
<path d="M73.7502 386.573C73.7502 386.573 47.2902 372.753 41.4202 360.013C41.4202 360.013 45.5402 378.443 68.8902 387.713C92.2402 396.983 73.7502 386.573 73.7502 386.573Z" fill="#002649"/>
<path d="M166.92 359.283C166.92 359.283 186.7 330.823 166.6 307.653C146.5 284.483 147.06 273.433 147.27 270.253C147.48 267.073 148.03 250.643 133.01 260.873C117.99 271.103 84.56 325.213 145.67 365.793L166.92 359.283Z" fill="#183D6D"/>
<path d="M139.57 389.493C139.57 389.493 115.5 391.983 108.12 371.873C100.74 351.763 93.75 348.373 91.75 347.423C89.75 346.473 79.5 341.263 90.83 335.543C102.16 329.823 146.52 327.643 150.7 378.703L139.57 389.493Z" fill="#498DBC"/>
<path d="M140.9 374.924C140.9 374.924 125.47 349.924 113.55 348.374C113.55 348.374 135.89 369.194 139.01 376.224L140.9 374.924Z" fill="#183D6D"/>
<path d="M138.75 430.543C138.75 430.543 186.87 387.413 195.84 305.263C195.84 305.263 141.04 346.183 116.6 433.473L138.75 430.543Z" fill="#3671A5"/>
<path d="M143.91 408.193L185.33 330.543L140.9 406.073L143.91 408.193Z" fill="#498DBC"/>
<path d="M243.75 460.553H0C0 460.553 14.83 459.233 21.75 434.823C28.67 410.413 41.66 402.363 59.8 408.133C77.94 413.903 66.13 372.463 107.49 372.463C146.93 372.463 138.43 424.233 156.39 409.283C174.35 394.333 198.72 414.373 201.21 434.833C203.7 455.293 243.75 460.553 243.75 460.553Z" fill="#002649"/>
<path d="M156.19 348.734C156.19 348.734 133.56 297.734 134.9 282.164C134.9 282.164 131.66 301.644 143.35 327.164C155.04 352.684 153.95 351.164 153.95 351.164L156.19 348.734Z" fill="#002649"/>
<path d="M294.058 231C278.005 231 265 244.005 265 260.058C265 276.11 278.005 289.116 294.058 289.116C310.11 289.116 323.116 276.11 323.116 260.058C323.116 244.005 310.11 231 294.058 231ZM294.058 277.448C284.471 277.448 276.668 269.645 276.668 260.058C276.668 250.471 284.471 242.668 294.058 242.668C303.645 242.668 311.448 250.471 311.448 260.058C311.448 269.645 303.719 277.448 294.058 277.448Z" fill="#183D6D"/>
<path d="M1435.81 263.775C1435.81 263.775 1434.49 227.792 1402.62 194.603C1402.62 194.603 1401.63 231.736 1430.06 273.305L1435.81 263.775Z" fill="#FD8D32"/>
<path d="M1476.39 451.082C1476.39 451.082 1466.86 213.334 1559.86 132.496C1559.86 132.496 1553.45 138.904 1556.9 154.349C1560.35 169.793 1532.91 178.337 1541.46 201.504C1550 224.671 1548.36 242.251 1529.63 263.282C1510.9 284.313 1553.29 307.973 1534.06 343.955C1515 379.938 1566.43 447.96 1476.39 451.082Z" fill="#3973A2"/>
<path d="M1506.3 241.266C1506.3 241.266 1520.92 183.102 1545.07 160.592C1545.07 160.592 1513.03 207.912 1509.91 241.594L1506.3 241.266Z" fill="#DFDACB"/>
<path d="M1518.45 404.584L1585.16 233.872C1585.16 233.872 1536.86 300.415 1523.88 354.307C1510.73 408.034 1518.45 404.584 1518.45 404.584Z" fill="#FD8D32"/>
<path d="M1455.36 377.309L1355.3 296.964C1355.3 296.964 1394.57 304.851 1428.74 340.669C1462.75 376.652 1455.36 377.309 1455.36 377.309Z" fill="#FD8D32"/>
<path d="M1471.79 372.052C1471.79 372.052 1452.57 315.203 1386.02 277.249C1386.02 277.249 1401.96 337.055 1467.19 389.961L1471.79 372.052Z" fill="#498DBC"/>
<path d="M1426.44 320.789L1394.24 288.421L1424.31 321.775L1426.44 320.789Z" fill="#3671A5"/>
<path d="M1470.81 334.755C1470.81 334.755 1456.35 268.704 1386.35 218.099C1386.35 218.099 1395.23 289.078 1462.1 356.443L1470.81 334.755Z" fill="#3671A5"/>
<path d="M1447.64 311.752L1398.35 233.872L1444.19 313.395L1447.64 311.752Z" fill="#498DBC"/>
<path d="M1423.98 313.888C1425.95 313.395 1428.09 313.231 1430.06 313.56C1434 314.217 1442.38 314.217 1446.65 305.18C1452.4 293.186 1437.45 284.971 1431.7 270.512C1427.76 260.489 1434.66 254.903 1439.26 252.439C1442.05 250.96 1444.19 248.66 1445.5 245.866C1447.47 241.759 1449.61 235.844 1449.61 230.093C1449.61 219.906 1462.75 217.277 1467.19 209.884C1471.46 202.49 1462.75 193.618 1456.02 180.473C1449.28 167.329 1453.88 147.777 1475.41 144.655C1487.73 142.848 1492.49 148.27 1494.3 153.199C1495.45 156.485 1495.29 160.1 1493.97 163.386C1491.84 168.808 1489.37 180.638 1503.17 187.21C1521.58 195.918 1510.07 214.484 1510.07 214.484C1510.07 214.484 1499.07 232.393 1510.73 238.308C1519.28 242.58 1522.56 252.767 1523.71 257.203C1524.2 259.504 1524.04 261.804 1522.73 263.776C1522.4 264.268 1522.07 264.761 1521.58 265.254C1517.14 270.183 1518.45 279.549 1529.46 279.877C1535.05 276.263 1542.28 280.37 1542.28 286.942V355.95L1488.06 391.768C1488.06 391.768 1432.69 381.253 1415.6 348.392C1402.62 323.254 1416.59 316.024 1423.98 313.888Z" fill="#002649"/>
<path d="M1491.34 273.798C1494.3 267.883 1489.04 259.175 1483.62 250.138C1482.31 248.002 1480.99 245.866 1479.84 243.73C1475.57 236.172 1478.2 229.764 1481.65 221.713C1483.13 218.099 1484.77 214.32 1485.92 210.048C1488.71 199.532 1482.64 192.303 1478.04 187.21C1476.23 185.238 1474.75 183.431 1473.93 181.788C1471.3 176.201 1477.38 162.4 1477.38 162.235L1474.42 166.343C1474.26 166.672 1469.49 176.037 1472.45 182.445C1473.27 184.252 1474.91 186.059 1476.72 188.195C1481.16 193.453 1486.91 199.861 1484.28 209.555C1483.13 213.827 1481.65 217.442 1480.01 221.056C1476.56 229.107 1473.6 236.172 1478.36 244.387C1479.68 246.523 1480.99 248.824 1482.31 250.96C1487.56 259.668 1492.49 267.883 1490.03 272.976L1491.34 273.798Z" fill="#498DBC"/>
<path d="M1540.47 339.355C1540.47 339.355 1571.36 320.789 1585 276.919C1585 276.919 1551.97 294.007 1529.3 339.026L1540.47 339.355Z" fill="#002649"/>
<path d="M1546.88 326.047L1575.96 290.064L1545.24 324.732L1546.88 326.047Z" fill="#183D6D"/>
<path d="M1525.03 374.352C1525.03 374.352 1569.22 309.78 1556.74 210.376C1556.74 210.376 1506.79 273.962 1502.68 383.717L1525.03 374.352Z" fill="#498DBC"/>
<path d="M1534.06 320.624L1553.12 235.351L1530.78 315.202L1534.06 320.624Z" fill="#183D6D"/>
<path d="M1426.28 401.298C1426.28 401.298 1381.42 386.017 1370.25 371.559C1370.25 371.559 1366.47 398.012 1390.13 409.841C1413.79 421.671 1452.73 423.314 1452.73 423.314L1426.28 401.298Z" fill="#498DBC"/>
<path d="M1411.33 407.541C1411.33 407.541 1380.6 391.604 1376.66 382.896C1376.66 382.896 1384.22 399.326 1402.78 406.391C1421.35 413.292 1411.33 407.541 1411.33 407.541Z" fill="#DFDACB"/>
<path d="M1480.66 394.726C1480.66 394.726 1474.26 360.715 1443.7 358.743C1413.14 356.771 1405.58 348.72 1403.44 346.256C1401.31 343.956 1389.97 331.961 1386.85 349.871C1383.56 367.78 1398.68 429.394 1470.48 414.278L1480.66 394.726Z" fill="#3671A5"/>
<path d="M1430.22 386.51C1430.22 386.51 1402.46 372.051 1396.38 358.743C1396.38 358.743 1400.65 377.966 1425.13 387.66C1449.45 397.354 1430.22 386.51 1430.22 386.51Z" fill="#002649"/>
<path d="M1527.66 357.921C1527.66 357.921 1548.36 328.182 1527.33 303.865C1506.3 279.548 1506.95 268.047 1507.12 264.761C1507.28 261.475 1507.94 244.223 1492.17 254.903C1476.39 265.582 1441.4 322.267 1505.47 364.658L1527.66 357.921Z" fill="#183D6D"/>
<path d="M1499.07 389.468C1499.07 389.468 1473.93 392.097 1466.21 371.066C1458.48 350.035 1451.25 346.42 1449.12 345.434C1446.98 344.449 1436.3 339.027 1448.13 332.947C1459.96 327.032 1506.46 324.732 1510.73 378.131L1499.07 389.468Z" fill="#498DBC"/>
<path d="M1489.7 367.122C1489.7 367.122 1473.6 340.998 1461.11 339.355C1461.11 339.355 1484.44 361.207 1487.73 368.437L1489.7 367.122Z" fill="#183D6D"/>
<path d="M1516.48 346.913C1516.48 346.913 1492.82 293.515 1494.14 277.249C1494.14 277.249 1490.69 297.622 1503.01 324.239C1515.33 350.857 1514.02 349.378 1514.02 349.378L1516.48 346.913Z" fill="#002649"/>
<path d="M1658 464H1403C1403 464 1418.44 462.688 1425.67 437.105C1432.9 411.686 1446.54 403.159 1465.44 409.226C1484.49 415.294 1472.01 372 1515.38 372C1556.62 372 1547.75 426.118 1566.48 410.374C1585.21 394.795 1610.84 415.622 1613.31 437.105C1615.77 458.588 1658 464 1658 464Z" fill="#E4F4FF"/>
<path d="M1373 89C1356.42 89 1343 102.423 1343 119C1343 135.577 1356.42 149 1373 149C1389.58 149 1403 135.577 1403 119C1403 102.423 1389.58 89 1373 89ZM1373 136.928C1363.09 136.928 1355.07 128.91 1355.07 119C1355.07 109.09 1363.09 101.072 1373 101.072C1382.91 101.072 1390.93 109.09 1390.93 119C1390.97 128.865 1382.91 136.928 1373 136.928Z" fill="#183D6D"/>
<path d="M1174 368C1119.85 368 1076 411.85 1076 466C1076 520.15 1119.85 564 1174 564C1228.15 564 1272 520.15 1272 466C1272 411.85 1228.15 368 1174 368ZM1174 524.565C1141.63 524.565 1115.44 498.372 1115.44 466C1115.44 433.628 1141.63 407.435 1174 407.435C1206.37 407.435 1232.56 433.628 1232.56 466C1232.71 498.225 1206.37 524.565 1174 524.565Z" fill="#183D6D"/>
<path d="M1269.18 380.639C1269.18 380.639 1247.85 356.183 1255.27 350.31C1255.27 350.31 1260.04 345.948 1265.52 360.867C1265.52 360.867 1260.29 346.772 1264.93 345.682C1269.56 344.593 1271.07 355.044 1271 359.777C1271 359.777 1270.68 344.427 1274.25 344.375C1277.81 344.323 1278.9 351.926 1275.44 359.912C1275.44 359.912 1279.6 344.885 1282.54 345.47C1285.49 346.055 1287.97 353.232 1278.21 378.908L1269.18 380.639Z" fill="url(#paint3_linear_3502_46217)"/>
<path d="M1276.54 442.979C1276.54 442.979 1246.34 386.095 1274.13 379.779C1274.13 379.779 1302.39 366.713 1294.51 438.832L1276.54 442.979Z" fill="url(#paint4_linear_3502_46217)"/>
<path d="M1264.82 410.081L1277.02 403.963L1264.14 406.938C1264.32 407.933 1264.62 408.995 1264.82 410.081Z" fill="#F15A24"/>
<path d="M1292.28 394.728C1291.95 393.484 1291.64 392.331 1291.24 391.29L1277.58 394.448L1292.28 394.728Z" fill="#F15A24"/>
<path d="M1294.67 408.596C1294.59 407.579 1294.52 406.653 1294.45 405.726L1282.94 408.384L1294.67 408.596Z" fill="#F15A24"/>
<path d="M1295.27 431.837C1295.33 431.07 1295.39 430.302 1295.45 429.534L1286.28 431.649L1295.27 431.837Z" fill="#F15A24"/>
<path d="M1270.86 427.548L1281.1 422.359L1269.88 424.949C1270.25 425.898 1270.52 426.779 1270.86 427.548Z" fill="#F15A24"/>
<path d="M1303.16 371.342C1303.16 371.342 1287.37 341.74 1295.37 337.596C1295.37 337.596 1300.59 334.339 1303.16 350.621C1303.16 350.621 1300.69 335.228 1305.23 335.228C1309.77 335.228 1309.38 346.082 1308.49 350.818C1308.49 350.818 1310.86 335.326 1314.21 336.116C1317.57 336.905 1317.27 344.799 1312.63 352.002C1312.63 352.002 1319.15 337.892 1321.81 339.174C1324.47 340.457 1325.56 348.252 1311.94 371.737L1303.16 371.342Z" fill="url(#paint5_linear_3502_46217)"/>
<path d="M1297.93 440.907C1297.93 440.907 1279.97 370.454 1306.52 370.553C1306.52 370.553 1334.64 370.948 1315.1 440.907H1297.93Z" fill="url(#paint6_linear_3502_46217)"/>
<path d="M1291.91 398.675C1291.91 397.589 1291.91 396.405 1291.91 395.32H1304.34L1291.91 398.675Z" fill="#F15A24"/>
<path d="M1321.22 389.597L1307.6 385.946H1320.53C1320.82 387.13 1321.02 388.314 1321.22 389.597Z" fill="#F15A24"/>
<path d="M1321.91 403.707L1311.05 400.747H1322.01C1321.91 401.734 1321.91 402.721 1321.91 403.707Z" fill="#F15A24"/>
<path d="M1318.65 426.698L1309.28 424.133H1319.24C1318.95 425.021 1318.75 425.81 1318.65 426.698Z" fill="#F15A24"/>
<path d="M1293.39 417.127C1293.29 416.239 1293.19 415.252 1293 414.364H1303.75L1293.39 417.127Z" fill="#F15A24"/>
<path d="M1244.16 402.265C1244.16 402.265 1219.41 381.351 1226.09 374.509C1226.09 374.509 1230.29 369.536 1237.82 383.385C1237.82 383.385 1230.66 370.307 1235.17 368.566C1239.68 366.824 1242.61 376.865 1243.18 381.521C1243.18 381.521 1240.79 366.498 1244.37 365.93C1247.94 365.362 1250.06 372.668 1247.66 381.01C1247.66 381.01 1249.81 365.656 1252.86 365.802C1255.9 365.949 1259.36 372.635 1253.01 399.255L1244.16 402.265Z" fill="url(#paint7_linear_3502_46217)"/>
<path d="M1260.55 462.694C1260.55 462.694 1222.26 411.179 1249.43 401.007C1249.43 401.007 1276.14 384.142 1278.11 456.055L1260.55 462.694Z" fill="url(#paint8_linear_3502_46217)"/>
<path d="M1244.43 432.143L1255.74 424.326L1243.34 429.133C1243.65 430.091 1244.09 431.099 1244.43 432.143Z" fill="#F15A24"/>
<path d="M1269.42 412.932C1268.92 411.749 1268.46 410.654 1267.93 409.682L1254.77 414.784L1269.42 412.932Z" fill="#F15A24"/>
<path d="M1273.87 426.377C1273.65 425.383 1273.46 424.477 1273.27 423.57L1262.18 427.867L1273.87 426.377Z" fill="#F15A24"/>
<path d="M1277.9 449.266C1277.86 448.497 1277.82 447.729 1277.78 446.96L1268.95 450.38L1277.9 449.266Z" fill="#F15A24"/>
<path d="M1253.05 448.616L1262.53 442.001L1251.73 446.188C1252.2 446.985 1252.58 447.819 1253.05 448.616Z" fill="#F15A24"/>
<path d="M1256.39 466.627L1235.17 466.232C1235.17 466.232 1239.61 459.72 1244.35 459.424C1249.08 459.226 1251.06 456.858 1253.03 456.759C1255.01 456.661 1262.9 454.983 1265.17 458.733C1267.44 462.482 1256.39 466.627 1256.39 466.627Z" fill="#498DBC"/>
<path d="M1299.11 468.995C1299.11 468.995 1279.38 469.488 1275.53 468.6C1271.68 467.712 1265.07 465.936 1256.39 466.725C1256.39 466.725 1258.95 462.581 1260.04 460.509C1261.12 458.437 1261.81 451.924 1268.52 451.135C1275.23 450.346 1298.42 458.634 1298.42 458.634L1299.11 468.995Z" fill="#002649"/>
<path d="M1371.54 440.38C1374.1 443.636 1375.49 447.681 1375.39 451.826C1375.39 453.701 1375.19 455.773 1374.79 457.45C1373.61 462.581 1367.79 469.39 1359.4 469.587C1351.01 469.686 1339.17 470.672 1339.17 470.672C1339.17 470.672 1333.45 468.107 1330.98 468.502C1328.52 468.896 1308.49 471.166 1305.33 471.166C1302.17 471.067 1299.11 469.094 1299.11 469.094C1299.11 469.094 1278.49 462.088 1276.81 460.41C1275.04 458.832 1269.61 450.05 1269.61 450.05C1269.61 450.05 1267.54 441.761 1274.54 433.867C1274.54 433.867 1274.25 423.21 1282.44 417.487C1290.63 411.764 1299.8 404.462 1299.8 404.462C1299.8 404.462 1310.46 394.595 1320.92 390.944C1325.16 389.464 1329.8 390.451 1333.06 393.411C1336.31 396.371 1340.16 401.108 1342.04 408.015C1342.04 408.015 1346.38 414.33 1349.73 415.317C1353.09 416.303 1363.35 426.072 1366.31 432.288C1367.79 435.249 1369.76 438.11 1371.54 440.38Z" fill="url(#paint9_linear_3502_46217)"/>
<path d="M1350.72 429.821C1347.66 429.525 1341.05 428.144 1338.48 421.434C1337.79 419.658 1337.59 417.684 1338.19 415.81C1338.48 414.823 1338.98 413.935 1339.77 413.54C1340.95 412.849 1340.56 411.271 1339.96 410.087C1339.47 409.001 1339.77 407.718 1340.65 406.929C1340.95 406.732 1341.25 406.436 1341.54 406.238C1341.74 406.83 1341.94 407.423 1342.04 408.015C1342.04 408.015 1346.38 414.33 1349.73 415.317L1354.17 423.605C1354.96 425.184 1354.96 427.058 1353.88 428.44C1353.78 428.538 1353.78 428.637 1353.68 428.637C1352.89 429.427 1351.8 429.92 1350.72 429.821Z" fill="#498DBC"/>
<path d="M1273.46 450.148C1273.95 448.076 1275.23 444.524 1274.94 441.07C1274.74 437.617 1280.36 434.361 1281.75 433.275C1283.13 432.289 1285.2 421.336 1289.15 418.079C1293.09 414.922 1299.11 408.903 1299.8 404.265C1299.8 404.265 1310.46 394.398 1320.92 390.747C1324.77 389.366 1329.01 390.155 1332.27 392.622C1332.27 392.622 1335.42 408.706 1331.58 425.283C1331.87 421.336 1331.48 418.178 1329.7 417.685C1324.27 416.007 1326.74 429.526 1322.5 437.42C1319.83 442.353 1316.78 447.78 1313.52 451.826C1313.52 451.826 1321.91 433.078 1318.75 426.565C1318.75 426.565 1310.95 432.091 1306.02 432.979C1301.09 433.966 1288.95 439.492 1286.38 444.327C1283.82 449.162 1278.19 455.477 1280.86 462.187C1278.69 461.299 1277.11 460.608 1276.71 460.213C1276.32 459.917 1275.83 459.325 1275.33 458.536C1275.33 458.634 1272.96 452.221 1273.46 450.148Z" fill="#498DBC"/>
<path d="M1299.11 468.995C1299.11 468.995 1297.24 468.304 1294.57 467.416C1296.74 461.496 1302.76 460.608 1307.89 457.45C1313.03 454.292 1318.35 445.313 1322.6 437.419C1326.84 429.624 1324.37 416.106 1329.8 417.685C1334.54 419.165 1329.31 439.689 1327.83 445.017C1327.63 445.807 1327.33 446.497 1327.04 447.287C1325.66 450.543 1321.51 460.904 1324.67 461.792C1328.32 462.877 1334.54 457.351 1337.2 457.45C1339.07 457.45 1341.94 460.608 1343.52 462.581C1344.4 463.666 1345.59 464.555 1346.97 465.048C1348.55 465.64 1350.92 466.331 1354.07 466.824C1360.39 467.811 1372.82 461.693 1372.82 461.693C1370.26 465.64 1365.52 469.291 1359.4 469.39C1351.01 469.488 1339.17 470.475 1339.17 470.475C1339.17 470.475 1333.45 467.909 1330.98 468.304C1328.52 468.699 1308.49 470.968 1305.33 470.968C1302.17 471.067 1299.11 468.995 1299.11 468.995Z" fill="#002649"/>
<path d="M228 432.954C228 429.186 228.335 425.586 229.005 422.321L252.448 420.563C252.448 420.563 238.717 419.725 229.674 419.223C232.27 409.092 237.628 402.059 243.824 402.059C244.159 402.059 244.41 402.059 244.745 402.143C246.336 402.227 250.103 402.478 255.378 402.729C255.211 398.543 255.043 392.85 255.043 392.85H265.258L271.119 403.65C313.651 406.078 391.181 410.432 392.436 410.013V463.932H243.908C236.959 463.932 231.098 455.225 229.005 443.085L246.168 441.578L228.502 439.987C228.419 439.568 228.419 439.066 228.335 438.647L240.475 437.057L228.167 436.387C228 435.131 228 434.042 228 432.954Z" fill="#244C77"/>
<path d="M392.269 463.849C399.852 463.849 406 451.779 406 436.889C406 422 399.852 409.93 392.269 409.93C384.686 409.93 378.538 422 378.538 436.889C378.538 451.779 384.686 463.849 392.269 463.849Z" fill="#5BA8D3"/>
<path d="M260.067 395.111C262.887 395.111 265.174 394.061 265.174 392.766C265.174 391.471 262.887 390.422 260.067 390.422C257.246 390.422 254.959 391.471 254.959 392.766C254.959 394.061 257.246 395.111 260.067 395.111Z" fill="#5BA8D3"/>
<path d="M387.581 411.604C394.865 413.698 400.391 424.247 400.391 436.89C400.391 449.532 394.865 460.081 387.581 462.175C382.306 458.407 378.538 448.527 378.538 436.889C378.538 425.251 382.306 415.372 387.581 411.604Z" fill="#002649"/>
<path d="M378.622 439.15C378.706 440.657 378.789 442.164 379.04 443.587L332.74 439.15H378.622Z" fill="#002649"/>
<path d="M380.296 450.034L353.337 447.941L379.375 446.267C379.627 447.522 379.962 448.778 380.296 450.034Z" fill="#002649"/>
<path d="M33 464H237C237 464 199.346 463.034 194.332 445.269C189.319 427.503 179.844 421.655 166.787 425.959C153.731 430.262 162.187 400 132.135 400C103.488 400 109.658 437.683 96.602 426.786C83.5456 415.89 65.834 430.483 64.0435 445.379C62.2531 460.276 33 464 33 464Z" fill="#E3F3FF"/>
<defs>
<linearGradient id="paint0_linear_3502_46217" x1="1.19931e+06" y1="275802" x2="1.19931e+06" y2="240117" gradientUnits="userSpaceOnUse">
<stop stop-color="#183D6D"/>
<stop offset="0.19" stop-color="#1C4373"/>
<stop offset="0.45" stop-color="#265483"/>
<stop offset="0.75" stop-color="#376F9F"/>
<stop offset="1" stop-color="#498DBC"/>
</linearGradient>
<linearGradient id="paint1_linear_3502_46217" x1="1.19931e+06" y1="275802" x2="1.19931e+06" y2="240117" gradientUnits="userSpaceOnUse">
<stop stop-color="#183D6D"/>
<stop offset="0.19" stop-color="#1C4373"/>
<stop offset="0.45" stop-color="#265483"/>
<stop offset="0.75" stop-color="#376F9F"/>
<stop offset="1" stop-color="#498DBC"/>
</linearGradient>
<linearGradient id="paint2_linear_3502_46217" x1="1.19931e+06" y1="275802" x2="1.19931e+06" y2="240117" gradientUnits="userSpaceOnUse">
<stop stop-color="#183D6D"/>
<stop offset="0.19" stop-color="#1C4373"/>
<stop offset="0.45" stop-color="#265483"/>
<stop offset="0.75" stop-color="#376F9F"/>
<stop offset="1" stop-color="#498DBC"/>
</linearGradient>
<linearGradient id="paint3_linear_3502_46217" x1="828.199" y1="564.895" x2="828.199" y2="-1.01824" gradientUnits="userSpaceOnUse">
<stop stop-color="#183D6D"/>
<stop offset="0.1944" stop-color="#1C4373"/>
<stop offset="0.4529" stop-color="#265483"/>
<stop offset="0.746" stop-color="#376F9F"/>
<stop offset="1" stop-color="#498DBC"/>
</linearGradient>
<linearGradient id="paint4_linear_3502_46217" x1="830.777" y1="757.109" x2="830.777" y2="-393.429" gradientUnits="userSpaceOnUse">
<stop stop-color="#FF2A64"/>
<stop offset="0.0308184" stop-color="#FF3462"/>
<stop offset="0.1688" stop-color="#FF595A"/>
<stop offset="0.3129" stop-color="#FF7854"/>
<stop offset="0.4626" stop-color="#FF904E"/>
<stop offset="0.6203" stop-color="#FFA24B"/>
<stop offset="0.7913" stop-color="#FFAC49"/>
<stop offset="1" stop-color="#FFAF48"/>
</linearGradient>
<linearGradient id="paint5_linear_3502_46217" x1="828.511" y1="565.424" x2="828.511" y2="-0.489303" gradientUnits="userSpaceOnUse">
<stop stop-color="#183D6D"/>
<stop offset="0.1944" stop-color="#1C4373"/>
<stop offset="0.4529" stop-color="#265483"/>
<stop offset="0.746" stop-color="#376F9F"/>
<stop offset="1" stop-color="#498DBC"/>
</linearGradient>
<linearGradient id="paint6_linear_3502_46217" x1="831.066" y1="880.359" x2="831.066" y2="-270.644" gradientUnits="userSpaceOnUse">
<stop stop-color="#FF2A64"/>
<stop offset="0.0308184" stop-color="#FF3462"/>
<stop offset="0.1688" stop-color="#FF595A"/>
<stop offset="0.3129" stop-color="#FF7854"/>
<stop offset="0.4626" stop-color="#FF904E"/>
<stop offset="0.6203" stop-color="#FFA24B"/>
<stop offset="0.7913" stop-color="#FFAC49"/>
<stop offset="1" stop-color="#FFAF48"/>
</linearGradient>
<linearGradient id="paint7_linear_3502_46217" x1="827.891" y1="565.299" x2="827.891" y2="-0.61431" gradientUnits="userSpaceOnUse">
<stop stop-color="#183D6D"/>
<stop offset="0.1944" stop-color="#1C4373"/>
<stop offset="0.4529" stop-color="#265483"/>
<stop offset="0.746" stop-color="#376F9F"/>
<stop offset="1" stop-color="#498DBC"/>
</linearGradient>
<linearGradient id="paint8_linear_3502_46217" x1="830.461" y1="809.877" x2="830.461" y2="-340.66" gradientUnits="userSpaceOnUse">
<stop stop-color="#FF2A64"/>
<stop offset="0.0308184" stop-color="#FF3462"/>
<stop offset="0.1688" stop-color="#FF595A"/>
<stop offset="0.3129" stop-color="#FF7854"/>
<stop offset="0.4626" stop-color="#FF904E"/>
<stop offset="0.6203" stop-color="#FFA24B"/>
<stop offset="0.7913" stop-color="#FFAC49"/>
<stop offset="1" stop-color="#FFAF48"/>
</linearGradient>
<linearGradient id="paint9_linear_3502_46217" x1="-0.462546" y1="281.524" x2="1657.89" y2="281.524" gradientUnits="userSpaceOnUse">
<stop stop-color="#183D6D"/>
<stop offset="0.1944" stop-color="#1C4373"/>
<stop offset="0.4529" stop-color="#265483"/>
<stop offset="0.746" stop-color="#376F9F"/>
<stop offset="1" stop-color="#498DBC"/>
</linearGradient>
</defs>
</svg>
