<svg width="64" height="77" viewBox="0 0 64 77" fill="none" xmlns="http://www.w3.org/2000/svg">
<path d="M49.1664 70.2308H6.5009C3.41503 70.2308 1 67.6816 1 64.7299V6.5009C1 3.41503 3.5492 1 6.5009 1H45.0072C48.093 1 50.5081 3.5492 50.5081 6.5009V40.848M16.6977 61.9123V70.2308M22.7352 61.9123V70.2308M28.7728 61.9123V70.2308M34.8104 61.9123V70.2308M44.3363 44.068V27.1628C44.3363 25.6869 43.1288 24.4794 41.6529 24.4794H9.85511C8.37926 24.4794 7.17174 25.6869 7.17174 27.1628V44.068C7.17174 45.5438 8.37926 46.7513 9.85511 46.7513H41.6529C43.1288 46.7513 44.3363 45.5438 44.3363 44.068ZM37.0912 61.9123H14.551C13.0751 61.9123 11.8676 63.1199 11.8676 64.5957V70.2308H39.7746V64.5957C39.7746 63.1199 38.5671 61.9123 37.0912 61.9123ZM14.9535 38.1646C14.9535 39.6404 16.161 40.848 17.6369 40.848C19.1127 40.848 20.3202 39.6404 20.3202 38.1646C20.3202 36.6887 19.1127 35.4812 17.6369 35.4812C16.161 35.4812 14.9535 34.2737 14.9535 32.7979C14.9535 31.322 16.161 30.1145 17.6369 30.1145C19.1127 30.1145 20.3202 31.322 20.3202 32.7979L14.9535 38.1646ZM23.8086 38.1646C23.8086 39.6404 25.0161 40.848 26.4919 40.848C27.9678 40.848 29.1753 39.6404 29.1753 38.1646C29.1753 36.6887 27.9678 35.4812 26.4919 35.4812C25.0161 35.4812 23.8086 34.2737 23.8086 32.7979C23.8086 31.322 25.0161 30.1145 26.4919 30.1145C27.9678 30.1145 29.1753 31.322 29.1753 32.7979L23.8086 38.1646ZM32.5295 30.3828H35.3471C36.6887 30.3828 37.8962 31.4562 37.8962 32.932V38.4329C37.8962 39.7746 36.8229 40.9821 35.3471 40.9821H32.5295V30.3828ZM9.85511 7.03757C8.37926 7.03757 7.17174 8.24508 7.17174 9.72093C7.17174 11.1968 8.37926 12.4043 9.85511 12.4043C11.331 12.4043 12.5385 11.1968 12.5385 9.72093C12.5385 8.24508 11.331 7.03757 9.85511 7.03757ZM41.6529 7.03757C40.1771 7.03757 38.9696 8.24508 38.9696 9.72093C38.9696 11.1968 40.1771 12.4043 41.6529 12.4043C43.1288 12.4043 44.3363 11.1968 44.3363 9.72093C44.3363 8.24508 43.1288 7.03757 41.6529 7.03757ZM51.3131 50.3739H62.8515L47.9588 76L51.0447 58.8265H39.6404L54.6673 34.542L51.3131 50.3739Z" stroke="url(#paint0_linear_1692_3956)" stroke-width="2" stroke-miterlimit="10" stroke-linecap="round" stroke-linejoin="round"/>
<defs>
<linearGradient id="paint0_linear_1692_3956" x1="31.9521" y1="77.3544" x2="31.9521" y2="-0.463106" gradientUnits="userSpaceOnUse">
<stop stop-color="#F2AD5C"/>
<stop offset="1" stop-color="#ED7F5E"/>
</linearGradient>
</defs>
</svg>
