<svg width="75" height="77" viewBox="0 0 75 77" fill="none" xmlns="http://www.w3.org/2000/svg">
<path d="M37.5 75.5C20.875 71.75 9 56.875 9 39.75V21.625C9 19.625 10.125 17.875 11.875 17.125L35.375 6.375C36.75 5.75 38.25 5.75 39.5 6.375L63 17.125C64.75 17.875 65.875 19.75 65.875 21.625V39.75C66 56.875 54.125 71.75 37.5 75.5ZM37.5 66.625C25.125 63.75 16.25 52.75 16.25 40V26.5C16.25 25 17.125 23.75 18.375 23.125L35.875 15.125C36.875 14.625 38 14.625 39 15.125L56.5 23.125C57.875 23.75 58.625 25 58.625 26.5V40C58.75 52.75 49.875 63.75 37.5 66.625ZM44.25 32.625C44.25 28.875 41.25 25.75 37.375 25.75C33.625 25.75 30.5 28.75 30.5 32.625V36.5H44.125V32.625H44.25ZM48.625 47V41.5C48.625 38.75 46.375 36.5 43.625 36.5H31.25C28.5 36.5 26.25 38.75 26.25 41.5V47C26.25 49.75 28.5 52 31.25 52H43.625C46.375 52 48.625 49.75 48.625 47ZM37.5 44.875V47.75V44.875ZM37.5 40.25C36.25 40.25 35.125 41.25 35.125 42.625C35.125 44 36.125 45 37.5 45C38.875 45 39.875 44 39.875 42.625C39.875 41.25 38.75 40.25 37.5 40.25Z" stroke="url(#paint0_linear_1692_3957)" stroke-width="2" stroke-miterlimit="10" stroke-linecap="round" stroke-linejoin="round"/>
<defs>
<linearGradient id="paint0_linear_1692_3957" x1="37.462" y1="76.7481" x2="37.462" y2="4.7405" gradientUnits="userSpaceOnUse">
<stop stop-color="#F2AD5C"/>
<stop offset="1" stop-color="#ED7F5E"/>
</linearGradient>
</defs>
</svg>
