<svg width="1001" height="1000" viewBox="0 0 1001 1000" fill="none" xmlns="http://www.w3.org/2000/svg">
<path d="M759.266 438.533C759.266 438.533 826.666 440.733 843.6 485.467V529.8H744.066L759.266 438.533Z" fill="url(#paint0_linear_1189_4962)"/>
<path d="M834 1000H488.667L490.6 960.667L491.8 936L495.933 852.067L497.733 815.533L555.533 541.867L553.6 482.8L552.867 460.933V460.6L648.2 418L759.2 438.4C782.4 440 796.933 452.4 805.533 464C812.467 473.333 816.333 484.6 816.733 496.267L826.933 794.533L832.6 960.6L834 1000Z" fill="url(#paint1_linear_1189_4962)"/>
<path d="M834 1000H488.667L490.6 960.667L491.8 936C696.467 929.333 787.4 852.4 826.933 794.6L832.6 960.667L834 1000Z" fill="url(#paint2_linear_1189_4962)"/>
<path d="M932 806.534L919.6 842.667C916.6 851.4 910.467 858.4 902.734 862.667C899 864.734 894.934 866.134 890.6 866.734C888.867 867 887.134 867.134 885.334 867.134H729.934C725.934 867.134 722 866.467 718.333 865.2C707.933 861.667 699.4 853.467 695.667 842.667L683.267 806.534H932Z" fill="url(#paint3_linear_1189_4962)"/>
<path d="M730.466 812.067V867.134H729.933C725.933 867.134 722 866.467 718.333 865.2V812.067H730.466ZM752.8 812.067V867.134H764.933V812.067H752.8ZM787.266 812.067V867.134H799.4V812.067H787.266ZM821.733 812.067V867.134H833.866V812.067H821.733ZM856.133 812.067V867.134H868.266V812.067H856.133ZM890.6 812.067V866.734C894.933 866.134 899 864.734 902.733 862.667V812.067H890.6Z" fill="url(#paint4_linear_1189_4962)"/>
<path d="M968.533 518V777.733C968.533 800.533 950.067 819 927.267 819H688C665.2 819 646.733 800.533 646.733 777.733V518C646.733 495.2 665.2 476.733 688 476.733H927.267C950.067 476.733 968.533 495.2 968.533 518Z" fill="url(#paint5_linear_1189_4962)"/>
<path d="M968.534 579.467H744.067V685.6H968.534V579.467Z" fill="url(#paint6_linear_1189_4962)"/>
<path d="M744.067 819.067H688.066C665.266 819.067 646.8 800.6 646.8 777.8V518C646.8 495.2 665.266 476.733 688.066 476.733H702.8C725.6 476.733 744.067 495.2 744.067 518V819.067Z" fill="url(#paint7_linear_1189_4962)"/>
<path d="M688.8 703.267H588.8C583.067 703.267 578.467 698.667 578.467 692.934V642.4C578.467 636.667 583.067 632.067 588.8 632.067H688.8C694.533 632.067 699.133 636.667 699.133 642.4V692.934C699.133 698.667 694.533 703.267 688.8 703.267Z" fill="url(#paint8_linear_1189_4962)"/>
<path d="M674 685.6H585.267C581.533 685.6 578.533 682.6 578.533 678.866V656.533C578.533 652.8 581.533 649.8 585.267 649.8H674C677.733 649.8 680.733 652.8 680.733 656.533V678.866C680.733 682.533 677.733 685.6 674 685.6Z" fill="url(#paint9_linear_1189_4962)"/>
<path d="M695.4 545.733C708.029 545.733 718.266 535.496 718.266 522.867C718.266 510.238 708.029 500 695.4 500C682.771 500 672.533 510.238 672.533 522.867C672.533 535.496 682.771 545.733 695.4 545.733Z" fill="url(#paint10_linear_1189_4962)"/>
<path d="M856.266 717.467C906.733 717.467 947.6 676.6 947.6 626.133C947.6 575.667 906.733 534.8 856.266 534.8C805.8 534.8 764.933 575.733 764.933 626.133C764.933 676.533 805.866 717.467 856.266 717.467Z" fill="url(#paint11_linear_1189_4962)"/>
<path d="M856.267 691.333C892.333 691.333 921.533 662.133 921.533 626.067C921.533 590 892.333 560.8 856.267 560.8C820.2 560.8 791 590 791 626.067C791.067 662.133 820.267 691.333 856.267 691.333Z" fill="url(#paint12_linear_1189_4962)"/>
<path d="M887.733 568.867C885 575.467 882.733 583.133 883.533 589.2C885.267 603.133 877.467 606.2 879.333 611.467C881.2 616.733 893.467 632.467 893.467 639.067C893.467 645.667 889.267 648.667 893.467 652.533C897.667 656.2 895.533 664.067 895.533 664.067C895.533 664.067 909.133 659.267 909.133 648.667C909.133 638.267 903.867 628.8 909.133 628.467C911.667 628.333 916.667 630.867 921 633.467C921.333 630.933 921.467 628.333 921.467 625.8C921.533 601.4 907.933 580.067 887.733 568.867Z" fill="url(#paint13_linear_1189_4962)"/>
<path d="M845.2 626.067C844.733 621.6 827.533 612.6 827.266 608.4C826.8 604.2 813.333 606 813.8 601.8C813.933 599.067 805.333 596.2 799.2 594.6C794.066 603.933 791.2 614.667 791.2 626C791.2 658.733 815.266 685.8 846.666 690.467C843.6 684.533 839.933 677.133 839.933 676.2C839.933 674.6 847.333 673.8 841.533 661.133C835.8 648.533 845.733 630.6 845.2 626.067Z" fill="url(#paint14_linear_1189_4962)"/>
<path d="M854.866 595.933C854.866 585.8 846.666 577.467 836.4 577.467C826.266 577.467 817.933 585.667 817.933 595.933C817.933 600.6 819.666 604.733 822.4 607.933L835.2 622.667C835.866 623.333 836.8 623.333 837.266 622.667L850.066 607.933C853.266 604.733 854.866 600.6 854.866 595.933ZM836.6 587.933C841.066 587.933 844.6 591.6 844.6 595.933C844.6 600.4 840.933 603.933 836.6 603.933C832.133 603.933 828.6 600.267 828.6 595.933C828.4 591.467 832.066 587.933 836.6 587.933Z" fill="#FDFEFF"/>
<path d="M921.533 781.4H790.067C786.067 781.4 782.8 778.133 782.8 774.133C782.8 770.133 786.067 766.867 790.067 766.867H921.533C925.533 766.867 928.8 770.133 928.8 774.133C928.8 778.133 925.533 781.4 921.533 781.4Z" fill="url(#paint15_linear_1189_4962)"/>
<path d="M921.533 751.867H790.066C786.066 751.867 782.8 748.6 782.8 744.6C782.8 740.6 786.066 737.333 790.066 737.333H921.533C925.533 737.333 928.8 740.6 928.8 744.6C928.8 748.6 925.533 751.867 921.533 751.867Z" fill="url(#paint16_linear_1189_4962)"/>
<path d="M591.467 699.933C578.4 731 555.6 779.267 526.133 818.333C518 829.133 509.333 839.267 500.2 848.067C498.8 849.4 497.4 850.733 495.933 852.067C473 873 447.467 885.6 420.2 881.4C412.4 880.2 404.8 878.267 397.467 875.8C321.6 850.133 272.267 763.467 272.267 763.467C272.267 763.467 298.133 716 329.867 681.333C339 671.333 348.667 662.4 358.267 655.933L406.467 704.8C406.467 704.8 433.6 639.267 462.8 579.467C466.467 571.867 470.2 564.4 473.933 557.2C488.933 527.933 503.6 502.467 514.6 490.467C530.467 473.133 542 463.733 552.867 461.067C562.467 458.667 571.533 461.467 582.467 468.667C586.667 471.4 591.133 474.8 596.067 478.8C673.267 541.267 599.533 680.867 591.467 699.933Z" fill="url(#paint17_linear_1189_4962)"/>
<path opacity="0.2" d="M500.2 848.067C476.2 871.333 449.2 885.8 420.267 881.333C331.667 867.667 272.333 763.4 272.333 763.4C272.333 763.4 298.267 715.933 329.933 681.267C349.933 701.667 371.733 730.133 387 767.333C414.934 835.467 466.867 848.467 500.2 848.067Z" fill="url(#paint18_linear_1189_4962)"/>
<path d="M307 776.867C312.228 776.867 316.467 772.629 316.467 767.4C316.467 762.172 312.228 757.934 307 757.934C301.772 757.934 297.533 762.172 297.533 767.4C297.533 772.629 301.772 776.867 307 776.867Z" fill="url(#paint19_linear_1189_4962)"/>
<path d="M326.466 799.333C331.253 799.333 335.133 795.453 335.133 790.667C335.133 785.88 331.253 782 326.466 782C321.68 782 317.8 785.88 317.8 790.667C317.8 795.453 321.68 799.333 326.466 799.333Z" fill="url(#paint20_linear_1189_4962)"/>
<path d="M844.8 158.8C832.667 164.867 618.933 218.733 618.933 218.733L594.867 190.333L703.333 134.067L906.933 28.4668C906.933 28.4668 909.533 37.6668 910.067 51.5335C911.267 80.4001 903.467 129.467 844.8 158.8Z" fill="url(#paint21_linear_1189_4962)"/>
<path opacity="0.5" d="M813.333 168.267C830.4 163.6 842.267 160.067 844.867 158.8C931.733 115.4 907 28.4668 907 28.4668L864.933 50.2668C869.867 71.4001 874.4 124.067 813.333 168.267Z" fill="#F15A24"/>
<path d="M1000.13 95.6001C1000.13 95.6001 997.667 108.2 987.533 126.267C968.467 160.2 922.2 213.4 813.8 238.933C813.8 238.933 760.333 251.333 718.667 228.533C718.667 228.533 734.333 263.733 783.2 265C783.2 265 772.8 306.067 727.133 316.467C727.133 316.467 748.4 314.733 764.933 308.667C764.933 308.667 754.933 344.267 721.933 351.667L726.8 374.933L736.267 420.267L653.667 431.333L572.133 442.267L576.667 414.667L580.733 389.8C580.733 389.8 501.667 396.733 465.2 343.333C465.2 343.333 464.4 341.867 463.4 339.267C461.333 333.667 458.667 323.067 462.933 312.2C464.067 309.4 465.6 306.533 467.8 303.8C482.133 285.533 503.4 282.933 521.667 252.133C534.867 229.8 554.867 207.067 594.867 190.267C610.133 183.867 628.333 178.267 650.2 173.933C705.867 162.933 856.533 128.533 940.867 109.2C976.4 101.067 1000.13 95.6001 1000.13 95.6001Z" fill="url(#paint22_linear_1189_4962)"/>
<path opacity="0.5" d="M736.2 420.267L653.667 431.333C631.067 422.933 610.2 415 610.2 415C675.534 409.4 711.6 387 726.734 374.867L736.2 420.267Z" fill="#F15A24"/>
<path opacity="0.5" d="M1000.13 95.6001C1000.13 95.6001 979.933 199.867 813.8 238.933C898.933 209.533 931.533 136.4 940.933 109.267C976.4 101.067 1000.13 95.6001 1000.13 95.6001Z" fill="#F15A24"/>
<path d="M552.933 460.667C552.933 460.667 661.067 425.067 759.267 438.533C759.267 438.533 765.2 404.667 697.733 402.8C633.8 401 583.467 418.733 571.867 427.867C551.467 443.733 552.933 460.667 552.933 460.667Z" fill="url(#paint23_linear_1189_4962)"/>
<path opacity="0.5" d="M631.134 381.467C631.134 381.467 616.2 407.533 576.667 414.733L580.734 389.867C580.734 389.867 612 386.4 631.134 381.467Z" fill="#F15A24"/>
<path d="M580.267 283.867C589.803 283.867 597.533 276.136 597.533 266.6C597.533 257.064 589.803 249.333 580.267 249.333C570.731 249.333 563 257.064 563 266.6C563 276.136 570.731 283.867 580.267 283.867Z" fill="url(#paint24_linear_1189_4962)"/>
<path d="M573.134 265.6C575.6 265.6 577.6 263.6 577.6 261.133C577.6 258.667 575.6 256.667 573.134 256.667C570.667 256.667 568.667 258.667 568.667 261.133C568.667 263.6 570.667 265.6 573.134 265.6Z" fill="white"/>
<path d="M565.867 246.6C564.333 246.6 562.867 245.933 561.867 244.667C560.2 242.467 560.6 239.333 562.8 237.667C563.8 236.933 587.467 219.067 614.4 232.733C616.867 234 617.867 237 616.6 239.467C615.333 241.933 612.333 242.933 609.867 241.667C588.667 230.933 569.733 245 568.933 245.6C568 246.267 566.933 246.6 565.867 246.6Z" fill="#F87C38"/>
<path d="M499.133 332L489.333 341.8C487.2 343.933 484.333 345.133 481.333 345.133H473.933C470.933 345.133 468.066 343.933 465.933 341.8L463.466 339.333C461.4 333.733 458.733 323.133 463 312.267C463.533 312.2 464.066 312.133 464.6 312.133H490.666C493.866 312.133 497 313.333 499.266 315.6C503.666 320.267 503.6 327.533 499.133 332Z" fill="#F87C38"/>
<path d="M517.067 363.4C516.4 363.4 516 363.4 515.933 363.4C515.2 363.333 514.6 362.733 514.667 362C514.733 361.267 515.333 360.733 516.067 360.733C516.267 360.733 538.667 361.667 553.267 345.333C553.733 344.8 554.6 344.733 555.133 345.2C555.667 345.667 555.733 346.533 555.267 347.067C541.533 362.4 522.067 363.4 517.067 363.4Z" fill="#F87C38"/>
<path opacity="0.5" d="M1000.13 95.6001C1000.13 95.6001 997.667 108.2 987.533 126.267L594.867 190.333C610.133 183.933 628.333 178.333 650.2 174C705.867 163 856.533 128.6 940.867 109.267C976.4 101.067 1000.13 95.6001 1000.13 95.6001Z" fill="#FFCA83"/>
<path opacity="0.5" d="M910.133 51.5335L703.333 134.067L906.933 28.4668C906.933 28.4668 909.6 37.6668 910.133 51.5335Z" fill="#FFCA83"/>
<path d="M509.933 393.733C509.667 396.333 511.6 398.6 514.133 398.867C518.333 399.267 522.333 399.533 526.267 399.667C550.733 400.6 570.133 397.2 582.8 393.867C596.333 390.333 606.867 380.2 610.933 366.867L613.133 359.667L619.267 339.733C620.067 337.267 618.667 334.667 616.133 333.867C614.267 333.333 612.4 333.933 611.2 335.267L603.733 358.333L603.467 359.2L602 364.067C598.867 374.267 590.8 382 580.4 384.733C566.467 388.4 543.8 392.2 515 389.467C512.467 389.267 510.2 391.133 509.933 393.733Z" fill="url(#paint25_linear_1189_4962)"/>
<path d="M526.666 403C532.866 403.267 539.066 403.333 545.133 403.267C549.466 403.2 552.933 399.667 552.866 395.333C552.8 391 549.266 387.533 544.933 387.6C532.666 387.733 520.133 387.2 507.666 386C503.333 385.6 499.533 388.733 499.133 393.067C498.733 397.4 501.866 401.2 506.2 401.6C513 402.267 519.866 402.733 526.666 403Z" fill="url(#paint26_linear_1189_4962)"/>
<path d="M603.533 359.2L624.867 360.067C630.733 360.267 636.066 356.867 638.333 351.467L644.533 336.733L612.267 332.4L611.333 335.267L603.867 358.333L603.533 359.2Z" fill="url(#paint27_linear_1189_4962)"/>
<path d="M660.733 296.6L699.8 191.867L693.133 191.6C688.8 191.4 684.733 193.733 682.667 197.533L628.867 297.333L660.733 296.6Z" fill="url(#paint28_linear_1189_4962)"/>
<path d="M602.667 336.6L642.6 338.2C649 338.467 654.8 334.533 656.933 328.533L666.333 302.533L670.2 291.867L637.333 290.6C626.467 290.2 616.6 296.867 613 307.133L602.667 336.6Z" fill="url(#paint29_linear_1189_4962)"/>
<path d="M614.6 337.067L642.533 338.2C648.933 338.467 654.733 334.533 656.867 328.533L657.933 325.6L659.733 320.6L660.933 317.2L662.733 312.2L666.2 302.6L646.133 301.8C634.867 301.333 624.6 308.333 620.867 319L614.6 337.067Z" fill="url(#paint30_linear_1189_4962)"/>
<path d="M635.333 313.6C635.267 315 636.4 316.2 637.8 316.267L661.067 317.2L662.867 312.2L638 311.2C636.6 311.133 635.4 312.2 635.333 313.6Z" fill="#5BA8D3"/>
<path d="M635 322.133C634.933 323.533 636.067 324.733 637.467 324.8L658 325.6L659.8 320.6L637.667 319.733C636.267 319.667 635.067 320.733 635 322.133Z" fill="#5BA8D3"/>
<path d="M308.333 619.667L286 644.533L251 683.534C251 683.534 226.266 657.467 189.733 651.8C181.2 650.467 173.933 647.733 167.8 644.333C153.933 636.6 145.866 625.333 142.2 619.067C141.4 617.733 140.8 616.267 140.4 614.8C140 613.333 139.8 611.733 139.8 610.2C139.8 600.533 147.6 592.733 157.266 592.733H248.066C269.466 592.733 289.933 601.2 305.066 616.333L308.333 619.667Z" fill="url(#paint31_linear_1189_4962)"/>
<path opacity="0.5" d="M286.067 644.534L251.067 683.534C251.067 683.534 226.333 657.467 189.8 651.8C181.267 650.467 174 647.734 167.867 644.334C181.133 635.467 225.133 609.8 286.067 644.534Z" fill="#F15A24"/>
<path d="M523 680.467C553.67 680.467 578.533 655.604 578.533 624.933C578.533 594.263 553.67 569.4 523 569.4C492.33 569.4 467.467 594.263 467.467 624.933C467.467 655.604 492.33 680.467 523 680.467Z" fill="url(#paint32_linear_1189_4962)"/>
<path d="M834 1000H488.6L490.6 960.667H832.6L834 1000Z" fill="url(#paint33_linear_1189_4962)"/>
<path opacity="0.4" d="M406.533 704.8L433.733 735.267L420.867 671.2L406.533 704.8Z" fill="url(#paint34_linear_1189_4962)"/>
<path d="M527.2 610.4L507.066 603.333L518.066 559.667C520.2 551.267 529.066 546.533 537.2 549.4C545.333 552.267 549.333 561.467 545.8 569.333L527.2 610.4Z" fill="url(#paint35_linear_1189_4962)"/>
<path d="M532.666 613.267L549.799 626.067L579.866 592.6C585.599 586.133 584.599 576.133 577.733 571C570.799 565.8 560.933 567.667 556.399 575L532.666 613.267Z" fill="url(#paint36_linear_1189_4962)"/>
<path d="M523 661.733C543.324 661.733 559.8 645.257 559.8 624.933C559.8 604.609 543.324 588.133 523 588.133C502.676 588.133 486.2 604.609 486.2 624.933C486.2 645.257 502.676 661.733 523 661.733Z" fill="url(#paint37_linear_1189_4962)"/>
<path d="M508.777 624.271C510.058 621.866 509.647 619.145 507.86 618.193C506.073 617.241 503.585 618.419 502.305 620.823C501.024 623.228 501.434 625.949 503.222 626.901C505.009 627.853 507.496 626.676 508.777 624.271Z" fill="#223C6A"/>
<path d="M537.961 639.804C539.242 637.399 538.832 634.678 537.044 633.726C535.257 632.774 532.77 633.952 531.489 636.357C530.208 638.761 530.619 641.483 532.406 642.435C534.193 643.387 536.681 642.209 537.961 639.804Z" fill="#223C6A"/>
<path d="M358.333 655.933L334.866 686.467L277.866 760.533C271 769.4 257.666 769.667 250.533 761L224.2 729.133C218.8 722.6 218.867 713.067 224.4 706.6L280.2 641.333L299.8 618.4C306.933 610.067 319.866 610.133 326.933 618.533L358.333 655.933Z" fill="url(#paint38_linear_1189_4962)"/>
<path opacity="0.3" d="M334.8 686.467L277.8 760.534C270.933 769.4 257.6 769.667 250.467 761L224.133 729.133C218.733 722.6 218.8 713.067 224.333 706.6L280.133 641.333C284.933 644.133 309 658.667 334.8 686.467Z" fill="url(#paint39_linear_1189_4962)"/>
<path d="M526.133 818.333C518 829.133 509.333 839.267 500.2 848.067C476.2 871.333 449.2 885.8 420.267 881.333C412.467 880.133 404.867 878.2 397.533 875.733C407 855.267 443.133 793.933 526.133 818.333Z" fill="url(#paint40_linear_1189_4962)"/>
<path d="M388.267 251.733V530.6C388.267 540.067 380.533 547.8 371.067 547.8H17.2C7.73333 547.8 0 540.067 0 530.6V251.733C0 242.267 7.73333 234.533 17.2 234.533H371C380.533 234.533 388.267 242.2 388.267 251.733Z" fill="url(#paint41_linear_1189_4962)"/>
<path d="M103.2 478C147.346 478 183.133 442.213 183.133 398.067C183.133 353.921 147.346 318.133 103.2 318.133C59.054 318.133 23.2666 353.921 23.2666 398.067C23.2666 442.213 59.054 478 103.2 478Z" fill="url(#paint42_linear_1189_4962)"/>
<path d="M103.2 456.333C135.38 456.333 161.467 430.246 161.467 398.067C161.467 365.887 135.38 339.8 103.2 339.8C71.0205 339.8 44.9336 365.887 44.9336 398.067C44.9336 430.246 71.0205 456.333 103.2 456.333Z" fill="url(#paint43_linear_1189_4962)"/>
<path d="M135.266 419.867H71.2665C69.2665 419.867 67.6665 418.267 67.6665 416.267C67.6665 414.267 69.2665 412.667 71.2665 412.667H135.266C137.266 412.667 138.867 414.267 138.867 416.267C138.867 418.2 137.266 419.867 135.266 419.867Z" fill="url(#paint44_linear_1189_4962)"/>
<path d="M127.734 431.867H78.8002C76.8002 431.867 75.2002 430.267 75.2002 428.267C75.2002 426.267 76.8002 424.667 78.8002 424.667H127.734C129.734 424.667 131.334 426.267 131.334 428.267C131.4 430.267 129.734 431.867 127.734 431.867Z" fill="url(#paint45_linear_1189_4962)"/>
<path d="M103.2 351.533C77.5332 351.533 56.6665 372.333 56.6665 398.067H149.733C149.733 372.333 128.867 351.533 103.2 351.533Z" fill="url(#paint46_linear_1189_4962)"/>
<path d="M112.2 401.533C107.067 405.533 101.333 404.8 98.2 400.733C95.0667 396.733 95.7333 390.933 100.867 386.933C104.6 384 113.8 381.533 120.067 380.067C122.667 379.467 124.733 382.2 123.533 384.533C120.667 390.267 116 398.6 112.2 401.533Z" fill="url(#paint47_linear_1189_4962)"/>
<path d="M105.467 399.267C107.786 399.267 109.667 397.386 109.667 395.067C109.667 392.747 107.786 390.867 105.467 390.867C103.147 390.867 101.267 392.747 101.267 395.067C101.267 397.386 103.147 399.267 105.467 399.267Z" fill="url(#paint48_linear_1189_4962)"/>
<path d="M149.733 398.067H138.733C138.733 379.2 124.066 363.8 105.466 362.6C104.733 362.533 103.933 362.533 103.2 362.533C83.5998 362.533 67.6665 378.467 67.6665 398.067H56.6665C56.6665 372.4 77.4665 351.533 103.2 351.533C103.933 351.533 104.733 351.533 105.466 351.6C130.133 352.733 149.733 373.133 149.733 398.067Z" fill="url(#paint49_linear_1189_4962)"/>
<path d="M149.733 398.067H138.733C138.733 389.467 135.667 381.533 130.533 375.333C124.467 368.067 115.6 363.2 105.533 362.6V351.6C119.067 352.267 131.133 358.733 139.2 368.533C145.8 376.533 149.733 386.8 149.733 398.067Z" fill="url(#paint50_linear_1189_4962)"/>
<path d="M30.0666 268.067C33.8221 268.067 36.8666 265.022 36.8666 261.267C36.8666 257.511 33.8221 254.467 30.0666 254.467C26.3111 254.467 23.2666 257.511 23.2666 261.267C23.2666 265.022 26.3111 268.067 30.0666 268.067Z" fill="url(#paint51_linear_1189_4962)"/>
<path d="M51.7336 268.067C55.4891 268.067 58.5336 265.022 58.5336 261.267C58.5336 257.511 55.4891 254.467 51.7336 254.467C47.9781 254.467 44.9336 257.511 44.9336 261.267C44.9336 265.022 47.9781 268.067 51.7336 268.067Z" fill="url(#paint52_linear_1189_4962)"/>
<path d="M73.4001 268.067C77.1556 268.067 80.2001 265.022 80.2001 261.267C80.2001 257.511 77.1556 254.467 73.4001 254.467C69.6446 254.467 66.6001 257.511 66.6001 261.267C66.6001 265.022 69.6446 268.067 73.4001 268.067Z" fill="url(#paint53_linear_1189_4962)"/>
<path d="M402.4 508.667H229.467C219.6 508.667 211.6 500.667 211.6 490.8V291.467C211.6 281.6 219.6 273.6 229.467 273.6H402.4C412.267 273.6 420.267 281.6 420.267 291.467V490.8C420.267 500.667 412.267 508.667 402.4 508.667Z" fill="url(#paint54_linear_1189_4962)"/>
<path d="M385.333 460.467H246.467C239.067 460.467 233.133 454.467 233.133 447.133V308.467C233.133 301.067 239.133 295.133 246.467 295.133H385.333C392.733 295.133 398.667 301.133 398.667 308.467V447.067C398.733 454.467 392.733 460.467 385.333 460.467Z" fill="url(#paint55_linear_1189_4962)"/>
<path d="M354.267 331.333H277.6C271.4 331.333 266.4 336.333 266.4 342.533V413.067C266.4 419.267 271.4 424.267 277.6 424.267H354.333C360.533 424.267 365.533 419.267 365.533 413.067V342.533C365.467 336.333 360.467 331.333 354.267 331.333ZM330.467 348C336.467 348 341.267 352.867 341.267 358.8C341.267 364.734 336.4 369.6 330.467 369.6C324.467 369.6 319.667 364.734 319.667 358.8C319.667 352.867 324.467 348 330.467 348ZM350.8 413.867H315.933H282.667C279.667 413.867 278.333 411.733 279.667 409L298.267 372.2C299.6 369.533 302.2 369.267 304 371.667L322.667 396.067C324.467 398.467 327.667 398.667 329.733 396.533L334.333 391.934C336.467 389.8 339.533 390.067 341.267 392.533L353.133 409.467C354.8 411.934 353.733 413.867 350.8 413.867Z" fill="url(#paint56_linear_1189_4962)"/>
<path d="M319.667 358.867C319.667 352.867 324.533 348.067 330.467 348.067C336.467 348.067 341.267 352.933 341.267 358.867C341.267 364.867 336.4 369.667 330.467 369.667C324.467 369.667 319.667 364.8 319.667 358.867ZM341.267 392.533C339.533 390.067 336.467 389.8 334.333 391.933L329.733 396.533C327.6 398.667 324.467 398.467 322.667 396.067L304 371.667C302.2 369.267 299.6 369.533 298.267 372.2L279.667 409C278.333 411.667 279.667 413.867 282.667 413.867H315.933H350.8C353.8 413.867 354.8 411.867 353.133 409.4L341.267 392.533Z" fill="url(#paint57_linear_1189_4962)"/>
<path d="M373.6 487.933H258.2C254.334 487.933 251.2 484.8 251.2 480.933C251.2 477.067 254.334 473.933 258.2 473.933H373.6C377.467 473.933 380.6 477.067 380.6 480.933C380.6 484.8 377.467 487.933 373.6 487.933Z" fill="url(#paint58_linear_1189_4962)"/>
<path d="M315.933 214.4C360.3 214.4 396.267 178.434 396.267 134.067C396.267 89.6999 360.3 53.7334 315.933 53.7334C271.567 53.7334 235.6 89.6999 235.6 134.067C235.6 178.434 271.567 214.4 315.933 214.4Z" fill="url(#paint59_linear_1189_4962)"/>
<path d="M315.933 214.4C360.3 214.4 396.267 178.434 396.267 134.067C396.267 89.6999 360.3 53.7334 315.933 53.7334C271.567 53.7334 235.6 89.6999 235.6 134.067C235.6 178.434 271.567 214.4 315.933 214.4Z" fill="url(#paint60_linear_1189_4962)"/>
<path d="M315.933 189.2C346.382 189.2 371.066 164.516 371.066 134.067C371.066 103.617 346.382 78.9333 315.933 78.9333C285.484 78.9333 260.8 103.617 260.8 134.067C260.8 164.516 285.484 189.2 315.933 189.2Z" fill="url(#paint61_linear_1189_4962)"/>
<path d="M340.933 141.6H323V151.6H340.933V141.6Z" fill="url(#paint62_linear_1189_4962)"/>
<path d="M308.8 126.467H290.867V116.467H308.8V126.467ZM312.6 116.467V126.467H323V159.6H333V116.467H312.6Z" fill="url(#paint63_linear_1189_4962)"/>
<path d="M319.267 141.6H308.8V108.533H298.8V151.6H319.267V141.6Z" fill="url(#paint64_linear_1189_4962)"/>
<path d="M211.6 400.067H183.133C182 400.067 181.133 399.2 181.133 398.067C181.133 396.933 182 396.067 183.133 396.067H211.6C212.733 396.067 213.6 396.933 213.6 398.067C213.6 399.2 212.667 400.067 211.6 400.067Z" fill="#FFBA00"/>
<path d="M315.933 275.6C314.8 275.6 313.933 274.733 313.933 273.6V214.4C313.933 213.267 314.8 212.4 315.933 212.4C317.066 212.4 317.933 213.267 317.933 214.4V273.6C317.933 274.733 317 275.6 315.933 275.6Z" fill="#FFBA00"/>
<defs>
<linearGradient id="paint0_linear_1189_4962" x1="793.805" y1="528.461" x2="793.805" y2="309.956" gradientUnits="userSpaceOnUse">
<stop stop-color="#386E9F"/>
<stop offset="1" stop-color="white"/>
</linearGradient>
<linearGradient id="paint1_linear_1189_4962" x1="661.302" y1="1965.82" x2="661.302" y2="-57.7256" gradientUnits="userSpaceOnUse">
<stop stop-color="#03192E"/>
<stop offset="0.5" stop-color="#223C6A"/>
<stop offset="1" stop-color="#4A74A2"/>
</linearGradient>
<linearGradient id="paint2_linear_1189_4962" x1="590.103" y1="653.913" x2="760.818" y2="1267.7" gradientUnits="userSpaceOnUse">
<stop stop-color="#03192E"/>
<stop offset="0.5" stop-color="#223C6A"/>
<stop offset="1" stop-color="#4A74A2"/>
</linearGradient>
<linearGradient id="paint3_linear_1189_4962" x1="807.645" y1="567.06" x2="807.645" y2="873.314" gradientUnits="userSpaceOnUse">
<stop stop-color="#223C6A"/>
<stop offset="1" stop-color="#5A8AB7"/>
</linearGradient>
<linearGradient id="paint4_linear_1189_4962" x1="810.544" y1="639.179" x2="810.544" y2="860.253" gradientUnits="userSpaceOnUse">
<stop stop-color="#03192E"/>
<stop offset="0.5" stop-color="#223C6A"/>
<stop offset="1" stop-color="#4A74A2"/>
</linearGradient>
<linearGradient id="paint5_linear_1189_4962" x1="807.644" y1="1174.9" x2="807.644" y2="390.887" gradientUnits="userSpaceOnUse">
<stop stop-color="#03192E"/>
<stop offset="0.5" stop-color="#223C6A"/>
<stop offset="1" stop-color="#4A74A2"/>
</linearGradient>
<linearGradient id="paint6_linear_1189_4962" x1="856.295" y1="954.082" x2="856.295" y2="460.541" gradientUnits="userSpaceOnUse">
<stop stop-color="#223C6A"/>
<stop offset="1" stop-color="#5A8AB7"/>
</linearGradient>
<linearGradient id="paint7_linear_1189_4962" x1="695.399" y1="686.93" x2="695.399" y2="121.26" gradientUnits="userSpaceOnUse">
<stop stop-color="#002649"/>
<stop offset="0.3213" stop-color="#042A4F"/>
<stop offset="0.7475" stop-color="#0F3460"/>
<stop offset="1" stop-color="#183D6D"/>
</linearGradient>
<linearGradient id="paint8_linear_1189_4962" x1="638.828" y1="860.042" x2="638.828" y2="423.474" gradientUnits="userSpaceOnUse">
<stop stop-color="#FF2A64"/>
<stop offset="0.0308184" stop-color="#FF3462"/>
<stop offset="0.1688" stop-color="#FF595A"/>
<stop offset="0.3129" stop-color="#FF7854"/>
<stop offset="0.4626" stop-color="#FF904E"/>
<stop offset="0.6203" stop-color="#FFA24B"/>
<stop offset="0.7913" stop-color="#FFAC49"/>
<stop offset="1" stop-color="#FFAF48"/>
</linearGradient>
<linearGradient id="paint9_linear_1189_4962" x1="712.051" y1="667.657" x2="368.798" y2="667.657" gradientUnits="userSpaceOnUse">
<stop stop-color="#FF2A64"/>
<stop offset="0.0308184" stop-color="#FF3462"/>
<stop offset="0.1688" stop-color="#FF595A"/>
<stop offset="0.3129" stop-color="#FF7854"/>
<stop offset="0.4626" stop-color="#FF904E"/>
<stop offset="0.6203" stop-color="#FFA24B"/>
<stop offset="0.7913" stop-color="#FFAC49"/>
<stop offset="1" stop-color="#FFAF48"/>
</linearGradient>
<linearGradient id="paint10_linear_1189_4962" x1="695.399" y1="599.007" x2="695.399" y2="454.974" gradientUnits="userSpaceOnUse">
<stop stop-color="#FF2A64"/>
<stop offset="0.0308184" stop-color="#FF3462"/>
<stop offset="0.1688" stop-color="#FF595A"/>
<stop offset="0.3129" stop-color="#FF7854"/>
<stop offset="0.4626" stop-color="#FF904E"/>
<stop offset="0.6203" stop-color="#FFA24B"/>
<stop offset="0.7913" stop-color="#FFAC49"/>
<stop offset="1" stop-color="#FFAF48"/>
</linearGradient>
<linearGradient id="paint11_linear_1189_4962" x1="856.294" y1="802.103" x2="856.294" y2="456.712" gradientUnits="userSpaceOnUse">
<stop stop-color="#002649"/>
<stop offset="0.3213" stop-color="#042A4F"/>
<stop offset="0.7475" stop-color="#0F3460"/>
<stop offset="1" stop-color="#183D6D"/>
</linearGradient>
<linearGradient id="paint12_linear_1189_4962" x1="856.294" y1="751.827" x2="856.294" y2="505.092" gradientUnits="userSpaceOnUse">
<stop stop-color="#E94367"/>
<stop offset="0.08" stop-color="#EA5662"/>
<stop offset="0.18" stop-color="#EC705F"/>
<stop offset="0.29" stop-color="#EE875D"/>
<stop offset="0.42" stop-color="#F0995C"/>
<stop offset="0.56" stop-color="#F1A75C"/>
<stop offset="0.73" stop-color="#F2AF5C"/>
<stop offset="1" stop-color="#F2B15C"/>
</linearGradient>
<linearGradient id="paint13_linear_1189_4962" x1="900.317" y1="676.644" x2="900.317" y2="368.08" gradientUnits="userSpaceOnUse">
<stop stop-color="#E94367"/>
<stop offset="0.08" stop-color="#EA5662"/>
<stop offset="0.18" stop-color="#EC705F"/>
<stop offset="0.29" stop-color="#EE875D"/>
<stop offset="0.42" stop-color="#F0995C"/>
<stop offset="0.56" stop-color="#F1A75C"/>
<stop offset="0.73" stop-color="#F2AF5C"/>
<stop offset="1" stop-color="#F2B15C"/>
</linearGradient>
<linearGradient id="paint14_linear_1189_4962" x1="818.933" y1="702.96" x2="818.933" y2="392.905" gradientUnits="userSpaceOnUse">
<stop stop-color="#E94367"/>
<stop offset="0.08" stop-color="#EA5662"/>
<stop offset="0.18" stop-color="#EC705F"/>
<stop offset="0.29" stop-color="#EE875D"/>
<stop offset="0.42" stop-color="#F0995C"/>
<stop offset="0.56" stop-color="#F1A75C"/>
<stop offset="0.73" stop-color="#F2AF5C"/>
<stop offset="1" stop-color="#F2B15C"/>
</linearGradient>
<linearGradient id="paint15_linear_1189_4962" x1="855.79" y1="851.53" x2="855.79" y2="717.79" gradientUnits="userSpaceOnUse">
<stop stop-color="#223C6A"/>
<stop offset="1" stop-color="#5A8AB7"/>
</linearGradient>
<linearGradient id="paint16_linear_1189_4962" x1="855.79" y1="851.53" x2="855.79" y2="717.79" gradientUnits="userSpaceOnUse">
<stop stop-color="#223C6A"/>
<stop offset="1" stop-color="#5A8AB7"/>
</linearGradient>
<linearGradient id="paint17_linear_1189_4962" x1="451.649" y1="876.268" x2="451.649" y2="-134.588" gradientUnits="userSpaceOnUse">
<stop stop-color="#386E9F"/>
<stop offset="1" stop-color="white"/>
</linearGradient>
<linearGradient id="paint18_linear_1189_4962" x1="272.304" y1="781.739" x2="500.178" y2="781.739" gradientUnits="userSpaceOnUse">
<stop stop-color="#002649"/>
<stop offset="0.3213" stop-color="#042A4F"/>
<stop offset="0.7475" stop-color="#0F3460"/>
<stop offset="1" stop-color="#183D6D"/>
</linearGradient>
<linearGradient id="paint19_linear_1189_4962" x1="286.419" y1="743.527" x2="332.03" y2="796.523" gradientUnits="userSpaceOnUse">
<stop stop-color="white"/>
<stop offset="1" stop-color="#F9E4CE"/>
</linearGradient>
<linearGradient id="paint20_linear_1189_4962" x1="286.116" y1="743.788" x2="331.727" y2="796.783" gradientUnits="userSpaceOnUse">
<stop stop-color="white"/>
<stop offset="1" stop-color="#F9E4CE"/>
</linearGradient>
<linearGradient id="paint21_linear_1189_4962" x1="559.108" y1="313.751" x2="1009.14" y2="-68.514" gradientUnits="userSpaceOnUse">
<stop stop-color="#FF2A64"/>
<stop offset="0.0308184" stop-color="#FF3462"/>
<stop offset="0.1688" stop-color="#FF595A"/>
<stop offset="0.3129" stop-color="#FF7854"/>
<stop offset="0.4626" stop-color="#FF904E"/>
<stop offset="0.6203" stop-color="#FFA24B"/>
<stop offset="0.7913" stop-color="#FFAC49"/>
<stop offset="1" stop-color="#FFAF48"/>
</linearGradient>
<linearGradient id="paint22_linear_1189_4962" x1="311.834" y1="736.902" x2="900.865" y2="0.179936" gradientUnits="userSpaceOnUse">
<stop stop-color="#FF2A64"/>
<stop offset="0.0308184" stop-color="#FF3462"/>
<stop offset="0.1688" stop-color="#FF595A"/>
<stop offset="0.3129" stop-color="#FF7854"/>
<stop offset="0.4626" stop-color="#FF904E"/>
<stop offset="0.6203" stop-color="#FFA24B"/>
<stop offset="0.7913" stop-color="#FFAC49"/>
<stop offset="1" stop-color="#FFAF48"/>
</linearGradient>
<linearGradient id="paint23_linear_1189_4962" x1="656.142" y1="529.196" x2="656.142" y2="287.758" gradientUnits="userSpaceOnUse">
<stop stop-color="#386E9F"/>
<stop offset="1" stop-color="white"/>
</linearGradient>
<linearGradient id="paint24_linear_1189_4962" x1="585.144" y1="290.28" x2="570.954" y2="221.646" gradientUnits="userSpaceOnUse">
<stop stop-color="#002649"/>
<stop offset="0.3213" stop-color="#042A4F"/>
<stop offset="0.7475" stop-color="#0F3460"/>
<stop offset="1" stop-color="#183D6D"/>
</linearGradient>
<linearGradient id="paint25_linear_1189_4962" x1="619.731" y1="366.203" x2="509.506" y2="367.423" gradientUnits="userSpaceOnUse">
<stop stop-color="#002649"/>
<stop offset="0.3213" stop-color="#042A4F"/>
<stop offset="0.7475" stop-color="#0F3460"/>
<stop offset="1" stop-color="#183D6D"/>
</linearGradient>
<linearGradient id="paint26_linear_1189_4962" x1="639.172" y1="393.324" x2="472.498" y2="395.169" gradientUnits="userSpaceOnUse">
<stop stop-color="#223C6A"/>
<stop offset="1" stop-color="#5A8AB7"/>
</linearGradient>
<linearGradient id="paint27_linear_1189_4962" x1="668.518" y1="345.677" x2="534.673" y2="347.16" gradientUnits="userSpaceOnUse">
<stop stop-color="#223C6A"/>
<stop offset="1" stop-color="#5A8AB7"/>
</linearGradient>
<linearGradient id="paint28_linear_1189_4962" x1="618.512" y1="350.075" x2="768.58" y2="45.6063" gradientUnits="userSpaceOnUse">
<stop stop-color="#386E9F"/>
<stop offset="1" stop-color="white"/>
</linearGradient>
<linearGradient id="paint29_linear_1189_4962" x1="620.661" y1="357.13" x2="668.581" y2="224.206" gradientUnits="userSpaceOnUse">
<stop stop-color="#223C6A"/>
<stop offset="1" stop-color="#5A8AB7"/>
</linearGradient>
<linearGradient id="paint30_linear_1189_4962" x1="601.01" y1="430.053" x2="658.296" y2="269.189" gradientUnits="userSpaceOnUse">
<stop stop-color="#223C6A"/>
<stop offset="1" stop-color="#5A8AB7"/>
</linearGradient>
<linearGradient id="paint31_linear_1189_4962" x1="302.318" y1="701.589" x2="173.305" y2="566.061" gradientUnits="userSpaceOnUse">
<stop stop-color="#FF2A64"/>
<stop offset="0.0308184" stop-color="#FF3462"/>
<stop offset="0.1688" stop-color="#FF595A"/>
<stop offset="0.3129" stop-color="#FF7854"/>
<stop offset="0.4626" stop-color="#FF904E"/>
<stop offset="0.6203" stop-color="#FFA24B"/>
<stop offset="0.7913" stop-color="#FFAC49"/>
<stop offset="1" stop-color="#FFAF48"/>
</linearGradient>
<linearGradient id="paint32_linear_1189_4962" x1="595.475" y1="490.892" x2="463.421" y2="735.018" gradientUnits="userSpaceOnUse">
<stop stop-color="#03192E"/>
<stop offset="0.5" stop-color="#223C6A"/>
<stop offset="1" stop-color="#4A74A2"/>
</linearGradient>
<linearGradient id="paint33_linear_1189_4962" x1="1034.66" y1="980.328" x2="-515.072" y2="980.328" gradientUnits="userSpaceOnUse">
<stop stop-color="#386E9F"/>
<stop offset="1" stop-color="white"/>
</linearGradient>
<linearGradient id="paint34_linear_1189_4962" x1="406.531" y1="703.233" x2="433.749" y2="703.233" gradientUnits="userSpaceOnUse">
<stop stop-color="#002649"/>
<stop offset="0.3213" stop-color="#042A4F"/>
<stop offset="0.7475" stop-color="#0F3460"/>
<stop offset="1" stop-color="#183D6D"/>
</linearGradient>
<linearGradient id="paint35_linear_1189_4962" x1="547.022" y1="539.35" x2="521.636" y2="586.49" gradientUnits="userSpaceOnUse">
<stop stop-color="white"/>
<stop offset="1" stop-color="#F9E4CE"/>
</linearGradient>
<linearGradient id="paint36_linear_1189_4962" x1="580.947" y1="557.62" x2="555.56" y2="604.76" gradientUnits="userSpaceOnUse">
<stop stop-color="white"/>
<stop offset="1" stop-color="#F9E4CE"/>
</linearGradient>
<linearGradient id="paint37_linear_1189_4962" x1="548.46" y1="570.809" x2="505.71" y2="661.719" gradientUnits="userSpaceOnUse">
<stop stop-color="white"/>
<stop offset="1" stop-color="#F9E4CE"/>
</linearGradient>
<linearGradient id="paint38_linear_1189_4962" x1="220.135" y1="689.792" x2="358.311" y2="689.792" gradientUnits="userSpaceOnUse">
<stop stop-color="#002649"/>
<stop offset="0.3213" stop-color="#042A4F"/>
<stop offset="0.7475" stop-color="#0F3460"/>
<stop offset="1" stop-color="#183D6D"/>
</linearGradient>
<linearGradient id="paint39_linear_1189_4962" x1="120.833" y1="911.294" x2="320.218" y2="641.539" gradientUnits="userSpaceOnUse">
<stop stop-color="#03192E"/>
<stop offset="0.5" stop-color="#223C6A"/>
<stop offset="1" stop-color="#4A74A2"/>
</linearGradient>
<linearGradient id="paint40_linear_1189_4962" x1="429.076" y1="791.216" x2="532.46" y2="967.577" gradientUnits="userSpaceOnUse">
<stop stop-color="#223C6A"/>
<stop offset="1" stop-color="#5A8AB7"/>
</linearGradient>
<linearGradient id="paint41_linear_1189_4962" x1="194.12" y1="783.081" x2="194.12" y2="127.464" gradientUnits="userSpaceOnUse">
<stop stop-color="#002649"/>
<stop offset="0.2331" stop-color="#082E55"/>
<stop offset="0.6765" stop-color="#143967"/>
<stop offset="1" stop-color="#183D6D"/>
</linearGradient>
<linearGradient id="paint42_linear_1189_4962" x1="103.2" y1="571.502" x2="103.2" y2="282.446" gradientUnits="userSpaceOnUse">
<stop stop-color="#223C6A"/>
<stop offset="1" stop-color="#5A8AB7"/>
</linearGradient>
<linearGradient id="paint43_linear_1189_4962" x1="103.2" y1="513.123" x2="103.2" y2="303.219" gradientUnits="userSpaceOnUse">
<stop stop-color="#002649"/>
<stop offset="0.2331" stop-color="#082E55"/>
<stop offset="0.6765" stop-color="#143967"/>
<stop offset="1" stop-color="#183D6D"/>
</linearGradient>
<linearGradient id="paint44_linear_1189_4962" x1="103.279" y1="476.443" x2="103.279" y2="410.455" gradientUnits="userSpaceOnUse">
<stop stop-color="#223C6A"/>
<stop offset="1" stop-color="#5A8AB7"/>
</linearGradient>
<linearGradient id="paint45_linear_1189_4962" x1="103.279" y1="476.443" x2="103.279" y2="410.455" gradientUnits="userSpaceOnUse">
<stop stop-color="#223C6A"/>
<stop offset="1" stop-color="#5A8AB7"/>
</linearGradient>
<linearGradient id="paint46_linear_1189_4962" x1="103.2" y1="356.37" x2="103.2" y2="457.866" gradientUnits="userSpaceOnUse">
<stop stop-color="#223C6A"/>
<stop offset="1" stop-color="#5A8AB7"/>
</linearGradient>
<linearGradient id="paint47_linear_1189_4962" x1="51.3792" y1="450.602" x2="141.515" y2="358.476" gradientUnits="userSpaceOnUse">
<stop stop-color="#FF2A64"/>
<stop offset="1" stop-color="#FFAF48"/>
</linearGradient>
<linearGradient id="paint48_linear_1189_4962" x1="101.275" y1="395.073" x2="109.667" y2="395.073" gradientUnits="userSpaceOnUse">
<stop stop-color="#002649"/>
<stop offset="0.3213" stop-color="#042A4F"/>
<stop offset="0.7475" stop-color="#0F3460"/>
<stop offset="1" stop-color="#183D6D"/>
</linearGradient>
<linearGradient id="paint49_linear_1189_4962" x1="103.201" y1="459.383" x2="103.201" y2="352.468" gradientUnits="userSpaceOnUse">
<stop stop-color="#386E9F"/>
<stop offset="1" stop-color="white"/>
</linearGradient>
<linearGradient id="paint50_linear_1189_4962" x1="52.4401" y1="451.64" x2="142.575" y2="359.515" gradientUnits="userSpaceOnUse">
<stop stop-color="#FF2A64"/>
<stop offset="1" stop-color="#FFAF48"/>
</linearGradient>
<linearGradient id="paint51_linear_1189_4962" x1="30.0792" y1="313.655" x2="30.0792" y2="245.97" gradientUnits="userSpaceOnUse">
<stop stop-color="#FF2A64"/>
<stop offset="1" stop-color="#FFAF48"/>
</linearGradient>
<linearGradient id="paint52_linear_1189_4962" x1="51.7297" y1="278.267" x2="51.7297" y2="249.835" gradientUnits="userSpaceOnUse">
<stop stop-color="#223C6A"/>
<stop offset="1" stop-color="#5A8AB7"/>
</linearGradient>
<linearGradient id="paint53_linear_1189_4962" x1="73.3798" y1="278.267" x2="73.3798" y2="249.835" gradientUnits="userSpaceOnUse">
<stop stop-color="#223C6A"/>
<stop offset="1" stop-color="#5A8AB7"/>
</linearGradient>
<linearGradient id="paint54_linear_1189_4962" x1="315.925" y1="566.026" x2="315.925" y2="83.8209" gradientUnits="userSpaceOnUse">
<stop stop-color="#223C6A"/>
<stop offset="1" stop-color="#5A8AB7"/>
</linearGradient>
<linearGradient id="paint55_linear_1189_4962" x1="315.925" y1="632.196" x2="315.925" y2="-31.6886" gradientUnits="userSpaceOnUse">
<stop stop-color="#386E9F"/>
<stop offset="0.9137" stop-color="white"/>
</linearGradient>
<linearGradient id="paint56_linear_1189_4962" x1="315.925" y1="511.22" x2="315.925" y2="335.766" gradientUnits="userSpaceOnUse">
<stop stop-color="#002649"/>
<stop offset="0.2331" stop-color="#082E55"/>
<stop offset="0.6765" stop-color="#143967"/>
<stop offset="1" stop-color="#183D6D"/>
</linearGradient>
<linearGradient id="paint57_linear_1189_4962" x1="316.519" y1="473.105" x2="316.519" y2="354.984" gradientUnits="userSpaceOnUse">
<stop stop-color="#FF2A64"/>
<stop offset="1" stop-color="#FFAF48"/>
</linearGradient>
<linearGradient id="paint58_linear_1189_4962" x1="315.925" y1="569.5" x2="315.925" y2="404.452" gradientUnits="userSpaceOnUse">
<stop stop-color="#386E9F"/>
<stop offset="0.9137" stop-color="white"/>
</linearGradient>
<linearGradient id="paint59_linear_1189_4962" x1="315.925" y1="283.39" x2="315.925" y2="-42.4797" gradientUnits="userSpaceOnUse">
<stop stop-color="#223C6A"/>
<stop offset="1" stop-color="#5A8AB7"/>
</linearGradient>
<linearGradient id="paint60_linear_1189_4962" x1="315.925" y1="283.39" x2="315.925" y2="-42.4797" gradientUnits="userSpaceOnUse">
<stop stop-color="#223C6A"/>
<stop offset="1" stop-color="#5A8AB7"/>
</linearGradient>
<linearGradient id="paint61_linear_1189_4962" x1="315.924" y1="241.402" x2="315.924" y2="-183.118" gradientUnits="userSpaceOnUse">
<stop stop-color="#002649"/>
<stop offset="0.2331" stop-color="#082E55"/>
<stop offset="0.6765" stop-color="#143967"/>
<stop offset="1" stop-color="#183D6D"/>
</linearGradient>
<linearGradient id="paint62_linear_1189_4962" x1="331.992" y1="159.313" x2="331.992" y2="133.746" gradientUnits="userSpaceOnUse">
<stop stop-color="#FF2A64"/>
<stop offset="0.0308184" stop-color="#FF3462"/>
<stop offset="0.1688" stop-color="#FF595A"/>
<stop offset="0.3129" stop-color="#FF7854"/>
<stop offset="0.4626" stop-color="#FF904E"/>
<stop offset="0.6203" stop-color="#FFA24B"/>
<stop offset="0.7913" stop-color="#FFAC49"/>
<stop offset="1" stop-color="#FFAF48"/>
</linearGradient>
<linearGradient id="paint63_linear_1189_4962" x1="311.953" y1="226.536" x2="311.953" y2="88.8979" gradientUnits="userSpaceOnUse">
<stop stop-color="#386E9F"/>
<stop offset="1" stop-color="white"/>
</linearGradient>
<linearGradient id="paint64_linear_1189_4962" x1="309.04" y1="184.761" x2="309.04" y2="74.5203" gradientUnits="userSpaceOnUse">
<stop stop-color="#FF2A64"/>
<stop offset="0.0308184" stop-color="#FF3462"/>
<stop offset="0.1688" stop-color="#FF595A"/>
<stop offset="0.3129" stop-color="#FF7854"/>
<stop offset="0.4626" stop-color="#FF904E"/>
<stop offset="0.6203" stop-color="#FFA24B"/>
<stop offset="0.7913" stop-color="#FFAC49"/>
<stop offset="1" stop-color="#FFAF48"/>
</linearGradient>
</defs>
</svg>
