<svg xmlns="http://www.w3.org/2000/svg" viewBox="0 0 172 74"><path d="M44.7 22.9h-1.1v-8c0-7.2-5.9-13.1-13.1-13.1s-13 5.9-13 13.2v8h-1.1c-3.2 0-5.8 2.6-5.8 5.8v16.6c0 3.2 2.6 5.8 5.8 5.8h28.4c3.2 0 5.8-2.6 5.8-5.8V28.7c-.1-3.2-2.7-5.8-5.9-5.8h0zM33.2 38v4.7c0 1.5-1.2 2.6-2.6 2.6-1.5 0-2.6-1.2-2.6-2.6V38c-1.4-.9-2.4-2.5-2.4-4.3 0-2.8 2.3-5 5-5s5 2.3 5 5c0 1.8-1 3.4-2.4 4.3zm4.6-15.1H23.2v-8c0-4 3.3-7.3 7.3-7.3s7.3 3.3 7.3 7.3v8z" fill="#f4b20c" stroke="#1c1c1c" stroke-width="2.134" stroke-miterlimit="10"/><path d="M70.5 5.4c.9.4 1.8.9 2.6 1.6l-1.8 2c-.6-.5-1.2-.9-1.9-1.2-.6-.2-1.3-.4-2-.4-.8 0-1.5.2-2 .6-.5.4-.8.9-.8 1.5 0 .4.1.8.3 1.1.2.3.6.6 1.1.8.5.3 1.3.5 2.3.8 1.7.5 3.1 1.2 3.9 2 .9.8 1.3 2 1.3 3.5 0 1.1-.3 2-.8 2.8-.5.8-1.3 1.5-2.3 1.9-1 .5-2.2.7-3.6.7-1.3 0-2.6-.2-3.6-.7-1.1-.4-2-1-2.8-1.8l1.8-2c1.3 1.2 2.8 1.8 4.5 1.8 1 0 1.8-.2 2.4-.7.6-.5.9-1.1.9-1.9 0-.5-.1-.9-.3-1.3s-.6-.6-1-.9-1.2-.5-2.2-.8c-1.9-.6-3.2-1.3-4.1-2.1-.8-.8-1.3-1.9-1.3-3.2 0-1 .3-1.8.8-2.6.5-.7 1.2-1.3 2.1-1.7 1-.1 2-.3 3.2-.3 1.3 0 2.3.2 3.3.5zm7.8 13.5L77.2 23h-3.5l5.5-17.7h4.2L88.9 23h-3.6l-1.1-4.1h-5.9zm3-11.1L79 16.3h4.5l-2.2-8.5zm12.9 0v5.3h5.5v2.5h-5.5V23h-3.4V5.3h10l-.4 2.5h-6.2zm12.6 0v4.9h5.7v2.5h-5.7v5.2h7v2.5h-10.4V5.3h10.3l-.4 2.5h-6.5zm21.3-2.4c.8.3 1.4.8 1.8 1.4.4.6.6 1.3.6 2.1 0 1-.3 1.9-.9 2.6-.6.7-1.5 1.5-2.6 2.2l3.9 3.7c.6-1.2 1-2.6 1.4-4l2.8.8c-.6 1.9-1.4 3.5-2.3 4.9l3 2.7-2.6 1.5-2.2-2.2c-1.5 1.4-3.4 2.2-5.6 2.2-1.2 0-2.2-.2-3.2-.6-.9-.4-1.6-1-2.1-1.7s-.8-1.6-.8-2.6.3-2 .9-2.7c.6-.8 1.5-1.5 2.7-2.3-.9-.9-1.5-1.6-1.9-2.3-.4-.6-.6-1.3-.6-2.2 0-.8.2-1.4.6-2.1.4-.6 1-1.1 1.7-1.5.8-.4 1.7-.6 2.8-.6.9.2 1.8.3 2.6.7zm-4.9 11.2c-.3.5-.5 1.1-.5 1.7 0 .8.3 1.4.9 1.9.6.5 1.3.7 2.3.7.7 0 1.3-.1 1.8-.3.5-.2 1.1-.6 1.6-1l-4.6-4.4c-.7.4-1.2.9-1.5 1.4zm.8-9c-.3.3-.5.8-.5 1.4 0 .5.1 1 .4 1.4.3.4.7.9 1.3 1.5.7-.5 1.3-.9 1.6-1.4s.5-1 .5-1.5-.2-1-.5-1.4c-.3-.3-.8-.5-1.4-.5s-1 .2-1.4.5zM69.3 31.5c.9.4 1.8.9 2.6 1.6L70.2 35c-.6-.5-1.2-.9-1.9-1.2-.6-.2-1.3-.4-2-.4-.8 0-1.5.2-2 .6-.5.4-.8.9-.8 1.5 0 .4.1.8.3 1.1.2.3.6.6 1.1.8.5.3 1.3.5 2.3.8 1.7.5 3.1 1.2 3.9 2 .9.8 1.3 2 1.3 3.5 0 1.1-.3 2-.8 2.8-.5.8-1.3 1.5-2.3 1.9-1 .5-2.2.7-3.6.7-1.3 0-2.6-.2-3.6-.7-1.1-.4-2-1-2.8-1.8l1.8-2c1.3 1.2 2.8 1.8 4.5 1.8 1 0 1.8-.2 2.4-.7.6-.5.9-1.1.9-1.9 0-.5-.1-.9-.3-1.3s-.6-.6-1-.9c-.5-.3-1.2-.5-2.2-.8-1.9-.6-3.2-1.3-4.1-2.1-.8-.8-1.3-1.9-1.3-3.2 0-1 .3-1.8.8-2.6.5-.7 1.2-1.3 2.1-1.7.9-.4 1.9-.6 3.1-.6 1.3.3 2.4.5 3.3.9zm9.4 2.3v4.9h5.7v2.5h-5.7v5.2h7V49H75.3V31.3h10.3l-.4 2.5h-6.5zm19.7-2.4c.8.3 1.6.8 2.3 1.4l-1.7 2c-1-.9-2.1-1.3-3.3-1.3-1.3 0-2.4.5-3.1 1.6-.8 1.1-1.2 2.7-1.2 5 0 2.2.4 3.9 1.2 5s1.9 1.6 3.2 1.6c.7 0 1.3-.1 1.8-.4s1.1-.6 1.8-1.1l1.6 2c-.6.6-1.4 1.1-2.3 1.5-.9.4-1.9.6-3.1.6-1.5 0-2.9-.4-4.1-1.1s-2.1-1.8-2.7-3.2c-.6-1.4-1-3.1-1-5s.3-3.6 1-5 1.6-2.4 2.8-3.1c1.2-.7 2.5-1.1 3.9-1.1 1.2.1 2.1.3 2.9.6zm17.1 15c-.5.9-1.3 1.7-2.3 2.2-1 .5-2.2.8-3.6.8-2.1 0-3.7-.6-4.9-1.7-1.1-1.1-1.7-2.6-1.7-4.5V31.3h3.4V43c0 1.2.3 2.2.8 2.8.5.6 1.3.9 2.4.9 1.1 0 1.9-.3 2.4-.9s.8-1.5.8-2.8V31.3h3.4v11.9c.1 1.2-.2 2.3-.7 3.2zm8.1-4.5V49h-3.4V31.3h5.3c4.7 0 7 1.7 7 5.2 0 1.2-.3 2.2-.9 2.9s-1.5 1.4-2.7 1.9l4.6 7.7h-3.9l-3.9-7.1h-2.1zm2.1-2.4c1.1 0 1.9-.2 2.4-.7.6-.5.8-1.2.8-2.3 0-1-.3-1.7-.9-2.1-.6-.4-1.5-.7-2.7-.7h-1.8v5.7h2.2zm13.5-5.7v4.9h5.7v2.5h-5.7v5.2h7V49h-10.4V31.3h10.3l-.4 2.5h-6.5z" fill="#1c1c1c"/><path d="M11.4 67.5V62l-1.5 1-.6-.9 2.2-1.4h1.1v6.8h-1.2zm7-6c.4.6.6 1.5.6 2.6s-.2 2-.6 2.6c-.4.6-1 .9-1.8.9s-1.4-.3-1.8-.9c-.4-.6-.6-1.5-.6-2.6s.2-2 .6-2.6c.4-.6 1-.9 1.8-.9s1.4.3 1.8.9zm-2.7.7c-.2.4-.3 1-.3 2 0 .9.1 1.6.3 2s.5.6.8.6c.4 0 .7-.2.8-.6.2-.4.3-1 .3-2 0-.9-.1-1.6-.3-2-.2-.4-.5-.6-.8-.6-.3 0-.6.2-.8.6zm8.5-.7c.4.6.6 1.5.6 2.6s-.2 2-.6 2.6c-.4.6-1 .9-1.8.9s-1.4-.3-1.8-.9c-.4-.6-.6-1.5-.6-2.6s.2-2 .6-2.6c.4-.6 1-.9 1.8-.9s1.4.3 1.8.9zm-2.7.7c-.2.4-.3 1-.3 2 0 .9.1 1.6.3 2s.5.6.8.6c.4 0 .7-.2.8-.6.2-.4.3-1 .3-2 0-.9-.1-1.6-.3-2-.2-.4-.5-.6-.8-.6-.3 0-.6.2-.8.6zm6.7-1.4c.3.1.5.4.6.6.2.3.2.6.2.9 0 .4-.1.7-.2.9-.2.3-.4.5-.6.6s-.6.2-.9.2c-.3 0-.6-.1-.9-.2-.3-.1-.5-.4-.6-.6-.2-.3-.2-.6-.2-.9 0-.3.1-.7.2-.9.2-.3.4-.5.6-.6.3-.1.6-.2.9-.2.4 0 .7.1.9.2zm-1.4.9c-.1.2-.2.4-.2.7 0 .3.1.5.2.7.1.2.3.3.6.3.5 0 .7-.3.7-1 0-.6-.2-1-.7-1-.3 0-.5.1-.6.3zm.8 6.2l-.8-.5 4.7-7.1.8.5-4.7 7.1zm5-3.5c.3.1.5.4.6.6.1.3.2.6.2.9s-.1.7-.2.9c-.1.3-.4.5-.6.6-.3.1-.6.2-.9.2-.3 0-.6-.1-.9-.2-.3-.1-.5-.4-.6-.6-.2-.2-.2-.5-.2-.9s.1-.7.2-.9c.2-.3.4-.5.6-.6.3-.1.6-.2.9-.2.3 0 .6 0 .9.2zm-1.5.8c-.1.2-.1.4-.1.7 0 .3.1.5.2.7.1.2.3.3.6.3.5 0 .7-.3.7-1s-.2-1-.7-1c-.4.1-.5.2-.7.3zm7.4-.5v2.8h-1.3v-7h2.1c1.8 0 2.8.7 2.8 2.1 0 .5-.1.9-.3 1.2s-.6.5-1.1.7l1.8 3H41l-1.5-2.8h-1zm.8-.9c.4 0 .7-.1 1-.3.2-.2.3-.5.3-.9s-.1-.7-.3-.8-.6-.3-1.1-.3h-.7v2.3h.8zm4 3.7v-7h1.3v7h-1.3zm6.3-6.9c.4.1.7.4 1 .6l-.7.8c-.2-.2-.5-.4-.7-.5-.2-.1-.5-.1-.8-.1-.3 0-.6.1-.8.2-.2.1-.3.3-.3.6 0 .2 0 .3.1.4.1.1.2.2.4.3.2.1.5.2.9.3.7.2 1.2.5 1.6.8.3.3.5.8.5 1.4 0 .4-.1.8-.3 1.1-.2.3-.5.6-.9.8-.4.2-.9.3-1.4.3-.5 0-1-.1-1.4-.3-.4-.2-.8-.4-1.1-.7l.7-.8c.5.5 1.1.7 1.8.7.4 0 .7-.1.9-.3s.4-.4.4-.8c0-.2 0-.4-.1-.5l-.4-.4c-.2-.2-.5-.2-.8-.3-.7-.2-1.3-.5-1.6-.8-.3-.3-.5-.7-.5-1.3 0-.4.1-.7.3-1 .2-.3.5-.5.8-.7s.8-.2 1.2-.2c.4.2.8.3 1.2.4zm2.4 6.9v-7h1.3v7H52zm5.4 0h-1.6l-2.5-3.7 2.4-3.3h1.4l-2.4 3.2 2.7 3.8zm4.6-6v2.1h2.2v1H62v2.9h-1.3v-7h4l-.1 1H62zm5 3.2v2.8h-1.3v-7h2.1c1.8 0 2.8.7 2.8 2.1 0 .5-.1.9-.3 1.2s-.6.5-1.1.7l1.8 3h-1.5L68 64.7h-1zm.8-.9c.4 0 .7-.1 1-.3.2-.2.3-.5.3-.9s-.1-.7-.3-.8-.6-.3-1.1-.3H67v2.3h.8zm5.3-2.3v2h2.2v1h-2.2v2.1h2.8v1h-4.1v-7h4.1l-.1 1h-2.7zm5.4 0v2h2.2v1h-2.2v2.1h2.8v1h-4.1v-7h4.1l-.1 1h-2.7zm10.7-.4c.5.4.7.9.7 1.7 0 .8-.2 1.4-.7 1.7-.5.4-1.2.6-2 .6h-.8v2.4H85v-7h2.1c.9.1 1.6.2 2.1.6zm-1 2.7c.2-.2.4-.5.4-1 0-.8-.5-1.2-1.4-1.2h-.7v2.6h.7c.4-.1.7-.2 1-.4zm3.1 2.1l-.4 1.6h-1.4l2.2-7h1.6l2.2 7H94l-.4-1.6h-2.3zm1.1-4.3l-.9 3.3h1.8l-.9-3.3zm5.9 5.9h-1.4v-2.6l-2.2-4.3h1.5l1.5 3.2 1.5-3.2h1.4l-2.2 4.3v2.6zm8.1 0l-.2-2.9c-.1-1-.1-1.8-.1-2.4v-.4l-1.3 5h-1.3l-1.4-5v1c0 .5 0 1.2-.1 1.9l-.2 2.9h-1.3l.6-7h1.7l1.2 4.9 1.2-4.9h1.7l.5 7h-1zm4.1-6v2h2.2v1h-2.2v2.1h2.8v1h-4.1v-7h4.1l-.1 1h-2.7zm7.4 6l-2.4-5.7c.1.5.1 1 .1 1.4v4.3h-1.2v-7h1.7l2.4 5.7c0-.3-.1-.6-.1-1.1 0-.4-.1-.9-.1-1.3v-3.3h1.2v7h-1.6zm5.9-5.9v5.9h-1.3v-5.9h-1.9v-1.1h5.2l-.1 1.1h-1.9z" fill="#939393"/><path d="M168.2 45.8c-.1-.3-.3-.5-.6-.4-9.9.8-18 7.5-22.1 18.1-2.3-3.5-5.7-4-7.6-4-1.5 0-2.5.3-2.5.3-.2.1-.4.3-.4.5s.1.5.3.6c4.7 2.8 7.6 7.5 9.2 10.9.3.7.9 1.1 1.6 1.1.8 0 1.4-.5 1.7-1.3 5.8-18.4 20-24.9 20.2-25 .1-.2.2-.5.2-.8z" fill="#f4b20c"/></svg>