<svg width="248" height="168" viewBox="0 0 248 168" fill="none" xmlns="http://www.w3.org/2000/svg">
<path d="M79.7155 68.544H99.8707V164.573H79.7155V157.819C71.1973 164.438 60.7005 168 49.9354 168C22.4022 168 0 144.95 0 116.558C0 88.2 22.4022 65.1504 49.9354 65.1504C61.1029 65.1504 71.3985 68.9136 79.749 75.3312V68.544H79.7155ZM79.2124 116.558C79.2124 99.5232 66.0663 85.7136 49.9354 85.7136C33.8045 85.7136 20.6583 99.5568 20.6583 116.558C20.6583 133.56 33.8045 147.403 49.9354 147.403C66.0663 147.437 79.2124 133.594 79.2124 116.558ZM137.733 164.573H117.108V0H137.733V164.573ZM148.096 116.558C148.096 88.2 170.498 65.1504 198.065 65.1504C225.598 65.1504 248 88.2 248 116.558C248 144.917 225.598 168 198.065 168C170.498 168 148.096 144.95 148.096 116.558ZM168.754 116.558C168.754 133.56 181.9 147.403 198.031 147.403C214.162 147.403 227.308 133.56 227.308 116.558C227.308 99.5232 214.162 85.7136 198.031 85.7136C181.9 85.7136 168.754 99.5568 168.754 116.558Z" fill="black"/>
</svg>
