<svg width="142" height="54" viewBox="0 0 142 54" fill="none" xmlns="http://www.w3.org/2000/svg">
<path fill-rule="evenodd" clip-rule="evenodd" d="M19.4864 53.2395H15.5947L4.68183 39.2469V53.1831H0V32.9458H5.44406L14.9193 45.3444V32.9458H19.4864V53.2395Z" fill="black"/>
<path fill-rule="evenodd" clip-rule="evenodd" d="M21.3455 32.9395H25.9932V36.5097H21.3455V32.9395ZM21.3455 38.4169H25.9932V53.18H21.3455V38.4169Z" fill="black"/>
<path fill-rule="evenodd" clip-rule="evenodd" d="M40.5686 53.1831H36.0014C32.5931 53.1831 31.0097 51.5578 31.0097 48.4855V42.2659H27.2327V38.4201H31.0097V32.9458H35.6079V38.4201H40.5655V42.2659H35.6079V46.8539C35.6079 48.4511 36.0851 49.1056 37.8047 49.1056H40.5686V53.1831Z" fill="black"/>
<path fill-rule="evenodd" clip-rule="evenodd" d="M46.6882 53.1831H42.1179V38.4201H46.6882V40.7282C46.9981 40.0423 48.0391 38.3919 51.1129 38.3919H54.2423V42.9517H50.2391C47.6456 42.9517 46.6882 43.9194 46.6882 45.9707V53.1831Z" fill="black"/>
<path fill-rule="evenodd" clip-rule="evenodd" d="M70.6116 45.8016C70.6116 50.3614 67.2032 53.5527 62.602 53.5527C58.0007 53.5527 54.5955 50.3614 54.5955 45.8016C54.5955 41.2418 58.0038 38.0474 62.602 38.0474C67.2001 38.0474 70.6116 41.2418 70.6116 45.8016ZM66.0134 45.8016C66.0134 43.6626 64.6625 42.0686 62.6051 42.0686C60.5477 42.0686 59.1657 43.6626 59.1657 45.8016C59.1657 47.9406 60.5756 49.5346 62.6051 49.5346C64.6346 49.5346 66.0134 47.9375 66.0134 45.8016Z" fill="black"/>
<path fill-rule="evenodd" clip-rule="evenodd" d="M72.4707 32.9458H84.1706C88.713 32.9458 91.3622 35.2257 91.3622 39.4723C91.3622 43.719 88.713 46.049 84.1706 46.049H77.2362V53.1737H72.4707V32.9458ZM77.2362 37.1642V41.8399H83.7213C85.5526 41.8399 86.4573 40.9568 86.4573 39.5005C86.4573 37.9347 85.5526 37.1642 83.7213 37.1642H77.2362Z" fill="black"/>
<path fill-rule="evenodd" clip-rule="evenodd" d="M102.663 51.016C102.409 51.5014 101.027 53.4963 97.9529 53.4963C94.2874 53.4963 91.3252 50.59 91.3252 45.8016C91.3252 41.0132 94.2874 38.1351 97.9808 38.1351C100.943 38.1351 102.353 39.986 102.607 40.4714V38.4201H107.174V53.1831H102.663V51.016ZM99.3348 42.0842C97.3053 42.0842 95.9512 43.6783 95.9512 45.8173C95.9512 47.9563 97.3053 49.5503 99.3348 49.5503C101.364 49.5503 102.663 47.9531 102.663 45.8173C102.663 43.6814 101.364 42.0842 99.3348 42.0842Z" fill="black"/>
<path fill-rule="evenodd" clip-rule="evenodd" d="M119.184 43.5781C118.618 42.5976 117.556 42.0205 116.435 42.0842C114.517 42.0842 113.306 43.6783 113.306 45.8173C113.306 47.9562 114.545 49.5754 116.463 49.5754C118.27 49.5754 119.088 48.4072 119.227 48.0659H123.627C123.484 50.1172 121.511 53.5652 116.352 53.5652C112.066 53.5652 108.711 50.4867 108.711 45.8141C108.711 41.1416 112.038 38.0599 116.296 38.0599C121.455 38.0599 123.401 41.4516 123.627 43.5906L119.184 43.5781Z" fill="black"/>
<path fill-rule="evenodd" clip-rule="evenodd" d="M129.712 46.6002V53.1769H125.145V32.1942H129.712V44.1919L135.55 38.4076H141.301L134.308 45.2191L141.67 53.1706H135.748L129.712 46.6002Z" fill="black"/>
<path fill-rule="evenodd" clip-rule="evenodd" d="M49.1585 4.65017C61.9913 4.65017 72.3943 15.0599 72.3943 27.901H77.0414C77.0414 12.4917 64.5578 0 49.1585 0C33.7592 0 21.2756 12.4917 21.2756 27.901H25.9228C25.9228 15.0599 36.3258 4.65017 49.1585 4.65017Z" fill="black"/>
<path fill-rule="evenodd" clip-rule="evenodd" d="M44.8521 25.7929C44.3805 24.7798 44.4017 23.6057 44.9094 22.6102C45.4171 21.6147 46.3548 20.9088 47.4514 20.6964L63.8 16.9514L50.4255 27.0888C49.5564 27.7924 48.4116 28.0558 47.3226 27.8026C46.2336 27.5494 45.3221 26.808 44.8521 25.7929Z" fill="black"/>
</svg>
