<svg width="60" height="60" viewBox="0 0 60 60" fill="none" xmlns="http://www.w3.org/2000/svg">
<path d="M29.9999 0C13.4314 0 0 13.4314 0 29.9999C0 46.5684 13.4314 59.9999 29.9999 59.9999C46.5684 59.9999 59.9999 46.5684 59.9999 29.9999C59.9823 13.4388 46.5612 0.0177037 29.9999 0ZM42.6341 30.9558C42.4264 31.3724 42.0888 31.7102 41.6721 31.9178V31.9285L24.5293 40.5C23.4705 41.0289 22.1836 40.5997 21.6545 39.541C21.5041 39.24 21.4266 38.9078 21.4285 38.5714V21.4286C21.428 20.2451 22.3869 19.2853 23.5704 19.2847C23.9032 19.2846 24.2316 19.3619 24.5293 19.5107L41.6721 28.0822C42.7313 28.61 43.1621 29.8966 42.6341 30.9558Z" fill="url(#paint0_linear_633_148)"/>
<defs>
<linearGradient id="paint0_linear_633_148" x1="29.9999" y1="0" x2="29.9999" y2="82.8812" gradientUnits="userSpaceOnUse">
<stop stop-color="#FFAA49"/>
<stop offset="1" stop-color="#FF7754"/>
</linearGradient>
</defs>
</svg>
