<svg width="60" height="60" viewBox="0 0 60 60" fill="none" xmlns="http://www.w3.org/2000/svg">
<g clip-path="url(#clip0_633_107)">
<path d="M58.7699 0.00718974C47.0574 -0.20281 33.6999 5.91969 25.2449 15.4172C17.1649 15.5697 9.2974 18.8822 3.5049 24.6747C3.1674 25.0072 3.0474 25.5047 3.1949 25.9547C3.3449 26.4072 3.7349 26.7347 4.2049 26.8022L13.8399 28.1822L12.6499 29.5147C12.2074 30.0097 12.2299 30.7622 12.6999 31.2322L28.7674 47.2997C29.0099 47.5422 29.3299 47.6647 29.6524 47.6647C29.9499 47.6647 30.2474 47.5597 30.4849 47.3472L31.8174 46.1572L33.1974 55.7922C33.2649 56.2622 33.6349 56.6072 34.0824 56.7572C34.1974 56.7947 34.3174 56.8122 34.4399 56.8122C34.7949 56.8122 35.1574 56.6572 35.4074 56.4097C41.1199 50.6972 44.4324 42.8297 44.5849 34.7497C54.0924 26.2772 60.2649 12.9247 59.9924 1.22719C59.9749 0.56219 59.4374 0.0246897 58.7699 0.00718974V0.00718974ZM47.2499 21.5872C46.0324 22.8047 44.4324 23.4147 42.8299 23.4147C41.2274 23.4147 39.6274 22.8047 38.4099 21.5872C35.9749 19.1497 35.9749 15.1847 38.4099 12.7472C40.8474 10.3097 44.8124 10.3097 47.2499 12.7472C49.6874 15.1847 49.6874 19.1522 47.2499 21.5872Z" fill="url(#paint0_linear_633_107)"/>
<path d="M6.81014 42.2623C4.13514 44.9373 0.462644 57.0223 0.0526435 58.3898C-0.0798565 58.8298 0.0426435 59.3073 0.365144 59.6323C0.605144 59.8723 0.922644 59.9998 1.25014 59.9998C1.37014 59.9998 1.49014 59.9823 1.61014 59.9473C2.97764 59.5373 15.0626 55.8648 17.7376 53.1898C20.7501 50.1773 20.7501 45.2748 17.7376 42.2623C14.7226 39.2498 9.82265 39.2523 6.81014 42.2623V42.2623Z" fill="url(#paint1_linear_633_107)"/>
</g>
<defs>
<linearGradient id="paint0_linear_633_107" x1="31.5669" y1="0.00195312" x2="31.5669" y2="78.4771" gradientUnits="userSpaceOnUse">
<stop stop-color="#FFAA49"/>
<stop offset="1" stop-color="#FF7754"/>
</linearGradient>
<linearGradient id="paint1_linear_633_107" x1="9.99851" y1="40.0039" x2="9.99851" y2="67.6254" gradientUnits="userSpaceOnUse">
<stop stop-color="#FFAA49"/>
<stop offset="1" stop-color="#FF7754"/>
</linearGradient>
<clipPath id="clip0_633_107">
<rect width="60" height="60" fill="white"/>
</clipPath>
</defs>
</svg>
