<svg width="75" height="75" viewBox="0 0 75 75" fill="none" xmlns="http://www.w3.org/2000/svg">
<path d="M47 41.875L26.75 24M31.875 63.375L51 48.625M15.875 18.25C13.125 18.875 11.25 20 11.25 21.25C11.25 23.25 15.5 24.75 20.75 24.75C26 24.75 30.25 23.125 30.25 21.25C30.25 20 28.375 18.875 25.625 18.25M19 5.87502V5.37502M19 13.875V13.375M22.625 9.87503V9.375M22.625 17.875V17.375M51.75 40.125C47.75 41 45 42.625 45 44.5C45 47.25 51.125 49.5 58.75 49.5C66.375 49.5 72.5 47.25 72.5 44.5C72.5 42.625 69.875 41 65.75 40.125M61.875 44.25H52.125V25.5H61.875V44.25ZM61.875 44.25V33H65.75V44.25H61.875ZM55.125 29V28.375M55.125 37V36.5M58.75 33V32.5M58.75 40.875V40.375M9.49999 61.75C5.24999 62.875 2.5 64.625 2.5 66.625C2.5 69.875 9.75 72.5 18.5 72.5C27.375 72.5 34.5 69.875 34.5 66.625C34.5 64.625 31.75 62.75 27.5 61.75M23.375 66.875V55.625H27.25V66.875H23.375ZM23.375 66.875H13.625M23.375 66.875V48.125H13.625V66.875M13.625 66.875H9.75V55.625H13.625V66.875ZM16.75 51.625V51.125M16.75 59.625V59.125M20.375 55.625V55.125M20.375 63.625V63.125M25.625 2.5H15.875V21.25H25.625V2.5Z" stroke="url(#paint0_linear_1692_3953)" stroke-width="2" stroke-miterlimit="10" stroke-linecap="round" stroke-linejoin="round"/>
<defs>
<linearGradient id="paint0_linear_1692_3953" x1="37.462" y1="73.7481" x2="37.462" y2="1.24813" gradientUnits="userSpaceOnUse">
<stop stop-color="#F2AD5C"/>
<stop offset="1" stop-color="#ED7F5E"/>
</linearGradient>
</defs>
</svg>
