<svg width="60" height="60" viewBox="0 0 60 60" fill="none" xmlns="http://www.w3.org/2000/svg">
<path d="M0 24.108V35.891C0 36.865 0.314 37.759 0.835 38.499H59.164C59.686 37.76 60 36.865 60 35.892V24.108C60 23.134 59.686 22.24 59.165 21.5H0.835C0.314 22.24 0 23.135 0 24.108ZM52 30.5C52.552 30.5 53 30.948 53 31.5C53 32.052 52.552 32.5 52 32.5C51.448 32.5 51 32.052 51 31.5C51 30.948 51.448 30.5 52 30.5ZM50 27.5C50.552 27.5 51 27.948 51 28.5C51 29.052 50.552 29.5 50 29.5C49.448 29.5 49 29.052 49 28.5C49 27.948 49.448 27.5 50 27.5ZM48 30.5C48.552 30.5 49 30.948 49 31.5C49 32.052 48.552 32.5 48 32.5C47.448 32.5 47 32.052 47 31.5C47 30.948 47.448 30.5 48 30.5ZM46 27.5C46.552 27.5 47 27.948 47 28.5C47 29.052 46.552 29.5 46 29.5C45.448 29.5 45 29.052 45 28.5C45 27.948 45.448 27.5 46 27.5ZM44 30.5C44.552 30.5 45 30.948 45 31.5C45 32.052 44.552 32.5 44 32.5C43.448 32.5 43 32.052 43 31.5C43 30.948 43.448 30.5 44 30.5ZM42 27.5C42.552 27.5 43 27.948 43 28.5C43 29.052 42.552 29.5 42 29.5C41.448 29.5 41 29.052 41 28.5C41 27.948 41.448 27.5 42 27.5ZM40 30.5C40.552 30.5 41 30.948 41 31.5C41 32.052 40.552 32.5 40 32.5C39.448 32.5 39 32.052 39 31.5C39 30.948 39.448 30.5 40 30.5ZM38 27.5C38.552 27.5 39 27.948 39 28.5C39 29.052 38.552 29.5 38 29.5C37.448 29.5 37 29.052 37 28.5C37 27.948 37.448 27.5 38 27.5ZM36 30.5C36.552 30.5 37 30.948 37 31.5C37 32.052 36.552 32.5 36 32.5C35.448 32.5 35 32.052 35 31.5C35 30.948 35.448 30.5 36 30.5ZM34 27.5C34.552 27.5 35 27.948 35 28.5C35 29.052 34.552 29.5 34 29.5C33.448 29.5 33 29.052 33 28.5C33 27.948 33.448 27.5 34 27.5ZM10.5 25.5C12.981 25.5 15 27.519 15 30C15 32.481 12.981 34.5 10.5 34.5C8.019 34.5 6 32.481 6 30C6 27.519 8.019 25.5 10.5 25.5Z" fill="url(#paint0_linear_634_599)"/>
<path d="M59.165 19.5C59.686 18.76 60 17.865 60 16.892V5.108C60 2.567 57.933 0.5 55.392 0.5H4.608C2.067 0.5 0 2.567 0 5.108V16.891C0 17.865 0.314 18.759 0.835 19.499H59.165V19.5ZM52 11.5C52.552 11.5 53 11.948 53 12.5C53 13.052 52.552 13.5 52 13.5C51.448 13.5 51 13.052 51 12.5C51 11.948 51.448 11.5 52 11.5ZM50 8.5C50.552 8.5 51 8.948 51 9.5C51 10.052 50.552 10.5 50 10.5C49.448 10.5 49 10.052 49 9.5C49 8.948 49.448 8.5 50 8.5ZM48 11.5C48.552 11.5 49 11.948 49 12.5C49 13.052 48.552 13.5 48 13.5C47.448 13.5 47 13.052 47 12.5C47 11.948 47.448 11.5 48 11.5ZM46 8.5C46.552 8.5 47 8.948 47 9.5C47 10.052 46.552 10.5 46 10.5C45.448 10.5 45 10.052 45 9.5C45 8.948 45.448 8.5 46 8.5ZM44 11.5C44.552 11.5 45 11.948 45 12.5C45 13.052 44.552 13.5 44 13.5C43.448 13.5 43 13.052 43 12.5C43 11.948 43.448 11.5 44 11.5ZM42 8.5C42.552 8.5 43 8.948 43 9.5C43 10.052 42.552 10.5 42 10.5C41.448 10.5 41 10.052 41 9.5C41 8.948 41.448 8.5 42 8.5ZM40 11.5C40.552 11.5 41 11.948 41 12.5C41 13.052 40.552 13.5 40 13.5C39.448 13.5 39 13.052 39 12.5C39 11.948 39.448 11.5 40 11.5ZM38 8.5C38.552 8.5 39 8.948 39 9.5C39 10.052 38.552 10.5 38 10.5C37.448 10.5 37 10.052 37 9.5C37 8.948 37.448 8.5 38 8.5ZM36 11.5C36.552 11.5 37 11.948 37 12.5C37 13.052 36.552 13.5 36 13.5C35.448 13.5 35 13.052 35 12.5C35 11.948 35.448 11.5 36 11.5ZM34 8.5C34.552 8.5 35 8.948 35 9.5C35 10.052 34.552 10.5 34 10.5C33.448 10.5 33 10.052 33 9.5C33 8.948 33.448 8.5 34 8.5ZM10.5 6.5C12.981 6.5 15 8.519 15 11C15 13.481 12.981 15.5 10.5 15.5C8.019 15.5 6 13.481 6 11C6 8.519 8.019 6.5 10.5 6.5Z" fill="url(#paint1_linear_634_599)"/>
<path d="M0.835 40.5C0.314 41.24 0 42.135 0 43.108V54.891C0 57.433 2.067 59.5 4.608 59.5H55.391C57.932 59.5 59.999 57.433 59.999 54.892V43.108C59.999 42.134 59.685 41.24 59.164 40.5H0.835ZM10.5 53.5C8.019 53.5 6 51.481 6 49C6 46.519 8.019 44.5 10.5 44.5C12.981 44.5 15 46.519 15 49C15 51.481 12.981 53.5 10.5 53.5ZM34 48.5C33.448 48.5 33 48.052 33 47.5C33 46.948 33.448 46.5 34 46.5C34.552 46.5 35 46.948 35 47.5C35 48.052 34.552 48.5 34 48.5ZM36 51.5C35.448 51.5 35 51.052 35 50.5C35 49.948 35.448 49.5 36 49.5C36.552 49.5 37 49.948 37 50.5C37 51.052 36.552 51.5 36 51.5ZM38 48.5C37.448 48.5 37 48.052 37 47.5C37 46.948 37.448 46.5 38 46.5C38.552 46.5 39 46.948 39 47.5C39 48.052 38.552 48.5 38 48.5ZM40 51.5C39.448 51.5 39 51.052 39 50.5C39 49.948 39.448 49.5 40 49.5C40.552 49.5 41 49.948 41 50.5C41 51.052 40.552 51.5 40 51.5ZM42 48.5C41.448 48.5 41 48.052 41 47.5C41 46.948 41.448 46.5 42 46.5C42.552 46.5 43 46.948 43 47.5C43 48.052 42.552 48.5 42 48.5ZM44 51.5C43.448 51.5 43 51.052 43 50.5C43 49.948 43.448 49.5 44 49.5C44.552 49.5 45 49.948 45 50.5C45 51.052 44.552 51.5 44 51.5ZM46 48.5C45.448 48.5 45 48.052 45 47.5C45 46.948 45.448 46.5 46 46.5C46.552 46.5 47 46.948 47 47.5C47 48.052 46.552 48.5 46 48.5ZM48 51.5C47.448 51.5 47 51.052 47 50.5C47 49.948 47.448 49.5 48 49.5C48.552 49.5 49 49.948 49 50.5C49 51.052 48.552 51.5 48 51.5ZM50 48.5C49.448 48.5 49 48.052 49 47.5C49 46.948 49.448 46.5 50 46.5C50.552 46.5 51 46.948 51 47.5C51 48.052 50.552 48.5 50 48.5ZM52 51.5C51.448 51.5 51 51.052 51 50.5C51 49.948 51.448 49.5 52 49.5C52.552 49.5 53 49.948 53 50.5C53 51.052 52.552 51.5 52 51.5Z" fill="url(#paint2_linear_634_599)"/>
<defs>
<linearGradient id="paint0_linear_634_599" x1="30" y1="21.5" x2="30" y2="44.9817" gradientUnits="userSpaceOnUse">
<stop stop-color="#FFAA49"/>
<stop offset="1" stop-color="#FF7754"/>
</linearGradient>
<linearGradient id="paint1_linear_634_599" x1="30" y1="0.5" x2="30" y2="26.7458" gradientUnits="userSpaceOnUse">
<stop stop-color="#FFAA49"/>
<stop offset="1" stop-color="#FF7754"/>
</linearGradient>
<linearGradient id="paint2_linear_634_599" x1="29.9995" y1="40.5" x2="29.9995" y2="66.7458" gradientUnits="userSpaceOnUse">
<stop stop-color="#FFAA49"/>
<stop offset="1" stop-color="#FF7754"/>
</linearGradient>
</defs>
</svg>
