<svg width="1500" height="1500" viewBox="0 0 1500 1500" fill="none" xmlns="http://www.w3.org/2000/svg">
<path d="M1307.83 688.993V1367.97H192.166V688.993C192.166 642.781 229.645 605.331 275.893 605.331H1224.11C1270.35 605.331 1307.83 642.839 1307.83 688.993Z" fill="url(#paint0_linear_200_2)"/>
<path d="M1307.83 960.193V1323.99C1272.42 1337.44 1233.27 1352.22 1191.78 1368.02H192.166V964.03C219.731 952.52 301.223 927.954 412.285 978.804C550.224 1041.97 1115.28 986.706 1115.28 986.706C1115.28 986.706 1197.97 918.391 1307.83 960.193Z" fill="url(#paint1_linear_200_2)"/>
<path d="M294.747 1072.83C293.314 1072.83 291.939 1072.09 291.194 1070.83C290.048 1068.88 290.678 1066.3 292.627 1065.16C295.263 1063.55 359.505 1026.85 511.256 1048.38C513.548 1048.72 515.095 1050.78 514.751 1053.07C514.408 1055.36 512.345 1056.91 510.052 1056.57C361.167 1035.44 297.441 1071.91 296.81 1072.31C296.18 1072.6 295.435 1072.83 294.747 1072.83Z" fill="url(#paint2_linear_200_2)"/>
<path d="M362.198 1148.36C361.052 1148.36 359.848 1147.85 359.046 1146.93C357.556 1145.21 357.728 1142.58 359.505 1141.09C360.25 1140.46 434.922 1077.53 543.348 1085.43C545.64 1085.6 547.359 1087.6 547.187 1089.84C547.015 1092.13 545.067 1093.85 542.775 1093.67C437.902 1086.06 365.637 1146.76 364.949 1147.39C364.147 1148.02 363.172 1148.36 362.198 1148.36Z" fill="url(#paint3_linear_200_2)"/>
<path d="M1226.86 1114.12C1226 1114.12 1225.14 1113.83 1224.39 1113.32C1165.02 1069.97 1048.86 1067.45 1047.71 1067.39C1045.42 1067.33 1043.59 1065.44 1043.64 1063.15C1043.7 1060.86 1045.59 1059.09 1047.88 1059.09C1048.17 1059.09 1078.09 1059.66 1115.11 1065.79C1165.02 1073.98 1203.48 1087.72 1229.32 1106.62C1231.15 1107.99 1231.56 1110.57 1230.24 1112.4C1229.38 1113.49 1228.12 1114.12 1226.86 1114.12Z" fill="url(#paint4_linear_200_2)"/>
<path d="M1237.69 1042.88C1236.89 1042.88 1236.08 1042.65 1235.4 1042.19C1181.93 1006.75 1105.54 1028.68 1104.79 1028.91C1102.61 1029.54 1100.32 1028.28 1099.63 1026.1C1099 1023.93 1100.26 1021.64 1102.44 1020.95C1105.71 1019.98 1183.25 997.7 1239.98 1035.32C1241.87 1036.58 1242.39 1039.16 1241.13 1041.05C1240.32 1042.25 1239.01 1042.88 1237.69 1042.88Z" fill="url(#paint5_linear_200_2)"/>
<path d="M1307.83 1089.49V1367.97H192.166V1089.49C192.166 1153.74 244.259 1205.85 308.558 1205.85H1191.44C1255.74 1205.85 1307.83 1153.74 1307.83 1089.49Z" fill="url(#paint6_linear_200_2)"/>
<path d="M546.501 411.723H271.252C250.85 411.723 234.346 395.174 234.346 374.846V279.559C234.346 259.173 250.908 242.681 271.252 242.681H546.501C566.902 242.681 583.407 259.231 583.407 279.559V374.788C583.407 395.174 566.845 411.723 546.501 411.723Z" fill="url(#paint7_linear_200_2)"/>
<path d="M424.091 426.955H393.66V632.531H424.091V426.955Z" fill="url(#paint8_linear_200_2)"/>
<path d="M546.501 384.122H271.252C250.85 384.122 234.346 367.573 234.346 347.245V279.559C234.346 259.173 250.908 242.681 271.252 242.681H546.501C566.902 242.681 583.407 259.231 583.407 279.559V347.187C583.407 367.573 566.845 384.122 546.501 384.122Z" fill="url(#paint9_linear_200_2)"/>
<path d="M320.995 367.802C351.063 367.802 375.437 343.446 375.437 313.402C375.437 283.357 351.063 259.001 320.995 259.001C290.927 259.001 266.553 283.357 266.553 313.402C266.553 343.446 290.927 367.802 320.995 367.802Z" fill="url(#paint10_linear_200_2)"/>
<path d="M320.995 355.891C344.479 355.891 363.517 336.868 363.517 313.402C363.517 289.935 344.479 270.912 320.995 270.912C297.511 270.912 278.473 289.935 278.473 313.402C278.473 336.868 297.511 355.891 320.995 355.891Z" fill="url(#paint11_linear_200_2)"/>
<path d="M347.987 299.372C348.56 298.399 348.904 297.254 348.904 295.994C348.904 292.157 345.809 289.065 341.969 289.065C341.167 289.065 340.422 289.237 339.734 289.466C334.577 285.4 328.044 282.938 320.995 282.938C304.204 282.938 290.564 296.566 290.564 313.345C290.564 330.123 304.204 343.751 320.995 343.751C337.786 343.751 351.425 330.123 351.425 313.345C351.425 308.305 350.164 303.552 347.987 299.372ZM320.995 338.712C307.012 338.712 295.608 327.317 295.608 313.345C295.608 299.372 307.012 287.977 320.995 287.977C326.554 287.977 331.654 289.809 335.838 292.787C335.379 293.703 335.093 294.791 335.093 295.879C335.093 299.716 338.187 302.808 342.027 302.808C342.714 302.808 343.345 302.694 343.975 302.522C345.523 305.786 346.439 309.451 346.439 313.287C346.325 327.374 334.978 338.712 320.995 338.712Z" fill="url(#paint12_linear_200_2)"/>
<path d="M320.995 323.881C326.787 323.881 331.482 319.189 331.482 313.402C331.482 307.614 326.787 302.923 320.995 302.923C315.203 302.923 310.508 307.614 310.508 313.402C310.508 319.189 315.203 323.881 320.995 323.881Z" fill="url(#paint13_linear_200_2)"/>
<path d="M544.208 340.888H407.242C398.99 340.888 392.285 334.188 392.285 325.942V295.249C392.285 287.003 398.99 280.303 407.242 280.303H544.151C552.403 280.303 559.108 287.003 559.108 295.249V326C559.108 334.246 552.403 340.888 544.208 340.888Z" fill="url(#paint14_linear_200_2)"/>
<path d="M531.2 306.645H420.252C417.444 306.645 415.209 304.412 415.209 301.606C415.209 298.8 417.444 296.566 420.252 296.566H531.2C534.008 296.566 536.243 298.8 536.243 301.606C536.243 304.412 533.951 306.645 531.2 306.645ZM494.981 319.644C494.981 316.838 492.746 314.604 489.938 314.604H420.252C417.444 314.604 415.209 316.838 415.209 319.644C415.209 322.45 417.444 324.683 420.252 324.683H489.938C492.746 324.683 494.981 322.392 494.981 319.644Z" fill="url(#paint15_linear_200_2)"/>
<path d="M478.533 437.377H339.161C332.341 437.377 326.84 431.88 326.84 425.066V411.666H490.797V425.066C490.854 431.88 485.353 437.377 478.533 437.377Z" fill="url(#paint16_linear_200_2)"/>
<path d="M917.282 917.474C910.348 920.109 906.05 921.483 906.05 921.483L775.618 968.095L629.197 921.827C629.197 921.827 629.082 921.769 628.853 921.712L628.165 921.483V921.426C615.615 916.157 487.131 864.277 426.729 908.026L760.259 1088.01V1096.08L767.767 1092.01L775.274 1096.08V1088.01L1108.8 908.026C1055.97 869.831 951.266 904.59 917.282 917.474Z" fill="url(#paint17_linear_200_2)"/>
<path d="M681.518 1116.41C615.442 1119.21 523.406 1098.6 456.356 1067.05C410.338 1045.34 376.469 1005.72 390.624 956.872C403.174 913.752 445.582 888.098 488.104 894.626C496.586 895.943 504.838 898.749 512.575 902.471L716.418 1000.22L681.518 1116.41Z" fill="url(#paint18_linear_200_2)"/>
<path d="M456.355 1067.05C411.598 1045.92 378.302 1007.84 389.591 960.766C394.692 993.062 416.01 1050.15 500.998 1074.49C622.776 1109.36 708.05 1011.16 708.05 1011.16L705.93 1035.21L681.517 1116.41C615.441 1119.21 523.348 1098.66 456.355 1067.05Z" fill="url(#paint19_linear_200_2)"/>
<path d="M738.653 1018.83L790.688 1046.66L801.519 1040.08C817.623 1030.23 838.024 1030.97 853.382 1041.91L962.725 1119.79C968.972 1124.25 970.233 1133.07 965.476 1139.08C962.611 1142.75 958.026 1144.64 953.384 1144.12L693.666 1114.23L738.653 1018.83Z" fill="url(#paint20_linear_200_2)"/>
<path d="M737.163 998.846L722.779 992.719C716.819 990.199 709.942 991.688 705.587 996.441C689.885 1013.51 657.277 1057.83 671.775 1120.02C673.036 1125.46 677.162 1129.81 682.549 1131.3L694.183 1134.5C703.753 1137.14 713.209 1130.15 713.438 1120.24C714.126 1094.99 718.997 1051.13 742.837 1022.5C749.427 1014.71 746.504 1002.85 737.163 998.846Z" fill="url(#paint21_linear_200_2)"/>
<path d="M858.426 1121.33C924.502 1122.88 1016.19 1100.55 1082.61 1067.68C1128.17 1045.11 1161.35 1004.8 1146.23 956.299C1132.87 913.466 1089.95 888.556 1047.54 895.886C1039.06 897.375 1030.92 900.353 1023.24 904.189L821.291 1005.83L858.426 1121.33Z" fill="url(#paint22_linear_200_2)"/>
<path d="M1082.61 1067.68C1126.97 1045.74 1159.52 1006.98 1147.31 960.193C1142.79 992.547 1122.61 1050.1 1038.09 1076.04C916.994 1113.2 829.887 1016.6 829.887 1016.6L832.466 1040.59L858.426 1121.33C924.502 1122.88 1016.19 1100.55 1082.61 1067.68Z" fill="url(#paint23_linear_200_2)"/>
<path d="M799.4 1024.9L747.938 1053.76L736.992 1047.35C720.716 1037.84 700.315 1038.93 685.186 1050.15L577.447 1130.15C571.258 1134.73 570.169 1143.55 575.098 1149.51C578.078 1153.11 582.662 1154.95 587.304 1154.32L846.392 1119.27L799.4 1024.9Z" fill="url(#paint24_linear_200_2)"/>
<path d="M800.546 1004.8L814.815 998.388C820.718 995.754 827.595 997.071 832.065 1001.77C848.054 1018.49 881.579 1062.24 868.226 1124.71C867.08 1130.21 863.011 1134.62 857.624 1136.22L846.048 1139.66C836.535 1142.46 826.965 1135.65 826.506 1125.74C825.36 1100.55 819.629 1056.74 795.274 1028.62C788.626 1020.95 791.262 1008.98 800.546 1004.8Z" fill="url(#paint25_linear_200_2)"/>
<path d="M610.054 889.644L600.369 903.044C595.841 909.286 597.045 917.932 603.062 922.685C628.106 942.498 695.27 987.622 777.621 977.257C850.173 968.152 894.472 943.529 914.873 929.271C922.266 924.117 923.126 913.58 916.707 907.281L908.111 898.864L610.054 889.644Z" fill="url(#paint26_linear_200_2)"/>
<path d="M900.433 804.723L908.113 898.864C908.113 898.864 874.989 928.297 806.907 939.521C793.497 941.754 778.712 943.243 762.551 943.701C664.44 946.335 610.055 889.702 610.055 889.702L612.692 833.297L614.01 804.837L618.308 711.899L619.167 692.887L567.992 679.545L563.636 656.067L546.73 564.789L670.4 558.032L691.604 556.886L826.105 548.01C830.862 551.904 837.567 556.543 845.418 561.582C861.464 571.889 882.439 583.915 901.809 594.566C936.938 613.864 963.128 646.275 974.819 684.584L977.283 692.601L904.158 732.342L894.817 737.381L900.433 804.723Z" fill="url(#paint27_linear_200_2)"/>
<path d="M894.932 737.438L900.434 804.723H614.01L618.308 711.784H901.866L904.216 732.399L894.932 737.438Z" fill="url(#paint28_linear_200_2)"/>
<path d="M713.666 671.07C713.666 671.07 726.79 646.847 749.541 658.243C749.541 658.243 762.378 643.755 779.456 655.208C779.456 655.208 789.828 641.693 803.181 647.592C816.534 653.547 813.84 668.836 813.84 668.836L769.828 696.495L710.457 691.055L713.666 671.07Z" fill="url(#paint29_linear_200_2)"/>
<path d="M675.843 719.973C675.843 719.973 669.654 698.957 689.425 691.57C689.425 691.57 687.19 666.603 716.646 666.603C716.646 666.603 731.202 665.801 733.208 686.874C733.208 686.874 743.868 679.946 750.744 686.645L755.214 706.172L682.262 733.372L675.843 719.973Z" fill="url(#paint30_linear_200_2)"/>
<path d="M665.184 738.24C665.184 738.24 665.699 716.995 685.471 713.273C685.471 713.273 686.216 698.671 702.262 696.724C718.308 694.72 719.053 705.371 719.053 705.371C719.053 705.371 730.4 695.464 739.569 710.295C748.796 725.184 665.184 738.24 665.184 738.24Z" fill="url(#paint31_linear_200_2)"/>
<path d="M723.352 717.396C723.352 717.396 723.867 696.151 743.639 692.429C743.639 692.429 744.383 677.827 760.43 675.88C776.476 673.876 777.221 684.527 777.221 684.527C777.221 684.527 788.568 674.62 797.737 689.451C806.906 704.282 723.352 717.396 723.352 717.396Z" fill="url(#paint32_linear_200_2)"/>
<path d="M769.828 701.648C769.828 701.648 770.344 680.404 790.115 676.682C790.115 676.682 790.86 662.079 806.906 660.132C822.952 658.128 823.697 668.779 823.697 668.779C823.697 668.779 835.044 658.873 844.213 673.704C853.383 688.535 769.828 701.648 769.828 701.648Z" fill="url(#paint33_linear_200_2)"/>
<path d="M879.859 876.416C875.618 881.513 870.919 885.922 865.761 889.759C863.984 891.133 862.093 892.45 860.259 893.595C855.388 896.802 850.231 899.494 844.901 901.784C843.067 902.643 841.119 903.388 839.228 904.132C834.013 906.079 828.74 907.74 823.411 909.057C821.462 909.515 819.456 909.973 817.508 910.374C811.949 911.576 806.39 912.492 801.061 913.122C798.94 913.351 796.877 913.58 794.871 913.752C788.74 914.325 782.894 914.554 777.564 914.668C775.272 914.726 773.094 914.726 771.031 914.668C767.765 914.668 764.728 914.554 762.034 914.439C753.209 914.039 745.358 908.885 741.461 900.982L732.807 883.345C732.75 883.345 732.75 883.345 732.75 883.345L670.342 756.564L706.159 744.653L714.125 741.962L736.074 734.632L744.097 731.941L766.16 724.554L774.241 721.862L796.419 714.475L804.556 711.784L826.849 704.34L835.044 701.591L855.675 694.719L882.094 840.283L885.016 856.489C886.449 863.589 884.501 870.862 879.859 876.416Z" fill="url(#paint34_linear_200_2)"/>
<path d="M714.239 741.905L706.273 744.596L771.088 914.668C773.152 914.726 775.329 914.726 777.622 914.668L714.239 741.905ZM744.211 731.941L736.188 734.632L794.928 913.752C796.934 913.58 798.997 913.351 801.118 913.122L744.211 731.941ZM774.412 721.92L766.332 724.611L817.565 910.431C819.513 910.03 821.519 909.572 823.468 909.114L774.412 721.92ZM804.671 711.784L796.533 714.475L839.227 904.132C841.118 903.388 843.067 902.643 844.901 901.784L804.671 711.784ZM835.216 701.648L827.021 704.397L860.317 893.653C862.208 892.45 864.042 891.19 865.818 889.816L835.216 701.648Z" fill="url(#paint35_linear_200_2)"/>
<path d="M879.859 876.416C848.856 913.81 789.485 915.757 762.092 914.382C753.267 913.981 745.416 908.828 741.519 900.925L732.865 883.288C759.743 885.292 843.011 887.297 882.266 840.283L885.189 856.489C886.45 863.589 884.501 870.862 879.859 876.416Z" fill="url(#paint36_linear_200_2)"/>
<path d="M664.324 729.65L847.423 673.589C856.764 670.726 866.621 676.223 869.085 685.729C871.377 694.605 866.277 703.653 857.566 706.401L674.754 763.264C665.757 766.07 656.187 761.088 653.321 752.155L653.035 751.296C650.055 742.191 655.155 732.456 664.324 729.65Z" fill="url(#paint37_linear_200_2)"/>
<path d="M845.475 561.582L809.944 603.957C784.729 634.02 738.653 634.707 712.578 605.388L670.457 558.089L691.661 556.943L826.162 548.068C830.919 551.904 837.624 556.543 845.475 561.582Z" fill="url(#paint38_linear_200_2)"/>
<path d="M713.437 507.983L691.66 556.886L730.228 588.209C747.077 601.895 771.547 600.865 787.135 585.747L826.161 548.01L801.806 507.983H713.437V507.983Z" fill="url(#paint39_linear_200_2)"/>
<path d="M745.358 310.023L691.145 323.938C688.451 324.625 685.643 323.595 684.096 321.247C655.728 278.929 645.241 239.074 644.553 203.685C643.579 151.804 663.809 109.716 680.256 84.3479C684.325 77.9916 688.222 72.6661 691.431 68.5432C694.87 64.0766 701.976 65.7945 703.007 71.3491L709.655 107.196L736.991 254.306L741.518 278.643C741.575 278.986 741.69 279.33 741.805 279.674L749.77 301.434C751.146 305.099 749.083 309.107 745.358 310.023Z" fill="url(#paint40_linear_200_2)"/>
<path d="M709.711 107.196C676.301 129.872 654.868 176.256 644.553 203.742C643.349 138.863 675.27 89.3871 691.43 68.5432C694.869 64.0766 701.975 65.7945 703.006 71.3491L709.711 107.196Z" fill="url(#paint41_linear_200_2)"/>
<path opacity="0.5" d="M737.048 254.306L680.256 84.3479C684.325 77.9916 688.222 72.6661 691.431 68.5432C694.869 64.0766 701.975 65.7945 703.007 71.3491L709.655 107.196L737.048 254.306Z" fill="#FFCA83"/>
<path d="M774.413 310.023L828.626 323.938C831.32 324.625 834.128 323.595 835.675 321.247C864.042 278.929 874.53 239.074 875.217 203.685C876.192 151.804 855.962 109.716 839.515 84.3479C835.446 77.9916 831.549 72.6661 828.34 68.5432C824.901 64.0766 817.795 65.7945 816.763 71.3491L810.116 107.196L782.78 254.306L778.253 278.643C778.195 278.986 778.081 279.33 777.966 279.674L770 301.434C768.625 305.099 770.688 309.107 774.413 310.023Z" fill="url(#paint42_linear_200_2)"/>
<path d="M810.059 107.196C843.469 129.872 864.902 176.256 875.217 203.742C876.421 138.863 844.5 89.3871 828.34 68.5432C824.901 64.0766 817.795 65.7945 816.764 71.3491L810.059 107.196Z" fill="url(#paint43_linear_200_2)"/>
<path opacity="0.5" d="M782.723 254.306L839.515 84.3479C835.446 77.9916 831.549 72.6661 828.34 68.5432C824.901 64.0766 817.795 65.7945 816.763 71.3491L810.116 107.196L782.723 254.306Z" fill="#FFCA83"/>
<path d="M846.391 474.828C853.555 484.047 865.36 483.474 865.36 483.474C840.03 514.511 815.904 504.433 815.904 504.433C810.803 513.08 804.156 519.436 797.221 524.131C774.757 539.306 744.9 539.306 722.492 524.131C715.558 519.436 708.853 513.08 703.753 504.433C703.753 504.433 679.626 514.511 654.296 483.474C654.296 483.474 666.101 484.047 673.265 474.828C673.265 474.828 648.565 478.55 640.771 461.027C640.771 461.027 670.113 463.89 669.826 412.754C669.769 399.24 669.712 383.492 669.712 367.516V367.459C669.712 336.651 685.185 309.508 708.738 293.245C716.131 288.149 724.326 284.083 733.151 281.392C735.96 280.533 738.882 279.788 741.805 279.158C747.65 277.956 753.725 277.326 759.914 277.326C766.103 277.326 772.178 277.956 778.023 279.158C780.946 279.731 783.811 280.475 786.62 281.392C795.388 284.083 803.64 288.091 811.033 293.245C834.643 309.508 850.059 336.708 850.059 367.516C850.059 383.435 850.002 399.24 849.945 412.754C849.658 463.89 879 461.027 879 461.027C871.091 478.607 846.391 474.828 846.391 474.828Z" fill="url(#paint44_linear_200_2)"/>
<path d="M698.08 371.925C707.823 371.467 717.049 374.101 724.728 378.396C732.465 382.691 738.826 388.532 743.754 395.174C744.901 396.72 744.557 398.839 743.067 399.984C741.749 400.958 740.029 400.843 738.826 399.87L738.769 399.812C733.038 395.174 726.505 391.796 719.8 390.078C713.152 388.36 706.447 388.36 700.716 390.249C695.788 391.853 690.516 389.161 688.911 384.237C687.306 379.312 690 374.044 694.928 372.441C695.731 372.211 696.533 372.04 697.335 371.982L698.08 371.925Z" fill="#F87C38"/>
<path d="M827.022 371.925C817.28 371.467 808.054 374.101 800.374 378.396C792.638 382.691 786.277 388.532 781.348 395.174C780.202 396.72 780.546 398.839 782.036 399.984C783.354 400.958 785.073 400.843 786.277 399.87L786.334 399.812C792.065 395.174 798.598 391.796 805.303 390.078C811.951 388.36 818.656 388.36 824.386 390.249C829.315 391.853 834.587 389.161 836.192 384.237C837.796 379.312 835.103 374.044 830.174 372.441C829.372 372.211 828.57 372.04 827.767 371.982L827.022 371.925Z" fill="#F87C38"/>
<path opacity="0.6" d="M777.91 279.96V333.673C777.91 343.694 769.772 351.768 759.801 351.768C749.772 351.768 741.691 343.694 741.691 333.673V279.96C741.691 279.674 741.691 279.445 741.691 279.158C747.537 277.956 753.611 277.326 759.801 277.326C765.99 277.326 772.064 277.956 777.91 279.158C777.91 279.502 777.91 279.731 777.91 279.96Z" fill="#FFCA83"/>
<g opacity="0.6">
<path opacity="0.6" d="M733.036 281.449V324.11C733.036 330.18 728.108 335.105 722.033 335.105H719.626C713.551 335.105 708.623 330.18 708.623 324.11V293.302C716.073 288.149 724.268 284.14 733.036 281.449Z" fill="#FFCA83"/>
<path opacity="0.6" d="M810.917 293.245V324.053C810.917 330.123 805.988 335.047 799.914 335.047H797.507C791.432 335.047 786.504 330.123 786.504 324.053V281.392C795.329 284.14 803.524 288.149 810.917 293.245Z" fill="#FFCA83"/>
</g>
<path d="M766.62 442.932H759.8H752.98C749.141 442.932 746.104 446.024 746.104 449.804V450.662C746.104 453.354 747.651 455.759 750.058 456.904L756.877 460.168C758.711 461.027 760.889 461.027 762.723 460.168L769.542 456.904C771.949 455.759 773.497 453.354 773.497 450.662V449.804C773.497 446.024 770.402 442.932 766.62 442.932Z" fill="#F87C38"/>
<path d="M799.286 472.537V476.202C799.286 478.951 798.999 481.585 798.426 484.162C797.108 490.174 794.3 495.614 790.46 500.081C783.698 507.926 773.726 512.908 762.609 512.908C751.09 512.908 740.774 507.582 734.069 499.279C730.574 494.984 728.052 489.831 726.791 484.162C726.218 481.585 725.932 478.951 725.932 476.202V472.537H799.286Z" fill="url(#paint45_linear_200_2)"/>
<path d="M799.284 472.537V476.202C799.284 478.951 798.998 481.585 798.425 484.162H726.733C726.16 481.585 725.873 478.951 725.873 476.202V472.537H799.284Z" fill="url(#paint46_linear_200_2)"/>
<path d="M790.403 500.081C783.64 507.926 773.669 512.908 762.551 512.908C751.032 512.908 740.717 507.582 734.012 499.279C739.857 493.037 750.115 488.857 761.863 488.857C774.07 488.8 784.729 493.324 790.403 500.081Z" fill="url(#paint47_linear_200_2)"/>
<path d="M516.185 662.366C516.185 662.366 461.857 661.335 404.091 659.159C339.161 656.754 269.934 652.86 268.157 647.477C265.979 640.663 288.616 626.92 288.616 626.92H232.913C226.494 626.92 223.342 619.017 228.099 614.608C274.575 572.176 506.213 565.762 506.213 565.762L507.99 583.17L516.185 662.366Z" fill="url(#paint48_linear_200_2)"/>
<path d="M516.186 662.366C516.186 662.366 461.858 661.335 404.092 659.159C501.286 643.869 500.311 615.524 507.991 583.17L516.186 662.366Z" fill="url(#paint49_linear_200_2)"/>
<path d="M718.71 437.377C725.61 437.377 731.203 429.942 731.203 420.771C731.203 411.599 725.61 404.164 718.71 404.164C711.81 404.164 706.217 411.599 706.217 420.771C706.217 429.942 711.81 437.377 718.71 437.377Z" fill="url(#paint50_linear_200_2)"/>
<path d="M721.747 418.423C723.836 418.423 725.53 416.731 725.53 414.644C725.53 412.556 723.836 410.864 721.747 410.864C719.658 410.864 717.965 412.556 717.965 414.644C717.965 416.731 719.658 418.423 721.747 418.423Z" fill="white"/>
<path d="M798.712 437.377C805.612 437.377 811.205 429.942 811.205 420.771C811.205 411.599 805.612 404.164 798.712 404.164C791.812 404.164 786.219 411.599 786.219 420.771C786.219 429.942 791.812 437.377 798.712 437.377Z" fill="url(#paint51_linear_200_2)"/>
<path d="M801.806 418.423C803.895 418.423 805.588 416.731 805.588 414.644C805.588 412.556 803.895 410.864 801.806 410.864C799.717 410.864 798.023 412.556 798.023 414.644C798.023 416.731 799.717 418.423 801.806 418.423Z" fill="white"/>
<path d="M894.931 737.438L886.965 674.162C886.965 674.162 906.22 711.669 928.284 719.286L894.931 737.438Z" fill="url(#paint52_linear_200_2)"/>
<path d="M977.34 692.601C977.34 692.601 991.839 693.288 1002.96 720.488C1006.45 728.963 1003.01 738.698 995.163 743.393C973.615 756.22 929.374 780.443 898.657 782.962L894.932 737.381L977.34 692.601Z" fill="url(#paint53_linear_200_2)"/>
<path d="M621.459 647.821L619.224 692.773L568.049 679.43L563.693 655.952C606.789 672.387 621.459 647.821 621.459 647.821Z" fill="url(#paint54_linear_200_2)"/>
<path d="M531.258 552.878H517.676C505.125 552.878 495.784 564.388 498.306 576.642L516.186 662.308C518.535 673.647 527.246 682.637 538.536 685.386L557.161 689.967C563.293 691.455 568.966 686.13 567.82 679.946L547.189 566.22C545.814 558.49 539.051 552.878 531.258 552.878Z" fill="url(#paint55_linear_200_2)"/>
<path d="M989.489 746.715C966.565 760 926.909 780.672 898.599 782.963L899.286 791.438L781.805 773.972C781.805 773.972 764.327 751.926 751.776 756.85C739.226 761.775 758.71 778.267 758.71 778.267C758.71 778.267 716.647 765.154 705.128 780.386C679.798 813.828 721.461 831.636 768.567 842.803C815.732 854.026 947.597 888.9 989.775 853.339C1023.3 825.166 1000.43 768.876 989.489 746.715Z" fill="url(#paint56_linear_200_2)"/>
<path d="M899.343 791.495L901.808 813.541L849.199 784.051L899.343 791.495Z" fill="url(#paint57_linear_200_2)"/>
<path opacity="0.5" d="M705.014 463.489C716.503 463.489 725.816 459.362 725.816 454.27C725.816 449.178 716.503 445.051 705.014 445.051C693.525 445.051 684.211 449.178 684.211 454.27C684.211 459.362 693.525 463.489 705.014 463.489Z" fill="#FFCA83"/>
<path opacity="0.5" d="M808.625 463.489C820.114 463.489 829.428 459.362 829.428 454.27C829.428 449.178 820.114 445.051 808.625 445.051C797.136 445.051 787.822 449.178 787.822 454.27C787.822 459.362 797.136 463.489 808.625 463.489Z" fill="#FFCA83"/>
<path d="M806.907 939.521C793.497 941.754 778.711 943.243 762.55 943.701C664.44 946.335 610.055 889.702 610.055 889.702L612.691 833.297C635.27 863.59 691.718 920.28 806.907 939.521Z" fill="url(#paint58_linear_200_2)"/>
<path d="M56.9781 1367.97H192.167V818.695H56.9781C28.2669 818.695 5 841.944 5 870.633V1316.09C5 1344.72 28.2669 1367.97 56.9781 1367.97Z" fill="url(#paint59_linear_200_2)"/>
<path d="M100.188 1004.51C135.889 1004.51 164.831 975.596 164.831 939.922C164.831 904.248 135.889 875.328 100.188 875.328C64.4866 875.328 35.5449 904.248 35.5449 939.922C35.5449 975.596 64.4866 1004.51 100.188 1004.51Z" fill="url(#paint60_linear_200_2)"/>
<path d="M100.189 984.129C124.623 984.129 144.43 964.337 144.43 939.922C144.43 915.507 124.623 895.714 100.189 895.714C75.7549 895.714 55.9473 915.507 55.9473 939.922C55.9473 964.337 75.7549 984.129 100.189 984.129Z" fill="url(#paint61_linear_200_2)"/>
<path d="M1271.16 223.155H987.025C964.159 223.155 945.591 241.708 945.591 264.556V471.506L920.376 491.95C911.78 498.936 916.708 512.851 927.826 512.851H987.025H1271.16C1294.02 512.851 1312.59 494.297 1312.59 471.449V264.556C1312.59 241.708 1294.08 223.155 1271.16 223.155Z" fill="url(#paint62_linear_200_2)"/>
<path d="M1443.02 1367.97H1307.83V818.695H1443.02C1471.73 818.695 1495 841.944 1495 870.633V1316.09C1495 1344.72 1471.73 1367.97 1443.02 1367.97Z" fill="url(#paint63_linear_200_2)"/>
<path d="M1399.81 1004.51C1435.51 1004.51 1464.45 975.596 1464.45 939.922C1464.45 904.248 1435.51 875.328 1399.81 875.328C1364.11 875.328 1335.17 904.248 1335.17 939.922C1335.17 975.596 1364.11 1004.51 1399.81 1004.51Z" fill="url(#paint64_linear_200_2)"/>
<path d="M1399.81 984.129C1424.25 984.129 1444.05 964.337 1444.05 939.922C1444.05 915.507 1424.25 895.714 1399.81 895.714C1375.38 895.714 1355.57 915.507 1355.57 939.922C1355.57 964.337 1375.38 984.129 1399.81 984.129Z" fill="url(#paint65_linear_200_2)"/>
<path d="M1195.34 459.767H1069.78C1056.94 459.767 1046.57 449.345 1046.57 436.576V359.041H1218.6V436.518C1218.55 449.345 1208.17 459.767 1195.34 459.767Z" fill="url(#paint66_linear_200_2)"/>
<path d="M1181.99 267.763L1185.71 273.26L1054.3 361.217L1041.29 341.805L1158.78 263.182C1159.52 262.666 1160.27 262.265 1161.01 261.922C1162.79 261.063 1164.62 260.605 1166.51 260.433C1172.41 259.86 1178.43 262.495 1181.99 267.763Z" fill="url(#paint67_linear_200_2)"/>
<path d="M1065.88 325.37L1067.37 352.513L1062.04 356.063L1060.55 328.92L1065.88 325.37ZM1080.61 315.463L1082.1 342.606L1087.43 339.056L1085.94 311.913L1080.61 315.463ZM1100.72 302.006L1102.21 329.149L1107.54 325.599L1106.05 298.456L1100.72 302.006ZM1120.84 288.549L1122.33 315.692L1127.66 312.142L1126.17 284.999L1120.84 288.549ZM1140.95 275.093L1142.44 302.235L1147.77 298.685L1146.28 271.542L1140.95 275.093ZM1161.01 261.922L1162.5 288.779L1167.83 285.228L1166.46 260.433C1164.62 260.605 1162.79 261.063 1161.01 261.922Z" fill="#FFCA83"/>
<path d="M1218.55 347.359H1060.44V370.723H1218.55V347.359Z" fill="url(#paint68_linear_200_2)"/>
<path d="M1046.51 381.545C1058.95 381.545 1069.03 371.47 1069.03 359.041C1069.03 346.612 1058.95 336.536 1046.51 336.536C1034.07 336.536 1023.99 346.612 1023.99 359.041C1023.99 371.47 1034.07 381.545 1046.51 381.545Z" fill="url(#paint69_linear_200_2)"/>
<path d="M1046.51 370.723C1052.97 370.723 1058.2 365.492 1058.2 359.041C1058.2 352.589 1052.97 347.359 1046.51 347.359C1040.05 347.359 1034.82 352.589 1034.82 359.041C1034.82 365.492 1040.05 370.723 1046.51 370.723Z" fill="url(#paint70_linear_200_2)"/>
<path d="M1090.01 347.359L1076.14 370.723H1069.72L1083.59 347.359H1090.01ZM1107.77 347.359L1093.9 370.723H1100.32L1114.19 347.359H1107.77ZM1131.95 347.359L1118.09 370.723H1124.5L1138.37 347.359H1131.95ZM1156.14 347.359L1142.27 370.723H1148.69L1162.56 347.359H1156.14ZM1180.38 347.359L1166.51 370.723H1172.93L1186.8 347.359H1180.38ZM1204.51 347.359L1190.64 370.723H1197.06L1210.93 347.359H1204.51Z" fill="#FFCA83"/>
<path d="M1218.55 394.258H1046.51V430.677H1218.55V394.258Z" fill="url(#paint71_linear_200_2)"/>
<defs>
<linearGradient id="paint0_linear_200_2" x1="750.001" y1="1041.74" x2="750.001" y2="442.938" gradientUnits="userSpaceOnUse">
<stop stop-color="#03192E"/>
<stop offset="0.5" stop-color="#223C6A"/>
<stop offset="1" stop-color="#4A74A2"/>
</linearGradient>
<linearGradient id="paint1_linear_200_2" x1="750.001" y1="1635.12" x2="750.001" y2="965.87" gradientUnits="userSpaceOnUse">
<stop stop-color="#03192E"/>
<stop offset="0.5" stop-color="#223C6A"/>
<stop offset="1" stop-color="#4A74A2"/>
</linearGradient>
<linearGradient id="paint2_linear_200_2" x1="402.693" y1="1252.12" x2="402.693" y2="692.83" gradientUnits="userSpaceOnUse">
<stop stop-color="#03192E"/>
<stop offset="0.5" stop-color="#223C6A"/>
<stop offset="1" stop-color="#4A74A2"/>
</linearGradient>
<linearGradient id="paint3_linear_200_2" x1="452.629" y1="1252.12" x2="452.629" y2="692.83" gradientUnits="userSpaceOnUse">
<stop stop-color="#03192E"/>
<stop offset="0.5" stop-color="#223C6A"/>
<stop offset="1" stop-color="#4A74A2"/>
</linearGradient>
<linearGradient id="paint4_linear_200_2" x1="1137.35" y1="1252.12" x2="1137.35" y2="692.829" gradientUnits="userSpaceOnUse">
<stop stop-color="#03192E"/>
<stop offset="0.5" stop-color="#223C6A"/>
<stop offset="1" stop-color="#4A74A2"/>
</linearGradient>
<linearGradient id="paint5_linear_200_2" x1="1170.64" y1="1252.12" x2="1170.64" y2="692.83" gradientUnits="userSpaceOnUse">
<stop stop-color="#03192E"/>
<stop offset="0.5" stop-color="#223C6A"/>
<stop offset="1" stop-color="#4A74A2"/>
</linearGradient>
<linearGradient id="paint6_linear_200_2" x1="750.001" y1="1056.12" x2="750.001" y2="1712.45" gradientUnits="userSpaceOnUse">
<stop stop-color="#03192E"/>
<stop offset="0.5" stop-color="#223C6A"/>
<stop offset="1" stop-color="#4A74A2"/>
</linearGradient>
<linearGradient id="paint7_linear_200_2" x1="408.852" y1="455.802" x2="408.852" y2="-42.695" gradientUnits="userSpaceOnUse">
<stop stop-color="#03192E"/>
<stop offset="0.5" stop-color="#223C6A"/>
<stop offset="1" stop-color="#4A74A2"/>
</linearGradient>
<linearGradient id="paint8_linear_200_2" x1="408.852" y1="431.164" x2="408.852" y2="655.359" gradientUnits="userSpaceOnUse">
<stop stop-color="#03192E"/>
<stop offset="0.5" stop-color="#223C6A"/>
<stop offset="1" stop-color="#4A74A2"/>
</linearGradient>
<linearGradient id="paint9_linear_200_2" x1="408.852" y1="482.004" x2="408.852" y2="64.8832" gradientUnits="userSpaceOnUse">
<stop stop-color="#386E9F"/>
<stop offset="1" stop-color="white"/>
</linearGradient>
<linearGradient id="paint10_linear_200_2" x1="320.981" y1="478.925" x2="320.981" y2="263.561" gradientUnits="userSpaceOnUse">
<stop stop-color="#03192E"/>
<stop offset="0.5" stop-color="#223C6A"/>
<stop offset="1" stop-color="#4A74A2"/>
</linearGradient>
<linearGradient id="paint11_linear_200_2" x1="320.981" y1="362.646" x2="320.981" y2="248.126" gradientUnits="userSpaceOnUse">
<stop stop-color="#386E9F"/>
<stop offset="1" stop-color="white"/>
</linearGradient>
<linearGradient id="paint12_linear_200_2" x1="320.981" y1="468.136" x2="320.981" y2="280.523" gradientUnits="userSpaceOnUse">
<stop stop-color="#386E9F"/>
<stop offset="1" stop-color="white"/>
</linearGradient>
<linearGradient id="paint13_linear_200_2" x1="320.982" y1="468.136" x2="320.982" y2="280.523" gradientUnits="userSpaceOnUse">
<stop stop-color="#386E9F"/>
<stop offset="1" stop-color="white"/>
</linearGradient>
<linearGradient id="paint14_linear_200_2" x1="475.721" y1="356.696" x2="475.721" y2="178.151" gradientUnits="userSpaceOnUse">
<stop stop-color="#03192E"/>
<stop offset="0.5" stop-color="#223C6A"/>
<stop offset="1" stop-color="#4A74A2"/>
</linearGradient>
<linearGradient id="paint15_linear_200_2" x1="475.722" y1="399.208" x2="475.722" y2="297.27" gradientUnits="userSpaceOnUse">
<stop stop-color="#386E9F"/>
<stop offset="1" stop-color="white"/>
</linearGradient>
<linearGradient id="paint16_linear_200_2" x1="408.852" y1="500.327" x2="408.852" y2="371.932" gradientUnits="userSpaceOnUse">
<stop stop-color="#03192E"/>
<stop offset="0.5" stop-color="#223C6A"/>
<stop offset="1" stop-color="#4A74A2"/>
</linearGradient>
<linearGradient id="paint17_linear_200_2" x1="767.765" y1="1047.13" x2="767.765" y2="769.023" gradientUnits="userSpaceOnUse">
<stop stop-color="#03192E"/>
<stop offset="0.5" stop-color="#223C6A"/>
<stop offset="1" stop-color="#4A74A2"/>
</linearGradient>
<linearGradient id="paint18_linear_200_2" x1="551.898" y1="1309.66" x2="551.898" y2="893.65" gradientUnits="userSpaceOnUse">
<stop stop-color="#03192E"/>
<stop offset="0.5" stop-color="#223C6A"/>
<stop offset="1" stop-color="#4A74A2"/>
</linearGradient>
<linearGradient id="paint19_linear_200_2" x1="547.722" y1="1343.23" x2="547.722" y2="899.608" gradientUnits="userSpaceOnUse">
<stop stop-color="#03192E"/>
<stop offset="0.5" stop-color="#223C6A"/>
<stop offset="1" stop-color="#4A74A2"/>
</linearGradient>
<linearGradient id="paint20_linear_200_2" x1="350.325" y1="922.514" x2="1004.83" y2="1162.09" gradientUnits="userSpaceOnUse">
<stop stop-color="#FF2A64"/>
<stop offset="1" stop-color="#FFAF48"/>
</linearGradient>
<linearGradient id="paint21_linear_200_2" x1="707.26" y1="1143.03" x2="707.26" y2="906.804" gradientUnits="userSpaceOnUse">
<stop stop-color="#386E9F"/>
<stop offset="1" stop-color="white"/>
</linearGradient>
<linearGradient id="paint22_linear_200_2" x1="985.599" y1="1309.66" x2="985.599" y2="893.65" gradientUnits="userSpaceOnUse">
<stop stop-color="#03192E"/>
<stop offset="0.5" stop-color="#223C6A"/>
<stop offset="1" stop-color="#4A74A2"/>
</linearGradient>
<linearGradient id="paint23_linear_200_2" x1="989.876" y1="1343.23" x2="989.876" y2="899.608" gradientUnits="userSpaceOnUse">
<stop stop-color="#03192E"/>
<stop offset="0.5" stop-color="#223C6A"/>
<stop offset="1" stop-color="#4A74A2"/>
</linearGradient>
<linearGradient id="paint24_linear_200_2" x1="1284.41" y1="882.583" x2="634.789" y2="1135.1" gradientUnits="userSpaceOnUse">
<stop stop-color="#FF2A64"/>
<stop offset="1" stop-color="#FFAF48"/>
</linearGradient>
<linearGradient id="paint25_linear_200_2" x1="831.434" y1="1143.03" x2="831.434" y2="906.804" gradientUnits="userSpaceOnUse">
<stop stop-color="#386E9F"/>
<stop offset="1" stop-color="white"/>
</linearGradient>
<linearGradient id="paint26_linear_200_2" x1="759.304" y1="1116.36" x2="759.304" y2="896.062" gradientUnits="userSpaceOnUse">
<stop stop-color="#386E9F"/>
<stop offset="1" stop-color="white"/>
</linearGradient>
<linearGradient id="paint27_linear_200_2" x1="762.049" y1="1081.3" x2="762.049" y2="573.306" gradientUnits="userSpaceOnUse">
<stop stop-color="#03192E"/>
<stop offset="0.5" stop-color="#223C6A"/>
<stop offset="1" stop-color="#4A74A2"/>
</linearGradient>
<linearGradient id="paint28_linear_200_2" x1="759.12" y1="1021.53" x2="759.12" y2="716.938" gradientUnits="userSpaceOnUse">
<stop stop-color="#03192E"/>
<stop offset="0.5" stop-color="#223C6A"/>
<stop offset="1" stop-color="#4A74A2"/>
</linearGradient>
<linearGradient id="paint29_linear_200_2" x1="750.716" y1="640.501" x2="767.563" y2="693.104" gradientUnits="userSpaceOnUse">
<stop stop-color="white"/>
<stop offset="1" stop-color="#F9E4CE"/>
</linearGradient>
<linearGradient id="paint30_linear_200_2" x1="698.135" y1="660.863" x2="715.207" y2="708.747" gradientUnits="userSpaceOnUse">
<stop stop-color="white"/>
<stop offset="1" stop-color="#F9E4CE"/>
</linearGradient>
<linearGradient id="paint31_linear_200_2" x1="694.356" y1="695.029" x2="701.693" y2="721.404" gradientUnits="userSpaceOnUse">
<stop stop-color="white"/>
<stop offset="1" stop-color="#F9E4CE"/>
</linearGradient>
<linearGradient id="paint32_linear_200_2" x1="748.832" y1="664.246" x2="763.357" y2="712.502" gradientUnits="userSpaceOnUse">
<stop stop-color="white"/>
<stop offset="1" stop-color="#F9E4CE"/>
</linearGradient>
<linearGradient id="paint33_linear_200_2" x1="798.925" y1="659.623" x2="809.857" y2="697.089" gradientUnits="userSpaceOnUse">
<stop stop-color="white"/>
<stop offset="1" stop-color="#F9E4CE"/>
</linearGradient>
<linearGradient id="paint34_linear_200_2" x1="836.039" y1="1002.61" x2="758.772" y2="708.588" gradientUnits="userSpaceOnUse">
<stop stop-color="#386E9F"/>
<stop offset="1" stop-color="white"/>
</linearGradient>
<linearGradient id="paint35_linear_200_2" x1="813.682" y1="913.935" x2="747.197" y2="618.121" gradientUnits="userSpaceOnUse">
<stop stop-color="#386E9F"/>
<stop offset="1" stop-color="white"/>
</linearGradient>
<linearGradient id="paint36_linear_200_2" x1="809.902" y1="871.19" x2="844.043" y2="1007.86" gradientUnits="userSpaceOnUse">
<stop stop-color="#386E9F"/>
<stop offset="1" stop-color="white"/>
</linearGradient>
<linearGradient id="paint37_linear_200_2" x1="736.765" y1="928.171" x2="761.92" y2="708.794" gradientUnits="userSpaceOnUse">
<stop stop-color="#FF2A64"/>
<stop offset="1" stop-color="#FFAF48"/>
</linearGradient>
<linearGradient id="paint38_linear_200_2" x1="757.95" y1="738.455" x2="757.95" y2="502.79" gradientUnits="userSpaceOnUse">
<stop stop-color="#03192E"/>
<stop offset="0.5" stop-color="#223C6A"/>
<stop offset="1" stop-color="#4A74A2"/>
</linearGradient>
<linearGradient id="paint39_linear_200_2" x1="758.906" y1="423.783" x2="758.906" y2="652.757" gradientUnits="userSpaceOnUse">
<stop stop-color="#FF2A64"/>
<stop offset="1" stop-color="#FFAF48"/>
</linearGradient>
<linearGradient id="paint40_linear_200_2" x1="697.383" y1="475.329" x2="697.383" y2="167.742" gradientUnits="userSpaceOnUse">
<stop stop-color="#FF2A64"/>
<stop offset="1" stop-color="#FFAF48"/>
</linearGradient>
<linearGradient id="paint41_linear_200_2" x1="677.125" y1="317.993" x2="677.125" y2="60.6701" gradientUnits="userSpaceOnUse">
<stop stop-color="#FF2A64"/>
<stop offset="1" stop-color="#FFAF48"/>
</linearGradient>
<linearGradient id="paint42_linear_200_2" x1="822.383" y1="475.329" x2="822.383" y2="167.742" gradientUnits="userSpaceOnUse">
<stop stop-color="#FF2A64"/>
<stop offset="1" stop-color="#FFAF48"/>
</linearGradient>
<linearGradient id="paint43_linear_200_2" x1="842.64" y1="317.993" x2="842.64" y2="60.6701" gradientUnits="userSpaceOnUse">
<stop stop-color="#FF2A64"/>
<stop offset="1" stop-color="#FFAF48"/>
</linearGradient>
<linearGradient id="paint44_linear_200_2" x1="759.795" y1="946.57" x2="759.795" y2="376.537" gradientUnits="userSpaceOnUse">
<stop stop-color="#FF2A64"/>
<stop offset="1" stop-color="#FFAF48"/>
</linearGradient>
<linearGradient id="paint45_linear_200_2" x1="762.541" y1="495.333" x2="762.541" y2="459.785" gradientUnits="userSpaceOnUse">
<stop stop-color="#03192E"/>
<stop offset="0.5" stop-color="#223C6A"/>
<stop offset="1" stop-color="#4A74A2"/>
</linearGradient>
<linearGradient id="paint46_linear_200_2" x1="762.54" y1="511.067" x2="762.54" y2="473.049" gradientUnits="userSpaceOnUse">
<stop stop-color="#386E9F"/>
<stop offset="1" stop-color="white"/>
</linearGradient>
<linearGradient id="paint47_linear_200_2" x1="762.197" y1="527.053" x2="762.197" y2="469.278" gradientUnits="userSpaceOnUse">
<stop stop-color="#FF2A64"/>
<stop offset="1" stop-color="#FFAF48"/>
</linearGradient>
<linearGradient id="paint48_linear_200_2" x1="941.386" y1="602.314" x2="283.963" y2="620.323" gradientUnits="userSpaceOnUse">
<stop stop-color="#FF2A64"/>
<stop offset="1" stop-color="#FFAF48"/>
</linearGradient>
<linearGradient id="paint49_linear_200_2" x1="745.474" y1="616.484" x2="301.593" y2="628.49" gradientUnits="userSpaceOnUse">
<stop stop-color="#FF2A64"/>
<stop offset="1" stop-color="#FFAF48"/>
</linearGradient>
<linearGradient id="paint50_linear_200_2" x1="718.684" y1="444.161" x2="718.684" y2="403.985" gradientUnits="userSpaceOnUse">
<stop stop-color="#03192E"/>
<stop offset="0.5" stop-color="#223C6A"/>
<stop offset="1" stop-color="#4A74A2"/>
</linearGradient>
<linearGradient id="paint51_linear_200_2" x1="798.711" y1="444.161" x2="798.711" y2="403.985" gradientUnits="userSpaceOnUse">
<stop stop-color="#03192E"/>
<stop offset="0.5" stop-color="#223C6A"/>
<stop offset="1" stop-color="#4A74A2"/>
</linearGradient>
<linearGradient id="paint52_linear_200_2" x1="907.636" y1="740.553" x2="907.636" y2="547.152" gradientUnits="userSpaceOnUse">
<stop stop-color="#03192E"/>
<stop offset="0.5" stop-color="#223C6A"/>
<stop offset="1" stop-color="#4A74A2"/>
</linearGradient>
<linearGradient id="paint53_linear_200_2" x1="866.624" y1="784.362" x2="1048.31" y2="682.649" gradientUnits="userSpaceOnUse">
<stop stop-color="#386E9F"/>
<stop offset="1" stop-color="white"/>
</linearGradient>
<linearGradient id="paint54_linear_200_2" x1="592.554" y1="740.553" x2="592.554" y2="547.152" gradientUnits="userSpaceOnUse">
<stop stop-color="#03192E"/>
<stop offset="0.5" stop-color="#223C6A"/>
<stop offset="1" stop-color="#4A74A2"/>
</linearGradient>
<linearGradient id="paint55_linear_200_2" x1="545.977" y1="742.263" x2="519.026" y2="504.906" gradientUnits="userSpaceOnUse">
<stop stop-color="#386E9F"/>
<stop offset="1" stop-color="white"/>
</linearGradient>
<linearGradient id="paint56_linear_200_2" x1="1199.12" y1="966.756" x2="818.945" y2="767.522" gradientUnits="userSpaceOnUse">
<stop stop-color="#FF2A64"/>
<stop offset="1" stop-color="#FFAF48"/>
</linearGradient>
<linearGradient id="paint57_linear_200_2" x1="1040.39" y1="935.136" x2="783.835" y2="707.177" gradientUnits="userSpaceOnUse">
<stop stop-color="#FF2A64"/>
<stop offset="1" stop-color="#FFAF48"/>
</linearGradient>
<linearGradient id="paint58_linear_200_2" x1="708.48" y1="1170.61" x2="708.48" y2="741.685" gradientUnits="userSpaceOnUse">
<stop stop-color="#03192E"/>
<stop offset="0.5" stop-color="#223C6A"/>
<stop offset="1" stop-color="#4A74A2"/>
</linearGradient>
<linearGradient id="paint59_linear_200_2" x1="98.5749" y1="1419.35" x2="98.5749" y2="536.952" gradientUnits="userSpaceOnUse">
<stop stop-color="#386E9F"/>
<stop offset="1" stop-color="white"/>
</linearGradient>
<linearGradient id="paint60_linear_200_2" x1="100.195" y1="1286.29" x2="100.195" y2="830.208" gradientUnits="userSpaceOnUse">
<stop stop-color="#386E9F"/>
<stop offset="1" stop-color="white"/>
</linearGradient>
<linearGradient id="paint61_linear_200_2" x1="100.195" y1="1000.14" x2="100.195" y2="829.305" gradientUnits="userSpaceOnUse">
<stop stop-color="#386E9F"/>
<stop offset="1" stop-color="white"/>
</linearGradient>
<linearGradient id="paint62_linear_200_2" x1="1114.32" y1="746.846" x2="1114.32" y2="209.158" gradientUnits="userSpaceOnUse">
<stop stop-color="#386E9F"/>
<stop offset="1" stop-color="white"/>
</linearGradient>
<linearGradient id="paint63_linear_200_2" x1="1401.42" y1="1419.35" x2="1401.42" y2="536.952" gradientUnits="userSpaceOnUse">
<stop stop-color="#386E9F"/>
<stop offset="1" stop-color="white"/>
</linearGradient>
<linearGradient id="paint64_linear_200_2" x1="1399.8" y1="1286.29" x2="1399.8" y2="830.208" gradientUnits="userSpaceOnUse">
<stop stop-color="#386E9F"/>
<stop offset="1" stop-color="white"/>
</linearGradient>
<linearGradient id="paint65_linear_200_2" x1="1399.8" y1="1000.14" x2="1399.8" y2="829.305" gradientUnits="userSpaceOnUse">
<stop stop-color="#386E9F"/>
<stop offset="1" stop-color="white"/>
</linearGradient>
<linearGradient id="paint66_linear_200_2" x1="1132.54" y1="363.845" x2="1132.54" y2="557.518" gradientUnits="userSpaceOnUse">
<stop stop-color="#03192E"/>
<stop offset="0.5" stop-color="#223C6A"/>
<stop offset="1" stop-color="#4A74A2"/>
</linearGradient>
<linearGradient id="paint67_linear_200_2" x1="968.816" y1="404.146" x2="1227.22" y2="231.342" gradientUnits="userSpaceOnUse">
<stop stop-color="#FF2A64"/>
<stop offset="1" stop-color="#FFAF48"/>
</linearGradient>
<linearGradient id="paint68_linear_200_2" x1="794.315" y1="570.369" x2="1190.64" y2="327.35" gradientUnits="userSpaceOnUse">
<stop stop-color="#FF2A64"/>
<stop offset="1" stop-color="#FFAF48"/>
</linearGradient>
<linearGradient id="paint69_linear_200_2" x1="1046.53" y1="478.925" x2="1046.53" y2="333.266" gradientUnits="userSpaceOnUse">
<stop stop-color="#03192E"/>
<stop offset="0.5" stop-color="#223C6A"/>
<stop offset="1" stop-color="#4A74A2"/>
</linearGradient>
<linearGradient id="paint70_linear_200_2" x1="1046.53" y1="382.421" x2="1046.53" y2="313.49" gradientUnits="userSpaceOnUse">
<stop stop-color="#03192E"/>
<stop offset="0.5" stop-color="#223C6A"/>
<stop offset="1" stop-color="#4A74A2"/>
</linearGradient>
<linearGradient id="paint71_linear_200_2" x1="1132.54" y1="522.679" x2="1132.54" y2="372.663" gradientUnits="userSpaceOnUse">
<stop stop-color="#03192E"/>
<stop offset="0.5" stop-color="#223C6A"/>
<stop offset="1" stop-color="#4A74A2"/>
</linearGradient>
</defs>
</svg>
