<svg width="1500" height="1500" viewBox="0 0 1500 1500" fill="none" xmlns="http://www.w3.org/2000/svg">
<path d="M812.306 1265.97L869.335 1370.09L964.648 1325.08L888.731 1218.64L812.306 1265.97Z" fill="url(#paint0_linear_200_2)"/>
<path d="M676.466 1024.28L777.497 1227.25L790.379 1253.09L806.735 1286.01L898.14 1232.54L915.147 1222.55L898.647 1190.71L897.344 1188.18L857.612 1111.69L822.295 1043.53L901.976 932.966L915.147 914.659L933.095 878.985L942.648 860.027L944.82 855.758L945.326 854.745L890.107 841.865L811.222 823.485L790.234 854.817L676.466 1024.28Z" fill="url(#paint1_linear_200_2)"/>
<path d="M777.496 1227.25L790.378 1253.09L806.806 1286.01L898.211 1232.46L915.219 1222.48L898.718 1190.71L897.415 1188.18L857.683 1111.69C848.275 1141.65 825.912 1194.18 777.496 1227.25Z" fill="url(#paint2_linear_200_2)"/>
<path d="M871.218 1219.8L875.85 1217.48L802.61 1071.61C793.419 1053.37 797.616 1031.01 812.742 1017.34L917.029 916.467L913.483 912.777L809.268 1013.57C792.478 1028.77 787.846 1053.59 798.05 1073.92L871.218 1219.8Z" fill="url(#paint3_linear_200_2)"/>
<path d="M790.378 1253.09L806.734 1286.01L898.139 1232.54L915.146 1222.55L898.646 1190.71L897.343 1188.18L790.378 1253.09Z" fill="url(#paint4_linear_200_2)"/>
<path d="M897.053 1317.56H1030.72L1032.24 1282.03L1037.09 1168.93L1047.51 928.407L1050.48 860.027H902.915L897.849 1256.27L897.487 1282.03L897.053 1317.56Z" fill="url(#paint5_linear_200_2)"/>
<path d="M897.055 1317.56H1030.73L1032.24 1282.03L1037.09 1168.93C1018.28 1202.51 978.979 1244.19 897.851 1256.27L897.489 1282.03L897.055 1317.56Z" fill="url(#paint6_linear_200_2)"/>
<path d="M999.388 1304.24L1016.97 904.094L1011.84 903.877L994.178 1304.03L999.388 1304.24Z" fill="url(#paint7_linear_200_2)"/>
<path d="M978.328 867.263C978.328 867.263 985.276 924.717 1047.44 928.407L1050.41 860.027H1018.28L978.328 867.263Z" fill="url(#paint8_linear_200_2)"/>
<path d="M790.234 854.817C831.92 875.874 870.856 881.88 902.627 881.445C913.7 881.301 923.976 880.36 933.095 879.058C963.853 874.571 982.814 865.382 982.814 865.382L961.899 860.099L944.892 855.758L890.179 841.865L811.294 823.485L790.234 854.817Z" fill="url(#paint9_linear_200_2)"/>
<path d="M794.939 833.76C897.417 892.444 1064.67 865.382 1064.67 865.382L1067.13 826.814L1071.4 759.519L1109.1 741.646L1022.33 522.396L845.309 605.465C844.875 687.955 820.196 767.262 805.505 807.06C799.281 823.919 794.939 833.76 794.939 833.76Z" fill="url(#paint10_linear_200_2)"/>
<path d="M794.938 833.76C897.416 892.444 1064.67 865.382 1064.67 865.382L1067.13 826.814C944.964 863.428 838.578 822.327 805.504 807.132C799.28 823.919 794.938 833.76 794.938 833.76Z" fill="url(#paint11_linear_200_2)"/>
<path d="M908.489 799.607C908.489 799.607 917.463 802.573 931.069 806.698C961.899 816.105 1016.61 831.807 1043.68 833.399C1044.48 833.471 1045.27 833.471 1045.99 833.543C1076.32 834.412 1123.94 833.977 1143.84 773.846C1148.47 759.809 1151.66 742.515 1152.74 721.168C1153.97 696.494 1150.35 673.411 1143.48 652.137C1137.26 632.528 1128.28 614.438 1118 598.157C1079.07 536 1021.32 499.313 1021.32 499.313L998.447 545.696L1025.3 601.051C1028.55 608.287 1031.3 615.378 1033.62 622.325C1038.83 638.099 1041.72 652.861 1043.17 665.813C1043.97 672.76 1044.33 679.2 1044.48 684.989C1044.91 705.249 1042.16 717.912 1042.16 717.912L950.682 713.643L922.529 712.341L908.489 799.607Z" fill="url(#paint12_linear_200_2)"/>
<path d="M822.296 539.473L833.803 715.09L834.744 729.635H917.971L979.487 618.996L953.216 591.644C1035.94 558.648 1021.39 499.458 1021.39 499.458L874.042 517.91L847.554 521.238L833.803 531.224L822.296 539.473Z" fill="url(#paint13_linear_200_2)"/>
<path d="M833.729 531.151V715.09H882.218L908.489 647.072L953.143 531.224L873.968 517.837L847.552 521.166L833.729 531.151Z" fill="url(#paint14_linear_200_2)"/>
<path d="M908.489 799.607C908.489 799.607 917.463 802.573 931.068 806.698C956.471 771.386 953.214 729.779 950.609 713.571L922.456 712.268L908.489 799.607Z" fill="url(#paint15_linear_200_2)"/>
<path d="M827.432 702.21C827.287 702.572 829.748 704.019 833.729 705.973C838.722 708.361 846.032 711.689 853.848 715.163H882.145L908.416 647.144L908.344 553.511L880.987 549.314C880.987 549.314 847.841 644.178 833.656 684.482C830.038 694.974 827.649 701.776 827.432 702.21Z" fill="url(#paint16_linear_200_2)"/>
<path d="M917.969 530.862L916.304 555.392C915.87 561.398 910.225 565.667 904.291 564.437L876.934 558.503C870.927 557.201 867.598 550.833 869.842 545.117L878.96 522.396L917.969 530.862Z" fill="url(#paint17_linear_200_2)"/>
<path d="M1012.99 482.598L1021.39 499.385C1021.39 499.385 982.815 572.613 847.552 521.166L868.829 504.378L1012.99 482.598Z" fill="url(#paint18_linear_200_2)"/>
<path d="M1042.09 717.912L1076.46 720.3C1076.46 720.3 1061.05 708.144 1044.48 684.989C1044.84 705.249 1042.09 717.912 1042.09 717.912Z" fill="url(#paint19_linear_200_2)"/>
<path d="M736.317 1444.98H863.763L938.668 1335.43L910.443 1296.28C910.443 1296.28 887.791 1305.84 864.27 1279.57L815.057 1304.17C815.057 1304.17 835.321 1340.35 787.339 1367.56C784.299 1369.3 780.97 1370.96 777.352 1372.62C751.443 1384.42 741.021 1401.78 737.041 1416.55C733.06 1432.18 736.317 1444.98 736.317 1444.98Z" fill="url(#paint20_linear_200_2)"/>
<path d="M848.202 1344.98C849.143 1344.69 849.939 1344.04 850.373 1343.1C851.387 1341.22 850.591 1338.9 848.709 1337.89L811.51 1318.64C809.628 1317.63 807.312 1318.43 806.299 1320.31C805.286 1322.19 806.082 1324.5 807.964 1325.52L845.163 1344.77C846.176 1345.27 847.261 1345.27 848.202 1344.98Z" fill="url(#paint21_linear_200_2)"/>
<path d="M833.079 1358.51C834.02 1358.22 834.816 1357.57 835.25 1356.63C836.264 1354.75 835.468 1352.44 833.586 1351.42L798.775 1333.48C796.893 1332.46 794.578 1333.26 793.564 1335.14C792.551 1337.02 793.347 1339.34 795.229 1340.35L830.04 1358.3C830.98 1358.8 832.066 1358.88 833.079 1358.51Z" fill="url(#paint22_linear_200_2)"/>
<path d="M736.318 1444.98H811.656L826.275 1393.03C826.275 1393.03 813.972 1372.91 787.412 1367.56C784.372 1369.3 781.043 1370.96 777.425 1372.62C751.516 1384.42 741.094 1401.78 737.114 1416.55C733.061 1432.18 736.318 1444.98 736.318 1444.98Z" fill="url(#paint23_linear_200_2)"/>
<path d="M736.318 1444.98H813.973V1416.47H737.186C733.061 1432.18 736.318 1444.98 736.318 1444.98Z" fill="url(#paint24_linear_200_2)"/>
<path d="M1033.55 622.325C1038.76 638.099 1041.65 652.861 1043.1 665.813L1143.48 652.21C1137.25 632.6 1128.28 614.51 1118 598.229L1033.55 622.325Z" fill="url(#paint25_linear_200_2)"/>
<path d="M787.772 261.828C815.346 293.088 844.946 309.079 844.946 309.079L860.868 304.882L924.555 288.167L915.436 225.287C867.526 197.211 823.669 142.073 795.878 101.841C776.7 74.1268 765.193 53.4319 765.193 53.4319C752.383 79.0473 745.363 102.854 742.613 124.706C735.303 184.982 760.561 230.931 787.772 261.828Z" fill="url(#paint26_linear_200_2)"/>
<path d="M787.772 261.828C815.345 293.088 844.945 309.079 844.945 309.079L860.867 304.882L893.145 275.576C801.088 249.889 759.257 169.28 742.756 124.706C735.302 184.982 760.56 230.93 787.772 261.828Z" fill="url(#paint27_linear_200_2)"/>
<path d="M765.554 395.404C780.101 473.119 889.455 459.732 889.455 459.732C888.08 473.264 882.796 484.479 877.947 492.367C873.171 500.109 868.756 504.451 868.756 504.451C880.987 509.009 892.349 512.049 902.988 513.93C977.458 527.099 1012.99 482.598 1012.99 482.598L1002.72 442.438L999.242 428.907C1035.28 415.086 1039.48 374.854 1039.48 374.854L1005.1 390.339C1057.5 362.264 1051.21 303.58 1051.21 303.58L1023.56 323.841C971.958 240.265 947.135 130.423 936.713 70.2193C932.009 43.012 930.2 26.0075 930.2 26.0075C930.2 26.0075 916.087 25.2839 900.672 38.0916C886.777 49.6691 871.868 72.3178 865.282 116.53C860.578 148.223 864.269 175.575 870.927 197.573C882.435 235.923 902.771 257.921 902.771 257.921C856.96 264.071 820.629 319.427 807.747 345.114C798.99 362.553 782.055 374.854 772.068 381.005C767.219 383.972 764.469 389.688 765.554 395.404Z" fill="url(#paint28_linear_200_2)"/>
<path d="M817.155 433.393C817.589 433.393 818.096 433.176 818.313 432.742C818.675 432.091 818.385 431.367 817.806 431.005C797.181 420.007 795.733 402.496 795.733 402.279C795.661 401.555 795.082 401.048 794.358 401.048C793.634 401.121 793.128 401.7 793.128 402.423C793.2 403.219 794.575 421.526 816.576 433.249C816.721 433.321 816.938 433.393 817.155 433.393Z" fill="#F87C38"/>
<path d="M871.071 197.645C882.578 235.996 902.914 257.993 902.914 257.993C920.718 253.073 942.719 257.559 942.719 257.559C892.71 186.212 897.197 77.5999 900.816 38.1638C886.92 49.7414 872.012 72.39 865.426 116.602C860.722 148.223 864.413 175.648 871.071 197.645Z" fill="url(#paint29_linear_200_2)"/>
<path d="M871.072 197.645C874.546 121.957 916.811 84.0401 936.785 70.2917C932.081 43.0844 930.272 26.0798 930.272 26.0798C930.272 26.0798 879.25 23.4749 865.427 116.602C860.723 148.223 864.414 175.648 871.072 197.645Z" fill="url(#paint30_linear_200_2)"/>
<path d="M870.639 395.622C858.168 395.622 848.059 385.514 848.059 373.045C848.059 360.577 858.168 350.469 870.639 350.469C883.109 350.469 893.219 360.577 893.219 373.045C893.219 385.514 883.109 395.622 870.639 395.622Z" fill="url(#paint31_linear_200_2)"/>
<path d="M865.282 373.118C862.005 373.118 859.348 370.461 859.348 367.184C859.348 363.907 862.005 361.251 865.282 361.251C868.56 361.251 871.217 363.907 871.217 367.184C871.217 370.461 868.56 373.118 865.282 373.118Z" fill="white"/>
<path d="M913.555 347.358C915.437 347.358 917.318 346.489 918.621 344.897C920.792 342.075 920.358 338.095 917.535 335.852C899.225 321.38 875.777 317.907 854.862 326.59C851.605 327.965 850.013 331.728 851.388 334.984C852.763 338.24 856.526 339.832 859.783 338.457C876.284 331.655 894.956 334.405 909.575 345.983C910.733 346.923 912.108 347.358 913.555 347.358Z" fill="#F87C38"/>
<path d="M806.299 386.215L781.114 389.543C777.567 390.05 775.469 393.885 777.206 397.069C779.666 401.7 784.587 407.416 794.358 409.587C795.371 409.804 796.384 409.732 797.397 409.297C800.943 407.85 809.338 403.364 812.089 392.582C812.957 389.109 809.917 385.781 806.299 386.215Z" fill="#F87C38"/>
<path d="M908.56 414.08C907.692 414.08 906.823 414.515 906.389 415.31C897.922 428.987 880.408 436.005 859.637 433.979C858.19 433.835 856.959 434.848 856.815 436.295C856.67 437.742 857.683 438.972 859.13 439.117C881.855 441.288 901.178 433.4 910.731 417.988C911.455 416.758 911.093 415.166 909.935 414.442C909.429 414.153 908.994 414.08 908.56 414.08Z" fill="#F87C38"/>
<path d="M908.401 391.989C904.238 383.039 913.555 369.882 929.211 362.602C944.867 355.321 960.933 356.675 965.097 365.625C969.26 374.575 959.943 387.732 944.287 395.012C928.631 402.293 912.565 400.939 908.401 391.989Z" fill="#FFCA83"/>
<path d="M877.947 492.294C937.291 496.129 953.141 432.091 953.141 432.091C926.725 452.858 889.454 459.66 889.454 459.66C888.079 473.191 882.795 484.48 877.947 492.294Z" fill="url(#paint32_linear_200_2)"/>
<path d="M902.987 513.857C977.458 527.099 1012.99 482.598 1012.99 482.598L1002.72 442.438C995.334 457.779 969.135 500.254 902.987 513.857Z" fill="url(#paint33_linear_200_2)"/>
<path d="M787.771 261.828C760.198 186.429 781.837 128.252 795.949 101.768C776.771 74.0544 765.264 53.3595 765.264 53.3595C717.209 149.67 750.645 219.715 787.771 261.828Z" fill="url(#paint34_linear_200_2)"/>
<path d="M674.728 799.606H856.814V522.468C856.814 489.11 829.747 462.265 796.601 462.265H735.013C701.65 462.265 674.8 489.327 674.8 522.468V799.606H674.728Z" fill="url(#paint35_linear_200_2)"/>
<path d="M610.318 462.265H794.865C761.502 462.265 734.652 489.327 734.652 522.468V1339.92C734.652 1385.72 697.453 1422.91 651.642 1422.91H550.105V522.541C550.105 489.183 577.171 462.265 610.318 462.265Z" fill="url(#paint36_linear_200_2)"/>
<path d="M530.708 1255.83C548.946 1255.83 563.927 1270.74 563.927 1289.05V1338.83C563.927 1385.65 601.777 1423.49 648.602 1423.49H483.812C436.987 1423.49 399.137 1385.65 399.137 1338.83V1255.83H530.708Z" fill="url(#paint37_linear_200_2)"/>
<path d="M388.281 1255.83H533.82C514.569 1255.83 498.937 1271.46 498.937 1290.71V1390.28C498.937 1408.51 484.029 1423.49 465.719 1423.49H353.326V1290.71C353.398 1271.39 369.03 1255.83 388.281 1255.83Z" fill="url(#paint38_linear_200_2)"/>
<path d="M424.105 1294.98H474.765C477.226 1294.98 479.252 1293.03 479.252 1290.5C479.252 1288.04 477.226 1286.01 474.765 1286.01H424.105C421.644 1286.01 419.618 1288.04 419.618 1290.5C419.618 1293.03 421.644 1294.98 424.105 1294.98ZM367.655 1315.89H474.765C477.226 1315.89 479.252 1313.87 479.252 1311.41C479.252 1308.95 477.226 1306.92 474.765 1306.92H367.727C365.267 1306.92 363.24 1308.88 363.24 1311.41C363.24 1313.87 365.194 1315.89 367.655 1315.89ZM381.767 1336.81H474.765C477.226 1336.81 479.252 1334.78 479.252 1332.32C479.252 1329.86 477.226 1327.83 474.765 1327.83H381.84C379.379 1327.83 377.353 1329.79 377.353 1332.32C377.28 1334.78 379.307 1336.81 381.767 1336.81ZM367.655 1357.86H474.765C477.226 1357.86 479.252 1355.91 479.252 1353.38C479.252 1350.92 477.226 1348.89 474.765 1348.89H367.727C365.267 1348.89 363.24 1350.84 363.24 1353.38C363.24 1355.69 365.194 1357.86 367.655 1357.86Z" fill="url(#paint39_linear_200_2)"/>
<path d="M316.416 1423.42H461.955C442.704 1423.42 427.072 1407.79 427.072 1388.54V1338.76C427.072 1320.53 412.163 1305.55 393.853 1305.55H281.46V1388.54C281.533 1407.79 297.165 1423.42 316.416 1423.42Z" fill="url(#paint40_linear_200_2)"/>
<path d="M248.531 1305.62H394.07C374.819 1305.62 359.187 1321.25 359.187 1340.5V1440.06C359.187 1458.3 344.279 1473.28 325.969 1473.28H213.576V1340.5C213.648 1321.18 229.28 1305.62 248.531 1305.62Z" fill="url(#paint41_linear_200_2)"/>
<path d="M284.574 1342.45H335.161C337.622 1342.45 339.648 1340.5 339.648 1337.96C339.648 1335.5 337.694 1333.48 335.161 1333.48H284.574C282.113 1333.48 280.087 1335.43 280.087 1337.96C280.087 1340.42 282.041 1342.45 284.574 1342.45ZM228.124 1363.51H335.161C337.622 1363.51 339.648 1361.55 339.648 1359.02C339.648 1356.56 337.694 1354.53 335.161 1354.53H228.124C225.663 1354.53 223.637 1356.49 223.637 1359.02C223.637 1361.55 225.591 1363.51 228.124 1363.51ZM242.236 1384.42H335.161C337.622 1384.42 339.648 1382.46 339.648 1379.93C339.648 1377.47 337.694 1375.45 335.161 1375.45H242.236C239.776 1375.45 237.749 1377.4 237.749 1379.93C237.749 1382.46 239.703 1384.42 242.236 1384.42Z" fill="url(#paint42_linear_200_2)"/>
<path d="M276.539 1417.63V1438.4C276.539 1457.65 292.171 1473.28 311.422 1473.28H165.883C146.632 1473.28 131 1457.65 131 1438.4V1417.63H276.539Z" fill="url(#paint43_linear_200_2)"/>
<path d="M646.72 536.578H706.281C709.249 536.578 711.564 534.263 711.564 531.296C711.564 528.329 709.249 526.014 706.281 526.014H646.72C643.752 526.014 641.436 528.329 641.436 531.296C641.364 534.263 643.68 536.578 646.72 536.578ZM580.282 561.325H706.281C709.249 561.325 711.564 559.01 711.564 556.043C711.564 553.076 709.249 550.761 706.281 550.761H580.282C577.315 550.761 574.999 553.076 574.999 556.043C574.999 559.01 577.315 561.325 580.282 561.325ZM596.928 586.072H706.281C709.249 586.072 711.564 583.757 711.564 580.79C711.564 577.823 709.249 575.508 706.281 575.508H596.928C593.961 575.508 591.645 577.823 591.645 580.79C591.645 583.757 593.888 586.072 596.928 586.072ZM580.282 610.82H706.281C709.249 610.82 711.564 608.504 711.564 605.537C711.564 602.571 709.249 600.255 706.281 600.255H580.282C577.315 600.255 574.999 602.571 574.999 605.537C574.999 608.287 577.315 610.82 580.282 610.82ZM613.501 635.349H706.281C709.249 635.349 711.564 633.034 711.564 630.067C711.564 627.1 709.249 624.785 706.281 624.785H613.501C610.534 624.785 608.218 627.1 608.218 630.067C608.218 633.034 610.534 635.349 613.501 635.349ZM646.72 701.052H706.281C709.249 701.052 711.564 698.737 711.564 695.77C711.564 692.803 709.249 690.488 706.281 690.488H646.72C643.752 690.488 641.436 692.803 641.436 695.77C641.364 698.592 643.68 701.052 646.72 701.052ZM580.282 725.655H706.281C709.249 725.655 711.564 723.339 711.564 720.372C711.564 717.406 709.249 715.09 706.281 715.09H580.282C577.315 715.09 574.999 717.406 574.999 720.372C574.999 723.267 577.315 725.655 580.282 725.655ZM596.928 750.329H706.281C709.249 750.329 711.564 748.014 711.564 745.047C711.564 742.08 709.249 739.765 706.281 739.765H596.928C593.961 739.765 591.645 742.08 591.645 745.047C591.572 748.014 593.888 750.329 596.928 750.329ZM580.282 775.076H706.281C709.249 775.076 711.564 772.761 711.564 769.794C711.564 766.827 709.249 764.512 706.281 764.512H580.282C577.315 764.512 574.999 766.827 574.999 769.794C574.999 772.616 577.315 775.076 580.282 775.076ZM613.501 799.606H706.281C709.249 799.606 711.564 797.291 711.564 794.324C711.564 791.357 709.249 789.042 706.281 789.042H613.501C610.534 789.042 608.218 791.357 608.218 794.324C608.218 797.291 610.534 799.606 613.501 799.606ZM646.72 865.381H706.281C709.249 865.381 711.564 863.066 711.564 860.099C711.564 857.132 709.249 854.817 706.281 854.817H646.72C643.752 854.817 641.436 857.132 641.436 860.099C641.364 862.849 643.68 865.381 646.72 865.381ZM580.282 889.911H706.281C709.249 889.911 711.564 887.596 711.564 884.629C711.564 881.662 709.249 879.347 706.281 879.347H580.282C577.315 879.347 574.999 881.662 574.999 884.629C574.999 887.596 577.315 889.911 580.282 889.911ZM596.928 914.658H706.281C709.249 914.658 711.564 912.343 711.564 909.376C711.564 906.41 709.249 904.094 706.281 904.094H596.928C593.961 904.094 591.645 906.41 591.645 909.376C591.572 912.343 593.888 914.658 596.928 914.658ZM580.282 939.333H706.281C709.249 939.333 711.564 937.018 711.564 934.051C711.564 931.084 709.249 928.769 706.281 928.769H580.282C577.315 928.769 574.999 931.084 574.999 934.051C574.999 936.873 577.315 939.333 580.282 939.333ZM613.501 963.936H706.281C709.249 963.936 711.564 961.62 711.564 958.653C711.564 955.687 709.249 953.371 706.281 953.371H613.501C610.534 953.371 608.218 955.687 608.218 958.653C608.218 961.62 610.534 963.936 613.501 963.936ZM646.72 1029.64H706.281C709.249 1029.64 711.564 1027.32 711.564 1024.36C711.564 1021.39 709.249 1019.07 706.281 1019.07H646.72C643.752 1019.07 641.436 1021.39 641.436 1024.36C641.364 1027.18 643.68 1029.64 646.72 1029.64ZM580.282 1054.17H706.281C709.249 1054.17 711.564 1051.85 711.564 1048.89C711.564 1045.92 709.249 1043.6 706.281 1043.6H580.282C577.315 1043.6 574.999 1045.92 574.999 1048.89C574.999 1051.85 577.315 1054.17 580.282 1054.17ZM596.928 1078.92H706.281C709.249 1078.92 711.564 1076.6 711.564 1073.63C711.564 1070.67 709.249 1068.35 706.281 1068.35H596.928C593.961 1068.35 591.645 1070.67 591.645 1073.63C591.572 1076.6 593.888 1078.92 596.928 1078.92ZM580.282 1103.66H706.281C709.249 1103.66 711.564 1101.35 711.564 1098.38C711.564 1095.41 709.249 1093.1 706.281 1093.1H580.282C577.315 1093.1 574.999 1095.41 574.999 1098.38C574.999 1101.35 577.315 1103.66 580.282 1103.66ZM613.501 1128.34H706.281C709.249 1128.34 711.564 1126.02 711.564 1123.05C711.564 1120.09 709.249 1117.77 706.281 1117.77H613.501C610.534 1117.77 608.218 1120.09 608.218 1123.05C608.218 1125.88 610.534 1128.34 613.501 1128.34ZM646.72 1193.9H706.281C709.249 1193.9 711.564 1191.58 711.564 1188.61C711.564 1185.65 709.249 1183.33 706.281 1183.33H646.72C643.752 1183.33 641.436 1185.65 641.436 1188.61C641.364 1191.58 643.68 1193.9 646.72 1193.9ZM580.282 1218.64H706.281C709.249 1218.64 711.564 1216.33 711.564 1213.36C711.564 1210.39 709.249 1208.08 706.281 1208.08H580.282C577.315 1208.08 574.999 1210.39 574.999 1213.36C574.999 1216.18 577.315 1218.64 580.282 1218.64ZM596.928 1243.24H706.281C709.249 1243.24 711.564 1240.93 711.564 1237.96C711.564 1235 709.249 1232.68 706.281 1232.68H596.928C593.961 1232.68 591.645 1235 591.645 1237.96C591.572 1240.86 593.888 1243.24 596.928 1243.24ZM580.282 1267.92H706.281C709.249 1267.92 711.564 1265.6 711.564 1262.64C711.564 1259.67 709.249 1257.35 706.281 1257.35H580.282C577.315 1257.35 574.999 1259.67 574.999 1262.64C574.999 1265.6 577.315 1267.92 580.282 1267.92ZM613.501 1292.67H706.281C709.249 1292.67 711.564 1290.35 711.564 1287.38C711.564 1284.42 709.249 1282.1 706.281 1282.1H613.501C610.534 1282.1 608.218 1284.42 608.218 1287.38C608.218 1290.13 610.534 1292.67 613.501 1292.67Z" fill="url(#paint44_linear_200_2)"/>
<path d="M786.762 719.504C786.762 720.3 786.834 721.024 787.051 721.819C788.137 726.74 792.407 730.213 797.4 730.286L819.618 730.647L822.296 735.568L825.625 741.574L831.922 753.007C831.922 753.079 831.994 753.079 831.994 753.151C833.079 755.177 834.31 757.059 835.612 758.94C843.573 770.445 854.863 779.346 868.107 784.338L868.397 784.411L908.491 799.462C935.847 753.224 922.458 712.123 922.458 712.123L905.017 711.183L893.655 703.006C879.976 691.284 861.16 687.521 844.008 693.02L794.288 709.084C789.729 710.748 786.762 714.945 786.762 719.504Z" fill="url(#paint45_linear_200_2)"/>
<path d="M868.397 784.555L908.491 799.606C935.847 753.368 922.458 712.268 922.458 712.268C922.458 712.268 926.511 768.564 868.397 784.555Z" fill="url(#paint46_linear_200_2)"/>
<path d="M822.296 735.64L825.625 741.646C832.066 736.291 846.54 726.885 868.396 726.161C868.396 726.161 855.225 723.122 841.981 726.161C834.02 727.97 826.783 732.384 822.296 735.64Z" fill="#F87C38"/>
<path d="M831.996 753.224C833.081 755.25 834.311 757.131 835.614 759.013C841.766 753.803 856.385 743.745 879.037 743.021C879.037 743.021 865.865 739.982 852.621 743.021C844.009 744.975 836.338 749.968 831.996 753.224Z" fill="#F87C38"/>
<path d="M1043.68 833.471C1044.47 833.543 1045.27 833.543 1045.99 833.615C1076.32 834.484 1123.94 834.05 1143.84 773.919C1126.62 769.36 1093.61 764.657 1067.2 785.569C1048.6 800.258 1043.75 818.637 1043.68 833.471Z" fill="url(#paint47_linear_200_2)"/>
<path d="M986.289 808.724C981.892 808.724 978.328 805.16 978.328 800.764C978.328 796.368 981.892 792.805 986.289 792.805C990.686 792.805 994.25 796.368 994.25 800.764C994.25 805.16 990.686 808.724 986.289 808.724Z" fill="url(#paint48_linear_200_2)"/>
<path d="M963.42 801.85C959.023 801.85 955.459 798.286 955.459 793.89C955.459 789.494 959.023 785.93 963.42 785.93C967.817 785.93 971.381 789.494 971.381 793.89C971.381 798.286 967.817 801.85 963.42 801.85Z" fill="url(#paint49_linear_200_2)"/>
<path d="M913.049 1307.07H1014.08V1399.69H913.049V1307.07Z" fill="url(#paint50_linear_200_2)"/>
<path d="M800.295 1444.98H1021.39L1021.61 1416.47L1021.97 1367.85C1021.97 1367.85 977.243 1378.77 947.064 1330.44H895.101C895.101 1330.44 891.555 1359.31 849.29 1368.93C844.948 1369.95 840.895 1371.18 837.276 1372.62C813.104 1382.18 803.913 1400.63 800.729 1416.55C797.689 1431.89 800.295 1444.98 800.295 1444.98Z" fill="url(#paint51_linear_200_2)"/>
<path d="M800.296 1444.98H882.221L888.734 1425.66C887.215 1423.35 881.063 1379.57 837.351 1372.55C813.178 1382.1 803.987 1400.55 800.803 1416.47C797.691 1431.89 800.296 1444.98 800.296 1444.98Z" fill="url(#paint52_linear_200_2)"/>
<path d="M800.295 1444.98H1021.39L1021.61 1416.47H800.729C797.69 1431.89 800.295 1444.98 800.295 1444.98Z" fill="url(#paint53_linear_200_2)"/>
<path d="M932.373 1392.96H1021.68V1416.4H932.373V1392.96Z" fill="url(#paint54_linear_200_2)"/>
<path d="M910.444 1380.08C911.385 1380.08 912.398 1379.72 913.122 1378.99C914.642 1377.54 914.714 1375.08 913.267 1373.56L884.246 1343.39C882.798 1341.87 880.338 1341.8 878.818 1343.25C877.298 1344.69 877.226 1347.15 878.673 1348.67L907.694 1378.85C908.418 1379.64 909.431 1380.08 910.444 1380.08Z" fill="url(#paint55_linear_200_2)"/>
<path d="M891.7 1388.04C892.641 1388.04 893.654 1387.67 894.378 1386.95C895.898 1385.5 895.97 1383.04 894.523 1381.52L867.383 1353.3C865.936 1351.78 863.475 1351.71 861.955 1353.16C860.436 1354.61 860.363 1357.07 861.811 1358.59L888.95 1386.81C889.674 1387.67 890.687 1388.04 891.7 1388.04Z" fill="url(#paint56_linear_200_2)"/>
<path d="M523.907 550.11V591.065C523.907 601.919 532.736 610.82 543.664 610.82C567.257 610.82 586.942 593.67 590.851 571.166C591.357 568.489 591.574 565.739 591.574 562.845V525.363C591.574 524.567 591.502 523.843 591.429 523.119C590.344 513.279 581.949 505.681 571.817 505.681H568.343C543.809 505.681 523.907 525.58 523.907 550.11Z" fill="url(#paint57_linear_200_2)"/>
<path d="M549.02 542.15C549.02 542.15 572.396 534.191 591.574 531.73V525.29C591.574 524.494 591.502 523.771 591.429 523.047C581.804 524.712 558.573 529.704 549.02 542.15ZM591.574 542.729V551.412C572.323 553.872 549.02 561.832 549.02 561.832C558.645 549.241 582.021 544.321 591.574 542.729ZM591.574 562.339V562.845C591.574 565.667 591.285 568.417 590.851 571.167C571.817 573.771 549.02 581.442 549.02 581.442C558.645 568.923 582.021 563.931 591.574 562.339Z" fill="#F87C38"/>
<path d="M897.054 1317.56H1030.72L1032.24 1282.03H897.488L897.054 1317.56Z" fill="url(#paint58_linear_200_2)"/>
<defs>
<linearGradient id="paint0_linear_200_2" x1="888.465" y1="1498.9" x2="888.465" y2="1270.19" gradientUnits="userSpaceOnUse">
<stop stop-color="#FF2A64"/>
<stop offset="1" stop-color="#FFAF48"/>
</linearGradient>
<linearGradient id="paint1_linear_200_2" x1="810.911" y1="834.978" x2="810.911" y2="1695.48" gradientUnits="userSpaceOnUse">
<stop stop-color="#03192E"/>
<stop offset="0.5" stop-color="#223C6A"/>
<stop offset="1" stop-color="#4A74A2"/>
</linearGradient>
<linearGradient id="paint2_linear_200_2" x1="846.322" y1="1576.02" x2="846.322" y2="1057.57" gradientUnits="userSpaceOnUse">
<stop stop-color="#03192E"/>
<stop offset="0.5" stop-color="#223C6A"/>
<stop offset="1" stop-color="#4A74A2"/>
</linearGradient>
<linearGradient id="paint3_linear_200_2" x1="854.774" y1="1358.07" x2="854.774" y2="588.515" gradientUnits="userSpaceOnUse">
<stop stop-color="#386E9F"/>
<stop offset="1" stop-color="white"/>
</linearGradient>
<linearGradient id="paint4_linear_200_2" x1="840.203" y1="1320.6" x2="875.221" y2="1089.55" gradientUnits="userSpaceOnUse">
<stop stop-color="#386E9F"/>
<stop offset="1" stop-color="white"/>
</linearGradient>
<linearGradient id="paint5_linear_200_2" x1="973.747" y1="834.978" x2="973.747" y2="1695.48" gradientUnits="userSpaceOnUse">
<stop stop-color="#03192E"/>
<stop offset="0.5" stop-color="#223C6A"/>
<stop offset="1" stop-color="#4A74A2"/>
</linearGradient>
<linearGradient id="paint6_linear_200_2" x1="967.084" y1="1576.02" x2="967.084" y2="1057.57" gradientUnits="userSpaceOnUse">
<stop stop-color="#03192E"/>
<stop offset="0.5" stop-color="#223C6A"/>
<stop offset="1" stop-color="#4A74A2"/>
</linearGradient>
<linearGradient id="paint7_linear_200_2" x1="1005.59" y1="1358.07" x2="1005.59" y2="588.515" gradientUnits="userSpaceOnUse">
<stop stop-color="#386E9F"/>
<stop offset="1" stop-color="white"/>
</linearGradient>
<linearGradient id="paint8_linear_200_2" x1="1014.4" y1="1069.7" x2="1014.4" y2="835.345" gradientUnits="userSpaceOnUse">
<stop stop-color="#03192E"/>
<stop offset="0.5" stop-color="#223C6A"/>
<stop offset="1" stop-color="#4A74A2"/>
</linearGradient>
<linearGradient id="paint9_linear_200_2" x1="886.507" y1="954.663" x2="886.507" y2="694.15" gradientUnits="userSpaceOnUse">
<stop stop-color="#03192E"/>
<stop offset="0.5" stop-color="#223C6A"/>
<stop offset="1" stop-color="#4A74A2"/>
</linearGradient>
<linearGradient id="paint10_linear_200_2" x1="937.751" y1="902.979" x2="1028.27" y2="171.152" gradientUnits="userSpaceOnUse">
<stop stop-color="#03192E"/>
<stop offset="0.5" stop-color="#223C6A"/>
<stop offset="1" stop-color="#4A74A2"/>
</linearGradient>
<linearGradient id="paint11_linear_200_2" x1="924.024" y1="887.606" x2="944.501" y2="752.498" gradientUnits="userSpaceOnUse">
<stop stop-color="#386E9F"/>
<stop offset="1" stop-color="white"/>
</linearGradient>
<linearGradient id="paint12_linear_200_2" x1="1031.69" y1="1078.27" x2="1030.02" y2="525.006" gradientUnits="userSpaceOnUse">
<stop stop-color="#03192E"/>
<stop offset="0.5" stop-color="#223C6A"/>
<stop offset="1" stop-color="#4A74A2"/>
</linearGradient>
<linearGradient id="paint13_linear_200_2" x1="882.788" y1="787.944" x2="963.949" y2="252.434" gradientUnits="userSpaceOnUse">
<stop stop-color="#386E9F"/>
<stop offset="1" stop-color="white"/>
</linearGradient>
<linearGradient id="paint14_linear_200_2" x1="869.229" y1="691.058" x2="933.062" y2="269.889" gradientUnits="userSpaceOnUse">
<stop stop-color="#03192E"/>
<stop offset="0.5" stop-color="#223C6A"/>
<stop offset="1" stop-color="#4A74A2"/>
</linearGradient>
<linearGradient id="paint15_linear_200_2" x1="918.807" y1="850.313" x2="956.524" y2="598.825" gradientUnits="userSpaceOnUse">
<stop stop-color="#386E9F"/>
<stop offset="1" stop-color="white"/>
</linearGradient>
<linearGradient id="paint16_linear_200_2" x1="833.112" y1="866.538" x2="889.269" y2="557.207" gradientUnits="userSpaceOnUse">
<stop stop-color="#FF2A64"/>
<stop offset="1" stop-color="#FFAF48"/>
</linearGradient>
<linearGradient id="paint17_linear_200_2" x1="886.659" y1="593.658" x2="897.554" y2="519.05" gradientUnits="userSpaceOnUse">
<stop stop-color="#FF2A64"/>
<stop offset="1" stop-color="#FFAF48"/>
</linearGradient>
<linearGradient id="paint18_linear_200_2" x1="934.458" y1="577.625" x2="934.458" y2="387.194" gradientUnits="userSpaceOnUse">
<stop stop-color="#386E9F"/>
<stop offset="1" stop-color="white"/>
</linearGradient>
<linearGradient id="paint19_linear_200_2" x1="1057.63" y1="817.248" x2="1060.98" y2="613.545" gradientUnits="userSpaceOnUse">
<stop stop-color="#03192E"/>
<stop offset="0.5" stop-color="#223C6A"/>
<stop offset="1" stop-color="#4A74A2"/>
</linearGradient>
<linearGradient id="paint20_linear_200_2" x1="836.873" y1="1485.64" x2="836.873" y2="1156.57" gradientUnits="userSpaceOnUse">
<stop stop-color="#03192E"/>
<stop offset="0.5" stop-color="#223C6A"/>
<stop offset="1" stop-color="#4A74A2"/>
</linearGradient>
<linearGradient id="paint21_linear_200_2" x1="850.541" y1="1354.7" x2="761.684" y2="1262.48" gradientUnits="userSpaceOnUse">
<stop stop-color="#386E9F"/>
<stop offset="1" stop-color="white"/>
</linearGradient>
<linearGradient id="paint22_linear_200_2" x1="836.212" y1="1368.51" x2="747.354" y2="1276.29" gradientUnits="userSpaceOnUse">
<stop stop-color="#386E9F"/>
<stop offset="1" stop-color="white"/>
</linearGradient>
<linearGradient id="paint23_linear_200_2" x1="780.695" y1="1469.84" x2="780.695" y2="1327.82" gradientUnits="userSpaceOnUse">
<stop stop-color="#03192E"/>
<stop offset="0.5" stop-color="#223C6A"/>
<stop offset="1" stop-color="#4A74A2"/>
</linearGradient>
<linearGradient id="paint24_linear_200_2" x1="774.544" y1="1438.91" x2="774.544" y2="1382.19" gradientUnits="userSpaceOnUse">
<stop stop-color="#386E9F"/>
<stop offset="1" stop-color="white"/>
</linearGradient>
<linearGradient id="paint25_linear_200_2" x1="1076.31" y1="751.282" x2="1093.91" y2="586.977" gradientUnits="userSpaceOnUse">
<stop stop-color="#FF2A64"/>
<stop offset="1" stop-color="#FFAF48"/>
</linearGradient>
<linearGradient id="paint26_linear_200_2" x1="1104.59" y1="520.259" x2="670.927" y2="40.6901" gradientUnits="userSpaceOnUse">
<stop stop-color="#FF2A64"/>
<stop offset="1" stop-color="#FFAF48"/>
</linearGradient>
<linearGradient id="paint27_linear_200_2" x1="969.382" y1="450.17" x2="693.321" y2="63.3987" gradientUnits="userSpaceOnUse">
<stop stop-color="#FF2A64"/>
<stop offset="1" stop-color="#FFAF48"/>
</linearGradient>
<linearGradient id="paint28_linear_200_2" x1="908.42" y1="862.901" x2="908.42" y2="331.298" gradientUnits="userSpaceOnUse">
<stop stop-color="#FF2A64"/>
<stop offset="1" stop-color="#FFAF48"/>
</linearGradient>
<linearGradient id="paint29_linear_200_2" x1="1024.22" y1="513.958" x2="902.4" y2="165.22" gradientUnits="userSpaceOnUse">
<stop stop-color="#FF2A64"/>
<stop offset="1" stop-color="#FFAF48"/>
</linearGradient>
<linearGradient id="paint30_linear_200_2" x1="879.691" y1="245.389" x2="916.57" y2="-16.717" gradientUnits="userSpaceOnUse">
<stop stop-color="#FF2A64"/>
<stop offset="1" stop-color="#FFAF48"/>
</linearGradient>
<linearGradient id="paint31_linear_200_2" x1="870.634" y1="385.252" x2="870.634" y2="310.592" gradientUnits="userSpaceOnUse">
<stop stop-color="#03192E"/>
<stop offset="0.5" stop-color="#223C6A"/>
<stop offset="1" stop-color="#4A74A2"/>
</linearGradient>
<linearGradient id="paint32_linear_200_2" x1="915.574" y1="565.051" x2="915.574" y2="323.661" gradientUnits="userSpaceOnUse">
<stop stop-color="#FF2A64"/>
<stop offset="1" stop-color="#FFAF48"/>
</linearGradient>
<linearGradient id="paint33_linear_200_2" x1="959.021" y1="631.752" x2="956.786" y2="340.029" gradientUnits="userSpaceOnUse">
<stop stop-color="#FF2A64"/>
<stop offset="1" stop-color="#FFAF48"/>
</linearGradient>
<linearGradient id="paint34_linear_200_2" x1="746.435" y1="412.814" x2="807.9" y2="-305.878" gradientUnits="userSpaceOnUse">
<stop stop-color="#FF2A64"/>
<stop offset="1" stop-color="#FFAF48"/>
</linearGradient>
<linearGradient id="paint35_linear_200_2" x1="765.773" y1="1918.04" x2="765.773" y2="595.948" gradientUnits="userSpaceOnUse">
<stop stop-color="#03192E"/>
<stop offset="0.5" stop-color="#223C6A"/>
<stop offset="1" stop-color="#4A74A2"/>
</linearGradient>
<linearGradient id="paint36_linear_200_2" x1="672.497" y1="1567.64" x2="672.497" y2="130.686" gradientUnits="userSpaceOnUse">
<stop stop-color="#386E9F"/>
<stop offset="1" stop-color="white"/>
</linearGradient>
<linearGradient id="paint37_linear_200_2" x1="523.785" y1="1918.04" x2="523.785" y2="595.947" gradientUnits="userSpaceOnUse">
<stop stop-color="#03192E"/>
<stop offset="0.5" stop-color="#223C6A"/>
<stop offset="1" stop-color="#4A74A2"/>
</linearGradient>
<linearGradient id="paint38_linear_200_2" x1="443.621" y1="1451.12" x2="443.621" y2="1158.38" gradientUnits="userSpaceOnUse">
<stop stop-color="#386E9F"/>
<stop offset="1" stop-color="white"/>
</linearGradient>
<linearGradient id="paint39_linear_200_2" x1="421.212" y1="1469.56" x2="421.212" y2="1233.99" gradientUnits="userSpaceOnUse">
<stop stop-color="#386E9F"/>
<stop offset="1" stop-color="white"/>
</linearGradient>
<linearGradient id="paint40_linear_200_2" x1="371.755" y1="1918.04" x2="371.755" y2="595.949" gradientUnits="userSpaceOnUse">
<stop stop-color="#03192E"/>
<stop offset="0.5" stop-color="#223C6A"/>
<stop offset="1" stop-color="#4A74A2"/>
</linearGradient>
<linearGradient id="paint41_linear_200_2" x1="303.871" y1="1517.34" x2="303.871" y2="1214.66" gradientUnits="userSpaceOnUse">
<stop stop-color="#386E9F"/>
<stop offset="1" stop-color="white"/>
</linearGradient>
<linearGradient id="paint42_linear_200_2" x1="281.634" y1="1477.94" x2="281.634" y2="1322.02" gradientUnits="userSpaceOnUse">
<stop stop-color="#386E9F"/>
<stop offset="1" stop-color="white"/>
</linearGradient>
<linearGradient id="paint43_linear_200_2" x1="221.216" y1="1918.04" x2="221.216" y2="595.949" gradientUnits="userSpaceOnUse">
<stop stop-color="#03192E"/>
<stop offset="0.5" stop-color="#223C6A"/>
<stop offset="1" stop-color="#4A74A2"/>
</linearGradient>
<linearGradient id="paint44_linear_200_2" x1="643.285" y1="1620.32" x2="643.285" y2="626.953" gradientUnits="userSpaceOnUse">
<stop stop-color="#386E9F"/>
<stop offset="0.3591" stop-color="#7FA2C1"/>
<stop offset="1" stop-color="white"/>
</linearGradient>
<linearGradient id="paint45_linear_200_2" x1="967.031" y1="926.749" x2="837.947" y2="686.143" gradientUnits="userSpaceOnUse">
<stop stop-color="#FF2A64"/>
<stop offset="1" stop-color="#FFAF48"/>
</linearGradient>
<linearGradient id="paint46_linear_200_2" x1="915.762" y1="907.527" x2="881.397" y2="632.568" gradientUnits="userSpaceOnUse">
<stop stop-color="#FF2A64"/>
<stop offset="1" stop-color="#FFAF48"/>
</linearGradient>
<linearGradient id="paint47_linear_200_2" x1="1088.05" y1="836.051" x2="1124.92" y2="610.55" gradientUnits="userSpaceOnUse">
<stop stop-color="#03192E"/>
<stop offset="0.5" stop-color="#223C6A"/>
<stop offset="1" stop-color="#4A74A2"/>
</linearGradient>
<linearGradient id="paint48_linear_200_2" x1="986.301" y1="828.951" x2="986.301" y2="775.508" gradientUnits="userSpaceOnUse">
<stop/>
<stop offset="1" stop-color="white"/>
</linearGradient>
<linearGradient id="paint49_linear_200_2" x1="963.385" y1="822.109" x2="963.385" y2="768.665" gradientUnits="userSpaceOnUse">
<stop/>
<stop offset="1" stop-color="white"/>
</linearGradient>
<linearGradient id="paint50_linear_200_2" x1="963.571" y1="1498.9" x2="963.571" y2="1270.19" gradientUnits="userSpaceOnUse">
<stop stop-color="#FF2A64"/>
<stop offset="1" stop-color="#FFAF48"/>
</linearGradient>
<linearGradient id="paint51_linear_200_2" x1="910.134" y1="1436.8" x2="953.088" y2="1153.39" gradientUnits="userSpaceOnUse">
<stop stop-color="#03192E"/>
<stop offset="0.5" stop-color="#223C6A"/>
<stop offset="1" stop-color="#4A74A2"/>
</linearGradient>
<linearGradient id="paint52_linear_200_2" x1="844" y1="1580.49" x2="844" y2="1317.81" gradientUnits="userSpaceOnUse">
<stop stop-color="#03192E"/>
<stop offset="0.5" stop-color="#223C6A"/>
<stop offset="1" stop-color="#4A74A2"/>
</linearGradient>
<linearGradient id="paint53_linear_200_2" x1="910.459" y1="1474.71" x2="910.459" y2="1335.09" gradientUnits="userSpaceOnUse">
<stop stop-color="#386E9F"/>
<stop offset="1" stop-color="white"/>
</linearGradient>
<linearGradient id="paint54_linear_200_2" x1="976.998" y1="1517.9" x2="976.998" y2="1383.66" gradientUnits="userSpaceOnUse">
<stop stop-color="#FF2A64"/>
<stop offset="1" stop-color="#FFAF48"/>
</linearGradient>
<linearGradient id="paint55_linear_200_2" x1="912.479" y1="1387.01" x2="854.361" y2="1295.91" gradientUnits="userSpaceOnUse">
<stop stop-color="#386E9F"/>
<stop offset="1" stop-color="white"/>
</linearGradient>
<linearGradient id="paint56_linear_200_2" x1="895.782" y1="1397.66" x2="837.665" y2="1306.56" gradientUnits="userSpaceOnUse">
<stop stop-color="#386E9F"/>
<stop offset="1" stop-color="white"/>
</linearGradient>
<linearGradient id="paint57_linear_200_2" x1="557.757" y1="777.975" x2="557.757" y2="540.734" gradientUnits="userSpaceOnUse">
<stop stop-color="#FF2A64"/>
<stop offset="1" stop-color="#FFAF48"/>
</linearGradient>
<linearGradient id="paint58_linear_200_2" x1="957.778" y1="1341.56" x2="975.357" y2="1225.57" gradientUnits="userSpaceOnUse">
<stop stop-color="#386E9F"/>
<stop offset="1" stop-color="white"/>
</linearGradient>
</defs>
</svg>
