<svg xmlns="http://www.w3.org/2000/svg" width="169" height="32"><path d="M23 21.302L18.5 24 14 21.302V6.699L18.5 4 23 6.699v14.603zM35.96 9.515v12.769a1.07 1.07 0 0 1-.29 2.101c-.292 0-.555-.117-.75-.305l-11.054 6.382c.022.085.037.172.037.263a1.073 1.073 0 1 1-2.11-.263l-3.422-1.976-3.422 1.976c.022.085.036.172.036.263a1.072 1.072 0 1 1-2.145 0c0-.091.015-.178.037-.263L1.822 24.08a1.068 1.068 0 0 1-.75.305c-.591 0-.872-.48-.872-1.073 0-.491.35-.9.8-1.028V9.514C.55 9.389.2 8.978.2 8.487c0-.593.28-1.073.873-1.073.292 0 .555.118.749.306l11.055-6.382a1.052 1.052 0 0 1-.037-.264 1.073 1.073 0 0 1 2.145 0c0 .092-.014.18-.036.264l3.422 1.976 3.422-1.976a1.102 1.102 0 0 1-.036-.264 1.073 1.073 0 0 1 2.146 0c0 .092-.015.18-.037.264L34.921 7.72a1.073 1.073 0 0 1 1.822.767c0 .492-.333.902-.784 1.029zM27 23.48l-8.049 4.67 3.13 1.808a1.067 1.067 0 0 1 1.498 0l11.054-6.382a1.068 1.068 0 0 1-.036-.264c0-.491.332-.9.782-1.028V9.514a1.07 1.07 0 0 1-.782-1.028c0-.091.014-.179.036-.263L23.579 1.84a1.07 1.07 0 0 1-1.498 0l-3.13 1.808L27 8.318V23.48zm-17 0V8.319l8.028-4.671-3.13-1.808a1.07 1.07 0 0 1-1.497 0L2.347 8.223c.021.084.036.172.036.263 0 .491-.332.902-.783 1.029v12.769c.45.128.783.537.783 1.028 0 .092-.015.18-.036.264L13.4 29.958a1.069 1.069 0 0 1 1.497 0l3.13-1.807L10 23.48zm46.46-5.825c0 1.148-.094 1.485-.33 1.957-.472.901-1.226 1.25-2.64 1.25-1.344 0-2.05-.287-2.546-1.065-.33-.513-.448-.851-.448-2.142V8.47H47.41v9.184c0 1.988.212 2.703.825 3.503 1.013 1.352 2.64 2.154 5.256 2.154 2.428 0 3.936-.719 5.02-1.887.779-.862 1.038-1.618 1.038-3.77V8.47H56.46v9.184zm30.973 5.452h3.088V8.472h-3.088zm-10.91-5.239l-6.234-9.396h-3.201v14.635h3.089v-9.522l6.317 9.522h3.117V8.472h-3.088zm89.181-9.396v9.396l-6.234-9.396h-3.201v14.635h3.087v-9.522l6.318 9.522h3.118V8.472zm-42.231-.222c2.2 0 3.635.471 4.711 1.536.98.965 1.34 2.153 1.34 4.428v3.116c0 2.07-.312 3.218-1.101 4.161-1.028 1.23-2.583 1.804-4.95 1.804s-3.922-.574-4.95-1.804c-.79-.943-1.1-2.09-1.1-4.161v-3.116c0-2.275.359-3.463 1.339-4.428 1.076-1.065 2.511-1.537 4.711-1.537zm2.918 8.933v-2.746c0-2.539-.755-3.775-2.918-3.793-2.163.018-2.918 1.254-2.918 3.793v2.746c0 2.41.744 3.68 2.918 3.694 2.174-.013 2.918-1.283 2.918-3.694zm22.322-4.468c0 1.799-.97 3.53-3.026 4.103l3.724 6.29h-3.669l-3.252-5.986h-2.43v5.985h-3.088V8.472h6.2c2.168 0 3.31.346 4.205 1.105.826.737 1.336 1.661 1.336 3.138zm-5.754 2.216c1.839 0 2.593-.904 2.593-2.093 0-1.116-.778-2.021-2.687-2.021h-2.852v4.114h2.946zm-38.748-4.287c1.794.014 2.61.882 2.839 2.62h3.183c-.097-1.67-.478-2.659-1.311-3.478-1.076-1.065-2.51-1.537-4.711-1.537-2.2 0-3.635.472-4.71 1.537-.981.964-1.34 2.153-1.34 4.428v3.115c0 2.07.31 3.22 1.1 4.162 1.028 1.23 2.583 1.804 4.95 1.804 2.368 0 3.922-.575 4.95-1.804.662-.79.984-1.733 1.072-3.233h-3.175c-.218 1.705-1.027 2.608-2.847 2.619-2.174-.013-2.918-1.282-2.918-3.694v-2.747c0-2.538.755-3.774 2.918-3.792" fill-rule="evenodd"/></svg>