<svg width="155" height="45" viewBox="0 0 155 45" fill="none" xmlns="http://www.w3.org/2000/svg">
<path d="M64.5382 29.5221H54.8792L52.6811 33.8521H47.4521L59.3421 10.5021H60.7081L71.7322 33.8521H66.5701L64.5382 29.5221ZM62.3401 24.8591L59.9091 19.6641L57.2781 24.8591H62.3401Z" fill="black"/>
<path d="M80.1593 23.96C79.3923 23.761 77.9613 23.394 76.6293 22.495C74.7643 21.263 73.7313 19.464 73.6313 17.231C73.5313 15.367 74.1313 13.735 75.3303 12.469C77.0613 10.67 79.5603 10.17 80.7583 10.17C84.1543 10.17 86.0553 11.402 87.7533 12.501L88.5203 13.001L86.0873 16.965L85.2553 16.432C83.7553 15.467 82.7903 14.833 80.7583 14.833C80.4583 14.833 79.2923 15.066 78.6943 15.699C78.4963 15.898 78.2623 16.263 78.2973 17.031C78.3303 18.23 79.1623 18.896 81.2943 19.427C81.5623 19.494 81.7603 19.562 81.9603 19.627C84.1903 20.394 85.9243 21.425 87.1233 22.724C88.3213 24.057 88.9543 25.622 88.9543 27.287C88.9543 28.919 88.2553 30.618 87.0903 31.917C85.7263 33.448 83.8253 34.313 81.7283 34.313C80.6973 34.313 79.2953 34.248 77.6313 33.748C75.5333 33.082 73.6683 31.917 72.0693 30.218L75.4663 27.021C77.9313 29.654 80.6953 29.654 81.7283 29.654C83.6613 29.654 84.2913 27.888 84.2913 27.29C84.2913 26.023 82.8583 24.857 80.4293 24.023L80.3283 23.992L80.1593 23.96Z" fill="black"/>
<path d="M109.068 10.505V15.168H102.607V33.853H97.9452V15.168H91.4512V10.505H109.068Z" fill="black"/>
<path d="M123.925 33.852L119.563 24.493H117.231V33.819H112.569V10.472H121.362C125.225 10.472 128.356 13.636 128.356 17.499C128.356 20.33 126.69 22.763 124.258 23.86L128.887 33.852H123.925ZM117.23 15.136V19.831H121.359C122.659 19.831 123.691 18.798 123.691 17.499C123.691 16.2 122.659 15.136 121.359 15.136H117.23V15.136Z" fill="black"/>
<path d="M147.807 29.5221H138.147L135.952 33.8521H130.723L142.612 10.5031H143.977L155 33.8521H149.838L147.807 29.5221ZM145.607 24.8591L143.174 19.6641L140.542 24.8591H145.607Z" fill="black"/>
<path d="M22.245 2.245C27.586 2.245 32.609 4.325 36.388 8.101C40.165 11.879 42.245 16.903 42.245 22.245C42.245 27.586 40.164 32.611 36.388 36.388C32.61 40.163 27.588 42.245 22.245 42.245C16.904 42.245 11.881 40.165 8.103 36.388C4.327 32.612 2.245 27.588 2.245 22.245C2.245 16.903 4.326 11.88 8.102 8.102C11.881 4.325 16.904 2.245 22.245 2.245ZM22.245 0C9.959 0 0 9.96 0 22.245C0 34.53 9.959 44.49 22.245 44.49C34.531 44.49 44.491 34.53 44.491 22.245C44.491 9.96 34.531 0 22.245 0Z" fill="black"/>
<path d="M21.9778 9.86806C21.9778 9.86706 21.9768 9.86706 21.9778 9.86806C18.2098 17.8191 14.4418 25.7741 10.6748 33.7251C12.2888 33.7251 13.9038 33.7251 15.5188 33.7251C18.5668 27.5691 21.6168 21.4111 24.6658 15.2511L21.9778 9.86806Z" fill="black"/>
<path d="M27.0001 19.733C25.4451 22.962 23.8901 26.192 22.3351 29.421L22.2451 29.601H22.3351C23.8301 29.601 25.3251 29.601 26.8201 29.601C27.4181 30.976 28.0161 32.353 28.6141 33.728C30.3481 33.728 32.0821 33.728 33.8161 33.728C31.5441 29.061 29.2711 24.397 27.0001 19.733Z" fill="black"/>
</svg>
